%TF.GenerationSoftware,KiCad,Pcbnew,(6.0.9)*%
%TF.CreationDate,2022-12-24T03:55:55+03:00*%
%TF.ProjectId,new-pcb,6e65772d-7063-4622-9e6b-696361645f70,rev?*%
%TF.SameCoordinates,Original*%
%TF.FileFunction,Drillmap*%
%TF.FilePolarity,Positive*%
%FSLAX45Y45*%
G04 Gerber Fmt 4.5, Leading zero omitted, Abs format (unit mm)*
G04 Created by KiCad (PCBNEW (6.0.9)) date 2022-12-24 03:55:55*
%MOMM*%
%LPD*%
G01*
G04 APERTURE LIST*
%ADD10C,0.100000*%
%ADD11C,0.200000*%
%ADD12C,0.150000*%
%ADD13C,0.180000*%
G04 APERTURE END LIST*
D10*
X20150000Y-4350000D02*
G75*
G03*
X19700000Y-3900000I-450000J0D01*
G01*
X10950000Y-3900000D02*
G75*
G03*
X10500000Y-4350000I0J-450000D01*
G01*
X10500000Y-13400000D02*
G75*
G03*
X10950000Y-13850000I450000J0D01*
G01*
X19700000Y-13850000D02*
G75*
G03*
X20150000Y-13400000I0J450000D01*
G01*
X10950000Y-13850000D02*
X19700000Y-13850000D01*
X10500000Y-4350000D02*
X10500000Y-13400000D01*
X19700000Y-3900000D02*
X10950000Y-3900000D01*
X20150000Y-13400000D02*
X20150000Y-4350000D01*
D11*
D12*
X11108000Y-7522500D02*
X11258000Y-7672500D01*
X11258000Y-7522500D02*
X11108000Y-7672500D01*
X11108000Y-8007500D02*
X11258000Y-8157500D01*
X11258000Y-8007500D02*
X11108000Y-8157500D01*
D13*
X10970000Y-7567500D02*
G75*
G03*
X10970000Y-7567500I-90000J0D01*
G01*
X10970000Y-8112500D02*
G75*
G03*
X10970000Y-8112500I-90000J0D01*
G01*
D11*
X10752619Y-14165476D02*
X10752619Y-13965476D01*
X10800238Y-13965476D01*
X10828810Y-13975000D01*
X10847857Y-13994048D01*
X10857381Y-14013095D01*
X10866905Y-14051190D01*
X10866905Y-14079762D01*
X10857381Y-14117857D01*
X10847857Y-14136905D01*
X10828810Y-14155952D01*
X10800238Y-14165476D01*
X10752619Y-14165476D01*
X10952619Y-14165476D02*
X10952619Y-14032143D01*
X10952619Y-14070238D02*
X10962143Y-14051190D01*
X10971667Y-14041667D01*
X10990714Y-14032143D01*
X11009762Y-14032143D01*
X11076429Y-14165476D02*
X11076429Y-14032143D01*
X11076429Y-13965476D02*
X11066905Y-13975000D01*
X11076429Y-13984524D01*
X11085952Y-13975000D01*
X11076429Y-13965476D01*
X11076429Y-13984524D01*
X11200238Y-14165476D02*
X11181190Y-14155952D01*
X11171667Y-14136905D01*
X11171667Y-13965476D01*
X11305000Y-14165476D02*
X11285952Y-14155952D01*
X11276428Y-14136905D01*
X11276428Y-13965476D01*
X11533571Y-14165476D02*
X11533571Y-13965476D01*
X11600238Y-14108333D01*
X11666905Y-13965476D01*
X11666905Y-14165476D01*
X11847857Y-14165476D02*
X11847857Y-14060714D01*
X11838333Y-14041667D01*
X11819286Y-14032143D01*
X11781190Y-14032143D01*
X11762143Y-14041667D01*
X11847857Y-14155952D02*
X11828809Y-14165476D01*
X11781190Y-14165476D01*
X11762143Y-14155952D01*
X11752619Y-14136905D01*
X11752619Y-14117857D01*
X11762143Y-14098809D01*
X11781190Y-14089286D01*
X11828809Y-14089286D01*
X11847857Y-14079762D01*
X11943095Y-14032143D02*
X11943095Y-14232143D01*
X11943095Y-14041667D02*
X11962143Y-14032143D01*
X12000238Y-14032143D01*
X12019286Y-14041667D01*
X12028809Y-14051190D01*
X12038333Y-14070238D01*
X12038333Y-14127381D01*
X12028809Y-14146428D01*
X12019286Y-14155952D01*
X12000238Y-14165476D01*
X11962143Y-14165476D01*
X11943095Y-14155952D01*
X12124048Y-14146428D02*
X12133571Y-14155952D01*
X12124048Y-14165476D01*
X12114524Y-14155952D01*
X12124048Y-14146428D01*
X12124048Y-14165476D01*
X12124048Y-14041667D02*
X12133571Y-14051190D01*
X12124048Y-14060714D01*
X12114524Y-14051190D01*
X12124048Y-14041667D01*
X12124048Y-14060714D01*
D12*
X10345000Y-14420000D02*
X10495000Y-14570000D01*
X10495000Y-14420000D02*
X10345000Y-14570000D01*
D11*
X10857381Y-14585476D02*
X10743095Y-14585476D01*
X10800238Y-14585476D02*
X10800238Y-14385476D01*
X10781190Y-14414048D01*
X10762143Y-14433095D01*
X10743095Y-14442619D01*
X10943095Y-14566428D02*
X10952619Y-14575952D01*
X10943095Y-14585476D01*
X10933571Y-14575952D01*
X10943095Y-14566428D01*
X10943095Y-14585476D01*
X11133571Y-14385476D02*
X11038333Y-14385476D01*
X11028810Y-14480714D01*
X11038333Y-14471190D01*
X11057381Y-14461667D01*
X11105000Y-14461667D01*
X11124048Y-14471190D01*
X11133571Y-14480714D01*
X11143095Y-14499762D01*
X11143095Y-14547381D01*
X11133571Y-14566428D01*
X11124048Y-14575952D01*
X11105000Y-14585476D01*
X11057381Y-14585476D01*
X11038333Y-14575952D01*
X11028810Y-14566428D01*
X11266905Y-14385476D02*
X11285952Y-14385476D01*
X11305000Y-14395000D01*
X11314524Y-14404524D01*
X11324048Y-14423571D01*
X11333571Y-14461667D01*
X11333571Y-14509286D01*
X11324048Y-14547381D01*
X11314524Y-14566428D01*
X11305000Y-14575952D01*
X11285952Y-14585476D01*
X11266905Y-14585476D01*
X11247857Y-14575952D01*
X11238333Y-14566428D01*
X11228809Y-14547381D01*
X11219286Y-14509286D01*
X11219286Y-14461667D01*
X11228809Y-14423571D01*
X11238333Y-14404524D01*
X11247857Y-14395000D01*
X11266905Y-14385476D01*
X11457381Y-14385476D02*
X11476428Y-14385476D01*
X11495476Y-14395000D01*
X11505000Y-14404524D01*
X11514524Y-14423571D01*
X11524048Y-14461667D01*
X11524048Y-14509286D01*
X11514524Y-14547381D01*
X11505000Y-14566428D01*
X11495476Y-14575952D01*
X11476428Y-14585476D01*
X11457381Y-14585476D01*
X11438333Y-14575952D01*
X11428809Y-14566428D01*
X11419286Y-14547381D01*
X11409762Y-14509286D01*
X11409762Y-14461667D01*
X11419286Y-14423571D01*
X11428809Y-14404524D01*
X11438333Y-14395000D01*
X11457381Y-14385476D01*
X11609762Y-14585476D02*
X11609762Y-14452143D01*
X11609762Y-14471190D02*
X11619286Y-14461667D01*
X11638333Y-14452143D01*
X11666905Y-14452143D01*
X11685952Y-14461667D01*
X11695476Y-14480714D01*
X11695476Y-14585476D01*
X11695476Y-14480714D02*
X11705000Y-14461667D01*
X11724048Y-14452143D01*
X11752619Y-14452143D01*
X11771667Y-14461667D01*
X11781190Y-14480714D01*
X11781190Y-14585476D01*
X11876428Y-14585476D02*
X11876428Y-14452143D01*
X11876428Y-14471190D02*
X11885952Y-14461667D01*
X11905000Y-14452143D01*
X11933571Y-14452143D01*
X11952619Y-14461667D01*
X11962143Y-14480714D01*
X11962143Y-14585476D01*
X11962143Y-14480714D02*
X11971667Y-14461667D01*
X11990714Y-14452143D01*
X12019286Y-14452143D01*
X12038333Y-14461667D01*
X12047857Y-14480714D01*
X12047857Y-14585476D01*
X12438333Y-14375952D02*
X12266905Y-14633095D01*
X12695476Y-14385476D02*
X12714524Y-14385476D01*
X12733571Y-14395000D01*
X12743095Y-14404524D01*
X12752619Y-14423571D01*
X12762143Y-14461667D01*
X12762143Y-14509286D01*
X12752619Y-14547381D01*
X12743095Y-14566428D01*
X12733571Y-14575952D01*
X12714524Y-14585476D01*
X12695476Y-14585476D01*
X12676428Y-14575952D01*
X12666905Y-14566428D01*
X12657381Y-14547381D01*
X12647857Y-14509286D01*
X12647857Y-14461667D01*
X12657381Y-14423571D01*
X12666905Y-14404524D01*
X12676428Y-14395000D01*
X12695476Y-14385476D01*
X12847857Y-14566428D02*
X12857381Y-14575952D01*
X12847857Y-14585476D01*
X12838333Y-14575952D01*
X12847857Y-14566428D01*
X12847857Y-14585476D01*
X12981190Y-14385476D02*
X13000238Y-14385476D01*
X13019286Y-14395000D01*
X13028809Y-14404524D01*
X13038333Y-14423571D01*
X13047857Y-14461667D01*
X13047857Y-14509286D01*
X13038333Y-14547381D01*
X13028809Y-14566428D01*
X13019286Y-14575952D01*
X13000238Y-14585476D01*
X12981190Y-14585476D01*
X12962143Y-14575952D01*
X12952619Y-14566428D01*
X12943095Y-14547381D01*
X12933571Y-14509286D01*
X12933571Y-14461667D01*
X12943095Y-14423571D01*
X12952619Y-14404524D01*
X12962143Y-14395000D01*
X12981190Y-14385476D01*
X13228809Y-14385476D02*
X13133571Y-14385476D01*
X13124048Y-14480714D01*
X13133571Y-14471190D01*
X13152619Y-14461667D01*
X13200238Y-14461667D01*
X13219286Y-14471190D01*
X13228809Y-14480714D01*
X13238333Y-14499762D01*
X13238333Y-14547381D01*
X13228809Y-14566428D01*
X13219286Y-14575952D01*
X13200238Y-14585476D01*
X13152619Y-14585476D01*
X13133571Y-14575952D01*
X13124048Y-14566428D01*
X13333571Y-14585476D02*
X13371667Y-14585476D01*
X13390714Y-14575952D01*
X13400238Y-14566428D01*
X13419286Y-14537857D01*
X13428809Y-14499762D01*
X13428809Y-14423571D01*
X13419286Y-14404524D01*
X13409762Y-14395000D01*
X13390714Y-14385476D01*
X13352619Y-14385476D01*
X13333571Y-14395000D01*
X13324048Y-14404524D01*
X13314524Y-14423571D01*
X13314524Y-14471190D01*
X13324048Y-14490238D01*
X13333571Y-14499762D01*
X13352619Y-14509286D01*
X13390714Y-14509286D01*
X13409762Y-14499762D01*
X13419286Y-14490238D01*
X13428809Y-14471190D01*
X13619286Y-14585476D02*
X13505000Y-14585476D01*
X13562143Y-14585476D02*
X13562143Y-14385476D01*
X13543095Y-14414048D01*
X13524048Y-14433095D01*
X13505000Y-14442619D01*
X13695476Y-14385476D02*
X13695476Y-14423571D01*
X13771667Y-14385476D02*
X13771667Y-14423571D01*
X14066905Y-14661667D02*
X14057381Y-14652143D01*
X14038333Y-14623571D01*
X14028809Y-14604524D01*
X14019286Y-14575952D01*
X14009762Y-14528333D01*
X14009762Y-14490238D01*
X14019286Y-14442619D01*
X14028809Y-14414048D01*
X14038333Y-14395000D01*
X14057381Y-14366428D01*
X14066905Y-14356905D01*
X14133571Y-14404524D02*
X14143095Y-14395000D01*
X14162143Y-14385476D01*
X14209762Y-14385476D01*
X14228809Y-14395000D01*
X14238333Y-14404524D01*
X14247857Y-14423571D01*
X14247857Y-14442619D01*
X14238333Y-14471190D01*
X14124048Y-14585476D01*
X14247857Y-14585476D01*
X14485952Y-14585476D02*
X14485952Y-14385476D01*
X14571667Y-14585476D02*
X14571667Y-14480714D01*
X14562143Y-14461667D01*
X14543095Y-14452143D01*
X14514524Y-14452143D01*
X14495476Y-14461667D01*
X14485952Y-14471190D01*
X14695476Y-14585476D02*
X14676428Y-14575952D01*
X14666905Y-14566428D01*
X14657381Y-14547381D01*
X14657381Y-14490238D01*
X14666905Y-14471190D01*
X14676428Y-14461667D01*
X14695476Y-14452143D01*
X14724048Y-14452143D01*
X14743095Y-14461667D01*
X14752619Y-14471190D01*
X14762143Y-14490238D01*
X14762143Y-14547381D01*
X14752619Y-14566428D01*
X14743095Y-14575952D01*
X14724048Y-14585476D01*
X14695476Y-14585476D01*
X14876428Y-14585476D02*
X14857381Y-14575952D01*
X14847857Y-14556905D01*
X14847857Y-14385476D01*
X15028809Y-14575952D02*
X15009762Y-14585476D01*
X14971667Y-14585476D01*
X14952619Y-14575952D01*
X14943095Y-14556905D01*
X14943095Y-14480714D01*
X14952619Y-14461667D01*
X14971667Y-14452143D01*
X15009762Y-14452143D01*
X15028809Y-14461667D01*
X15038333Y-14480714D01*
X15038333Y-14499762D01*
X14943095Y-14518809D01*
X15114524Y-14575952D02*
X15133571Y-14585476D01*
X15171667Y-14585476D01*
X15190714Y-14575952D01*
X15200238Y-14556905D01*
X15200238Y-14547381D01*
X15190714Y-14528333D01*
X15171667Y-14518809D01*
X15143095Y-14518809D01*
X15124048Y-14509286D01*
X15114524Y-14490238D01*
X15114524Y-14480714D01*
X15124048Y-14461667D01*
X15143095Y-14452143D01*
X15171667Y-14452143D01*
X15190714Y-14461667D01*
X15266905Y-14661667D02*
X15276428Y-14652143D01*
X15295476Y-14623571D01*
X15305000Y-14604524D01*
X15314524Y-14575952D01*
X15324048Y-14528333D01*
X15324048Y-14490238D01*
X15314524Y-14442619D01*
X15305000Y-14414048D01*
X15295476Y-14395000D01*
X15276428Y-14366428D01*
X15266905Y-14356905D01*
X15628809Y-14661667D02*
X15619286Y-14652143D01*
X15600238Y-14623571D01*
X15590714Y-14604524D01*
X15581190Y-14575952D01*
X15571667Y-14528333D01*
X15571667Y-14490238D01*
X15581190Y-14442619D01*
X15590714Y-14414048D01*
X15600238Y-14395000D01*
X15619286Y-14366428D01*
X15628809Y-14356905D01*
X15705000Y-14452143D02*
X15705000Y-14585476D01*
X15705000Y-14471190D02*
X15714524Y-14461667D01*
X15733571Y-14452143D01*
X15762143Y-14452143D01*
X15781190Y-14461667D01*
X15790714Y-14480714D01*
X15790714Y-14585476D01*
X15914524Y-14585476D02*
X15895476Y-14575952D01*
X15885952Y-14566428D01*
X15876428Y-14547381D01*
X15876428Y-14490238D01*
X15885952Y-14471190D01*
X15895476Y-14461667D01*
X15914524Y-14452143D01*
X15943095Y-14452143D01*
X15962143Y-14461667D01*
X15971667Y-14471190D01*
X15981190Y-14490238D01*
X15981190Y-14547381D01*
X15971667Y-14566428D01*
X15962143Y-14575952D01*
X15943095Y-14585476D01*
X15914524Y-14585476D01*
X16038333Y-14452143D02*
X16114524Y-14452143D01*
X16066905Y-14385476D02*
X16066905Y-14556905D01*
X16076428Y-14575952D01*
X16095476Y-14585476D01*
X16114524Y-14585476D01*
X16333571Y-14452143D02*
X16333571Y-14652143D01*
X16333571Y-14461667D02*
X16352619Y-14452143D01*
X16390714Y-14452143D01*
X16409762Y-14461667D01*
X16419286Y-14471190D01*
X16428809Y-14490238D01*
X16428809Y-14547381D01*
X16419286Y-14566428D01*
X16409762Y-14575952D01*
X16390714Y-14585476D01*
X16352619Y-14585476D01*
X16333571Y-14575952D01*
X16543095Y-14585476D02*
X16524048Y-14575952D01*
X16514524Y-14556905D01*
X16514524Y-14385476D01*
X16705000Y-14585476D02*
X16705000Y-14480714D01*
X16695476Y-14461667D01*
X16676428Y-14452143D01*
X16638333Y-14452143D01*
X16619286Y-14461667D01*
X16705000Y-14575952D02*
X16685952Y-14585476D01*
X16638333Y-14585476D01*
X16619286Y-14575952D01*
X16609762Y-14556905D01*
X16609762Y-14537857D01*
X16619286Y-14518809D01*
X16638333Y-14509286D01*
X16685952Y-14509286D01*
X16705000Y-14499762D01*
X16771667Y-14452143D02*
X16847857Y-14452143D01*
X16800238Y-14385476D02*
X16800238Y-14556905D01*
X16809762Y-14575952D01*
X16828810Y-14585476D01*
X16847857Y-14585476D01*
X16990714Y-14575952D02*
X16971667Y-14585476D01*
X16933571Y-14585476D01*
X16914524Y-14575952D01*
X16905000Y-14556905D01*
X16905000Y-14480714D01*
X16914524Y-14461667D01*
X16933571Y-14452143D01*
X16971667Y-14452143D01*
X16990714Y-14461667D01*
X17000238Y-14480714D01*
X17000238Y-14499762D01*
X16905000Y-14518809D01*
X17171667Y-14585476D02*
X17171667Y-14385476D01*
X17171667Y-14575952D02*
X17152619Y-14585476D01*
X17114524Y-14585476D01*
X17095476Y-14575952D01*
X17085952Y-14566428D01*
X17076429Y-14547381D01*
X17076429Y-14490238D01*
X17085952Y-14471190D01*
X17095476Y-14461667D01*
X17114524Y-14452143D01*
X17152619Y-14452143D01*
X17171667Y-14461667D01*
X17247857Y-14661667D02*
X17257381Y-14652143D01*
X17276429Y-14623571D01*
X17285952Y-14604524D01*
X17295476Y-14575952D01*
X17305000Y-14528333D01*
X17305000Y-14490238D01*
X17295476Y-14442619D01*
X17285952Y-14414048D01*
X17276429Y-14395000D01*
X17257381Y-14366428D01*
X17247857Y-14356905D01*
D13*
X10495000Y-14765000D02*
G75*
G03*
X10495000Y-14765000I-90000J0D01*
G01*
D11*
X10857381Y-14855476D02*
X10743095Y-14855476D01*
X10800238Y-14855476D02*
X10800238Y-14655476D01*
X10781190Y-14684048D01*
X10762143Y-14703095D01*
X10743095Y-14712619D01*
X10943095Y-14836428D02*
X10952619Y-14845952D01*
X10943095Y-14855476D01*
X10933571Y-14845952D01*
X10943095Y-14836428D01*
X10943095Y-14855476D01*
X11066905Y-14741190D02*
X11047857Y-14731667D01*
X11038333Y-14722143D01*
X11028810Y-14703095D01*
X11028810Y-14693571D01*
X11038333Y-14674524D01*
X11047857Y-14665000D01*
X11066905Y-14655476D01*
X11105000Y-14655476D01*
X11124048Y-14665000D01*
X11133571Y-14674524D01*
X11143095Y-14693571D01*
X11143095Y-14703095D01*
X11133571Y-14722143D01*
X11124048Y-14731667D01*
X11105000Y-14741190D01*
X11066905Y-14741190D01*
X11047857Y-14750714D01*
X11038333Y-14760238D01*
X11028810Y-14779286D01*
X11028810Y-14817381D01*
X11038333Y-14836428D01*
X11047857Y-14845952D01*
X11066905Y-14855476D01*
X11105000Y-14855476D01*
X11124048Y-14845952D01*
X11133571Y-14836428D01*
X11143095Y-14817381D01*
X11143095Y-14779286D01*
X11133571Y-14760238D01*
X11124048Y-14750714D01*
X11105000Y-14741190D01*
X11266905Y-14655476D02*
X11285952Y-14655476D01*
X11305000Y-14665000D01*
X11314524Y-14674524D01*
X11324048Y-14693571D01*
X11333571Y-14731667D01*
X11333571Y-14779286D01*
X11324048Y-14817381D01*
X11314524Y-14836428D01*
X11305000Y-14845952D01*
X11285952Y-14855476D01*
X11266905Y-14855476D01*
X11247857Y-14845952D01*
X11238333Y-14836428D01*
X11228809Y-14817381D01*
X11219286Y-14779286D01*
X11219286Y-14731667D01*
X11228809Y-14693571D01*
X11238333Y-14674524D01*
X11247857Y-14665000D01*
X11266905Y-14655476D01*
X11457381Y-14655476D02*
X11476428Y-14655476D01*
X11495476Y-14665000D01*
X11505000Y-14674524D01*
X11514524Y-14693571D01*
X11524048Y-14731667D01*
X11524048Y-14779286D01*
X11514524Y-14817381D01*
X11505000Y-14836428D01*
X11495476Y-14845952D01*
X11476428Y-14855476D01*
X11457381Y-14855476D01*
X11438333Y-14845952D01*
X11428809Y-14836428D01*
X11419286Y-14817381D01*
X11409762Y-14779286D01*
X11409762Y-14731667D01*
X11419286Y-14693571D01*
X11428809Y-14674524D01*
X11438333Y-14665000D01*
X11457381Y-14655476D01*
X11609762Y-14855476D02*
X11609762Y-14722143D01*
X11609762Y-14741190D02*
X11619286Y-14731667D01*
X11638333Y-14722143D01*
X11666905Y-14722143D01*
X11685952Y-14731667D01*
X11695476Y-14750714D01*
X11695476Y-14855476D01*
X11695476Y-14750714D02*
X11705000Y-14731667D01*
X11724048Y-14722143D01*
X11752619Y-14722143D01*
X11771667Y-14731667D01*
X11781190Y-14750714D01*
X11781190Y-14855476D01*
X11876428Y-14855476D02*
X11876428Y-14722143D01*
X11876428Y-14741190D02*
X11885952Y-14731667D01*
X11905000Y-14722143D01*
X11933571Y-14722143D01*
X11952619Y-14731667D01*
X11962143Y-14750714D01*
X11962143Y-14855476D01*
X11962143Y-14750714D02*
X11971667Y-14731667D01*
X11990714Y-14722143D01*
X12019286Y-14722143D01*
X12038333Y-14731667D01*
X12047857Y-14750714D01*
X12047857Y-14855476D01*
X12438333Y-14645952D02*
X12266905Y-14903095D01*
X12695476Y-14655476D02*
X12714524Y-14655476D01*
X12733571Y-14665000D01*
X12743095Y-14674524D01*
X12752619Y-14693571D01*
X12762143Y-14731667D01*
X12762143Y-14779286D01*
X12752619Y-14817381D01*
X12743095Y-14836428D01*
X12733571Y-14845952D01*
X12714524Y-14855476D01*
X12695476Y-14855476D01*
X12676428Y-14845952D01*
X12666905Y-14836428D01*
X12657381Y-14817381D01*
X12647857Y-14779286D01*
X12647857Y-14731667D01*
X12657381Y-14693571D01*
X12666905Y-14674524D01*
X12676428Y-14665000D01*
X12695476Y-14655476D01*
X12847857Y-14836428D02*
X12857381Y-14845952D01*
X12847857Y-14855476D01*
X12838333Y-14845952D01*
X12847857Y-14836428D01*
X12847857Y-14855476D01*
X12981190Y-14655476D02*
X13000238Y-14655476D01*
X13019286Y-14665000D01*
X13028809Y-14674524D01*
X13038333Y-14693571D01*
X13047857Y-14731667D01*
X13047857Y-14779286D01*
X13038333Y-14817381D01*
X13028809Y-14836428D01*
X13019286Y-14845952D01*
X13000238Y-14855476D01*
X12981190Y-14855476D01*
X12962143Y-14845952D01*
X12952619Y-14836428D01*
X12943095Y-14817381D01*
X12933571Y-14779286D01*
X12933571Y-14731667D01*
X12943095Y-14693571D01*
X12952619Y-14674524D01*
X12962143Y-14665000D01*
X12981190Y-14655476D01*
X13114524Y-14655476D02*
X13247857Y-14655476D01*
X13162143Y-14855476D01*
X13362143Y-14655476D02*
X13381190Y-14655476D01*
X13400238Y-14665000D01*
X13409762Y-14674524D01*
X13419286Y-14693571D01*
X13428809Y-14731667D01*
X13428809Y-14779286D01*
X13419286Y-14817381D01*
X13409762Y-14836428D01*
X13400238Y-14845952D01*
X13381190Y-14855476D01*
X13362143Y-14855476D01*
X13343095Y-14845952D01*
X13333571Y-14836428D01*
X13324048Y-14817381D01*
X13314524Y-14779286D01*
X13314524Y-14731667D01*
X13324048Y-14693571D01*
X13333571Y-14674524D01*
X13343095Y-14665000D01*
X13362143Y-14655476D01*
X13524048Y-14855476D02*
X13562143Y-14855476D01*
X13581190Y-14845952D01*
X13590714Y-14836428D01*
X13609762Y-14807857D01*
X13619286Y-14769762D01*
X13619286Y-14693571D01*
X13609762Y-14674524D01*
X13600238Y-14665000D01*
X13581190Y-14655476D01*
X13543095Y-14655476D01*
X13524048Y-14665000D01*
X13514524Y-14674524D01*
X13505000Y-14693571D01*
X13505000Y-14741190D01*
X13514524Y-14760238D01*
X13524048Y-14769762D01*
X13543095Y-14779286D01*
X13581190Y-14779286D01*
X13600238Y-14769762D01*
X13609762Y-14760238D01*
X13619286Y-14741190D01*
X13695476Y-14655476D02*
X13695476Y-14693571D01*
X13771667Y-14655476D02*
X13771667Y-14693571D01*
X14066905Y-14931667D02*
X14057381Y-14922143D01*
X14038333Y-14893571D01*
X14028809Y-14874524D01*
X14019286Y-14845952D01*
X14009762Y-14798333D01*
X14009762Y-14760238D01*
X14019286Y-14712619D01*
X14028809Y-14684048D01*
X14038333Y-14665000D01*
X14057381Y-14636428D01*
X14066905Y-14626905D01*
X14133571Y-14674524D02*
X14143095Y-14665000D01*
X14162143Y-14655476D01*
X14209762Y-14655476D01*
X14228809Y-14665000D01*
X14238333Y-14674524D01*
X14247857Y-14693571D01*
X14247857Y-14712619D01*
X14238333Y-14741190D01*
X14124048Y-14855476D01*
X14247857Y-14855476D01*
X14485952Y-14855476D02*
X14485952Y-14655476D01*
X14571667Y-14855476D02*
X14571667Y-14750714D01*
X14562143Y-14731667D01*
X14543095Y-14722143D01*
X14514524Y-14722143D01*
X14495476Y-14731667D01*
X14485952Y-14741190D01*
X14695476Y-14855476D02*
X14676428Y-14845952D01*
X14666905Y-14836428D01*
X14657381Y-14817381D01*
X14657381Y-14760238D01*
X14666905Y-14741190D01*
X14676428Y-14731667D01*
X14695476Y-14722143D01*
X14724048Y-14722143D01*
X14743095Y-14731667D01*
X14752619Y-14741190D01*
X14762143Y-14760238D01*
X14762143Y-14817381D01*
X14752619Y-14836428D01*
X14743095Y-14845952D01*
X14724048Y-14855476D01*
X14695476Y-14855476D01*
X14876428Y-14855476D02*
X14857381Y-14845952D01*
X14847857Y-14826905D01*
X14847857Y-14655476D01*
X15028809Y-14845952D02*
X15009762Y-14855476D01*
X14971667Y-14855476D01*
X14952619Y-14845952D01*
X14943095Y-14826905D01*
X14943095Y-14750714D01*
X14952619Y-14731667D01*
X14971667Y-14722143D01*
X15009762Y-14722143D01*
X15028809Y-14731667D01*
X15038333Y-14750714D01*
X15038333Y-14769762D01*
X14943095Y-14788809D01*
X15114524Y-14845952D02*
X15133571Y-14855476D01*
X15171667Y-14855476D01*
X15190714Y-14845952D01*
X15200238Y-14826905D01*
X15200238Y-14817381D01*
X15190714Y-14798333D01*
X15171667Y-14788809D01*
X15143095Y-14788809D01*
X15124048Y-14779286D01*
X15114524Y-14760238D01*
X15114524Y-14750714D01*
X15124048Y-14731667D01*
X15143095Y-14722143D01*
X15171667Y-14722143D01*
X15190714Y-14731667D01*
X15266905Y-14931667D02*
X15276428Y-14922143D01*
X15295476Y-14893571D01*
X15305000Y-14874524D01*
X15314524Y-14845952D01*
X15324048Y-14798333D01*
X15324048Y-14760238D01*
X15314524Y-14712619D01*
X15305000Y-14684048D01*
X15295476Y-14665000D01*
X15276428Y-14636428D01*
X15266905Y-14626905D01*
X15628809Y-14931667D02*
X15619286Y-14922143D01*
X15600238Y-14893571D01*
X15590714Y-14874524D01*
X15581190Y-14845952D01*
X15571667Y-14798333D01*
X15571667Y-14760238D01*
X15581190Y-14712619D01*
X15590714Y-14684048D01*
X15600238Y-14665000D01*
X15619286Y-14636428D01*
X15628809Y-14626905D01*
X15705000Y-14722143D02*
X15705000Y-14855476D01*
X15705000Y-14741190D02*
X15714524Y-14731667D01*
X15733571Y-14722143D01*
X15762143Y-14722143D01*
X15781190Y-14731667D01*
X15790714Y-14750714D01*
X15790714Y-14855476D01*
X15914524Y-14855476D02*
X15895476Y-14845952D01*
X15885952Y-14836428D01*
X15876428Y-14817381D01*
X15876428Y-14760238D01*
X15885952Y-14741190D01*
X15895476Y-14731667D01*
X15914524Y-14722143D01*
X15943095Y-14722143D01*
X15962143Y-14731667D01*
X15971667Y-14741190D01*
X15981190Y-14760238D01*
X15981190Y-14817381D01*
X15971667Y-14836428D01*
X15962143Y-14845952D01*
X15943095Y-14855476D01*
X15914524Y-14855476D01*
X16038333Y-14722143D02*
X16114524Y-14722143D01*
X16066905Y-14655476D02*
X16066905Y-14826905D01*
X16076428Y-14845952D01*
X16095476Y-14855476D01*
X16114524Y-14855476D01*
X16333571Y-14722143D02*
X16333571Y-14922143D01*
X16333571Y-14731667D02*
X16352619Y-14722143D01*
X16390714Y-14722143D01*
X16409762Y-14731667D01*
X16419286Y-14741190D01*
X16428809Y-14760238D01*
X16428809Y-14817381D01*
X16419286Y-14836428D01*
X16409762Y-14845952D01*
X16390714Y-14855476D01*
X16352619Y-14855476D01*
X16333571Y-14845952D01*
X16543095Y-14855476D02*
X16524048Y-14845952D01*
X16514524Y-14826905D01*
X16514524Y-14655476D01*
X16705000Y-14855476D02*
X16705000Y-14750714D01*
X16695476Y-14731667D01*
X16676428Y-14722143D01*
X16638333Y-14722143D01*
X16619286Y-14731667D01*
X16705000Y-14845952D02*
X16685952Y-14855476D01*
X16638333Y-14855476D01*
X16619286Y-14845952D01*
X16609762Y-14826905D01*
X16609762Y-14807857D01*
X16619286Y-14788809D01*
X16638333Y-14779286D01*
X16685952Y-14779286D01*
X16705000Y-14769762D01*
X16771667Y-14722143D02*
X16847857Y-14722143D01*
X16800238Y-14655476D02*
X16800238Y-14826905D01*
X16809762Y-14845952D01*
X16828810Y-14855476D01*
X16847857Y-14855476D01*
X16990714Y-14845952D02*
X16971667Y-14855476D01*
X16933571Y-14855476D01*
X16914524Y-14845952D01*
X16905000Y-14826905D01*
X16905000Y-14750714D01*
X16914524Y-14731667D01*
X16933571Y-14722143D01*
X16971667Y-14722143D01*
X16990714Y-14731667D01*
X17000238Y-14750714D01*
X17000238Y-14769762D01*
X16905000Y-14788809D01*
X17171667Y-14855476D02*
X17171667Y-14655476D01*
X17171667Y-14845952D02*
X17152619Y-14855476D01*
X17114524Y-14855476D01*
X17095476Y-14845952D01*
X17085952Y-14836428D01*
X17076429Y-14817381D01*
X17076429Y-14760238D01*
X17085952Y-14741190D01*
X17095476Y-14731667D01*
X17114524Y-14722143D01*
X17152619Y-14722143D01*
X17171667Y-14731667D01*
X17247857Y-14931667D02*
X17257381Y-14922143D01*
X17276429Y-14893571D01*
X17285952Y-14874524D01*
X17295476Y-14845952D01*
X17305000Y-14798333D01*
X17305000Y-14760238D01*
X17295476Y-14712619D01*
X17285952Y-14684048D01*
X17276429Y-14665000D01*
X17257381Y-14636428D01*
X17247857Y-14626905D01*
M02*
