M48
; DRILL file {KiCad (6.0.9)} date Sat Dec 24 03:55:55 2022
; FORMAT={-:-/ absolute / inch / decimal}
; #@! TF.CreationDate,2022-12-24T03:55:55+03:00
; #@! TF.GenerationSoftware,Kicad,Pcbnew,(6.0.9)
; #@! TF.FileFunction,Plated,1,2,PTH
FMAT,2
INCH
; #@! TA.AperFunction,Plated,PTH,ViaDrill
T1C0.0157
; #@! TA.AperFunction,Plated,PTH,ComponentDrill
T2C0.0315
; #@! TA.AperFunction,Plated,PTH,ComponentDrill
T3C0.0394
; #@! TA.AperFunction,Plated,PTH,ComponentDrill
T4C0.0402
; #@! TA.AperFunction,Plated,PTH,ComponentDrill
T5C0.0433
; #@! TA.AperFunction,Plated,PTH,ComponentDrill
T6C0.0461
; #@! TA.AperFunction,Plated,PTH,ComponentDrill
T7C0.0512
; #@! TA.AperFunction,Plated,PTH,ComponentDrill
T8C0.0547
; #@! TA.AperFunction,Plated,PTH,ComponentDrill
T9C0.0591
; #@! TA.AperFunction,Plated,PTH,ComponentDrill
T10C0.0787
; #@! TA.AperFunction,Plated,PTH,ComponentDrill
T11C0.1260
%
G90
G05
T1
X4.2067Y-2.4449
X4.2648Y-2.5659
X4.2933Y-2.3583
X4.3061Y-2.1703
X4.4783Y-2.5689
X4.6024Y-3.3268
X4.6772Y-1.6299
X4.6772Y-1.6969
X4.6772Y-1.7717
X4.7382Y-4.4724
X4.8465Y-3.3268
X4.8839Y-4.4724
X4.9213Y-2.4213
X4.9567Y-1.6299
X4.9567Y-1.6969
X4.9567Y-1.7717
X4.9803Y-2.3425
X4.9803Y-2.4213
X4.9803Y-2.5
X4.9803Y-2.5787
X5.1024Y-3.3268
X5.2441Y-3.6457
X5.252Y-3.7717
X5.2559Y-1.6339
X5.2559Y-1.7008
X5.2559Y-1.7756
X5.2559Y-2.2539
X5.3465Y-3.3268
X5.4311Y-2.252
X5.4488Y-2.5118
X5.4488Y-2.5787
X5.4724Y-5.0984
X5.4724Y-5.1575
X5.4724Y-5.2165
X5.4724Y-5.2756
X5.4724Y-5.3346
X5.5079Y-2.5118
X5.5079Y-2.5787
X5.5354Y-1.6339
X5.5354Y-1.7008
X5.5354Y-1.7756
X5.5512Y-5.0984
X5.5512Y-5.1575
X5.5512Y-5.2165
X5.5512Y-5.2756
X5.5512Y-5.3346
X5.6102Y-3.3228
X5.6299Y-5.0984
X5.6299Y-5.1575
X5.6299Y-5.2165
X5.6299Y-5.2756
X5.6299Y-5.3346
X5.7087Y-5.0984
X5.7087Y-5.1575
X5.7087Y-5.2165
X5.7087Y-5.2756
X5.7087Y-5.3346
X5.7283Y-3.7205
X5.7283Y-3.7795
X5.7283Y-3.8386
X5.7402Y-2.5079
X5.75Y-4.4724
X5.7874Y-3.7205
X5.7874Y-3.7795
X5.7874Y-3.8386
X5.7992Y-2.5079
X5.8346Y-1.6339
X5.8346Y-1.7008
X5.8346Y-1.7756
X5.8425Y-3.3228
X5.8465Y-3.7205
X5.8465Y-3.7795
X5.8465Y-3.8386
X5.8622Y-2.5079
X5.9055Y-3.7205
X5.9055Y-3.7795
X5.9055Y-3.8386
X5.937Y-2.5354
X5.9783Y-2.8917
X5.9783Y-3.0295
X5.9783Y-3.1634
X5.9783Y-3.3248
X5.9803Y-2.5906
X6.1142Y-1.6339
X6.1142Y-1.7008
X6.1142Y-1.7756
X6.2362Y-1.9764
X6.2795Y-4.4724
X6.3543Y-2.2008
X6.378Y-5.0984
X6.378Y-5.1575
X6.378Y-5.2165
X6.378Y-5.2756
X6.378Y-5.3346
X6.3898Y-2.4606
X6.3898Y-2.6299
X6.3898Y-2.7756
X6.3898Y-2.9528
X6.3898Y-3.1102
X6.3898Y-3.2441
X6.3898Y-3.4016
X6.4134Y-1.6378
X6.4134Y-1.7047
X6.4134Y-1.7795
X6.4567Y-5.0984
X6.4567Y-5.1575
X6.4567Y-5.2165
X6.4567Y-5.2756
X6.4567Y-5.3346
X6.4646Y-2.4606
X6.4646Y-2.6299
X6.4646Y-2.7756
X6.4646Y-2.9528
X6.4646Y-3.1102
X6.4646Y-3.2441
X6.4646Y-3.4016
X6.5354Y-5.0984
X6.5354Y-5.1575
X6.5354Y-5.2165
X6.5354Y-5.2756
X6.5354Y-5.3346
X6.5433Y-2.4606
X6.5433Y-2.6299
X6.5433Y-2.7756
X6.5433Y-2.9528
X6.5433Y-3.1102
X6.5433Y-3.2441
X6.5433Y-3.4016
X6.6142Y-5.0984
X6.6142Y-5.1575
X6.6142Y-5.2165
X6.6142Y-5.2756
X6.6142Y-5.3346
X6.626Y-2.4606
X6.626Y-2.6299
X6.626Y-2.7756
X6.626Y-2.9528
X6.626Y-3.1102
X6.6929Y-1.6378
X6.6929Y-1.7047
X6.6929Y-1.7795
X6.7047Y-2.4606
X6.7047Y-2.6299
X6.7047Y-2.7756
X6.7047Y-2.9528
X6.7047Y-3.1102
X6.7067Y-4.0945
X6.7244Y-1.9803
X6.9685Y-2.9488
X6.9685Y-3.0118
X6.9685Y-3.0787
X6.9724Y-2.6339
X6.9724Y-2.689
X6.9724Y-2.748
X6.9724Y-2.8031
X6.9764Y-1.6417
X6.9764Y-1.7087
X6.9764Y-1.7835
X6.9764Y-2.374
X6.9764Y-2.4291
X6.9764Y-2.4803
X6.9764Y-2.5354
X7.0787Y-2.374
X7.0787Y-2.4291
X7.0787Y-2.4803
X7.0787Y-2.5354
X7.0827Y-2.878
X7.0827Y-2.9488
X7.0827Y-3.0276
X7.0945Y-2.6339
X7.0945Y-2.689
X7.0945Y-2.748
X7.185Y-2.374
X7.185Y-2.4291
X7.185Y-2.4803
X7.185Y-2.5354
X7.2087Y-2.8386
X7.2087Y-2.9173
X7.2087Y-3.0
X7.2165Y-2.6339
X7.2165Y-2.689
X7.2165Y-2.748
X7.2559Y-1.6417
X7.2559Y-1.7087
X7.2559Y-1.7835
X7.2559Y-2.0787
X7.2913Y-2.374
X7.2913Y-2.4291
X7.2913Y-2.4803
X7.2913Y-2.5354
X7.3189Y-2.189
X7.3189Y-2.2362
X7.3189Y-2.2835
X7.3307Y-2.8386
X7.3307Y-2.9055
X7.3307Y-2.9803
X7.3465Y-2.6339
X7.3465Y-2.689
X7.3465Y-2.748
X7.374Y-2.189
X7.374Y-2.2362
X7.374Y-2.2835
X7.4134Y-2.374
X7.4134Y-2.4291
X7.4134Y-2.4803
X7.4134Y-2.5354
X7.4291Y-2.2835
X7.4331Y-2.189
X7.4331Y-2.2362
X7.4528Y-2.8386
X7.4528Y-2.8976
X7.4528Y-2.9567
X7.4764Y-2.6339
X7.4764Y-2.689
X7.4764Y-2.748
X7.4921Y-2.2835
X7.4961Y-2.189
X7.4961Y-2.2323
X7.5512Y-2.2835
X7.5551Y-2.2323
X7.5591Y-2.189
T2
X4.4764Y-3.6594
X4.4764Y-3.7594
X4.4764Y-3.8594
X4.4764Y-3.9594
X4.7764Y-3.6594
X4.7764Y-3.7594
X4.7764Y-3.8594
X4.7764Y-3.9594
X5.5197Y-2.1142
X5.5197Y-2.2142
X5.5197Y-2.3142
X5.5197Y-2.4142
X5.8197Y-2.1142
X5.8197Y-2.2142
X5.8197Y-2.3142
X5.8197Y-2.4142
T3
X6.8671Y-3.9957
X6.8671Y-4.0957
X6.8671Y-4.1957
X7.1063Y-1.9787
X7.1063Y-2.0787
T4
X4.2783Y-2.7366
X4.2783Y-3.4366
X4.3783Y-2.7366
X4.3783Y-3.4366
X4.4783Y-2.7366
X4.4783Y-3.4366
X4.5783Y-2.7366
X4.5783Y-3.4366
X4.6783Y-2.7366
X4.6783Y-3.4366
X4.7783Y-2.7366
X4.7783Y-3.4366
X4.8783Y-2.7366
X4.8783Y-3.4366
X4.9783Y-2.7366
X4.9783Y-3.4366
X5.0783Y-2.7366
X5.0783Y-3.4366
X5.1783Y-2.7366
X5.1783Y-3.4366
X5.2783Y-2.7366
X5.2783Y-3.4366
X5.3783Y-2.7366
X5.3783Y-3.4366
X5.4783Y-2.7366
X5.4783Y-3.4366
X5.5783Y-2.7366
X5.5783Y-3.4366
X5.6783Y-2.7366
X5.6783Y-3.4366
X5.7783Y-2.7366
X5.7783Y-3.4366
X5.8783Y-2.7366
X5.8783Y-3.4366
X5.9783Y-2.7366
X5.9783Y-3.4366
X6.0783Y-2.7366
X6.0783Y-3.4366
X6.1693Y-2.9866
X6.1693Y-3.0866
X6.1693Y-3.1866
X6.1783Y-2.7366
X6.1783Y-3.4366
T5
X5.9943Y-4.0969
X5.9943Y-4.2969
T6
X6.4409Y-3.5827
X6.4409Y-3.7795
X7.1417Y-3.5827
X7.1417Y-3.7795
T7
X7.6496Y-2.0543
X7.6496Y-2.2543
X7.6496Y-2.4543
X7.6496Y-2.6543
X7.6496Y-2.8543
X7.6496Y-3.1071
X7.6496Y-3.3071
X7.6496Y-3.5616
X7.6496Y-3.7616
T8
X6.8622Y-2.1654
X6.8622Y-2.4606
X6.8622Y-2.7559
X6.8622Y-3.0512
X6.8622Y-3.3465
T9
X5.5913Y-3.7854
X5.5913Y-4.0
X5.5913Y-4.2146
T10
X5.3543Y-4.8425
X5.3543Y-5.2362
X6.7717Y-4.8453
X6.7717Y-5.239
T11
X4.311Y-1.7087
X4.311Y-5.2756
X7.7559Y-1.7126
X7.7559Y-5.2756
T0
M30
