%TF.GenerationSoftware,KiCad,Pcbnew,(6.0.9)*%
%TF.CreationDate,2022-12-24T03:55:53+03:00*%
%TF.ProjectId,new-pcb,6e65772d-7063-4622-9e6b-696361645f70,rev?*%
%TF.SameCoordinates,Original*%
%TF.FileFunction,Legend,Bot*%
%TF.FilePolarity,Positive*%
%FSLAX46Y46*%
G04 Gerber Fmt 4.6, Leading zero omitted, Abs format (unit mm)*
G04 Created by KiCad (PCBNEW (6.0.9)) date 2022-12-24 03:55:53*
%MOMM*%
%LPD*%
G01*
G04 APERTURE LIST*
%ADD10C,0.100000*%
%ADD11C,0.150000*%
%ADD12C,0.300000*%
%ADD13C,0.400000*%
%TA.AperFunction,Profile*%
%ADD14C,0.100000*%
%TD*%
%ADD15C,0.120000*%
G04 APERTURE END LIST*
D10*
D11*
X177002200Y-166007200D02*
X177002200Y-198007200D01*
X285002200Y-198007200D01*
X285002200Y-166007200D01*
X177002200Y-166007200D01*
D10*
D11*
X10000000Y-10000000D02*
X10000000Y-200007200D01*
X287002200Y-200007200D01*
X287002200Y-10000000D01*
X10000000Y-10000000D01*
D10*
D11*
X12000000Y-12000000D02*
X12000000Y-198007200D01*
X285002200Y-198007200D01*
X285002200Y-12000000D01*
X12000000Y-12000000D01*
D10*
D11*
X60000000Y-12000000D02*
X60000000Y-10000000D01*
D10*
D11*
X110000000Y-12000000D02*
X110000000Y-10000000D01*
D10*
D11*
X160000000Y-12000000D02*
X160000000Y-10000000D01*
D10*
D11*
X210000000Y-12000000D02*
X210000000Y-10000000D01*
D10*
D11*
X260000000Y-12000000D02*
X260000000Y-10000000D01*
D10*
D11*
X36065476Y-11588095D02*
X35322619Y-11588095D01*
X35694047Y-11588095D02*
X35694047Y-10288095D01*
X35570238Y-10473809D01*
X35446428Y-10597619D01*
X35322619Y-10659523D01*
D10*
D11*
X85322619Y-10411904D02*
X85384523Y-10350000D01*
X85508333Y-10288095D01*
X85817857Y-10288095D01*
X85941666Y-10350000D01*
X86003571Y-10411904D01*
X86065476Y-10535714D01*
X86065476Y-10659523D01*
X86003571Y-10845238D01*
X85260714Y-11588095D01*
X86065476Y-11588095D01*
D10*
D11*
X135260714Y-10288095D02*
X136065476Y-10288095D01*
X135632142Y-10783333D01*
X135817857Y-10783333D01*
X135941666Y-10845238D01*
X136003571Y-10907142D01*
X136065476Y-11030952D01*
X136065476Y-11340476D01*
X136003571Y-11464285D01*
X135941666Y-11526190D01*
X135817857Y-11588095D01*
X135446428Y-11588095D01*
X135322619Y-11526190D01*
X135260714Y-11464285D01*
D10*
D11*
X185941666Y-10721428D02*
X185941666Y-11588095D01*
X185632142Y-10226190D02*
X185322619Y-11154761D01*
X186127380Y-11154761D01*
D10*
D11*
X236003571Y-10288095D02*
X235384523Y-10288095D01*
X235322619Y-10907142D01*
X235384523Y-10845238D01*
X235508333Y-10783333D01*
X235817857Y-10783333D01*
X235941666Y-10845238D01*
X236003571Y-10907142D01*
X236065476Y-11030952D01*
X236065476Y-11340476D01*
X236003571Y-11464285D01*
X235941666Y-11526190D01*
X235817857Y-11588095D01*
X235508333Y-11588095D01*
X235384523Y-11526190D01*
X235322619Y-11464285D01*
D10*
D11*
X285941666Y-10288095D02*
X285694047Y-10288095D01*
X285570238Y-10350000D01*
X285508333Y-10411904D01*
X285384523Y-10597619D01*
X285322619Y-10845238D01*
X285322619Y-11340476D01*
X285384523Y-11464285D01*
X285446428Y-11526190D01*
X285570238Y-11588095D01*
X285817857Y-11588095D01*
X285941666Y-11526190D01*
X286003571Y-11464285D01*
X286065476Y-11340476D01*
X286065476Y-11030952D01*
X286003571Y-10907142D01*
X285941666Y-10845238D01*
X285817857Y-10783333D01*
X285570238Y-10783333D01*
X285446428Y-10845238D01*
X285384523Y-10907142D01*
X285322619Y-11030952D01*
D10*
D11*
X60000000Y-198007200D02*
X60000000Y-200007200D01*
D10*
D11*
X110000000Y-198007200D02*
X110000000Y-200007200D01*
D10*
D11*
X160000000Y-198007200D02*
X160000000Y-200007200D01*
D10*
D11*
X210000000Y-198007200D02*
X210000000Y-200007200D01*
D10*
D11*
X260000000Y-198007200D02*
X260000000Y-200007200D01*
D10*
D11*
X36065476Y-199595295D02*
X35322619Y-199595295D01*
X35694047Y-199595295D02*
X35694047Y-198295295D01*
X35570238Y-198481009D01*
X35446428Y-198604819D01*
X35322619Y-198666723D01*
D10*
D11*
X85322619Y-198419104D02*
X85384523Y-198357200D01*
X85508333Y-198295295D01*
X85817857Y-198295295D01*
X85941666Y-198357200D01*
X86003571Y-198419104D01*
X86065476Y-198542914D01*
X86065476Y-198666723D01*
X86003571Y-198852438D01*
X85260714Y-199595295D01*
X86065476Y-199595295D01*
D10*
D11*
X135260714Y-198295295D02*
X136065476Y-198295295D01*
X135632142Y-198790533D01*
X135817857Y-198790533D01*
X135941666Y-198852438D01*
X136003571Y-198914342D01*
X136065476Y-199038152D01*
X136065476Y-199347676D01*
X136003571Y-199471485D01*
X135941666Y-199533390D01*
X135817857Y-199595295D01*
X135446428Y-199595295D01*
X135322619Y-199533390D01*
X135260714Y-199471485D01*
D10*
D11*
X185941666Y-198728628D02*
X185941666Y-199595295D01*
X185632142Y-198233390D02*
X185322619Y-199161961D01*
X186127380Y-199161961D01*
D10*
D11*
X236003571Y-198295295D02*
X235384523Y-198295295D01*
X235322619Y-198914342D01*
X235384523Y-198852438D01*
X235508333Y-198790533D01*
X235817857Y-198790533D01*
X235941666Y-198852438D01*
X236003571Y-198914342D01*
X236065476Y-199038152D01*
X236065476Y-199347676D01*
X236003571Y-199471485D01*
X235941666Y-199533390D01*
X235817857Y-199595295D01*
X235508333Y-199595295D01*
X235384523Y-199533390D01*
X235322619Y-199471485D01*
D10*
D11*
X285941666Y-198295295D02*
X285694047Y-198295295D01*
X285570238Y-198357200D01*
X285508333Y-198419104D01*
X285384523Y-198604819D01*
X285322619Y-198852438D01*
X285322619Y-199347676D01*
X285384523Y-199471485D01*
X285446428Y-199533390D01*
X285570238Y-199595295D01*
X285817857Y-199595295D01*
X285941666Y-199533390D01*
X286003571Y-199471485D01*
X286065476Y-199347676D01*
X286065476Y-199038152D01*
X286003571Y-198914342D01*
X285941666Y-198852438D01*
X285817857Y-198790533D01*
X285570238Y-198790533D01*
X285446428Y-198852438D01*
X285384523Y-198914342D01*
X285322619Y-199038152D01*
D10*
D11*
X10000000Y-60000000D02*
X12000000Y-60000000D01*
D10*
D11*
X10000000Y-110000000D02*
X12000000Y-110000000D01*
D10*
D11*
X10000000Y-160000000D02*
X12000000Y-160000000D01*
D10*
D11*
X10690476Y-35216666D02*
X11309523Y-35216666D01*
X10566666Y-35588095D02*
X11000000Y-34288095D01*
X11433333Y-35588095D01*
D10*
D11*
X11092857Y-84907142D02*
X11278571Y-84969047D01*
X11340476Y-85030952D01*
X11402380Y-85154761D01*
X11402380Y-85340476D01*
X11340476Y-85464285D01*
X11278571Y-85526190D01*
X11154761Y-85588095D01*
X10659523Y-85588095D01*
X10659523Y-84288095D01*
X11092857Y-84288095D01*
X11216666Y-84350000D01*
X11278571Y-84411904D01*
X11340476Y-84535714D01*
X11340476Y-84659523D01*
X11278571Y-84783333D01*
X11216666Y-84845238D01*
X11092857Y-84907142D01*
X10659523Y-84907142D01*
D10*
D11*
X11402380Y-135464285D02*
X11340476Y-135526190D01*
X11154761Y-135588095D01*
X11030952Y-135588095D01*
X10845238Y-135526190D01*
X10721428Y-135402380D01*
X10659523Y-135278571D01*
X10597619Y-135030952D01*
X10597619Y-134845238D01*
X10659523Y-134597619D01*
X10721428Y-134473809D01*
X10845238Y-134350000D01*
X11030952Y-134288095D01*
X11154761Y-134288095D01*
X11340476Y-134350000D01*
X11402380Y-134411904D01*
D10*
D11*
X10659523Y-185588095D02*
X10659523Y-184288095D01*
X10969047Y-184288095D01*
X11154761Y-184350000D01*
X11278571Y-184473809D01*
X11340476Y-184597619D01*
X11402380Y-184845238D01*
X11402380Y-185030952D01*
X11340476Y-185278571D01*
X11278571Y-185402380D01*
X11154761Y-185526190D01*
X10969047Y-185588095D01*
X10659523Y-185588095D01*
D10*
D11*
X287002200Y-60000000D02*
X285002200Y-60000000D01*
D10*
D11*
X287002200Y-110000000D02*
X285002200Y-110000000D01*
D10*
D11*
X287002200Y-160000000D02*
X285002200Y-160000000D01*
D10*
D11*
X285692676Y-35216666D02*
X286311723Y-35216666D01*
X285568866Y-35588095D02*
X286002200Y-34288095D01*
X286435533Y-35588095D01*
D10*
D11*
X286095057Y-84907142D02*
X286280771Y-84969047D01*
X286342676Y-85030952D01*
X286404580Y-85154761D01*
X286404580Y-85340476D01*
X286342676Y-85464285D01*
X286280771Y-85526190D01*
X286156961Y-85588095D01*
X285661723Y-85588095D01*
X285661723Y-84288095D01*
X286095057Y-84288095D01*
X286218866Y-84350000D01*
X286280771Y-84411904D01*
X286342676Y-84535714D01*
X286342676Y-84659523D01*
X286280771Y-84783333D01*
X286218866Y-84845238D01*
X286095057Y-84907142D01*
X285661723Y-84907142D01*
D10*
D11*
X286404580Y-135464285D02*
X286342676Y-135526190D01*
X286156961Y-135588095D01*
X286033152Y-135588095D01*
X285847438Y-135526190D01*
X285723628Y-135402380D01*
X285661723Y-135278571D01*
X285599819Y-135030952D01*
X285599819Y-134845238D01*
X285661723Y-134597619D01*
X285723628Y-134473809D01*
X285847438Y-134350000D01*
X286033152Y-134288095D01*
X286156961Y-134288095D01*
X286342676Y-134350000D01*
X286404580Y-134411904D01*
D10*
D11*
X285661723Y-185588095D02*
X285661723Y-184288095D01*
X285971247Y-184288095D01*
X286156961Y-184350000D01*
X286280771Y-184473809D01*
X286342676Y-184597619D01*
X286404580Y-184845238D01*
X286404580Y-185030952D01*
X286342676Y-185278571D01*
X286280771Y-185402380D01*
X286156961Y-185526190D01*
X285971247Y-185588095D01*
X285661723Y-185588095D01*
D10*
D11*
X200434342Y-193785771D02*
X200434342Y-192285771D01*
X200791485Y-192285771D01*
X201005771Y-192357200D01*
X201148628Y-192500057D01*
X201220057Y-192642914D01*
X201291485Y-192928628D01*
X201291485Y-193142914D01*
X201220057Y-193428628D01*
X201148628Y-193571485D01*
X201005771Y-193714342D01*
X200791485Y-193785771D01*
X200434342Y-193785771D01*
X202577200Y-193785771D02*
X202577200Y-193000057D01*
X202505771Y-192857200D01*
X202362914Y-192785771D01*
X202077200Y-192785771D01*
X201934342Y-192857200D01*
X202577200Y-193714342D02*
X202434342Y-193785771D01*
X202077200Y-193785771D01*
X201934342Y-193714342D01*
X201862914Y-193571485D01*
X201862914Y-193428628D01*
X201934342Y-193285771D01*
X202077200Y-193214342D01*
X202434342Y-193214342D01*
X202577200Y-193142914D01*
X203077200Y-192785771D02*
X203648628Y-192785771D01*
X203291485Y-192285771D02*
X203291485Y-193571485D01*
X203362914Y-193714342D01*
X203505771Y-193785771D01*
X203648628Y-193785771D01*
X204720057Y-193714342D02*
X204577200Y-193785771D01*
X204291485Y-193785771D01*
X204148628Y-193714342D01*
X204077200Y-193571485D01*
X204077200Y-193000057D01*
X204148628Y-192857200D01*
X204291485Y-192785771D01*
X204577200Y-192785771D01*
X204720057Y-192857200D01*
X204791485Y-193000057D01*
X204791485Y-193142914D01*
X204077200Y-193285771D01*
X205434342Y-193642914D02*
X205505771Y-193714342D01*
X205434342Y-193785771D01*
X205362914Y-193714342D01*
X205434342Y-193642914D01*
X205434342Y-193785771D01*
X205434342Y-192857200D02*
X205505771Y-192928628D01*
X205434342Y-193000057D01*
X205362914Y-192928628D01*
X205434342Y-192857200D01*
X205434342Y-193000057D01*
D10*
D11*
X177002200Y-194507200D02*
X285002200Y-194507200D01*
D10*
D11*
X178434342Y-196585771D02*
X178434342Y-195085771D01*
X179291485Y-196585771D02*
X178648628Y-195728628D01*
X179291485Y-195085771D02*
X178434342Y-195942914D01*
X179934342Y-196585771D02*
X179934342Y-195585771D01*
X179934342Y-195085771D02*
X179862914Y-195157200D01*
X179934342Y-195228628D01*
X180005771Y-195157200D01*
X179934342Y-195085771D01*
X179934342Y-195228628D01*
X181505771Y-196442914D02*
X181434342Y-196514342D01*
X181220057Y-196585771D01*
X181077200Y-196585771D01*
X180862914Y-196514342D01*
X180720057Y-196371485D01*
X180648628Y-196228628D01*
X180577200Y-195942914D01*
X180577200Y-195728628D01*
X180648628Y-195442914D01*
X180720057Y-195300057D01*
X180862914Y-195157200D01*
X181077200Y-195085771D01*
X181220057Y-195085771D01*
X181434342Y-195157200D01*
X181505771Y-195228628D01*
X182791485Y-196585771D02*
X182791485Y-195800057D01*
X182720057Y-195657200D01*
X182577200Y-195585771D01*
X182291485Y-195585771D01*
X182148628Y-195657200D01*
X182791485Y-196514342D02*
X182648628Y-196585771D01*
X182291485Y-196585771D01*
X182148628Y-196514342D01*
X182077200Y-196371485D01*
X182077200Y-196228628D01*
X182148628Y-196085771D01*
X182291485Y-196014342D01*
X182648628Y-196014342D01*
X182791485Y-195942914D01*
X184148628Y-196585771D02*
X184148628Y-195085771D01*
X184148628Y-196514342D02*
X184005771Y-196585771D01*
X183720057Y-196585771D01*
X183577200Y-196514342D01*
X183505771Y-196442914D01*
X183434342Y-196300057D01*
X183434342Y-195871485D01*
X183505771Y-195728628D01*
X183577200Y-195657200D01*
X183720057Y-195585771D01*
X184005771Y-195585771D01*
X184148628Y-195657200D01*
X186005771Y-195800057D02*
X186505771Y-195800057D01*
X186720057Y-196585771D02*
X186005771Y-196585771D01*
X186005771Y-195085771D01*
X186720057Y-195085771D01*
X187362914Y-196442914D02*
X187434342Y-196514342D01*
X187362914Y-196585771D01*
X187291485Y-196514342D01*
X187362914Y-196442914D01*
X187362914Y-196585771D01*
X188077200Y-196585771D02*
X188077200Y-195085771D01*
X188434342Y-195085771D01*
X188648628Y-195157200D01*
X188791485Y-195300057D01*
X188862914Y-195442914D01*
X188934342Y-195728628D01*
X188934342Y-195942914D01*
X188862914Y-196228628D01*
X188791485Y-196371485D01*
X188648628Y-196514342D01*
X188434342Y-196585771D01*
X188077200Y-196585771D01*
X189577200Y-196442914D02*
X189648628Y-196514342D01*
X189577200Y-196585771D01*
X189505771Y-196514342D01*
X189577200Y-196442914D01*
X189577200Y-196585771D01*
X190220057Y-196157200D02*
X190934342Y-196157200D01*
X190077200Y-196585771D02*
X190577200Y-195085771D01*
X191077200Y-196585771D01*
X191577200Y-196442914D02*
X191648628Y-196514342D01*
X191577200Y-196585771D01*
X191505771Y-196514342D01*
X191577200Y-196442914D01*
X191577200Y-196585771D01*
X194577200Y-196585771D02*
X194577200Y-195085771D01*
X194720057Y-196014342D02*
X195148628Y-196585771D01*
X195148628Y-195585771D02*
X194577200Y-196157200D01*
X195791485Y-196585771D02*
X195791485Y-195585771D01*
X195791485Y-195085771D02*
X195720057Y-195157200D01*
X195791485Y-195228628D01*
X195862914Y-195157200D01*
X195791485Y-195085771D01*
X195791485Y-195228628D01*
X197148628Y-196514342D02*
X197005771Y-196585771D01*
X196720057Y-196585771D01*
X196577200Y-196514342D01*
X196505771Y-196442914D01*
X196434342Y-196300057D01*
X196434342Y-195871485D01*
X196505771Y-195728628D01*
X196577200Y-195657200D01*
X196720057Y-195585771D01*
X197005771Y-195585771D01*
X197148628Y-195657200D01*
X198434342Y-196585771D02*
X198434342Y-195800057D01*
X198362914Y-195657200D01*
X198220057Y-195585771D01*
X197934342Y-195585771D01*
X197791485Y-195657200D01*
X198434342Y-196514342D02*
X198291485Y-196585771D01*
X197934342Y-196585771D01*
X197791485Y-196514342D01*
X197720057Y-196371485D01*
X197720057Y-196228628D01*
X197791485Y-196085771D01*
X197934342Y-196014342D01*
X198291485Y-196014342D01*
X198434342Y-195942914D01*
X199791485Y-196585771D02*
X199791485Y-195085771D01*
X199791485Y-196514342D02*
X199648628Y-196585771D01*
X199362914Y-196585771D01*
X199220057Y-196514342D01*
X199148628Y-196442914D01*
X199077200Y-196300057D01*
X199077200Y-195871485D01*
X199148628Y-195728628D01*
X199220057Y-195657200D01*
X199362914Y-195585771D01*
X199648628Y-195585771D01*
X199791485Y-195657200D01*
X202077200Y-197157200D02*
X202005771Y-197085771D01*
X201862914Y-196871485D01*
X201791485Y-196728628D01*
X201720057Y-196514342D01*
X201648628Y-196157200D01*
X201648628Y-195871485D01*
X201720057Y-195514342D01*
X201791485Y-195300057D01*
X201862914Y-195157200D01*
X202005771Y-194942914D01*
X202077200Y-194871485D01*
X203291485Y-195085771D02*
X203005771Y-195085771D01*
X202862914Y-195157200D01*
X202791485Y-195228628D01*
X202648628Y-195442914D01*
X202577200Y-195728628D01*
X202577200Y-196300057D01*
X202648628Y-196442914D01*
X202720057Y-196514342D01*
X202862914Y-196585771D01*
X203148628Y-196585771D01*
X203291485Y-196514342D01*
X203362914Y-196442914D01*
X203434342Y-196300057D01*
X203434342Y-195942914D01*
X203362914Y-195800057D01*
X203291485Y-195728628D01*
X203148628Y-195657200D01*
X202862914Y-195657200D01*
X202720057Y-195728628D01*
X202648628Y-195800057D01*
X202577200Y-195942914D01*
X204077200Y-196442914D02*
X204148628Y-196514342D01*
X204077200Y-196585771D01*
X204005771Y-196514342D01*
X204077200Y-196442914D01*
X204077200Y-196585771D01*
X205077200Y-195085771D02*
X205220057Y-195085771D01*
X205362914Y-195157200D01*
X205434342Y-195228628D01*
X205505771Y-195371485D01*
X205577200Y-195657200D01*
X205577200Y-196014342D01*
X205505771Y-196300057D01*
X205434342Y-196442914D01*
X205362914Y-196514342D01*
X205220057Y-196585771D01*
X205077200Y-196585771D01*
X204934342Y-196514342D01*
X204862914Y-196442914D01*
X204791485Y-196300057D01*
X204720057Y-196014342D01*
X204720057Y-195657200D01*
X204791485Y-195371485D01*
X204862914Y-195228628D01*
X204934342Y-195157200D01*
X205077200Y-195085771D01*
X206220057Y-196442914D02*
X206291485Y-196514342D01*
X206220057Y-196585771D01*
X206148628Y-196514342D01*
X206220057Y-196442914D01*
X206220057Y-196585771D01*
X207005771Y-196585771D02*
X207291485Y-196585771D01*
X207434342Y-196514342D01*
X207505771Y-196442914D01*
X207648628Y-196228628D01*
X207720057Y-195942914D01*
X207720057Y-195371485D01*
X207648628Y-195228628D01*
X207577200Y-195157200D01*
X207434342Y-195085771D01*
X207148628Y-195085771D01*
X207005771Y-195157200D01*
X206934342Y-195228628D01*
X206862914Y-195371485D01*
X206862914Y-195728628D01*
X206934342Y-195871485D01*
X207005771Y-195942914D01*
X207148628Y-196014342D01*
X207434342Y-196014342D01*
X207577200Y-195942914D01*
X207648628Y-195871485D01*
X207720057Y-195728628D01*
X208220057Y-197157200D02*
X208291485Y-197085771D01*
X208434342Y-196871485D01*
X208505771Y-196728628D01*
X208577200Y-196514342D01*
X208648628Y-196157200D01*
X208648628Y-195871485D01*
X208577200Y-195514342D01*
X208505771Y-195300057D01*
X208434342Y-195157200D01*
X208291485Y-194942914D01*
X208220057Y-194871485D01*
D10*
D11*
X177002200Y-191507200D02*
X285002200Y-191507200D01*
D10*
D12*
X264411485Y-193785771D02*
X263911485Y-193071485D01*
X263554342Y-193785771D02*
X263554342Y-192285771D01*
X264125771Y-192285771D01*
X264268628Y-192357200D01*
X264340057Y-192428628D01*
X264411485Y-192571485D01*
X264411485Y-192785771D01*
X264340057Y-192928628D01*
X264268628Y-193000057D01*
X264125771Y-193071485D01*
X263554342Y-193071485D01*
X265625771Y-193714342D02*
X265482914Y-193785771D01*
X265197200Y-193785771D01*
X265054342Y-193714342D01*
X264982914Y-193571485D01*
X264982914Y-193000057D01*
X265054342Y-192857200D01*
X265197200Y-192785771D01*
X265482914Y-192785771D01*
X265625771Y-192857200D01*
X265697200Y-193000057D01*
X265697200Y-193142914D01*
X264982914Y-193285771D01*
X266197200Y-192785771D02*
X266554342Y-193785771D01*
X266911485Y-192785771D01*
X267482914Y-193642914D02*
X267554342Y-193714342D01*
X267482914Y-193785771D01*
X267411485Y-193714342D01*
X267482914Y-193642914D01*
X267482914Y-193785771D01*
X267482914Y-192857200D02*
X267554342Y-192928628D01*
X267482914Y-193000057D01*
X267411485Y-192928628D01*
X267482914Y-192857200D01*
X267482914Y-193000057D01*
D10*
D11*
X178362914Y-193714342D02*
X178577200Y-193785771D01*
X178934342Y-193785771D01*
X179077200Y-193714342D01*
X179148628Y-193642914D01*
X179220057Y-193500057D01*
X179220057Y-193357200D01*
X179148628Y-193214342D01*
X179077200Y-193142914D01*
X178934342Y-193071485D01*
X178648628Y-193000057D01*
X178505771Y-192928628D01*
X178434342Y-192857200D01*
X178362914Y-192714342D01*
X178362914Y-192571485D01*
X178434342Y-192428628D01*
X178505771Y-192357200D01*
X178648628Y-192285771D01*
X179005771Y-192285771D01*
X179220057Y-192357200D01*
X179862914Y-193785771D02*
X179862914Y-192785771D01*
X179862914Y-192285771D02*
X179791485Y-192357200D01*
X179862914Y-192428628D01*
X179934342Y-192357200D01*
X179862914Y-192285771D01*
X179862914Y-192428628D01*
X180434342Y-192785771D02*
X181220057Y-192785771D01*
X180434342Y-193785771D01*
X181220057Y-193785771D01*
X182362914Y-193714342D02*
X182220057Y-193785771D01*
X181934342Y-193785771D01*
X181791485Y-193714342D01*
X181720057Y-193571485D01*
X181720057Y-193000057D01*
X181791485Y-192857200D01*
X181934342Y-192785771D01*
X182220057Y-192785771D01*
X182362914Y-192857200D01*
X182434342Y-193000057D01*
X182434342Y-193142914D01*
X181720057Y-193285771D01*
X183077200Y-193642914D02*
X183148628Y-193714342D01*
X183077200Y-193785771D01*
X183005771Y-193714342D01*
X183077200Y-193642914D01*
X183077200Y-193785771D01*
X183077200Y-192857200D02*
X183148628Y-192928628D01*
X183077200Y-193000057D01*
X183005771Y-192928628D01*
X183077200Y-192857200D01*
X183077200Y-193000057D01*
X184862914Y-193357200D02*
X185577200Y-193357200D01*
X184720057Y-193785771D02*
X185220057Y-192285771D01*
X185720057Y-193785771D01*
X186862914Y-192785771D02*
X186862914Y-193785771D01*
X186505771Y-192214342D02*
X186148628Y-193285771D01*
X187077200Y-193285771D01*
D10*
D11*
X263434342Y-196585771D02*
X263434342Y-195085771D01*
X264791485Y-196585771D02*
X264791485Y-195085771D01*
X264791485Y-196514342D02*
X264648628Y-196585771D01*
X264362914Y-196585771D01*
X264220057Y-196514342D01*
X264148628Y-196442914D01*
X264077200Y-196300057D01*
X264077200Y-195871485D01*
X264148628Y-195728628D01*
X264220057Y-195657200D01*
X264362914Y-195585771D01*
X264648628Y-195585771D01*
X264791485Y-195657200D01*
X265505771Y-196442914D02*
X265577200Y-196514342D01*
X265505771Y-196585771D01*
X265434342Y-196514342D01*
X265505771Y-196442914D01*
X265505771Y-196585771D01*
X265505771Y-195657200D02*
X265577200Y-195728628D01*
X265505771Y-195800057D01*
X265434342Y-195728628D01*
X265505771Y-195657200D01*
X265505771Y-195800057D01*
X268148628Y-196585771D02*
X267291485Y-196585771D01*
X267720057Y-196585771D02*
X267720057Y-195085771D01*
X267577200Y-195300057D01*
X267434342Y-195442914D01*
X267291485Y-195514342D01*
X269862914Y-195014342D02*
X268577200Y-196942914D01*
X271148628Y-196585771D02*
X270291485Y-196585771D01*
X270720057Y-196585771D02*
X270720057Y-195085771D01*
X270577200Y-195300057D01*
X270434342Y-195442914D01*
X270291485Y-195514342D01*
D10*
D11*
X177002200Y-187507200D02*
X285002200Y-187507200D01*
D10*
D13*
X178714580Y-188211961D02*
X179857438Y-188211961D01*
X179036009Y-190211961D02*
X179286009Y-188211961D01*
X180274104Y-190211961D02*
X180440771Y-188878628D01*
X180524104Y-188211961D02*
X180416961Y-188307200D01*
X180500295Y-188402438D01*
X180607438Y-188307200D01*
X180524104Y-188211961D01*
X180500295Y-188402438D01*
X181107438Y-188878628D02*
X181869342Y-188878628D01*
X181476485Y-188211961D02*
X181262200Y-189926247D01*
X181333628Y-190116723D01*
X181512200Y-190211961D01*
X181702676Y-190211961D01*
X182655057Y-190211961D02*
X182476485Y-190116723D01*
X182405057Y-189926247D01*
X182619342Y-188211961D01*
X184190771Y-190116723D02*
X183988390Y-190211961D01*
X183607438Y-190211961D01*
X183428866Y-190116723D01*
X183357438Y-189926247D01*
X183452676Y-189164342D01*
X183571723Y-188973866D01*
X183774104Y-188878628D01*
X184155057Y-188878628D01*
X184333628Y-188973866D01*
X184405057Y-189164342D01*
X184381247Y-189354819D01*
X183405057Y-189545295D01*
X185155057Y-190021485D02*
X185238390Y-190116723D01*
X185131247Y-190211961D01*
X185047914Y-190116723D01*
X185155057Y-190021485D01*
X185131247Y-190211961D01*
X185286009Y-188973866D02*
X185369342Y-189069104D01*
X185262200Y-189164342D01*
X185178866Y-189069104D01*
X185286009Y-188973866D01*
X185262200Y-189164342D01*
D10*
D11*
X178934342Y-185600057D02*
X178434342Y-185600057D01*
X178434342Y-186385771D02*
X178434342Y-184885771D01*
X179148628Y-184885771D01*
X179720057Y-186385771D02*
X179720057Y-185385771D01*
X179720057Y-184885771D02*
X179648628Y-184957200D01*
X179720057Y-185028628D01*
X179791485Y-184957200D01*
X179720057Y-184885771D01*
X179720057Y-185028628D01*
X180648628Y-186385771D02*
X180505771Y-186314342D01*
X180434342Y-186171485D01*
X180434342Y-184885771D01*
X181791485Y-186314342D02*
X181648628Y-186385771D01*
X181362914Y-186385771D01*
X181220057Y-186314342D01*
X181148628Y-186171485D01*
X181148628Y-185600057D01*
X181220057Y-185457200D01*
X181362914Y-185385771D01*
X181648628Y-185385771D01*
X181791485Y-185457200D01*
X181862914Y-185600057D01*
X181862914Y-185742914D01*
X181148628Y-185885771D01*
X182505771Y-186242914D02*
X182577200Y-186314342D01*
X182505771Y-186385771D01*
X182434342Y-186314342D01*
X182505771Y-186242914D01*
X182505771Y-186385771D01*
X182505771Y-185457200D02*
X182577200Y-185528628D01*
X182505771Y-185600057D01*
X182434342Y-185528628D01*
X182505771Y-185457200D01*
X182505771Y-185600057D01*
X184362914Y-185385771D02*
X184362914Y-186385771D01*
X184362914Y-185528628D02*
X184434342Y-185457200D01*
X184577200Y-185385771D01*
X184791485Y-185385771D01*
X184934342Y-185457200D01*
X185005771Y-185600057D01*
X185005771Y-186385771D01*
X186291485Y-186314342D02*
X186148628Y-186385771D01*
X185862914Y-186385771D01*
X185720057Y-186314342D01*
X185648628Y-186171485D01*
X185648628Y-185600057D01*
X185720057Y-185457200D01*
X185862914Y-185385771D01*
X186148628Y-185385771D01*
X186291485Y-185457200D01*
X186362914Y-185600057D01*
X186362914Y-185742914D01*
X185648628Y-185885771D01*
X186862914Y-185385771D02*
X187148628Y-186385771D01*
X187434342Y-185671485D01*
X187720057Y-186385771D01*
X188005771Y-185385771D01*
X188577200Y-185814342D02*
X189720057Y-185814342D01*
X190434342Y-185385771D02*
X190434342Y-186885771D01*
X190434342Y-185457200D02*
X190577200Y-185385771D01*
X190862914Y-185385771D01*
X191005771Y-185457200D01*
X191077200Y-185528628D01*
X191148628Y-185671485D01*
X191148628Y-186100057D01*
X191077200Y-186242914D01*
X191005771Y-186314342D01*
X190862914Y-186385771D01*
X190577200Y-186385771D01*
X190434342Y-186314342D01*
X192434342Y-186314342D02*
X192291485Y-186385771D01*
X192005771Y-186385771D01*
X191862914Y-186314342D01*
X191791485Y-186242914D01*
X191720057Y-186100057D01*
X191720057Y-185671485D01*
X191791485Y-185528628D01*
X191862914Y-185457200D01*
X192005771Y-185385771D01*
X192291485Y-185385771D01*
X192434342Y-185457200D01*
X193077200Y-186385771D02*
X193077200Y-184885771D01*
X193077200Y-185457200D02*
X193220057Y-185385771D01*
X193505771Y-185385771D01*
X193648628Y-185457200D01*
X193720057Y-185528628D01*
X193791485Y-185671485D01*
X193791485Y-186100057D01*
X193720057Y-186242914D01*
X193648628Y-186314342D01*
X193505771Y-186385771D01*
X193220057Y-186385771D01*
X193077200Y-186314342D01*
X194434342Y-186242914D02*
X194505771Y-186314342D01*
X194434342Y-186385771D01*
X194362914Y-186314342D01*
X194434342Y-186242914D01*
X194434342Y-186385771D01*
X195148628Y-186385771D02*
X195148628Y-184885771D01*
X195291485Y-185814342D02*
X195720057Y-186385771D01*
X195720057Y-185385771D02*
X195148628Y-185957200D01*
X196362914Y-186385771D02*
X196362914Y-185385771D01*
X196362914Y-184885771D02*
X196291485Y-184957200D01*
X196362914Y-185028628D01*
X196434342Y-184957200D01*
X196362914Y-184885771D01*
X196362914Y-185028628D01*
X197720057Y-186314342D02*
X197577200Y-186385771D01*
X197291485Y-186385771D01*
X197148628Y-186314342D01*
X197077200Y-186242914D01*
X197005771Y-186100057D01*
X197005771Y-185671485D01*
X197077200Y-185528628D01*
X197148628Y-185457200D01*
X197291485Y-185385771D01*
X197577200Y-185385771D01*
X197720057Y-185457200D01*
X199005771Y-186385771D02*
X199005771Y-185600057D01*
X198934342Y-185457200D01*
X198791485Y-185385771D01*
X198505771Y-185385771D01*
X198362914Y-185457200D01*
X199005771Y-186314342D02*
X198862914Y-186385771D01*
X198505771Y-186385771D01*
X198362914Y-186314342D01*
X198291485Y-186171485D01*
X198291485Y-186028628D01*
X198362914Y-185885771D01*
X198505771Y-185814342D01*
X198862914Y-185814342D01*
X199005771Y-185742914D01*
X200362914Y-186385771D02*
X200362914Y-184885771D01*
X200362914Y-186314342D02*
X200220057Y-186385771D01*
X199934342Y-186385771D01*
X199791485Y-186314342D01*
X199720057Y-186242914D01*
X199648628Y-186100057D01*
X199648628Y-185671485D01*
X199720057Y-185528628D01*
X199791485Y-185457200D01*
X199934342Y-185385771D01*
X200220057Y-185385771D01*
X200362914Y-185457200D01*
X200720057Y-186528628D02*
X201862914Y-186528628D01*
X202220057Y-185385771D02*
X202220057Y-186885771D01*
X202220057Y-185457200D02*
X202362914Y-185385771D01*
X202648628Y-185385771D01*
X202791485Y-185457200D01*
X202862914Y-185528628D01*
X202934342Y-185671485D01*
X202934342Y-186100057D01*
X202862914Y-186242914D01*
X202791485Y-186314342D01*
X202648628Y-186385771D01*
X202362914Y-186385771D01*
X202220057Y-186314342D01*
X204220057Y-186314342D02*
X204077200Y-186385771D01*
X203791485Y-186385771D01*
X203648628Y-186314342D01*
X203577200Y-186242914D01*
X203505771Y-186100057D01*
X203505771Y-185671485D01*
X203577200Y-185528628D01*
X203648628Y-185457200D01*
X203791485Y-185385771D01*
X204077200Y-185385771D01*
X204220057Y-185457200D01*
X204862914Y-186385771D02*
X204862914Y-184885771D01*
X204862914Y-185457200D02*
X205005771Y-185385771D01*
X205291485Y-185385771D01*
X205434342Y-185457200D01*
X205505771Y-185528628D01*
X205577200Y-185671485D01*
X205577200Y-186100057D01*
X205505771Y-186242914D01*
X205434342Y-186314342D01*
X205291485Y-186385771D01*
X205005771Y-186385771D01*
X204862914Y-186314342D01*
D10*
D11*
X177002200Y-181507200D02*
X285002200Y-181507200D01*
D10*
D11*
X178362914Y-183614342D02*
X178577200Y-183685771D01*
X178934342Y-183685771D01*
X179077200Y-183614342D01*
X179148628Y-183542914D01*
X179220057Y-183400057D01*
X179220057Y-183257200D01*
X179148628Y-183114342D01*
X179077200Y-183042914D01*
X178934342Y-182971485D01*
X178648628Y-182900057D01*
X178505771Y-182828628D01*
X178434342Y-182757200D01*
X178362914Y-182614342D01*
X178362914Y-182471485D01*
X178434342Y-182328628D01*
X178505771Y-182257200D01*
X178648628Y-182185771D01*
X179005771Y-182185771D01*
X179220057Y-182257200D01*
X179862914Y-183685771D02*
X179862914Y-182185771D01*
X180505771Y-183685771D02*
X180505771Y-182900057D01*
X180434342Y-182757200D01*
X180291485Y-182685771D01*
X180077200Y-182685771D01*
X179934342Y-182757200D01*
X179862914Y-182828628D01*
X181791485Y-183614342D02*
X181648628Y-183685771D01*
X181362914Y-183685771D01*
X181220057Y-183614342D01*
X181148628Y-183471485D01*
X181148628Y-182900057D01*
X181220057Y-182757200D01*
X181362914Y-182685771D01*
X181648628Y-182685771D01*
X181791485Y-182757200D01*
X181862914Y-182900057D01*
X181862914Y-183042914D01*
X181148628Y-183185771D01*
X183077200Y-183614342D02*
X182934342Y-183685771D01*
X182648628Y-183685771D01*
X182505771Y-183614342D01*
X182434342Y-183471485D01*
X182434342Y-182900057D01*
X182505771Y-182757200D01*
X182648628Y-182685771D01*
X182934342Y-182685771D01*
X183077200Y-182757200D01*
X183148628Y-182900057D01*
X183148628Y-183042914D01*
X182434342Y-183185771D01*
X183577200Y-182685771D02*
X184148628Y-182685771D01*
X183791485Y-182185771D02*
X183791485Y-183471485D01*
X183862914Y-183614342D01*
X184005771Y-183685771D01*
X184148628Y-183685771D01*
X184648628Y-183542914D02*
X184720057Y-183614342D01*
X184648628Y-183685771D01*
X184577200Y-183614342D01*
X184648628Y-183542914D01*
X184648628Y-183685771D01*
X184648628Y-182757200D02*
X184720057Y-182828628D01*
X184648628Y-182900057D01*
X184577200Y-182828628D01*
X184648628Y-182757200D01*
X184648628Y-182900057D01*
D10*
D12*
D10*
D11*
D10*
D11*
D10*
D11*
D10*
D11*
D10*
D11*
X197002200Y-191507200D02*
X197002200Y-194507200D01*
D10*
D11*
X261002200Y-191507200D02*
X261002200Y-198007200D01*
D14*
X201500000Y-43500000D02*
G75*
G03*
X197000000Y-39000000I-4500000J0D01*
G01*
X109500000Y-39000000D02*
G75*
G03*
X105000000Y-43500000I0J-4500000D01*
G01*
X105000000Y-134000000D02*
G75*
G03*
X109500000Y-138500000I4500000J0D01*
G01*
X197000000Y-138500000D02*
G75*
G03*
X201500000Y-134000000I0J4500000D01*
G01*
X109500000Y-138500000D02*
X197000000Y-138500000D01*
X105000000Y-43500000D02*
X105000000Y-134000000D01*
X197000000Y-39000000D02*
X109500000Y-39000000D01*
X201500000Y-134000000D02*
X201500000Y-43500000D01*
D11*
%TO.C,J4*%
X174758333Y-108792380D02*
X174758333Y-109506666D01*
X174805952Y-109649523D01*
X174901190Y-109744761D01*
X175044047Y-109792380D01*
X175139285Y-109792380D01*
X173853571Y-109125714D02*
X173853571Y-109792380D01*
X174091666Y-108744761D02*
X174329761Y-109459047D01*
X173710714Y-109459047D01*
%TO.C,C6*%
X191007142Y-127933333D02*
X191054761Y-127885714D01*
X191102380Y-127742857D01*
X191102380Y-127647619D01*
X191054761Y-127504761D01*
X190959523Y-127409523D01*
X190864285Y-127361904D01*
X190673809Y-127314285D01*
X190530952Y-127314285D01*
X190340476Y-127361904D01*
X190245238Y-127409523D01*
X190150000Y-127504761D01*
X190102380Y-127647619D01*
X190102380Y-127742857D01*
X190150000Y-127885714D01*
X190197619Y-127933333D01*
X190102380Y-128790476D02*
X190102380Y-128600000D01*
X190150000Y-128504761D01*
X190197619Y-128457142D01*
X190340476Y-128361904D01*
X190530952Y-128314285D01*
X190911904Y-128314285D01*
X191007142Y-128361904D01*
X191054761Y-128409523D01*
X191102380Y-128504761D01*
X191102380Y-128695238D01*
X191054761Y-128790476D01*
X191007142Y-128838095D01*
X190911904Y-128885714D01*
X190673809Y-128885714D01*
X190578571Y-128838095D01*
X190530952Y-128790476D01*
X190483333Y-128695238D01*
X190483333Y-128504761D01*
X190530952Y-128409523D01*
X190578571Y-128361904D01*
X190673809Y-128314285D01*
%TO.C,C7*%
X117607142Y-127833333D02*
X117654761Y-127785714D01*
X117702380Y-127642857D01*
X117702380Y-127547619D01*
X117654761Y-127404761D01*
X117559523Y-127309523D01*
X117464285Y-127261904D01*
X117273809Y-127214285D01*
X117130952Y-127214285D01*
X116940476Y-127261904D01*
X116845238Y-127309523D01*
X116750000Y-127404761D01*
X116702380Y-127547619D01*
X116702380Y-127642857D01*
X116750000Y-127785714D01*
X116797619Y-127833333D01*
X116702380Y-128166666D02*
X116702380Y-128833333D01*
X117702380Y-128404761D01*
D15*
%TO.C,J4*%
X174425000Y-107900000D02*
X175755000Y-107900000D01*
X175755000Y-105300000D02*
X175755000Y-100160000D01*
X173095000Y-105300000D02*
X173095000Y-100160000D01*
X173095000Y-105300000D02*
X175755000Y-105300000D01*
X175755000Y-107900000D02*
X175755000Y-106570000D01*
X173095000Y-100160000D02*
X175755000Y-100160000D01*
%TO.C,C6*%
X158954000Y-139869501D02*
X185046000Y-139869501D01*
X156280000Y-135950501D02*
X187720000Y-135950501D01*
X160693000Y-141549501D02*
X183307000Y-141549501D01*
X154999000Y-132550501D02*
X169760000Y-132550501D01*
X160837000Y-141669501D02*
X183163000Y-141669501D01*
X174240000Y-133470501D02*
X188733000Y-133470501D01*
X161084000Y-141869501D02*
X182916000Y-141869501D01*
X174240000Y-132670501D02*
X188969000Y-132670501D01*
X154663000Y-130990501D02*
X169760000Y-130990501D01*
X174240000Y-134750501D02*
X188265000Y-134750501D01*
X156049000Y-135470501D02*
X187951000Y-135470501D01*
X154677000Y-131070501D02*
X169760000Y-131070501D01*
X155347000Y-133710501D02*
X169760000Y-133710501D01*
X165597000Y-144469501D02*
X178403000Y-144469501D01*
X161553000Y-142229501D02*
X182447000Y-142229501D01*
X157111000Y-137429501D02*
X186889000Y-137429501D01*
X168595000Y-145349501D02*
X175405000Y-145349501D01*
X155835000Y-134990501D02*
X169760000Y-134990501D01*
X161500000Y-142189501D02*
X182500000Y-142189501D01*
X155922000Y-135190501D02*
X169760000Y-135190501D01*
X156402000Y-136190501D02*
X187598000Y-136190501D01*
X174240000Y-133430501D02*
X188745000Y-133430501D01*
X154529000Y-130030501D02*
X189471000Y-130030501D01*
X174240000Y-131870501D02*
X189166000Y-131870501D01*
X162355000Y-142789501D02*
X181645000Y-142789501D01*
X158990000Y-139909501D02*
X185010000Y-139909501D01*
X174240000Y-132070501D02*
X189120000Y-132070501D01*
X158883000Y-139789501D02*
X185117000Y-139789501D01*
X174240000Y-134230501D02*
X188469000Y-134230501D01*
X157845000Y-138509501D02*
X186155000Y-138509501D01*
X154472000Y-129430501D02*
X189528000Y-129430501D01*
X174240000Y-133870501D02*
X188599000Y-133870501D01*
X160413000Y-141309501D02*
X183587000Y-141309501D01*
X159482000Y-140429501D02*
X184518000Y-140429501D01*
X174240000Y-131830501D02*
X189175000Y-131830501D01*
X156844000Y-136989501D02*
X187156000Y-136989501D01*
X174240000Y-135030501D02*
X188148000Y-135030501D01*
X162540000Y-142909501D02*
X181460000Y-142909501D01*
X155994000Y-135350501D02*
X188006000Y-135350501D01*
X154440000Y-128910501D02*
X189560000Y-128910501D01*
X156105000Y-135590501D02*
X187895000Y-135590501D01*
X158707000Y-139589501D02*
X185293000Y-139589501D01*
X156162000Y-135710501D02*
X187838000Y-135710501D01*
X154743000Y-131430501D02*
X169760000Y-131430501D01*
X154444000Y-128990501D02*
X189556000Y-128990501D01*
X174240000Y-133190501D02*
X188820000Y-133190501D01*
X163196000Y-143309501D02*
X180804000Y-143309501D01*
X155852000Y-135030501D02*
X169760000Y-135030501D01*
X155020000Y-132630501D02*
X169760000Y-132630501D01*
X174240000Y-132630501D02*
X188980000Y-132630501D01*
X154937000Y-132310501D02*
X169760000Y-132310501D01*
X162860000Y-143109501D02*
X181140000Y-143109501D01*
X174240000Y-133150501D02*
X188832000Y-133150501D01*
X158537000Y-139389501D02*
X185463000Y-139389501D01*
X174240000Y-134910501D02*
X188199000Y-134910501D01*
X157532000Y-138069501D02*
X186468000Y-138069501D01*
X174240000Y-134110501D02*
X188513000Y-134110501D01*
X162603000Y-142949501D02*
X181397000Y-142949501D01*
X155607000Y-134430501D02*
X169760000Y-134430501D01*
X174240000Y-133350501D02*
X188771000Y-133350501D01*
X155255000Y-133430501D02*
X169760000Y-133430501D01*
X156320000Y-136030501D02*
X187680000Y-136030501D01*
X174240000Y-135230501D02*
X188060000Y-135230501D01*
X154927000Y-132270501D02*
X169760000Y-132270501D01*
X157187000Y-137549501D02*
X186813000Y-137549501D01*
X161608000Y-142269501D02*
X182392000Y-142269501D01*
X162125000Y-109215499D02*
X162125000Y-112715499D01*
X159137000Y-140069501D02*
X184863000Y-140069501D01*
X156181000Y-135750501D02*
X187819000Y-135750501D01*
X159100000Y-140029501D02*
X184900000Y-140029501D01*
X174240000Y-134470501D02*
X188377000Y-134470501D01*
X157758000Y-138389501D02*
X186242000Y-138389501D01*
X174240000Y-131790501D02*
X189183000Y-131790501D01*
X158812000Y-139709501D02*
X185188000Y-139709501D01*
X174240000Y-134310501D02*
X188439000Y-134310501D01*
X174240000Y-134430501D02*
X188393000Y-134430501D01*
X156067000Y-135510501D02*
X187933000Y-135510501D01*
X154889000Y-132110501D02*
X169760000Y-132110501D01*
X157012000Y-137269501D02*
X186988000Y-137269501D01*
X174240000Y-133270501D02*
X188796000Y-133270501D01*
X159805000Y-140749501D02*
X184195000Y-140749501D01*
X155120000Y-132990501D02*
X169760000Y-132990501D01*
X174240000Y-135070501D02*
X188130000Y-135070501D01*
X174240000Y-133230501D02*
X188808000Y-133230501D01*
X157816000Y-138469501D02*
X186184000Y-138469501D01*
X155144000Y-133070501D02*
X169760000Y-133070501D01*
X174240000Y-131910501D02*
X189157000Y-131910501D01*
X160788000Y-141629501D02*
X183212000Y-141629501D01*
X158307000Y-139109501D02*
X185693000Y-139109501D01*
X164835000Y-144149501D02*
X179165000Y-144149501D01*
X157423000Y-137909501D02*
X186577000Y-137909501D01*
X174240000Y-132190501D02*
X189092000Y-132190501D01*
X174240000Y-131030501D02*
X189330000Y-131030501D01*
X157290000Y-137709501D02*
X186710000Y-137709501D01*
X159641000Y-140589501D02*
X184359000Y-140589501D01*
X165017000Y-144229501D02*
X178983000Y-144229501D01*
X155063000Y-132790501D02*
X169760000Y-132790501D01*
X154618000Y-130710501D02*
X189382000Y-130710501D01*
X158372000Y-139189501D02*
X185628000Y-139189501D01*
X155229000Y-133350501D02*
X169760000Y-133350501D01*
X174240000Y-132950501D02*
X188891000Y-132950501D01*
X158777000Y-139669501D02*
X185223000Y-139669501D01*
X157701000Y-138309501D02*
X186299000Y-138309501D01*
X154625000Y-130750501D02*
X189375000Y-130750501D01*
X158638000Y-139509501D02*
X185362000Y-139509501D01*
X163265000Y-143349501D02*
X180735000Y-143349501D01*
X155502000Y-134150501D02*
X169760000Y-134150501D01*
X174240000Y-132430501D02*
X189033000Y-132430501D01*
X155320000Y-133630501D02*
X169760000Y-133630501D01*
X154438000Y-128870501D02*
X189562000Y-128870501D01*
X164080000Y-143789501D02*
X179920000Y-143789501D01*
X155333000Y-133670501D02*
X169760000Y-133670501D01*
X155516000Y-134190501D02*
X169760000Y-134190501D01*
X174240000Y-131310501D02*
X189280000Y-131310501D01*
X164322000Y-143909501D02*
X179678000Y-143909501D01*
X157787000Y-138429501D02*
X186213000Y-138429501D01*
X154512000Y-129870501D02*
X189488000Y-129870501D01*
X156915000Y-137109501D02*
X187085000Y-137109501D01*
X160059000Y-140989501D02*
X183941000Y-140989501D01*
X174240000Y-133670501D02*
X188667000Y-133670501D01*
X158180000Y-138949501D02*
X185820000Y-138949501D01*
X158243000Y-139029501D02*
X185757000Y-139029501D01*
X166727000Y-144869501D02*
X177273000Y-144869501D01*
X157037000Y-137309501D02*
X186963000Y-137309501D01*
X154516000Y-129910501D02*
X189484000Y-129910501D01*
X154466000Y-129350501D02*
X189534000Y-129350501D01*
X157560000Y-138109501D02*
X186440000Y-138109501D01*
X156706000Y-136749501D02*
X187294000Y-136749501D01*
X154643000Y-130870501D02*
X169760000Y-130870501D01*
X154691000Y-131150501D02*
X169760000Y-131150501D01*
X161341000Y-142069501D02*
X182659000Y-142069501D01*
X156774000Y-136869501D02*
X187226000Y-136869501D01*
X161942000Y-142509501D02*
X182058000Y-142509501D01*
X174240000Y-133070501D02*
X188856000Y-133070501D01*
X174240000Y-132310501D02*
X189063000Y-132310501D01*
X157317000Y-137749501D02*
X186683000Y-137749501D01*
X154446000Y-129030501D02*
X189554000Y-129030501D01*
X161237000Y-141989501D02*
X182763000Y-141989501D01*
X174240000Y-131470501D02*
X189249000Y-131470501D01*
X160984000Y-141789501D02*
X183016000Y-141789501D01*
X174240000Y-133950501D02*
X188570000Y-133950501D01*
X156683000Y-136709501D02*
X187317000Y-136709501D01*
X174240000Y-134590501D02*
X188330000Y-134590501D01*
X159250000Y-140189501D02*
X184750000Y-140189501D01*
X174240000Y-131070501D02*
X189323000Y-131070501D01*
X170587000Y-145629501D02*
X173413000Y-145629501D01*
X154436000Y-128830501D02*
X189564000Y-128830501D01*
X156030000Y-135430501D02*
X187970000Y-135430501D01*
X174240000Y-133990501D02*
X188556000Y-133990501D01*
X174240000Y-131430501D02*
X189257000Y-131430501D01*
X159561000Y-140509501D02*
X184439000Y-140509501D01*
X158275000Y-139069501D02*
X185725000Y-139069501D01*
X154552000Y-130230501D02*
X189448000Y-130230501D01*
X164160000Y-143829501D02*
X179840000Y-143829501D01*
X155075000Y-132830501D02*
X169760000Y-132830501D01*
X154448000Y-129070501D02*
X189552000Y-129070501D01*
X158570000Y-139429501D02*
X185430000Y-139429501D01*
X174240000Y-132590501D02*
X188991000Y-132590501D01*
X157672000Y-138269501D02*
X186328000Y-138269501D01*
X165700000Y-144509501D02*
X178300000Y-144509501D01*
X165911000Y-144589501D02*
X178089000Y-144589501D01*
X154533000Y-130070501D02*
X189467000Y-130070501D01*
X155444000Y-133990501D02*
X169760000Y-133990501D01*
X174240000Y-132830501D02*
X188925000Y-132830501D01*
X174240000Y-133550501D02*
X188707000Y-133550501D01*
X162992000Y-143189501D02*
X181008000Y-143189501D01*
X162058000Y-142589501D02*
X181942000Y-142589501D01*
X155374000Y-133790501D02*
X169760000Y-133790501D01*
X165397000Y-144389501D02*
X178603000Y-144389501D01*
X156729000Y-136789501D02*
X187271000Y-136789501D01*
X156529000Y-136429501D02*
X187471000Y-136429501D01*
X156124000Y-135630501D02*
X187876000Y-135630501D01*
X157162000Y-137509501D02*
X186838000Y-137509501D01*
X157729000Y-138349501D02*
X186271000Y-138349501D01*
X164925000Y-144189501D02*
X179075000Y-144189501D01*
X154421000Y-128269501D02*
X189579000Y-128269501D01*
X161885000Y-142469501D02*
X182115000Y-142469501D01*
X157136000Y-137469501D02*
X186864000Y-137469501D01*
X155546000Y-134270501D02*
X169760000Y-134270501D01*
X154978000Y-132470501D02*
X169760000Y-132470501D01*
X167407000Y-145069501D02*
X176593000Y-145069501D01*
X166480000Y-144789501D02*
X177520000Y-144789501D01*
X154684000Y-131110501D02*
X169760000Y-131110501D01*
X174240000Y-131750501D02*
X189192000Y-131750501D01*
X162295000Y-142749501D02*
X181705000Y-142749501D01*
X154880000Y-132070501D02*
X169760000Y-132070501D01*
X156423000Y-136230501D02*
X187577000Y-136230501D01*
X174240000Y-131190501D02*
X189302000Y-131190501D01*
X159365000Y-140309501D02*
X184635000Y-140309501D01*
X174240000Y-133910501D02*
X188585000Y-133910501D01*
X174240000Y-133110501D02*
X188844000Y-133110501D01*
X159723000Y-140669501D02*
X184277000Y-140669501D01*
X161773000Y-142389501D02*
X182227000Y-142389501D01*
X174240000Y-131150501D02*
X189309000Y-131150501D01*
X155801000Y-134910501D02*
X169760000Y-134910501D01*
X174240000Y-131230501D02*
X189295000Y-131230501D01*
X157264000Y-137669501D02*
X186736000Y-137669501D01*
X154485000Y-129590501D02*
X189515000Y-129590501D01*
X156639000Y-136629501D02*
X187361000Y-136629501D01*
X154727000Y-131350501D02*
X169760000Y-131350501D01*
X155751000Y-134790501D02*
X169760000Y-134790501D01*
X154589000Y-130510501D02*
X189411000Y-130510501D01*
X155577000Y-134350501D02*
X169760000Y-134350501D01*
X174240000Y-134710501D02*
X188281000Y-134710501D01*
X154492000Y-129670501D02*
X189508000Y-129670501D01*
X174240000Y-133390501D02*
X188758000Y-133390501D01*
X160323000Y-141229501D02*
X183677000Y-141229501D01*
X174240000Y-133590501D02*
X188694000Y-133590501D01*
X158117000Y-138869501D02*
X185883000Y-138869501D01*
X160505000Y-141389501D02*
X183495000Y-141389501D01*
X163924000Y-143709501D02*
X180076000Y-143709501D01*
X154500000Y-129750501D02*
X189500000Y-129750501D01*
X154735000Y-131390501D02*
X169760000Y-131390501D01*
X165496000Y-144429501D02*
X178504000Y-144429501D01*
X155267000Y-133470501D02*
X169760000Y-133470501D01*
X157396000Y-137869501D02*
X186604000Y-137869501D01*
X161393000Y-142109501D02*
X182607000Y-142109501D01*
X174240000Y-131110501D02*
X189316000Y-131110501D01*
X174240000Y-132390501D02*
X189043000Y-132390501D01*
X174240000Y-131950501D02*
X189148000Y-131950501D01*
X158503000Y-139349501D02*
X185497000Y-139349501D01*
X163623000Y-143549501D02*
X180377000Y-143549501D01*
X154450000Y-129110501D02*
X189550000Y-129110501D01*
X154548000Y-130190501D02*
X189452000Y-130190501D01*
X154421000Y-128309501D02*
X189579000Y-128309501D01*
X174240000Y-132470501D02*
X189022000Y-132470501D01*
X155785000Y-134870501D02*
X169760000Y-134870501D01*
X154453000Y-129150501D02*
X189547000Y-129150501D01*
X157905000Y-138589501D02*
X186095000Y-138589501D01*
X156508000Y-136389501D02*
X187492000Y-136389501D01*
X159212000Y-140149501D02*
X184788000Y-140149501D01*
X159764000Y-140709501D02*
X184236000Y-140709501D01*
X174240000Y-132790501D02*
X188937000Y-132790501D01*
X169527000Y-145509501D02*
X174473000Y-145509501D01*
X163697000Y-143589501D02*
X180303000Y-143589501D01*
X154463000Y-129310501D02*
X189537000Y-129310501D01*
X155280000Y-133510501D02*
X169760000Y-133510501D01*
X155217000Y-133310501D02*
X169760000Y-133310501D01*
X154908000Y-132190501D02*
X169760000Y-132190501D01*
X154595000Y-130550501D02*
X189405000Y-130550501D01*
X167556000Y-145109501D02*
X176444000Y-145109501D01*
X156220000Y-135830501D02*
X187780000Y-135830501D01*
X174240000Y-134390501D02*
X188408000Y-134390501D01*
X174240000Y-132510501D02*
X189012000Y-132510501D01*
X156661000Y-136669501D02*
X187339000Y-136669501D01*
X156143000Y-135670501D02*
X187857000Y-135670501D01*
X155702000Y-134670501D02*
X169760000Y-134670501D01*
X154434000Y-128790501D02*
X189566000Y-128790501D01*
X156963000Y-137189501D02*
X187037000Y-137189501D01*
X167872000Y-145189501D02*
X176128000Y-145189501D01*
X174240000Y-133310501D02*
X188783000Y-133310501D01*
X174240000Y-133510501D02*
X188720000Y-133510501D01*
X160016000Y-140949501D02*
X183984000Y-140949501D01*
X157343000Y-137789501D02*
X186657000Y-137789501D01*
X159027000Y-139949501D02*
X184973000Y-139949501D01*
X174240000Y-135110501D02*
X188113000Y-135110501D01*
X155430000Y-133950501D02*
X169760000Y-133950501D01*
X154420000Y-128149501D02*
X189580000Y-128149501D01*
X174240000Y-132230501D02*
X189082000Y-132230501D01*
X159601000Y-140549501D02*
X184399000Y-140549501D01*
X174240000Y-132990501D02*
X188880000Y-132990501D01*
X155623000Y-134470501D02*
X169760000Y-134470501D01*
X163772000Y-143629501D02*
X180228000Y-143629501D01*
X174240000Y-130910501D02*
X189350000Y-130910501D01*
X174240000Y-132750501D02*
X188948000Y-132750501D01*
X156201000Y-135790501D02*
X187799000Y-135790501D01*
X174240000Y-133630501D02*
X188680000Y-133630501D01*
X154584000Y-130470501D02*
X189416000Y-130470501D01*
X157450000Y-137949501D02*
X186550000Y-137949501D01*
X155009000Y-132590501D02*
X169760000Y-132590501D01*
X174240000Y-134950501D02*
X188182000Y-134950501D01*
X154601000Y-130590501D02*
X189399000Y-130590501D01*
X159889000Y-140829501D02*
X184111000Y-140829501D01*
X160598000Y-141469501D02*
X183402000Y-141469501D01*
X158437000Y-139269501D02*
X185563000Y-139269501D01*
X156486000Y-136349501D02*
X187514000Y-136349501D01*
X155768000Y-134830501D02*
X169760000Y-134830501D01*
X174240000Y-134990501D02*
X188165000Y-134990501D01*
X161446000Y-142149501D02*
X182554000Y-142149501D01*
X156594000Y-136549501D02*
X187406000Y-136549501D01*
X160885000Y-141709501D02*
X183115000Y-141709501D01*
X154650000Y-130910501D02*
X169760000Y-130910501D01*
X159973000Y-140909501D02*
X184027000Y-140909501D01*
X174240000Y-130950501D02*
X189344000Y-130950501D01*
X162000000Y-142549501D02*
X182000000Y-142549501D01*
X156551000Y-136469501D02*
X187449000Y-136469501D01*
X174240000Y-132910501D02*
X188903000Y-132910501D01*
X159326000Y-140269501D02*
X184674000Y-140269501D01*
X154422000Y-128349501D02*
X189578000Y-128349501D01*
X156361000Y-136110501D02*
X187639000Y-136110501D01*
X154420000Y-128189501D02*
X189580000Y-128189501D01*
X156797000Y-136909501D02*
X187203000Y-136909501D01*
X158149000Y-138909501D02*
X185851000Y-138909501D01*
X154460000Y-129270501D02*
X189540000Y-129270501D01*
X154431000Y-128709501D02*
X189569000Y-128709501D01*
X157061000Y-137349501D02*
X186939000Y-137349501D01*
X158918000Y-139829501D02*
X185082000Y-139829501D01*
X154656000Y-130950501D02*
X169760000Y-130950501D01*
X160102000Y-141029501D02*
X183898000Y-141029501D01*
X154427000Y-128589501D02*
X189573000Y-128589501D01*
X174240000Y-134150501D02*
X188498000Y-134150501D01*
X155242000Y-133390501D02*
X169760000Y-133390501D01*
X166020000Y-144629501D02*
X177980000Y-144629501D01*
X163550000Y-143509501D02*
X180450000Y-143509501D01*
X154606000Y-130630501D02*
X189394000Y-130630501D01*
X155293000Y-133550501D02*
X169760000Y-133550501D01*
X155487000Y-134110501D02*
X169760000Y-134110501D01*
X174240000Y-133710501D02*
X188653000Y-133710501D01*
X160278000Y-141189501D02*
X183722000Y-141189501D01*
X156381000Y-136150501D02*
X187619000Y-136150501D01*
X161829000Y-142429501D02*
X182171000Y-142429501D01*
X174240000Y-130830501D02*
X189363000Y-130830501D01*
X157086000Y-137389501D02*
X186914000Y-137389501D01*
X174240000Y-135270501D02*
X188042000Y-135270501D01*
X174240000Y-131670501D02*
X189209000Y-131670501D01*
X168802000Y-145389501D02*
X175198000Y-145389501D01*
X159288000Y-140229501D02*
X184712000Y-140229501D01*
X158211000Y-138989501D02*
X185789000Y-138989501D01*
X159521000Y-140469501D02*
X184479000Y-140469501D01*
X159443000Y-140389501D02*
X184557000Y-140389501D01*
X154426000Y-128549501D02*
X189574000Y-128549501D01*
X160234000Y-141149501D02*
X183766000Y-141149501D01*
X174240000Y-134670501D02*
X188298000Y-134670501D01*
X154767000Y-131550501D02*
X169760000Y-131550501D01*
X158470000Y-139309501D02*
X185530000Y-139309501D01*
X174240000Y-134630501D02*
X188314000Y-134630501D01*
X155639000Y-134510501D02*
X169760000Y-134510501D01*
X154458000Y-129230501D02*
X189542000Y-129230501D01*
X174240000Y-131270501D02*
X189287000Y-131270501D01*
X174240000Y-132870501D02*
X188914000Y-132870501D01*
X167262000Y-145029501D02*
X176738000Y-145029501D01*
X155132000Y-133030501D02*
X169760000Y-133030501D01*
X154817000Y-131790501D02*
X169760000Y-131790501D01*
X174240000Y-133790501D02*
X188626000Y-133790501D01*
X174240000Y-133750501D02*
X188640000Y-133750501D01*
X164573000Y-144029501D02*
X179427000Y-144029501D01*
X154870000Y-132030501D02*
X169760000Y-132030501D01*
X154475000Y-129470501D02*
X189525000Y-129470501D01*
X169823000Y-145549501D02*
X174177000Y-145549501D01*
X174240000Y-134510501D02*
X188361000Y-134510501D01*
X174240000Y-134790501D02*
X188249000Y-134790501D01*
X174240000Y-134270501D02*
X188454000Y-134270501D01*
X174240000Y-131350501D02*
X189273000Y-131350501D01*
X165300000Y-144349501D02*
X178700000Y-144349501D01*
X159063000Y-139989501D02*
X184937000Y-139989501D01*
X160645000Y-141509501D02*
X183355000Y-141509501D01*
X154947000Y-132350501D02*
X169760000Y-132350501D01*
X157370000Y-137829501D02*
X186630000Y-137829501D01*
X154720000Y-131310501D02*
X169760000Y-131310501D01*
X174240000Y-132150501D02*
X189102000Y-132150501D01*
X158404000Y-139229501D02*
X185596000Y-139229501D01*
X154543000Y-130150501D02*
X189457000Y-130150501D01*
X169024000Y-145429501D02*
X174976000Y-145429501D01*
X158056000Y-138789501D02*
X185944000Y-138789501D01*
X174240000Y-135190501D02*
X188078000Y-135190501D01*
X156240000Y-135870501D02*
X187760000Y-135870501D01*
X154843000Y-131910501D02*
X169760000Y-131910501D01*
X166361000Y-144749501D02*
X177639000Y-144749501D01*
X154568000Y-130350501D02*
X189432000Y-130350501D01*
X154420000Y-128069501D02*
X189580000Y-128069501D01*
X162666000Y-142989501D02*
X181334000Y-142989501D01*
X154428000Y-128629501D02*
X189572000Y-128629501D01*
X171200000Y-145669501D02*
X172800000Y-145669501D01*
X154967000Y-132430501D02*
X169760000Y-132430501D01*
X174240000Y-131550501D02*
X189233000Y-131550501D01*
X155306000Y-133590501D02*
X169760000Y-133590501D01*
X174240000Y-131630501D02*
X189217000Y-131630501D01*
X161135000Y-141909501D02*
X182865000Y-141909501D01*
X156988000Y-137229501D02*
X187012000Y-137229501D01*
X155719000Y-134710501D02*
X169760000Y-134710501D01*
X174240000Y-133030501D02*
X188868000Y-133030501D01*
X154578000Y-130430501D02*
X189422000Y-130430501D01*
X157965000Y-138669501D02*
X186035000Y-138669501D01*
X174240000Y-131590501D02*
X189225000Y-131590501D01*
X157213000Y-137589501D02*
X186787000Y-137589501D01*
X155473000Y-134070501D02*
X169760000Y-134070501D01*
X156616000Y-136589501D02*
X187384000Y-136589501D01*
X156260000Y-135910501D02*
X187740000Y-135910501D01*
X160368000Y-141269501D02*
X183632000Y-141269501D01*
X174240000Y-133830501D02*
X188612000Y-133830501D01*
X167122000Y-144989501D02*
X176878000Y-144989501D01*
X154775000Y-131590501D02*
X169760000Y-131590501D01*
X162926000Y-143149501D02*
X181074000Y-143149501D01*
X162478000Y-142869501D02*
X181522000Y-142869501D01*
X164747000Y-144109501D02*
X179253000Y-144109501D01*
X154504000Y-129790501D02*
X189496000Y-129790501D01*
X174240000Y-134870501D02*
X188215000Y-134870501D01*
X163060000Y-143229501D02*
X180940000Y-143229501D01*
X159404000Y-140349501D02*
X184596000Y-140349501D01*
X168400000Y-145309501D02*
X175600000Y-145309501D01*
X162175000Y-142669501D02*
X181825000Y-142669501D01*
X155041000Y-132710501D02*
X169760000Y-132710501D01*
X157875000Y-138549501D02*
X186125000Y-138549501D01*
X155401000Y-133870501D02*
X169760000Y-133870501D01*
X169264000Y-145469501D02*
X174736000Y-145469501D01*
X156465000Y-136309501D02*
X187535000Y-136309501D01*
X154420000Y-128229501D02*
X189580000Y-128229501D01*
X154670000Y-131030501D02*
X169760000Y-131030501D01*
X154783000Y-131630501D02*
X169760000Y-131630501D01*
X154808000Y-131750501D02*
X169760000Y-131750501D01*
X154425000Y-128509501D02*
X189575000Y-128509501D01*
X157477000Y-137989501D02*
X186523000Y-137989501D01*
X154524000Y-129990501D02*
X189476000Y-129990501D01*
X163406000Y-143429501D02*
X180594000Y-143429501D01*
X155156000Y-133110501D02*
X169760000Y-133110501D01*
X155940000Y-135230501D02*
X169760000Y-135230501D01*
X154455000Y-129190501D02*
X189545000Y-129190501D01*
X164002000Y-143749501D02*
X179998000Y-143749501D01*
X154538000Y-130110501D02*
X189462000Y-130110501D01*
X154705000Y-131230501D02*
X169760000Y-131230501D01*
X155818000Y-134950501D02*
X169760000Y-134950501D01*
X174240000Y-131710501D02*
X189200000Y-131710501D01*
X154791000Y-131670501D02*
X169760000Y-131670501D01*
X174240000Y-134190501D02*
X188484000Y-134190501D01*
X154713000Y-131270501D02*
X169760000Y-131270501D01*
X155976000Y-135310501D02*
X188024000Y-135310501D01*
X157644000Y-138229501D02*
X186356000Y-138229501D01*
X174240000Y-131510501D02*
X189241000Y-131510501D01*
X154834000Y-131870501D02*
X169760000Y-131870501D01*
X155561000Y-134310501D02*
X169760000Y-134310501D01*
X155031000Y-132670501D02*
X169760000Y-132670501D01*
X154918000Y-132230501D02*
X169760000Y-132230501D01*
X159931000Y-140869501D02*
X184069000Y-140869501D01*
X155415000Y-133910501D02*
X169760000Y-133910501D01*
X155592000Y-134390501D02*
X169760000Y-134390501D01*
X174240000Y-130870501D02*
X189357000Y-130870501D01*
X162730000Y-143029501D02*
X181270000Y-143029501D01*
X155052000Y-132750501D02*
X169760000Y-132750501D01*
X154562000Y-130310501D02*
X189438000Y-130310501D01*
X154637000Y-130830501D02*
X169760000Y-130830501D01*
X167711000Y-145149501D02*
X176289000Y-145149501D01*
X161034000Y-141829501D02*
X182966000Y-141829501D01*
X174240000Y-132270501D02*
X189073000Y-132270501D01*
X158742000Y-139629501D02*
X185258000Y-139629501D01*
X160934000Y-141749501D02*
X183066000Y-141749501D01*
X156572000Y-136509501D02*
X187428000Y-136509501D01*
X154424000Y-128469501D02*
X189576000Y-128469501D01*
X154800000Y-131710501D02*
X169760000Y-131710501D01*
X174240000Y-134070501D02*
X188527000Y-134070501D01*
X163127000Y-143269501D02*
X180873000Y-143269501D01*
X155887000Y-135110501D02*
X169760000Y-135110501D01*
X155192000Y-133230501D02*
X169760000Y-133230501D01*
X154957000Y-132390501D02*
X169760000Y-132390501D01*
X174240000Y-135150501D02*
X188095000Y-135150501D01*
X160146000Y-141069501D02*
X183854000Y-141069501D01*
X161185000Y-141949501D02*
X182815000Y-141949501D01*
X161662000Y-142309501D02*
X182338000Y-142309501D01*
X154825000Y-131830501D02*
X169760000Y-131830501D01*
X154751000Y-131470501D02*
X169760000Y-131470501D01*
X154852000Y-131950501D02*
X169760000Y-131950501D01*
X154496000Y-129710501D02*
X189504000Y-129710501D01*
X154988000Y-132510501D02*
X169760000Y-132510501D01*
X155735000Y-134750501D02*
X169760000Y-134750501D01*
X160740000Y-141589501D02*
X183260000Y-141589501D01*
X154420000Y-128109501D02*
X189580000Y-128109501D01*
X155180000Y-133190501D02*
X169760000Y-133190501D01*
X166855000Y-144909501D02*
X177145000Y-144909501D01*
X174240000Y-131390501D02*
X189265000Y-131390501D01*
X154469000Y-129390501D02*
X189531000Y-129390501D01*
X154520000Y-129950501D02*
X189480000Y-129950501D01*
X174240000Y-132030501D02*
X189130000Y-132030501D01*
X174240000Y-134550501D02*
X188346000Y-134550501D01*
X154861000Y-131990501D02*
X169760000Y-131990501D01*
X155654000Y-134550501D02*
X169760000Y-134550501D01*
X154489000Y-129630501D02*
X189511000Y-129630501D01*
X174240000Y-132350501D02*
X189053000Y-132350501D01*
X164241000Y-143869501D02*
X179759000Y-143869501D01*
X157505000Y-138029501D02*
X186495000Y-138029501D01*
X154430000Y-128669501D02*
X189570000Y-128669501D01*
X154433000Y-128749501D02*
X189567000Y-128749501D01*
X170165000Y-145589501D02*
X173835000Y-145589501D01*
X158604000Y-139469501D02*
X185396000Y-139469501D01*
X156751000Y-136829501D02*
X187249000Y-136829501D01*
X160551000Y-141429501D02*
X183449000Y-141429501D01*
X174240000Y-130990501D02*
X189337000Y-130990501D01*
X156821000Y-136949501D02*
X187179000Y-136949501D01*
X162116000Y-142629501D02*
X181884000Y-142629501D01*
X165110000Y-144269501D02*
X178890000Y-144269501D01*
X174240000Y-132550501D02*
X189001000Y-132550501D01*
X163848000Y-143669501D02*
X180152000Y-143669501D01*
X174240000Y-132110501D02*
X189111000Y-132110501D01*
X166132000Y-144669501D02*
X177868000Y-144669501D01*
X165204000Y-144309501D02*
X178796000Y-144309501D01*
X156012000Y-135390501D02*
X187988000Y-135390501D01*
X160375000Y-110965499D02*
X163875000Y-110965499D01*
X154898000Y-132150501D02*
X169760000Y-132150501D01*
X159175000Y-140109501D02*
X184825000Y-140109501D01*
X154508000Y-129830501D02*
X189492000Y-129830501D01*
X155686000Y-134630501D02*
X169760000Y-134630501D01*
X159682000Y-140629501D02*
X184318000Y-140629501D01*
X154557000Y-130270501D02*
X189443000Y-130270501D01*
X157995000Y-138709501D02*
X186005000Y-138709501D01*
X162235000Y-142709501D02*
X181765000Y-142709501D01*
X154612000Y-130670501D02*
X189388000Y-130670501D01*
X154759000Y-131510501D02*
X169760000Y-131510501D01*
X155168000Y-133150501D02*
X169760000Y-133150501D01*
X162795000Y-143069501D02*
X181205000Y-143069501D01*
X163335000Y-143389501D02*
X180665000Y-143389501D01*
X161289000Y-142029501D02*
X182711000Y-142029501D01*
X174240000Y-134350501D02*
X188423000Y-134350501D01*
X156444000Y-136269501D02*
X187556000Y-136269501D01*
X164659000Y-144069501D02*
X179341000Y-144069501D01*
X156939000Y-137149501D02*
X187061000Y-137149501D01*
X160189000Y-141109501D02*
X183811000Y-141109501D01*
X156086000Y-135550501D02*
X187914000Y-135550501D01*
X160459000Y-141349501D02*
X183541000Y-141349501D01*
X157935000Y-138629501D02*
X186065000Y-138629501D01*
X154422000Y-128389501D02*
X189578000Y-128389501D01*
X155109000Y-132950501D02*
X169760000Y-132950501D01*
X155086000Y-132870501D02*
X169760000Y-132870501D01*
X154698000Y-131190501D02*
X169760000Y-131190501D01*
X155905000Y-135150501D02*
X169760000Y-135150501D01*
X166245000Y-144709501D02*
X177755000Y-144709501D01*
X157238000Y-137629501D02*
X186762000Y-137629501D01*
X156868000Y-137029501D02*
X187132000Y-137029501D01*
X165805000Y-144549501D02*
X178195000Y-144549501D01*
X159847000Y-140789501D02*
X184153000Y-140789501D01*
X154441000Y-128950501D02*
X189559000Y-128950501D01*
X155531000Y-134230501D02*
X169760000Y-134230501D01*
X155360000Y-133750501D02*
X169760000Y-133750501D01*
X158339000Y-139149501D02*
X185661000Y-139149501D01*
X156300000Y-135990501D02*
X187700000Y-135990501D01*
X154573000Y-130390501D02*
X189427000Y-130390501D01*
X168215000Y-145269501D02*
X175785000Y-145269501D01*
X164488000Y-143989501D02*
X179512000Y-143989501D01*
X168040000Y-145229501D02*
X175960000Y-145229501D01*
X155097000Y-132910501D02*
X169760000Y-132910501D01*
X156891000Y-137069501D02*
X187109000Y-137069501D01*
X161717000Y-142349501D02*
X182283000Y-142349501D01*
X154423000Y-128429501D02*
X189577000Y-128429501D01*
X166987000Y-144949501D02*
X177013000Y-144949501D01*
X162416000Y-142829501D02*
X181584000Y-142829501D01*
X155958000Y-135270501D02*
X169760000Y-135270501D01*
X156340000Y-136070501D02*
X187660000Y-136070501D01*
X166602000Y-144829501D02*
X177398000Y-144829501D01*
X155204000Y-133270501D02*
X169760000Y-133270501D01*
X164405000Y-143949501D02*
X179595000Y-143949501D01*
X163478000Y-143469501D02*
X180522000Y-143469501D01*
X158673000Y-139549501D02*
X185327000Y-139549501D01*
X174240000Y-134830501D02*
X188232000Y-134830501D01*
X158025000Y-138749501D02*
X185975000Y-138749501D01*
X155670000Y-134590501D02*
X169760000Y-134590501D01*
X174240000Y-134030501D02*
X188542000Y-134030501D01*
X155458000Y-134030501D02*
X169760000Y-134030501D01*
X158086000Y-138829501D02*
X185914000Y-138829501D01*
X158847000Y-139749501D02*
X185153000Y-139749501D01*
X174240000Y-131990501D02*
X189139000Y-131990501D01*
X155388000Y-133830501D02*
X169760000Y-133830501D01*
X154631000Y-130790501D02*
X189369000Y-130790501D01*
X174240000Y-132710501D02*
X188959000Y-132710501D01*
X155870000Y-135070501D02*
X169760000Y-135070501D01*
X157588000Y-138149501D02*
X186412000Y-138149501D01*
X157616000Y-138189501D02*
X186384000Y-138189501D01*
X154478000Y-129510501D02*
X189522000Y-129510501D01*
X154482000Y-129550501D02*
X189518000Y-129550501D01*
X189620000Y-128069501D02*
G75*
G03*
X189620000Y-128069501I-17620000J0D01*
G01*
%TO.C,C7*%
X153620000Y-128000000D02*
G75*
G03*
X153620000Y-128000000I-17620000J0D01*
G01*
X126000000Y-142480000D02*
X146000000Y-142480000D01*
X121729000Y-138280000D02*
X150271000Y-138280000D01*
X138240000Y-135161000D02*
X152060000Y-135161000D01*
X138240000Y-133921000D02*
X152556000Y-133921000D01*
X138240000Y-132721000D02*
X152937000Y-132721000D01*
X120797000Y-136840000D02*
X151203000Y-136840000D01*
X128573000Y-143960000D02*
X143427000Y-143960000D01*
X121086000Y-137320000D02*
X150914000Y-137320000D01*
X138240000Y-132481000D02*
X153001000Y-132481000D01*
X122954000Y-139800000D02*
X149046000Y-139800000D01*
X118500000Y-129681000D02*
X153500000Y-129681000D01*
X127772000Y-143560000D02*
X144228000Y-143560000D01*
X120963000Y-137120000D02*
X151037000Y-137120000D01*
X118489000Y-129561000D02*
X153511000Y-129561000D01*
X138240000Y-134121000D02*
X152484000Y-134121000D01*
X132040000Y-145160000D02*
X139960000Y-145160000D01*
X121317000Y-137680000D02*
X150683000Y-137680000D01*
X138240000Y-133241000D02*
X152783000Y-133241000D01*
X120030000Y-135361000D02*
X151970000Y-135361000D01*
X134165000Y-145520000D02*
X137835000Y-145520000D01*
X121758000Y-138320000D02*
X150242000Y-138320000D01*
X128488000Y-143920000D02*
X143512000Y-143920000D01*
X121370000Y-137760000D02*
X150630000Y-137760000D01*
X118713000Y-131201000D02*
X133760000Y-131201000D01*
X138240000Y-132921000D02*
X152880000Y-132921000D01*
X138240000Y-131361000D02*
X153257000Y-131361000D01*
X118460000Y-129201000D02*
X153540000Y-129201000D01*
X123365000Y-140240000D02*
X148635000Y-140240000D01*
X120381000Y-136081000D02*
X151619000Y-136081000D01*
X121644000Y-138160000D02*
X150356000Y-138160000D01*
X138240000Y-134201000D02*
X152454000Y-134201000D01*
X124459000Y-141280000D02*
X147541000Y-141280000D01*
X119887000Y-135041000D02*
X133760000Y-135041000D01*
X118663000Y-130921000D02*
X133760000Y-130921000D01*
X138240000Y-131761000D02*
X153175000Y-131761000D01*
X119502000Y-134081000D02*
X133760000Y-134081000D01*
X118492000Y-129601000D02*
X153508000Y-129601000D01*
X118434000Y-128721000D02*
X153566000Y-128721000D01*
X131556000Y-145040000D02*
X140444000Y-145040000D01*
X118420000Y-128160000D02*
X153580000Y-128160000D01*
X138240000Y-133161000D02*
X152808000Y-133161000D01*
X122812000Y-139640000D02*
X149188000Y-139640000D01*
X119097000Y-132841000D02*
X133760000Y-132841000D01*
X120529000Y-136360000D02*
X151471000Y-136360000D01*
X119333000Y-133601000D02*
X133760000Y-133601000D01*
X121162000Y-137440000D02*
X150838000Y-137440000D01*
X131122000Y-144920000D02*
X140878000Y-144920000D01*
X138240000Y-133561000D02*
X152680000Y-133561000D01*
X118538000Y-130041000D02*
X153462000Y-130041000D01*
X119388000Y-133761000D02*
X133760000Y-133761000D01*
X125084000Y-141800000D02*
X146916000Y-141800000D01*
X119229000Y-133281000D02*
X133760000Y-133281000D01*
X120774000Y-136800000D02*
X151226000Y-136800000D01*
X120124000Y-135561000D02*
X151876000Y-135561000D01*
X129805000Y-144480000D02*
X142195000Y-144480000D01*
X138240000Y-134761000D02*
X152232000Y-134761000D01*
X126175000Y-142600000D02*
X145825000Y-142600000D01*
X121560000Y-138040000D02*
X150440000Y-138040000D01*
X138240000Y-132041000D02*
X153111000Y-132041000D01*
X119242000Y-133321000D02*
X133760000Y-133321000D01*
X119347000Y-133641000D02*
X133760000Y-133641000D01*
X118524000Y-129921000D02*
X153476000Y-129921000D01*
X138240000Y-131001000D02*
X153323000Y-131001000D01*
X119458000Y-133961000D02*
X133760000Y-133961000D01*
X138240000Y-133281000D02*
X152771000Y-133281000D01*
X119168000Y-133081000D02*
X133760000Y-133081000D01*
X120402000Y-136121000D02*
X151598000Y-136121000D01*
X122638000Y-139440000D02*
X149362000Y-139440000D01*
X118720000Y-131241000D02*
X133760000Y-131241000D01*
X120891000Y-137000000D02*
X151109000Y-137000000D01*
X125942000Y-142440000D02*
X146058000Y-142440000D01*
X118889000Y-132041000D02*
X133760000Y-132041000D01*
X118601000Y-130521000D02*
X153399000Y-130521000D01*
X122918000Y-139760000D02*
X149082000Y-139760000D01*
X122056000Y-138720000D02*
X149944000Y-138720000D01*
X118618000Y-130641000D02*
X153382000Y-130641000D01*
X122604000Y-139400000D02*
X149396000Y-139400000D01*
X119654000Y-134481000D02*
X133760000Y-134481000D01*
X118463000Y-129241000D02*
X153537000Y-129241000D01*
X120361000Y-136041000D02*
X151639000Y-136041000D01*
X120280000Y-135881000D02*
X151720000Y-135881000D01*
X138240000Y-135001000D02*
X152130000Y-135001000D01*
X138240000Y-134961000D02*
X152148000Y-134961000D01*
X123889000Y-140760000D02*
X148111000Y-140760000D01*
X129204000Y-144240000D02*
X142796000Y-144240000D01*
X125885000Y-142400000D02*
X146115000Y-142400000D01*
X119401000Y-133801000D02*
X133760000Y-133801000D01*
X118562000Y-130241000D02*
X153438000Y-130241000D01*
X121450000Y-137880000D02*
X150550000Y-137880000D01*
X124934000Y-141680000D02*
X147066000Y-141680000D01*
X122437000Y-139200000D02*
X149563000Y-139200000D01*
X123764000Y-140640000D02*
X148236000Y-140640000D01*
X121037000Y-137240000D02*
X150963000Y-137240000D01*
X119374000Y-133721000D02*
X133760000Y-133721000D01*
X118880000Y-132001000D02*
X133760000Y-132001000D01*
X123723000Y-140600000D02*
X148277000Y-140600000D01*
X118458000Y-129161000D02*
X153542000Y-129161000D01*
X138240000Y-132001000D02*
X153120000Y-132001000D01*
X118775000Y-131521000D02*
X133760000Y-131521000D01*
X133024000Y-145360000D02*
X138976000Y-145360000D01*
X138240000Y-131721000D02*
X153183000Y-131721000D01*
X118606000Y-130561000D02*
X153394000Y-130561000D01*
X120683000Y-136640000D02*
X151317000Y-136640000D01*
X123931000Y-140800000D02*
X148069000Y-140800000D01*
X118670000Y-130961000D02*
X133760000Y-130961000D01*
X120988000Y-137160000D02*
X151012000Y-137160000D01*
X126540000Y-142840000D02*
X145460000Y-142840000D01*
X121845000Y-138440000D02*
X150155000Y-138440000D01*
X138240000Y-133961000D02*
X152542000Y-133961000D01*
X125135000Y-141840000D02*
X146865000Y-141840000D01*
X118684000Y-131041000D02*
X133760000Y-131041000D01*
X138240000Y-134441000D02*
X152361000Y-134441000D01*
X118420000Y-128000000D02*
X153580000Y-128000000D01*
X119870000Y-135001000D02*
X133760000Y-135001000D01*
X118978000Y-132401000D02*
X133760000Y-132401000D01*
X125608000Y-142200000D02*
X146392000Y-142200000D01*
X121505000Y-137960000D02*
X150495000Y-137960000D01*
X138240000Y-131041000D02*
X153316000Y-131041000D01*
X138240000Y-134561000D02*
X152314000Y-134561000D01*
X138240000Y-133361000D02*
X152745000Y-133361000D01*
X133264000Y-145400000D02*
X138736000Y-145400000D01*
X128322000Y-143840000D02*
X143678000Y-143840000D01*
X120572000Y-136440000D02*
X151428000Y-136440000D01*
X118420000Y-128040000D02*
X153580000Y-128040000D01*
X118472000Y-129361000D02*
X153528000Y-129361000D01*
X138240000Y-131441000D02*
X153241000Y-131441000D01*
X122117000Y-138800000D02*
X149883000Y-138800000D01*
X138240000Y-133481000D02*
X152707000Y-133481000D01*
X138240000Y-132281000D02*
X153053000Y-132281000D01*
X138240000Y-134321000D02*
X152408000Y-134321000D01*
X120444000Y-136200000D02*
X151556000Y-136200000D01*
X128405000Y-143880000D02*
X143595000Y-143880000D01*
X124984000Y-141720000D02*
X147016000Y-141720000D01*
X138240000Y-134361000D02*
X152393000Y-134361000D01*
X138240000Y-133001000D02*
X152856000Y-133001000D01*
X138240000Y-131481000D02*
X153233000Y-131481000D01*
X120508000Y-136320000D02*
X151492000Y-136320000D01*
X119592000Y-134321000D02*
X133760000Y-134321000D01*
X119360000Y-133681000D02*
X133760000Y-133681000D01*
X127196000Y-143240000D02*
X144804000Y-143240000D01*
X126795000Y-143000000D02*
X145205000Y-143000000D01*
X123682000Y-140560000D02*
X148318000Y-140560000D01*
X121905000Y-138520000D02*
X150095000Y-138520000D01*
X122847000Y-139680000D02*
X149153000Y-139680000D01*
X118727000Y-131281000D02*
X133760000Y-131281000D01*
X122537000Y-139320000D02*
X149463000Y-139320000D01*
X122372000Y-139120000D02*
X149628000Y-139120000D01*
X123404000Y-140280000D02*
X148596000Y-140280000D01*
X119041000Y-132641000D02*
X133760000Y-132641000D01*
X123847000Y-140720000D02*
X148153000Y-140720000D01*
X118421000Y-128200000D02*
X153579000Y-128200000D01*
X119719000Y-134641000D02*
X133760000Y-134641000D01*
X138240000Y-132081000D02*
X153102000Y-132081000D01*
X119801000Y-134841000D02*
X133760000Y-134841000D01*
X118908000Y-132121000D02*
X133760000Y-132121000D01*
X118791000Y-131601000D02*
X133760000Y-131601000D01*
X118612000Y-130601000D02*
X153388000Y-130601000D01*
X127406000Y-143360000D02*
X144594000Y-143360000D01*
X118898000Y-132081000D02*
X133760000Y-132081000D01*
X120939000Y-137080000D02*
X151061000Y-137080000D01*
X129300000Y-144280000D02*
X142700000Y-144280000D01*
X129597000Y-144400000D02*
X142403000Y-144400000D01*
X123521000Y-140400000D02*
X148479000Y-140400000D01*
X120300000Y-135921000D02*
X151700000Y-135921000D01*
X126603000Y-142880000D02*
X145397000Y-142880000D01*
X120661000Y-136600000D02*
X151339000Y-136600000D01*
X120639000Y-136560000D02*
X151361000Y-136560000D01*
X119473000Y-134001000D02*
X133760000Y-134001000D01*
X118426000Y-128480000D02*
X153574000Y-128480000D01*
X120086000Y-135481000D02*
X151914000Y-135481000D01*
X119561000Y-134241000D02*
X133760000Y-134241000D01*
X124189000Y-141040000D02*
X147811000Y-141040000D01*
X130855000Y-144840000D02*
X141145000Y-144840000D01*
X123805000Y-140680000D02*
X148195000Y-140680000D01*
X118691000Y-131081000D02*
X133760000Y-131081000D01*
X120049000Y-135401000D02*
X151951000Y-135401000D01*
X121012000Y-137200000D02*
X150988000Y-137200000D01*
X119922000Y-135121000D02*
X133760000Y-135121000D01*
X119835000Y-134921000D02*
X133760000Y-134921000D01*
X122673000Y-139480000D02*
X149327000Y-139480000D01*
X119546000Y-134201000D02*
X133760000Y-134201000D01*
X138240000Y-133401000D02*
X152733000Y-133401000D01*
X118743000Y-131361000D02*
X133760000Y-131361000D01*
X138240000Y-132961000D02*
X152868000Y-132961000D01*
X125034000Y-141760000D02*
X146966000Y-141760000D01*
X128160000Y-143760000D02*
X143840000Y-143760000D01*
X131262000Y-144960000D02*
X140738000Y-144960000D01*
X128002000Y-143680000D02*
X143998000Y-143680000D01*
X122339000Y-139080000D02*
X149661000Y-139080000D01*
X125500000Y-142120000D02*
X146500000Y-142120000D01*
X120220000Y-135761000D02*
X151780000Y-135761000D01*
X123063000Y-139920000D02*
X148937000Y-139920000D01*
X126295000Y-142680000D02*
X145705000Y-142680000D01*
X118625000Y-130681000D02*
X153375000Y-130681000D01*
X121672000Y-138200000D02*
X150328000Y-138200000D01*
X127478000Y-143400000D02*
X144522000Y-143400000D01*
X118937000Y-132241000D02*
X133760000Y-132241000D01*
X138240000Y-131921000D02*
X153139000Y-131921000D01*
X120240000Y-135801000D02*
X151760000Y-135801000D01*
X121816000Y-138400000D02*
X150184000Y-138400000D01*
X138240000Y-132561000D02*
X152980000Y-132561000D01*
X120751000Y-136760000D02*
X151249000Y-136760000D01*
X119132000Y-132961000D02*
X133760000Y-132961000D01*
X118947000Y-132281000D02*
X133760000Y-132281000D01*
X118422000Y-128320000D02*
X153578000Y-128320000D01*
X120616000Y-136520000D02*
X151384000Y-136520000D01*
X127060000Y-143160000D02*
X144940000Y-143160000D01*
X124551000Y-141360000D02*
X147449000Y-141360000D01*
X125237000Y-141920000D02*
X146763000Y-141920000D01*
X125289000Y-141960000D02*
X146711000Y-141960000D01*
X119156000Y-133041000D02*
X133760000Y-133041000D01*
X119785000Y-134801000D02*
X133760000Y-134801000D01*
X120012000Y-135321000D02*
X151988000Y-135321000D01*
X120105000Y-135521000D02*
X151895000Y-135521000D01*
X129110000Y-144200000D02*
X142890000Y-144200000D01*
X126416000Y-142760000D02*
X145584000Y-142760000D01*
X138240000Y-131521000D02*
X153225000Y-131521000D01*
X124368000Y-141200000D02*
X147632000Y-141200000D01*
X127623000Y-143480000D02*
X144377000Y-143480000D01*
X138240000Y-134641000D02*
X152281000Y-134641000D01*
X121935000Y-138560000D02*
X150065000Y-138560000D01*
X138240000Y-133041000D02*
X152844000Y-133041000D01*
X119109000Y-132881000D02*
X133760000Y-132881000D01*
X119009000Y-132521000D02*
X133760000Y-132521000D01*
X138240000Y-135041000D02*
X152113000Y-135041000D01*
X119052000Y-132681000D02*
X133760000Y-132681000D01*
X138240000Y-131201000D02*
X153287000Y-131201000D01*
X118508000Y-129761000D02*
X153492000Y-129761000D01*
X138240000Y-133321000D02*
X152758000Y-133321000D01*
X138240000Y-133841000D02*
X152585000Y-133841000D01*
X132802000Y-145320000D02*
X139198000Y-145320000D01*
X130480000Y-144720000D02*
X141520000Y-144720000D01*
X138240000Y-133521000D02*
X152694000Y-133521000D01*
X122883000Y-139720000D02*
X149117000Y-139720000D01*
X138240000Y-134921000D02*
X152165000Y-134921000D01*
X118440000Y-128841000D02*
X153560000Y-128841000D01*
X118529000Y-129961000D02*
X153471000Y-129961000D01*
X118427000Y-128520000D02*
X153573000Y-128520000D01*
X118478000Y-129441000D02*
X153522000Y-129441000D01*
X138240000Y-131641000D02*
X153200000Y-131641000D01*
X118852000Y-131881000D02*
X133760000Y-131881000D01*
X118444000Y-128921000D02*
X153556000Y-128921000D01*
X122211000Y-138920000D02*
X149789000Y-138920000D01*
X138240000Y-134521000D02*
X152330000Y-134521000D01*
X125662000Y-142240000D02*
X146338000Y-142240000D01*
X123326000Y-140200000D02*
X148674000Y-140200000D01*
X118485000Y-129521000D02*
X153515000Y-129521000D01*
X124016000Y-140880000D02*
X147984000Y-140880000D01*
X124693000Y-141480000D02*
X147307000Y-141480000D01*
X132215000Y-145200000D02*
X139785000Y-145200000D01*
X120551000Y-136400000D02*
X151449000Y-136400000D01*
X119686000Y-134561000D02*
X133760000Y-134561000D01*
X119415000Y-133841000D02*
X133760000Y-133841000D01*
X120162000Y-135641000D02*
X151838000Y-135641000D01*
X121995000Y-138640000D02*
X150005000Y-138640000D01*
X121787000Y-138360000D02*
X150213000Y-138360000D01*
X138240000Y-134841000D02*
X152199000Y-134841000D01*
X118568000Y-130281000D02*
X153432000Y-130281000D01*
X122086000Y-138760000D02*
X149914000Y-138760000D01*
X124505000Y-141320000D02*
X147495000Y-141320000D01*
X138240000Y-134081000D02*
X152498000Y-134081000D01*
X118999000Y-132481000D02*
X133760000Y-132481000D01*
X118441000Y-128881000D02*
X153559000Y-128881000D01*
X125446000Y-142080000D02*
X146554000Y-142080000D01*
X124645000Y-141440000D02*
X147355000Y-141440000D01*
X120340000Y-136001000D02*
X151660000Y-136001000D01*
X123137000Y-140000000D02*
X148863000Y-140000000D01*
X118430000Y-128600000D02*
X153570000Y-128600000D01*
X138240000Y-132521000D02*
X152991000Y-132521000D01*
X119180000Y-133121000D02*
X133760000Y-133121000D01*
X126926000Y-143080000D02*
X145074000Y-143080000D01*
X138240000Y-133761000D02*
X152612000Y-133761000D01*
X138240000Y-133601000D02*
X152667000Y-133601000D01*
X138240000Y-135081000D02*
X152095000Y-135081000D01*
X138240000Y-131321000D02*
X153265000Y-131321000D01*
X124059000Y-140920000D02*
X147941000Y-140920000D01*
X127265000Y-143280000D02*
X144735000Y-143280000D01*
X119639000Y-134441000D02*
X133760000Y-134441000D01*
X120706000Y-136680000D02*
X151294000Y-136680000D01*
X119623000Y-134401000D02*
X133760000Y-134401000D01*
X118573000Y-130321000D02*
X153427000Y-130321000D01*
X138240000Y-131841000D02*
X153157000Y-131841000D01*
X118466000Y-129281000D02*
X153534000Y-129281000D01*
X121588000Y-138080000D02*
X150412000Y-138080000D01*
X138240000Y-132761000D02*
X152925000Y-132761000D01*
X119280000Y-133441000D02*
X133760000Y-133441000D01*
X138240000Y-134001000D02*
X152527000Y-134001000D01*
X125773000Y-142320000D02*
X146227000Y-142320000D01*
X119075000Y-132761000D02*
X133760000Y-132761000D01*
X138240000Y-132801000D02*
X152914000Y-132801000D01*
X119086000Y-132801000D02*
X133760000Y-132801000D01*
X118751000Y-131401000D02*
X133760000Y-131401000D01*
X120143000Y-135601000D02*
X151857000Y-135601000D01*
X138240000Y-135121000D02*
X152078000Y-135121000D01*
X121616000Y-138120000D02*
X150384000Y-138120000D01*
X118595000Y-130481000D02*
X153405000Y-130481000D01*
X138240000Y-130921000D02*
X153337000Y-130921000D01*
X128080000Y-143720000D02*
X143920000Y-143720000D01*
X119852000Y-134961000D02*
X133760000Y-134961000D01*
X122404000Y-139160000D02*
X149596000Y-139160000D01*
X123601000Y-140480000D02*
X148399000Y-140480000D01*
X118631000Y-130721000D02*
X153369000Y-130721000D01*
X121290000Y-137640000D02*
X150710000Y-137640000D01*
X131711000Y-145080000D02*
X140289000Y-145080000D01*
X118705000Y-131161000D02*
X133760000Y-131161000D01*
X129397000Y-144320000D02*
X142603000Y-144320000D01*
X118424000Y-128400000D02*
X153576000Y-128400000D01*
X119293000Y-133481000D02*
X133760000Y-133481000D01*
X120486000Y-136280000D02*
X151514000Y-136280000D01*
X130727000Y-144800000D02*
X141273000Y-144800000D01*
X120260000Y-135841000D02*
X151740000Y-135841000D01*
X118834000Y-131801000D02*
X133760000Y-131801000D01*
X120423000Y-136161000D02*
X151577000Y-136161000D01*
X130245000Y-144640000D02*
X141755000Y-144640000D01*
X130987000Y-144880000D02*
X141013000Y-144880000D01*
X121343000Y-137720000D02*
X150657000Y-137720000D01*
X118967000Y-132361000D02*
X133760000Y-132361000D01*
X138240000Y-134161000D02*
X152469000Y-134161000D01*
X118428000Y-128560000D02*
X153572000Y-128560000D01*
X133823000Y-145480000D02*
X138177000Y-145480000D01*
X118552000Y-130161000D02*
X153448000Y-130161000D01*
X124740000Y-141520000D02*
X147260000Y-141520000D01*
X119120000Y-132921000D02*
X133760000Y-132921000D01*
X126478000Y-142800000D02*
X145522000Y-142800000D01*
X138240000Y-133801000D02*
X152599000Y-133801000D01*
X118637000Y-130761000D02*
X133760000Y-130761000D01*
X138240000Y-131281000D02*
X153273000Y-131281000D01*
X138240000Y-132361000D02*
X153033000Y-132361000D01*
X138240000Y-132201000D02*
X153073000Y-132201000D01*
X128241000Y-143800000D02*
X143759000Y-143800000D01*
X124375000Y-110895998D02*
X127875000Y-110895998D01*
X129911000Y-144520000D02*
X142089000Y-144520000D01*
X123175000Y-140040000D02*
X148825000Y-140040000D01*
X138240000Y-130881000D02*
X153344000Y-130881000D01*
X121875000Y-138480000D02*
X150125000Y-138480000D01*
X119516000Y-134121000D02*
X133760000Y-134121000D01*
X138240000Y-132881000D02*
X152891000Y-132881000D01*
X138240000Y-131241000D02*
X153280000Y-131241000D01*
X120915000Y-137040000D02*
X151085000Y-137040000D01*
X135200000Y-145600000D02*
X136800000Y-145600000D01*
X122742000Y-139560000D02*
X149258000Y-139560000D01*
X119735000Y-134681000D02*
X133760000Y-134681000D01*
X126666000Y-142920000D02*
X145334000Y-142920000D01*
X124146000Y-141000000D02*
X147854000Y-141000000D01*
X122025000Y-138680000D02*
X149975000Y-138680000D01*
X120868000Y-136960000D02*
X151132000Y-136960000D01*
X118698000Y-131121000D02*
X133760000Y-131121000D01*
X121701000Y-138240000D02*
X150299000Y-138240000D01*
X119306000Y-133521000D02*
X133760000Y-133521000D01*
X126860000Y-143040000D02*
X145140000Y-143040000D01*
X121238000Y-137560000D02*
X150762000Y-137560000D01*
X118482000Y-129481000D02*
X153518000Y-129481000D01*
X123561000Y-140440000D02*
X148439000Y-140440000D01*
X123641000Y-140520000D02*
X148359000Y-140520000D01*
X130132000Y-144600000D02*
X141868000Y-144600000D01*
X118584000Y-130401000D02*
X153416000Y-130401000D01*
X138240000Y-131081000D02*
X153309000Y-131081000D01*
X122307000Y-139040000D02*
X149693000Y-139040000D01*
X138240000Y-131561000D02*
X153217000Y-131561000D01*
X118436000Y-128761000D02*
X153564000Y-128761000D01*
X118453000Y-129081000D02*
X153547000Y-129081000D01*
X118512000Y-129801000D02*
X153488000Y-129801000D01*
X126235000Y-142640000D02*
X145765000Y-142640000D01*
X124278000Y-141120000D02*
X147722000Y-141120000D01*
X138240000Y-134721000D02*
X152249000Y-134721000D01*
X138240000Y-134881000D02*
X152182000Y-134881000D01*
X121965000Y-138600000D02*
X150035000Y-138600000D01*
X121213000Y-137520000D02*
X150787000Y-137520000D01*
X124102000Y-140960000D02*
X147898000Y-140960000D01*
X118433000Y-128680000D02*
X153567000Y-128680000D01*
X130020000Y-144560000D02*
X141980000Y-144560000D01*
X138240000Y-132841000D02*
X152903000Y-132841000D01*
X128835000Y-144080000D02*
X143165000Y-144080000D01*
X122707000Y-139520000D02*
X149293000Y-139520000D01*
X128659000Y-144000000D02*
X143341000Y-144000000D01*
X118455000Y-129121000D02*
X153545000Y-129121000D01*
X119958000Y-135201000D02*
X133760000Y-135201000D01*
X138240000Y-134041000D02*
X152513000Y-134041000D01*
X119020000Y-132561000D02*
X133760000Y-132561000D01*
X121423000Y-137840000D02*
X150577000Y-137840000D01*
X129496000Y-144360000D02*
X142504000Y-144360000D01*
X124598000Y-141400000D02*
X147402000Y-141400000D01*
X126116000Y-142560000D02*
X145884000Y-142560000D01*
X138240000Y-133201000D02*
X152796000Y-133201000D01*
X123250000Y-140120000D02*
X148750000Y-140120000D01*
X134587000Y-145560000D02*
X137413000Y-145560000D01*
X119702000Y-134601000D02*
X133760000Y-134601000D01*
X132595000Y-145280000D02*
X139405000Y-145280000D01*
X119255000Y-133361000D02*
X133760000Y-133361000D01*
X119818000Y-134881000D02*
X133760000Y-134881000D01*
X127335000Y-143320000D02*
X144665000Y-143320000D01*
X118431000Y-128640000D02*
X153569000Y-128640000D01*
X118469000Y-129321000D02*
X153531000Y-129321000D01*
X138240000Y-130801000D02*
X153357000Y-130801000D01*
X125185000Y-141880000D02*
X146815000Y-141880000D01*
X123288000Y-140160000D02*
X148712000Y-140160000D01*
X125829000Y-142360000D02*
X146171000Y-142360000D01*
X119994000Y-135281000D02*
X152006000Y-135281000D01*
X118423000Y-128360000D02*
X153577000Y-128360000D01*
X118438000Y-128801000D02*
X153562000Y-128801000D01*
X138240000Y-132601000D02*
X152969000Y-132601000D01*
X127697000Y-143520000D02*
X144303000Y-143520000D01*
X118656000Y-130881000D02*
X133760000Y-130881000D01*
X124788000Y-141560000D02*
X147212000Y-141560000D01*
X119531000Y-134161000D02*
X133760000Y-134161000D01*
X119320000Y-133561000D02*
X133760000Y-133561000D01*
X126125000Y-109145998D02*
X126125000Y-112645998D01*
X119063000Y-132721000D02*
X133760000Y-132721000D01*
X118589000Y-130441000D02*
X153411000Y-130441000D01*
X132400000Y-145240000D02*
X139600000Y-145240000D01*
X118843000Y-131841000D02*
X133760000Y-131841000D01*
X138240000Y-134241000D02*
X152439000Y-134241000D01*
X121477000Y-137920000D02*
X150523000Y-137920000D01*
X131407000Y-145000000D02*
X140593000Y-145000000D01*
X119607000Y-134361000D02*
X133760000Y-134361000D01*
X125341000Y-142000000D02*
X146659000Y-142000000D01*
X138240000Y-133681000D02*
X152640000Y-133681000D01*
X118420000Y-128080000D02*
X153580000Y-128080000D01*
X119670000Y-134521000D02*
X133760000Y-134521000D01*
X138240000Y-134801000D02*
X152215000Y-134801000D01*
X120844000Y-136920000D02*
X151156000Y-136920000D01*
X133527000Y-145440000D02*
X138473000Y-145440000D01*
X118446000Y-128961000D02*
X153554000Y-128961000D01*
X119204000Y-133201000D02*
X133760000Y-133201000D01*
X138240000Y-133721000D02*
X152626000Y-133721000D01*
X138240000Y-132681000D02*
X152948000Y-132681000D01*
X138240000Y-131601000D02*
X153209000Y-131601000D01*
X138240000Y-133881000D02*
X152570000Y-133881000D01*
X120320000Y-135961000D02*
X151680000Y-135961000D01*
X127848000Y-143600000D02*
X144152000Y-143600000D01*
X122990000Y-139840000D02*
X149010000Y-139840000D01*
X138240000Y-131961000D02*
X153130000Y-131961000D01*
X118448000Y-129001000D02*
X153552000Y-129001000D01*
X118759000Y-131441000D02*
X133760000Y-131441000D01*
X138240000Y-133121000D02*
X152820000Y-133121000D01*
X138240000Y-132321000D02*
X153043000Y-132321000D01*
X122275000Y-139000000D02*
X149725000Y-139000000D01*
X138240000Y-132401000D02*
X153022000Y-132401000D01*
X138240000Y-134481000D02*
X152346000Y-134481000D01*
X138240000Y-134681000D02*
X152265000Y-134681000D01*
X122503000Y-139280000D02*
X149497000Y-139280000D01*
X118870000Y-131961000D02*
X133760000Y-131961000D01*
X118548000Y-130121000D02*
X153452000Y-130121000D01*
X118817000Y-131721000D02*
X133760000Y-131721000D01*
X138240000Y-131121000D02*
X153302000Y-131121000D01*
X121264000Y-137600000D02*
X150736000Y-137600000D01*
X119430000Y-133881000D02*
X133760000Y-133881000D01*
X119487000Y-134041000D02*
X133760000Y-134041000D01*
X122149000Y-138840000D02*
X149851000Y-138840000D01*
X119976000Y-135241000D02*
X152024000Y-135241000D01*
X119192000Y-133161000D02*
X133760000Y-133161000D01*
X118533000Y-130001000D02*
X153467000Y-130001000D01*
X138240000Y-132641000D02*
X152959000Y-132641000D01*
X124413000Y-141240000D02*
X147587000Y-141240000D01*
X120201000Y-135721000D02*
X151799000Y-135721000D01*
X120465000Y-136240000D02*
X151535000Y-136240000D01*
X129017000Y-144160000D02*
X142983000Y-144160000D01*
X125717000Y-142280000D02*
X146283000Y-142280000D01*
X118425000Y-128440000D02*
X153575000Y-128440000D01*
X118543000Y-130081000D02*
X153457000Y-130081000D01*
X138240000Y-131801000D02*
X153166000Y-131801000D01*
X122570000Y-139360000D02*
X149430000Y-139360000D01*
X119444000Y-133921000D02*
X133760000Y-133921000D01*
X121532000Y-138000000D02*
X150468000Y-138000000D01*
X125393000Y-142040000D02*
X146607000Y-142040000D01*
X120067000Y-135441000D02*
X151933000Y-135441000D01*
X118643000Y-130801000D02*
X133760000Y-130801000D01*
X124323000Y-141160000D02*
X147677000Y-141160000D01*
X138240000Y-131401000D02*
X153249000Y-131401000D01*
X123482000Y-140360000D02*
X148518000Y-140360000D01*
X129700000Y-144440000D02*
X142300000Y-144440000D01*
X123212000Y-140080000D02*
X148788000Y-140080000D01*
X118800000Y-131641000D02*
X133760000Y-131641000D01*
X138240000Y-134281000D02*
X152423000Y-134281000D01*
X118516000Y-129841000D02*
X153484000Y-129841000D01*
X118735000Y-131321000D02*
X133760000Y-131321000D01*
X124234000Y-141080000D02*
X147766000Y-141080000D01*
X118927000Y-132201000D02*
X133760000Y-132201000D01*
X138240000Y-132121000D02*
X153092000Y-132121000D01*
X126992000Y-143120000D02*
X145008000Y-143120000D01*
X128747000Y-144040000D02*
X143253000Y-144040000D01*
X123027000Y-139880000D02*
X148973000Y-139880000D01*
X126058000Y-142520000D02*
X145942000Y-142520000D01*
X138240000Y-132161000D02*
X153082000Y-132161000D01*
X130602000Y-144760000D02*
X141398000Y-144760000D01*
X120821000Y-136880000D02*
X151179000Y-136880000D01*
X123100000Y-139960000D02*
X148900000Y-139960000D01*
X118677000Y-131001000D02*
X133760000Y-131001000D01*
X138240000Y-130761000D02*
X153363000Y-130761000D01*
X126355000Y-142720000D02*
X145645000Y-142720000D01*
X123973000Y-140840000D02*
X148027000Y-140840000D01*
X131872000Y-145120000D02*
X140128000Y-145120000D01*
X124885000Y-141640000D02*
X147115000Y-141640000D01*
X122777000Y-139600000D02*
X149223000Y-139600000D01*
X119031000Y-132601000D02*
X133760000Y-132601000D01*
X118520000Y-129881000D02*
X153480000Y-129881000D01*
X118422000Y-128280000D02*
X153578000Y-128280000D01*
X138240000Y-130961000D02*
X153330000Y-130961000D01*
X121187000Y-137480000D02*
X150813000Y-137480000D01*
X121396000Y-137800000D02*
X150604000Y-137800000D01*
X120729000Y-136720000D02*
X151271000Y-136720000D01*
X118808000Y-131681000D02*
X133760000Y-131681000D01*
X138240000Y-131881000D02*
X153148000Y-131881000D01*
X121136000Y-137400000D02*
X150864000Y-137400000D01*
X118420000Y-128120000D02*
X153580000Y-128120000D01*
X118496000Y-129641000D02*
X153504000Y-129641000D01*
X118825000Y-131761000D02*
X133760000Y-131761000D01*
X118957000Y-132321000D02*
X133760000Y-132321000D01*
X118861000Y-131921000D02*
X133760000Y-131921000D01*
X125553000Y-142160000D02*
X146447000Y-142160000D01*
X118504000Y-129721000D02*
X153496000Y-129721000D01*
X121061000Y-137280000D02*
X150939000Y-137280000D01*
X118988000Y-132441000D02*
X133760000Y-132441000D01*
X119751000Y-134721000D02*
X133760000Y-134721000D01*
X138240000Y-133641000D02*
X152653000Y-133641000D01*
X118767000Y-131481000D02*
X133760000Y-131481000D01*
X138240000Y-133441000D02*
X152720000Y-133441000D01*
X119577000Y-134281000D02*
X133760000Y-134281000D01*
X118450000Y-129041000D02*
X153550000Y-129041000D01*
X138240000Y-132241000D02*
X153063000Y-132241000D01*
X138240000Y-133081000D02*
X152832000Y-133081000D01*
X119267000Y-133401000D02*
X133760000Y-133401000D01*
X118578000Y-130361000D02*
X153422000Y-130361000D01*
X138240000Y-134401000D02*
X152377000Y-134401000D01*
X130361000Y-144680000D02*
X141639000Y-144680000D01*
X138240000Y-131681000D02*
X153192000Y-131681000D01*
X119905000Y-135081000D02*
X133760000Y-135081000D01*
X123443000Y-140320000D02*
X148557000Y-140320000D01*
X127127000Y-143200000D02*
X144873000Y-143200000D01*
X138240000Y-134601000D02*
X152298000Y-134601000D01*
X120594000Y-136480000D02*
X151406000Y-136480000D01*
X118918000Y-132161000D02*
X133760000Y-132161000D01*
X126730000Y-142960000D02*
X145270000Y-142960000D01*
X127924000Y-143640000D02*
X144076000Y-143640000D01*
X124837000Y-141600000D02*
X147163000Y-141600000D01*
X119940000Y-135161000D02*
X133760000Y-135161000D01*
X128925000Y-144120000D02*
X143075000Y-144120000D01*
X118421000Y-128240000D02*
X153579000Y-128240000D01*
X138240000Y-130841000D02*
X153350000Y-130841000D01*
X118557000Y-130201000D02*
X153443000Y-130201000D01*
X122470000Y-139240000D02*
X149530000Y-139240000D01*
X120181000Y-135681000D02*
X151819000Y-135681000D01*
X119768000Y-134761000D02*
X133760000Y-134761000D01*
X138240000Y-132441000D02*
X153012000Y-132441000D01*
X122180000Y-138880000D02*
X149820000Y-138880000D01*
X138240000Y-131161000D02*
X153295000Y-131161000D01*
X118650000Y-130841000D02*
X133760000Y-130841000D01*
X121111000Y-137360000D02*
X150889000Y-137360000D01*
X119217000Y-133241000D02*
X133760000Y-133241000D01*
X122243000Y-138960000D02*
X149757000Y-138960000D01*
X127550000Y-143440000D02*
X144450000Y-143440000D01*
X138240000Y-135201000D02*
X152042000Y-135201000D01*
X118475000Y-129401000D02*
X153525000Y-129401000D01*
X118783000Y-131561000D02*
X133760000Y-131561000D01*
X119144000Y-133001000D02*
X133760000Y-133001000D01*
%TD*%
M02*
