%TF.GenerationSoftware,KiCad,Pcbnew,(6.0.9)*%
%TF.CreationDate,2022-12-24T03:55:55+03:00*%
%TF.ProjectId,new-pcb,6e65772d-7063-4622-9e6b-696361645f70,rev?*%
%TF.SameCoordinates,Original*%
%TF.FileFunction,Drillmap*%
%TF.FilePolarity,Positive*%
%FSLAX45Y45*%
G04 Gerber Fmt 4.5, Leading zero omitted, Abs format (unit mm)*
G04 Created by KiCad (PCBNEW (6.0.9)) date 2022-12-24 03:55:55*
%MOMM*%
%LPD*%
G01*
G04 APERTURE LIST*
%ADD10C,0.100000*%
%ADD11C,0.200000*%
%ADD12C,0.040000*%
%ADD13C,0.080000*%
%ADD14C,0.102000*%
%ADD15C,0.110000*%
%ADD16C,0.117000*%
%ADD17C,0.130000*%
%ADD18C,0.139000*%
%ADD19C,0.150000*%
%ADD20C,0.320000*%
G04 APERTURE END LIST*
D10*
X20150000Y-4350000D02*
G75*
G03*
X19700000Y-3900000I-450000J0D01*
G01*
X10950000Y-3900000D02*
G75*
G03*
X10500000Y-4350000I0J-450000D01*
G01*
X10500000Y-13400000D02*
G75*
G03*
X10950000Y-13850000I450000J0D01*
G01*
X19700000Y-13850000D02*
G75*
G03*
X20150000Y-13400000I0J450000D01*
G01*
X10950000Y-13850000D02*
X19700000Y-13850000D01*
X10500000Y-4350000D02*
X10500000Y-13400000D01*
X19700000Y-3900000D02*
X10950000Y-3900000D01*
X20150000Y-13400000D02*
X20150000Y-4350000D01*
D11*
D12*
X10665000Y-6190000D02*
X10705000Y-6230000D01*
X10705000Y-6190000D02*
X10665000Y-6230000D01*
X10812500Y-6497500D02*
X10852500Y-6537500D01*
X10852500Y-6497500D02*
X10812500Y-6537500D01*
X10885000Y-5970000D02*
X10925000Y-6010000D01*
X10925000Y-5970000D02*
X10885000Y-6010000D01*
X10917500Y-5492500D02*
X10957500Y-5532500D01*
X10957500Y-5492500D02*
X10917500Y-5532500D01*
X11355000Y-6505000D02*
X11395000Y-6545000D01*
X11395000Y-6505000D02*
X11355000Y-6545000D01*
X11670000Y-8430000D02*
X11710000Y-8470000D01*
X11710000Y-8430000D02*
X11670000Y-8470000D01*
X11860000Y-4120000D02*
X11900000Y-4160000D01*
X11900000Y-4120000D02*
X11860000Y-4160000D01*
X11860000Y-4290000D02*
X11900000Y-4330000D01*
X11900000Y-4290000D02*
X11860000Y-4330000D01*
X11860000Y-4480000D02*
X11900000Y-4520000D01*
X11900000Y-4480000D02*
X11860000Y-4520000D01*
X12015000Y-11340000D02*
X12055000Y-11380000D01*
X12055000Y-11340000D02*
X12015000Y-11380000D01*
X12290000Y-8430000D02*
X12330000Y-8470000D01*
X12330000Y-8430000D02*
X12290000Y-8470000D01*
X12385000Y-11340000D02*
X12425000Y-11380000D01*
X12425000Y-11340000D02*
X12385000Y-11380000D01*
X12480000Y-6130000D02*
X12520000Y-6170000D01*
X12520000Y-6130000D02*
X12480000Y-6170000D01*
X12570000Y-4120000D02*
X12610000Y-4160000D01*
X12610000Y-4120000D02*
X12570000Y-4160000D01*
X12570000Y-4290000D02*
X12610000Y-4330000D01*
X12610000Y-4290000D02*
X12570000Y-4330000D01*
X12570000Y-4480000D02*
X12610000Y-4520000D01*
X12610000Y-4480000D02*
X12570000Y-4520000D01*
X12630000Y-5930000D02*
X12670000Y-5970000D01*
X12670000Y-5930000D02*
X12630000Y-5970000D01*
X12630000Y-6130000D02*
X12670000Y-6170000D01*
X12670000Y-6130000D02*
X12630000Y-6170000D01*
X12630000Y-6330000D02*
X12670000Y-6370000D01*
X12670000Y-6330000D02*
X12630000Y-6370000D01*
X12630000Y-6530000D02*
X12670000Y-6570000D01*
X12670000Y-6530000D02*
X12630000Y-6570000D01*
X12940000Y-8430000D02*
X12980000Y-8470000D01*
X12980000Y-8430000D02*
X12940000Y-8470000D01*
X13300000Y-9240000D02*
X13340000Y-9280000D01*
X13340000Y-9240000D02*
X13300000Y-9280000D01*
X13320000Y-9560000D02*
X13360000Y-9600000D01*
X13360000Y-9560000D02*
X13320000Y-9600000D01*
X13330000Y-4130000D02*
X13370000Y-4170000D01*
X13370000Y-4130000D02*
X13330000Y-4170000D01*
X13330000Y-4300000D02*
X13370000Y-4340000D01*
X13370000Y-4300000D02*
X13330000Y-4340000D01*
X13330000Y-4490000D02*
X13370000Y-4530000D01*
X13370000Y-4490000D02*
X13330000Y-4530000D01*
X13330000Y-5705000D02*
X13370000Y-5745000D01*
X13370000Y-5705000D02*
X13330000Y-5745000D01*
X13560000Y-8430000D02*
X13600000Y-8470000D01*
X13600000Y-8430000D02*
X13560000Y-8470000D01*
X13775000Y-5700000D02*
X13815000Y-5740000D01*
X13815000Y-5700000D02*
X13775000Y-5740000D01*
X13820000Y-6360000D02*
X13860000Y-6400000D01*
X13860000Y-6360000D02*
X13820000Y-6400000D01*
X13820000Y-6530000D02*
X13860000Y-6570000D01*
X13860000Y-6530000D02*
X13820000Y-6570000D01*
X13880000Y-12930000D02*
X13920000Y-12970000D01*
X13920000Y-12930000D02*
X13880000Y-12970000D01*
X13880000Y-13080000D02*
X13920000Y-13120000D01*
X13920000Y-13080000D02*
X13880000Y-13120000D01*
X13880000Y-13230000D02*
X13920000Y-13270000D01*
X13920000Y-13230000D02*
X13880000Y-13270000D01*
X13880000Y-13380000D02*
X13920000Y-13420000D01*
X13920000Y-13380000D02*
X13880000Y-13420000D01*
X13880000Y-13530000D02*
X13920000Y-13570000D01*
X13920000Y-13530000D02*
X13880000Y-13570000D01*
X13970000Y-6360000D02*
X14010000Y-6400000D01*
X14010000Y-6360000D02*
X13970000Y-6400000D01*
X13970000Y-6530000D02*
X14010000Y-6570000D01*
X14010000Y-6530000D02*
X13970000Y-6570000D01*
X14040000Y-4130000D02*
X14080000Y-4170000D01*
X14080000Y-4130000D02*
X14040000Y-4170000D01*
X14040000Y-4300000D02*
X14080000Y-4340000D01*
X14080000Y-4300000D02*
X14040000Y-4340000D01*
X14040000Y-4490000D02*
X14080000Y-4530000D01*
X14080000Y-4490000D02*
X14040000Y-4530000D01*
X14080000Y-12930000D02*
X14120000Y-12970000D01*
X14120000Y-12930000D02*
X14080000Y-12970000D01*
X14080000Y-13080000D02*
X14120000Y-13120000D01*
X14120000Y-13080000D02*
X14080000Y-13120000D01*
X14080000Y-13230000D02*
X14120000Y-13270000D01*
X14120000Y-13230000D02*
X14080000Y-13270000D01*
X14080000Y-13380000D02*
X14120000Y-13420000D01*
X14120000Y-13380000D02*
X14080000Y-13420000D01*
X14080000Y-13530000D02*
X14120000Y-13570000D01*
X14120000Y-13530000D02*
X14080000Y-13570000D01*
X14230000Y-8420000D02*
X14270000Y-8460000D01*
X14270000Y-8420000D02*
X14230000Y-8460000D01*
X14280000Y-12930000D02*
X14320000Y-12970000D01*
X14320000Y-12930000D02*
X14280000Y-12970000D01*
X14280000Y-13080000D02*
X14320000Y-13120000D01*
X14320000Y-13080000D02*
X14280000Y-13120000D01*
X14280000Y-13230000D02*
X14320000Y-13270000D01*
X14320000Y-13230000D02*
X14280000Y-13270000D01*
X14280000Y-13380000D02*
X14320000Y-13420000D01*
X14320000Y-13380000D02*
X14280000Y-13420000D01*
X14280000Y-13530000D02*
X14320000Y-13570000D01*
X14320000Y-13530000D02*
X14280000Y-13570000D01*
X14480000Y-12930000D02*
X14520000Y-12970000D01*
X14520000Y-12930000D02*
X14480000Y-12970000D01*
X14480000Y-13080000D02*
X14520000Y-13120000D01*
X14520000Y-13080000D02*
X14480000Y-13120000D01*
X14480000Y-13230000D02*
X14520000Y-13270000D01*
X14520000Y-13230000D02*
X14480000Y-13270000D01*
X14480000Y-13380000D02*
X14520000Y-13420000D01*
X14520000Y-13380000D02*
X14480000Y-13420000D01*
X14480000Y-13530000D02*
X14520000Y-13570000D01*
X14520000Y-13530000D02*
X14480000Y-13570000D01*
X14530000Y-9430000D02*
X14570000Y-9470000D01*
X14570000Y-9430000D02*
X14530000Y-9470000D01*
X14530000Y-9580000D02*
X14570000Y-9620000D01*
X14570000Y-9580000D02*
X14530000Y-9620000D01*
X14530000Y-9730000D02*
X14570000Y-9770000D01*
X14570000Y-9730000D02*
X14530000Y-9770000D01*
X14560000Y-6350000D02*
X14600000Y-6390000D01*
X14600000Y-6350000D02*
X14560000Y-6390000D01*
X14585000Y-11340000D02*
X14625000Y-11380000D01*
X14625000Y-11340000D02*
X14585000Y-11380000D01*
X14680000Y-9430000D02*
X14720000Y-9470000D01*
X14720000Y-9430000D02*
X14680000Y-9470000D01*
X14680000Y-9580000D02*
X14720000Y-9620000D01*
X14720000Y-9580000D02*
X14680000Y-9620000D01*
X14680000Y-9730000D02*
X14720000Y-9770000D01*
X14720000Y-9730000D02*
X14680000Y-9770000D01*
X14710000Y-6350000D02*
X14750000Y-6390000D01*
X14750000Y-6350000D02*
X14710000Y-6390000D01*
X14800000Y-4130000D02*
X14840000Y-4170000D01*
X14840000Y-4130000D02*
X14800000Y-4170000D01*
X14800000Y-4300000D02*
X14840000Y-4340000D01*
X14840000Y-4300000D02*
X14800000Y-4340000D01*
X14800000Y-4490000D02*
X14840000Y-4530000D01*
X14840000Y-4490000D02*
X14800000Y-4530000D01*
X14820000Y-8420000D02*
X14860000Y-8460000D01*
X14860000Y-8420000D02*
X14820000Y-8460000D01*
X14830000Y-9430000D02*
X14870000Y-9470000D01*
X14870000Y-9430000D02*
X14830000Y-9470000D01*
X14830000Y-9580000D02*
X14870000Y-9620000D01*
X14870000Y-9580000D02*
X14830000Y-9620000D01*
X14830000Y-9730000D02*
X14870000Y-9770000D01*
X14870000Y-9730000D02*
X14830000Y-9770000D01*
X14870000Y-6350000D02*
X14910000Y-6390000D01*
X14910000Y-6350000D02*
X14870000Y-6390000D01*
X14980000Y-9430000D02*
X15020000Y-9470000D01*
X15020000Y-9430000D02*
X14980000Y-9470000D01*
X14980000Y-9580000D02*
X15020000Y-9620000D01*
X15020000Y-9580000D02*
X14980000Y-9620000D01*
X14980000Y-9730000D02*
X15020000Y-9770000D01*
X15020000Y-9730000D02*
X14980000Y-9770000D01*
X15060000Y-6420000D02*
X15100000Y-6460000D01*
X15100000Y-6420000D02*
X15060000Y-6460000D01*
X15165000Y-7325000D02*
X15205000Y-7365000D01*
X15205000Y-7325000D02*
X15165000Y-7365000D01*
X15165000Y-7675000D02*
X15205000Y-7715000D01*
X15205000Y-7675000D02*
X15165000Y-7715000D01*
X15165000Y-8015000D02*
X15205000Y-8055000D01*
X15205000Y-8015000D02*
X15165000Y-8055000D01*
X15165000Y-8425000D02*
X15205000Y-8465000D01*
X15205000Y-8425000D02*
X15165000Y-8465000D01*
X15170000Y-6560000D02*
X15210000Y-6600000D01*
X15210000Y-6560000D02*
X15170000Y-6600000D01*
X15510000Y-4130000D02*
X15550000Y-4170000D01*
X15550000Y-4130000D02*
X15510000Y-4170000D01*
X15510000Y-4300000D02*
X15550000Y-4340000D01*
X15550000Y-4300000D02*
X15510000Y-4340000D01*
X15510000Y-4490000D02*
X15550000Y-4530000D01*
X15550000Y-4490000D02*
X15510000Y-4530000D01*
X15820000Y-5000000D02*
X15860000Y-5040000D01*
X15860000Y-5000000D02*
X15820000Y-5040000D01*
X15930000Y-11340000D02*
X15970000Y-11380000D01*
X15970000Y-11340000D02*
X15930000Y-11380000D01*
X16120000Y-5570000D02*
X16160000Y-5610000D01*
X16160000Y-5570000D02*
X16120000Y-5610000D01*
X16180000Y-12930000D02*
X16220000Y-12970000D01*
X16220000Y-12930000D02*
X16180000Y-12970000D01*
X16180000Y-13080000D02*
X16220000Y-13120000D01*
X16220000Y-13080000D02*
X16180000Y-13120000D01*
X16180000Y-13230000D02*
X16220000Y-13270000D01*
X16220000Y-13230000D02*
X16180000Y-13270000D01*
X16180000Y-13380000D02*
X16220000Y-13420000D01*
X16220000Y-13380000D02*
X16180000Y-13420000D01*
X16180000Y-13530000D02*
X16220000Y-13570000D01*
X16220000Y-13530000D02*
X16180000Y-13570000D01*
X16210000Y-6230000D02*
X16250000Y-6270000D01*
X16250000Y-6230000D02*
X16210000Y-6270000D01*
X16210000Y-6660000D02*
X16250000Y-6700000D01*
X16250000Y-6660000D02*
X16210000Y-6700000D01*
X16210000Y-7030000D02*
X16250000Y-7070000D01*
X16250000Y-7030000D02*
X16210000Y-7070000D01*
X16210000Y-7480000D02*
X16250000Y-7520000D01*
X16250000Y-7480000D02*
X16210000Y-7520000D01*
X16210000Y-7880000D02*
X16250000Y-7920000D01*
X16250000Y-7880000D02*
X16210000Y-7920000D01*
X16210000Y-8220000D02*
X16250000Y-8260000D01*
X16250000Y-8220000D02*
X16210000Y-8260000D01*
X16210000Y-8620000D02*
X16250000Y-8660000D01*
X16250000Y-8620000D02*
X16210000Y-8660000D01*
X16270000Y-4140000D02*
X16310000Y-4180000D01*
X16310000Y-4140000D02*
X16270000Y-4180000D01*
X16270000Y-4310000D02*
X16310000Y-4350000D01*
X16310000Y-4310000D02*
X16270000Y-4350000D01*
X16270000Y-4500000D02*
X16310000Y-4540000D01*
X16310000Y-4500000D02*
X16270000Y-4540000D01*
X16380000Y-12930000D02*
X16420000Y-12970000D01*
X16420000Y-12930000D02*
X16380000Y-12970000D01*
X16380000Y-13080000D02*
X16420000Y-13120000D01*
X16420000Y-13080000D02*
X16380000Y-13120000D01*
X16380000Y-13230000D02*
X16420000Y-13270000D01*
X16420000Y-13230000D02*
X16380000Y-13270000D01*
X16380000Y-13380000D02*
X16420000Y-13420000D01*
X16420000Y-13380000D02*
X16380000Y-13420000D01*
X16380000Y-13530000D02*
X16420000Y-13570000D01*
X16420000Y-13530000D02*
X16380000Y-13570000D01*
X16400000Y-6230000D02*
X16440000Y-6270000D01*
X16440000Y-6230000D02*
X16400000Y-6270000D01*
X16400000Y-6660000D02*
X16440000Y-6700000D01*
X16440000Y-6660000D02*
X16400000Y-6700000D01*
X16400000Y-7030000D02*
X16440000Y-7070000D01*
X16440000Y-7030000D02*
X16400000Y-7070000D01*
X16400000Y-7480000D02*
X16440000Y-7520000D01*
X16440000Y-7480000D02*
X16400000Y-7520000D01*
X16400000Y-7880000D02*
X16440000Y-7920000D01*
X16440000Y-7880000D02*
X16400000Y-7920000D01*
X16400000Y-8220000D02*
X16440000Y-8260000D01*
X16440000Y-8220000D02*
X16400000Y-8260000D01*
X16400000Y-8620000D02*
X16440000Y-8660000D01*
X16440000Y-8620000D02*
X16400000Y-8660000D01*
X16580000Y-12930000D02*
X16620000Y-12970000D01*
X16620000Y-12930000D02*
X16580000Y-12970000D01*
X16580000Y-13080000D02*
X16620000Y-13120000D01*
X16620000Y-13080000D02*
X16580000Y-13120000D01*
X16580000Y-13230000D02*
X16620000Y-13270000D01*
X16620000Y-13230000D02*
X16580000Y-13270000D01*
X16580000Y-13380000D02*
X16620000Y-13420000D01*
X16620000Y-13380000D02*
X16580000Y-13420000D01*
X16580000Y-13530000D02*
X16620000Y-13570000D01*
X16620000Y-13530000D02*
X16580000Y-13570000D01*
X16600000Y-6230000D02*
X16640000Y-6270000D01*
X16640000Y-6230000D02*
X16600000Y-6270000D01*
X16600000Y-6660000D02*
X16640000Y-6700000D01*
X16640000Y-6660000D02*
X16600000Y-6700000D01*
X16600000Y-7030000D02*
X16640000Y-7070000D01*
X16640000Y-7030000D02*
X16600000Y-7070000D01*
X16600000Y-7480000D02*
X16640000Y-7520000D01*
X16640000Y-7480000D02*
X16600000Y-7520000D01*
X16600000Y-7880000D02*
X16640000Y-7920000D01*
X16640000Y-7880000D02*
X16600000Y-7920000D01*
X16600000Y-8220000D02*
X16640000Y-8260000D01*
X16640000Y-8220000D02*
X16600000Y-8260000D01*
X16600000Y-8620000D02*
X16640000Y-8660000D01*
X16640000Y-8620000D02*
X16600000Y-8660000D01*
X16780000Y-12930000D02*
X16820000Y-12970000D01*
X16820000Y-12930000D02*
X16780000Y-12970000D01*
X16780000Y-13080000D02*
X16820000Y-13120000D01*
X16820000Y-13080000D02*
X16780000Y-13120000D01*
X16780000Y-13230000D02*
X16820000Y-13270000D01*
X16820000Y-13230000D02*
X16780000Y-13270000D01*
X16780000Y-13380000D02*
X16820000Y-13420000D01*
X16820000Y-13380000D02*
X16780000Y-13420000D01*
X16780000Y-13530000D02*
X16820000Y-13570000D01*
X16820000Y-13530000D02*
X16780000Y-13570000D01*
X16810000Y-6230000D02*
X16850000Y-6270000D01*
X16850000Y-6230000D02*
X16810000Y-6270000D01*
X16810000Y-6660000D02*
X16850000Y-6700000D01*
X16850000Y-6660000D02*
X16810000Y-6700000D01*
X16810000Y-7030000D02*
X16850000Y-7070000D01*
X16850000Y-7030000D02*
X16810000Y-7070000D01*
X16810000Y-7480000D02*
X16850000Y-7520000D01*
X16850000Y-7480000D02*
X16810000Y-7520000D01*
X16810000Y-7880000D02*
X16850000Y-7920000D01*
X16850000Y-7880000D02*
X16810000Y-7920000D01*
X16980000Y-4140000D02*
X17020000Y-4180000D01*
X17020000Y-4140000D02*
X16980000Y-4180000D01*
X16980000Y-4310000D02*
X17020000Y-4350000D01*
X17020000Y-4310000D02*
X16980000Y-4350000D01*
X16980000Y-4500000D02*
X17020000Y-4540000D01*
X17020000Y-4500000D02*
X16980000Y-4540000D01*
X17010000Y-6230000D02*
X17050000Y-6270000D01*
X17050000Y-6230000D02*
X17010000Y-6270000D01*
X17010000Y-6660000D02*
X17050000Y-6700000D01*
X17050000Y-6660000D02*
X17010000Y-6700000D01*
X17010000Y-7030000D02*
X17050000Y-7070000D01*
X17050000Y-7030000D02*
X17010000Y-7070000D01*
X17010000Y-7480000D02*
X17050000Y-7520000D01*
X17050000Y-7480000D02*
X17010000Y-7520000D01*
X17010000Y-7880000D02*
X17050000Y-7920000D01*
X17050000Y-7880000D02*
X17010000Y-7920000D01*
X17015000Y-10380000D02*
X17055000Y-10420000D01*
X17055000Y-10380000D02*
X17015000Y-10420000D01*
X17060000Y-5010000D02*
X17100000Y-5050000D01*
X17100000Y-5010000D02*
X17060000Y-5050000D01*
X17680000Y-7470000D02*
X17720000Y-7510000D01*
X17720000Y-7470000D02*
X17680000Y-7510000D01*
X17680000Y-7630000D02*
X17720000Y-7670000D01*
X17720000Y-7630000D02*
X17680000Y-7670000D01*
X17680000Y-7800000D02*
X17720000Y-7840000D01*
X17720000Y-7800000D02*
X17680000Y-7840000D01*
X17690000Y-6670000D02*
X17730000Y-6710000D01*
X17730000Y-6670000D02*
X17690000Y-6710000D01*
X17690000Y-6810000D02*
X17730000Y-6850000D01*
X17730000Y-6810000D02*
X17690000Y-6850000D01*
X17690000Y-6960000D02*
X17730000Y-7000000D01*
X17730000Y-6960000D02*
X17690000Y-7000000D01*
X17690000Y-7100000D02*
X17730000Y-7140000D01*
X17730000Y-7100000D02*
X17690000Y-7140000D01*
X17700000Y-4150000D02*
X17740000Y-4190000D01*
X17740000Y-4150000D02*
X17700000Y-4190000D01*
X17700000Y-4320000D02*
X17740000Y-4360000D01*
X17740000Y-4320000D02*
X17700000Y-4360000D01*
X17700000Y-4510000D02*
X17740000Y-4550000D01*
X17740000Y-4510000D02*
X17700000Y-4550000D01*
X17700000Y-6010000D02*
X17740000Y-6050000D01*
X17740000Y-6010000D02*
X17700000Y-6050000D01*
X17700000Y-6150000D02*
X17740000Y-6190000D01*
X17740000Y-6150000D02*
X17700000Y-6190000D01*
X17700000Y-6280000D02*
X17740000Y-6320000D01*
X17740000Y-6280000D02*
X17700000Y-6320000D01*
X17700000Y-6420000D02*
X17740000Y-6460000D01*
X17740000Y-6420000D02*
X17700000Y-6460000D01*
X17960000Y-6010000D02*
X18000000Y-6050000D01*
X18000000Y-6010000D02*
X17960000Y-6050000D01*
X17960000Y-6150000D02*
X18000000Y-6190000D01*
X18000000Y-6150000D02*
X17960000Y-6190000D01*
X17960000Y-6280000D02*
X18000000Y-6320000D01*
X18000000Y-6280000D02*
X17960000Y-6320000D01*
X17960000Y-6420000D02*
X18000000Y-6460000D01*
X18000000Y-6420000D02*
X17960000Y-6460000D01*
X17970000Y-7290000D02*
X18010000Y-7330000D01*
X18010000Y-7290000D02*
X17970000Y-7330000D01*
X17970000Y-7470000D02*
X18010000Y-7510000D01*
X18010000Y-7470000D02*
X17970000Y-7510000D01*
X17970000Y-7670000D02*
X18010000Y-7710000D01*
X18010000Y-7670000D02*
X17970000Y-7710000D01*
X18000000Y-6670000D02*
X18040000Y-6710000D01*
X18040000Y-6670000D02*
X18000000Y-6710000D01*
X18000000Y-6810000D02*
X18040000Y-6850000D01*
X18040000Y-6810000D02*
X18000000Y-6850000D01*
X18000000Y-6960000D02*
X18040000Y-7000000D01*
X18040000Y-6960000D02*
X18000000Y-7000000D01*
X18230000Y-6010000D02*
X18270000Y-6050000D01*
X18270000Y-6010000D02*
X18230000Y-6050000D01*
X18230000Y-6150000D02*
X18270000Y-6190000D01*
X18270000Y-6150000D02*
X18230000Y-6190000D01*
X18230000Y-6280000D02*
X18270000Y-6320000D01*
X18270000Y-6280000D02*
X18230000Y-6320000D01*
X18230000Y-6420000D02*
X18270000Y-6460000D01*
X18270000Y-6420000D02*
X18230000Y-6460000D01*
X18290000Y-7190000D02*
X18330000Y-7230000D01*
X18330000Y-7190000D02*
X18290000Y-7230000D01*
X18290000Y-7390000D02*
X18330000Y-7430000D01*
X18330000Y-7390000D02*
X18290000Y-7430000D01*
X18290000Y-7600000D02*
X18330000Y-7640000D01*
X18330000Y-7600000D02*
X18290000Y-7640000D01*
X18310000Y-6670000D02*
X18350000Y-6710000D01*
X18350000Y-6670000D02*
X18310000Y-6710000D01*
X18310000Y-6810000D02*
X18350000Y-6850000D01*
X18350000Y-6810000D02*
X18310000Y-6850000D01*
X18310000Y-6960000D02*
X18350000Y-7000000D01*
X18350000Y-6960000D02*
X18310000Y-7000000D01*
X18410000Y-4150000D02*
X18450000Y-4190000D01*
X18450000Y-4150000D02*
X18410000Y-4190000D01*
X18410000Y-4320000D02*
X18450000Y-4360000D01*
X18450000Y-4320000D02*
X18410000Y-4360000D01*
X18410000Y-4510000D02*
X18450000Y-4550000D01*
X18450000Y-4510000D02*
X18410000Y-4550000D01*
X18410000Y-5260000D02*
X18450000Y-5300000D01*
X18450000Y-5260000D02*
X18410000Y-5300000D01*
X18500000Y-6010000D02*
X18540000Y-6050000D01*
X18540000Y-6010000D02*
X18500000Y-6050000D01*
X18500000Y-6150000D02*
X18540000Y-6190000D01*
X18540000Y-6150000D02*
X18500000Y-6190000D01*
X18500000Y-6280000D02*
X18540000Y-6320000D01*
X18540000Y-6280000D02*
X18500000Y-6320000D01*
X18500000Y-6420000D02*
X18540000Y-6460000D01*
X18540000Y-6420000D02*
X18500000Y-6460000D01*
X18570000Y-5540000D02*
X18610000Y-5580000D01*
X18610000Y-5540000D02*
X18570000Y-5580000D01*
X18570000Y-5660000D02*
X18610000Y-5700000D01*
X18610000Y-5660000D02*
X18570000Y-5700000D01*
X18570000Y-5780000D02*
X18610000Y-5820000D01*
X18610000Y-5780000D02*
X18570000Y-5820000D01*
X18600000Y-7190000D02*
X18640000Y-7230000D01*
X18640000Y-7190000D02*
X18600000Y-7230000D01*
X18600000Y-7360000D02*
X18640000Y-7400000D01*
X18640000Y-7360000D02*
X18600000Y-7400000D01*
X18600000Y-7550000D02*
X18640000Y-7590000D01*
X18640000Y-7550000D02*
X18600000Y-7590000D01*
X18640000Y-6670000D02*
X18680000Y-6710000D01*
X18680000Y-6670000D02*
X18640000Y-6710000D01*
X18640000Y-6810000D02*
X18680000Y-6850000D01*
X18680000Y-6810000D02*
X18640000Y-6850000D01*
X18640000Y-6960000D02*
X18680000Y-7000000D01*
X18680000Y-6960000D02*
X18640000Y-7000000D01*
X18710000Y-5540000D02*
X18750000Y-5580000D01*
X18750000Y-5540000D02*
X18710000Y-5580000D01*
X18710000Y-5660000D02*
X18750000Y-5700000D01*
X18750000Y-5660000D02*
X18710000Y-5700000D01*
X18710000Y-5780000D02*
X18750000Y-5820000D01*
X18750000Y-5780000D02*
X18710000Y-5820000D01*
X18810000Y-6010000D02*
X18850000Y-6050000D01*
X18850000Y-6010000D02*
X18810000Y-6050000D01*
X18810000Y-6150000D02*
X18850000Y-6190000D01*
X18850000Y-6150000D02*
X18810000Y-6190000D01*
X18810000Y-6280000D02*
X18850000Y-6320000D01*
X18850000Y-6280000D02*
X18810000Y-6320000D01*
X18810000Y-6420000D02*
X18850000Y-6460000D01*
X18850000Y-6420000D02*
X18810000Y-6460000D01*
X18850000Y-5780000D02*
X18890000Y-5820000D01*
X18890000Y-5780000D02*
X18850000Y-5820000D01*
X18860000Y-5540000D02*
X18900000Y-5580000D01*
X18900000Y-5540000D02*
X18860000Y-5580000D01*
X18860000Y-5660000D02*
X18900000Y-5700000D01*
X18900000Y-5660000D02*
X18860000Y-5700000D01*
X18910000Y-7190000D02*
X18950000Y-7230000D01*
X18950000Y-7190000D02*
X18910000Y-7230000D01*
X18910000Y-7340000D02*
X18950000Y-7380000D01*
X18950000Y-7340000D02*
X18910000Y-7380000D01*
X18910000Y-7490000D02*
X18950000Y-7530000D01*
X18950000Y-7490000D02*
X18910000Y-7530000D01*
X18970000Y-6670000D02*
X19010000Y-6710000D01*
X19010000Y-6670000D02*
X18970000Y-6710000D01*
X18970000Y-6810000D02*
X19010000Y-6850000D01*
X19010000Y-6810000D02*
X18970000Y-6850000D01*
X18970000Y-6960000D02*
X19010000Y-7000000D01*
X19010000Y-6960000D02*
X18970000Y-7000000D01*
X19010000Y-5780000D02*
X19050000Y-5820000D01*
X19050000Y-5780000D02*
X19010000Y-5820000D01*
X19020000Y-5540000D02*
X19060000Y-5580000D01*
X19060000Y-5540000D02*
X19020000Y-5580000D01*
X19020000Y-5650000D02*
X19060000Y-5690000D01*
X19060000Y-5650000D02*
X19020000Y-5690000D01*
X19160000Y-5780000D02*
X19200000Y-5820000D01*
X19200000Y-5780000D02*
X19160000Y-5820000D01*
X19170000Y-5650000D02*
X19210000Y-5690000D01*
X19210000Y-5650000D02*
X19170000Y-5690000D01*
X19180000Y-5540000D02*
X19220000Y-5580000D01*
X19220000Y-5540000D02*
X19180000Y-5580000D01*
D13*
X11410000Y-9295000D02*
G75*
G03*
X11410000Y-9295000I-40000J0D01*
G01*
X11410000Y-9549000D02*
G75*
G03*
X11410000Y-9549000I-40000J0D01*
G01*
X11410000Y-9803000D02*
G75*
G03*
X11410000Y-9803000I-40000J0D01*
G01*
X11410000Y-10057000D02*
G75*
G03*
X11410000Y-10057000I-40000J0D01*
G01*
X12172000Y-9295000D02*
G75*
G03*
X12172000Y-9295000I-40000J0D01*
G01*
X12172000Y-9549000D02*
G75*
G03*
X12172000Y-9549000I-40000J0D01*
G01*
X12172000Y-9803000D02*
G75*
G03*
X12172000Y-9803000I-40000J0D01*
G01*
X12172000Y-10057000D02*
G75*
G03*
X12172000Y-10057000I-40000J0D01*
G01*
X14060000Y-5370000D02*
G75*
G03*
X14060000Y-5370000I-40000J0D01*
G01*
X14060000Y-5624000D02*
G75*
G03*
X14060000Y-5624000I-40000J0D01*
G01*
X14060000Y-5878000D02*
G75*
G03*
X14060000Y-5878000I-40000J0D01*
G01*
X14060000Y-6132000D02*
G75*
G03*
X14060000Y-6132000I-40000J0D01*
G01*
X14822000Y-5370000D02*
G75*
G03*
X14822000Y-5370000I-40000J0D01*
G01*
X14822000Y-5624000D02*
G75*
G03*
X14822000Y-5624000I-40000J0D01*
G01*
X14822000Y-5878000D02*
G75*
G03*
X14822000Y-5878000I-40000J0D01*
G01*
X14822000Y-6132000D02*
G75*
G03*
X14822000Y-6132000I-40000J0D01*
G01*
D10*
X17442500Y-10099000D02*
X17442500Y-10199000D01*
X17392500Y-10149000D02*
X17492500Y-10149000D01*
X17442500Y-10353000D02*
X17442500Y-10453000D01*
X17392500Y-10403000D02*
X17492500Y-10403000D01*
X17442500Y-10607000D02*
X17442500Y-10707000D01*
X17392500Y-10657000D02*
X17492500Y-10657000D01*
X18050000Y-4976000D02*
X18050000Y-5076000D01*
X18000000Y-5026000D02*
X18100000Y-5026000D01*
X18050000Y-5230000D02*
X18050000Y-5330000D01*
X18000000Y-5280000D02*
X18100000Y-5280000D01*
D14*
X10903063Y-6987063D02*
X10903063Y-6914937D01*
X10830937Y-6914937D01*
X10830937Y-6987063D01*
X10903063Y-6987063D01*
X10903063Y-8765063D02*
X10903063Y-8692937D01*
X10830937Y-8692937D01*
X10830937Y-8765063D01*
X10903063Y-8765063D01*
X11157063Y-6987063D02*
X11157063Y-6914937D01*
X11084937Y-6914937D01*
X11084937Y-6987063D01*
X11157063Y-6987063D01*
X11157063Y-8765063D02*
X11157063Y-8692937D01*
X11084937Y-8692937D01*
X11084937Y-8765063D01*
X11157063Y-8765063D01*
X11411063Y-6987063D02*
X11411063Y-6914937D01*
X11338937Y-6914937D01*
X11338937Y-6987063D01*
X11411063Y-6987063D01*
X11411063Y-8765063D02*
X11411063Y-8692937D01*
X11338937Y-8692937D01*
X11338937Y-8765063D01*
X11411063Y-8765063D01*
X11665063Y-6987063D02*
X11665063Y-6914937D01*
X11592937Y-6914937D01*
X11592937Y-6987063D01*
X11665063Y-6987063D01*
X11665063Y-8765063D02*
X11665063Y-8692937D01*
X11592937Y-8692937D01*
X11592937Y-8765063D01*
X11665063Y-8765063D01*
X11919063Y-6987063D02*
X11919063Y-6914937D01*
X11846937Y-6914937D01*
X11846937Y-6987063D01*
X11919063Y-6987063D01*
X11919063Y-8765063D02*
X11919063Y-8692937D01*
X11846937Y-8692937D01*
X11846937Y-8765063D01*
X11919063Y-8765063D01*
X12173063Y-6987063D02*
X12173063Y-6914937D01*
X12100937Y-6914937D01*
X12100937Y-6987063D01*
X12173063Y-6987063D01*
X12173063Y-8765063D02*
X12173063Y-8692937D01*
X12100937Y-8692937D01*
X12100937Y-8765063D01*
X12173063Y-8765063D01*
X12427063Y-6987063D02*
X12427063Y-6914937D01*
X12354937Y-6914937D01*
X12354937Y-6987063D01*
X12427063Y-6987063D01*
X12427063Y-8765063D02*
X12427063Y-8692937D01*
X12354937Y-8692937D01*
X12354937Y-8765063D01*
X12427063Y-8765063D01*
X12681063Y-6987063D02*
X12681063Y-6914937D01*
X12608937Y-6914937D01*
X12608937Y-6987063D01*
X12681063Y-6987063D01*
X12681063Y-8765063D02*
X12681063Y-8692937D01*
X12608937Y-8692937D01*
X12608937Y-8765063D01*
X12681063Y-8765063D01*
X12935063Y-6987063D02*
X12935063Y-6914937D01*
X12862937Y-6914937D01*
X12862937Y-6987063D01*
X12935063Y-6987063D01*
X12935063Y-8765063D02*
X12935063Y-8692937D01*
X12862937Y-8692937D01*
X12862937Y-8765063D01*
X12935063Y-8765063D01*
X13189063Y-6987063D02*
X13189063Y-6914937D01*
X13116937Y-6914937D01*
X13116937Y-6987063D01*
X13189063Y-6987063D01*
X13189063Y-8765063D02*
X13189063Y-8692937D01*
X13116937Y-8692937D01*
X13116937Y-8765063D01*
X13189063Y-8765063D01*
X13443063Y-6987063D02*
X13443063Y-6914937D01*
X13370937Y-6914937D01*
X13370937Y-6987063D01*
X13443063Y-6987063D01*
X13443063Y-8765063D02*
X13443063Y-8692937D01*
X13370937Y-8692937D01*
X13370937Y-8765063D01*
X13443063Y-8765063D01*
X13697063Y-6987063D02*
X13697063Y-6914937D01*
X13624937Y-6914937D01*
X13624937Y-6987063D01*
X13697063Y-6987063D01*
X13697063Y-8765063D02*
X13697063Y-8692937D01*
X13624937Y-8692937D01*
X13624937Y-8765063D01*
X13697063Y-8765063D01*
X13951063Y-6987063D02*
X13951063Y-6914937D01*
X13878937Y-6914937D01*
X13878937Y-6987063D01*
X13951063Y-6987063D01*
X13951063Y-8765063D02*
X13951063Y-8692937D01*
X13878937Y-8692937D01*
X13878937Y-8765063D01*
X13951063Y-8765063D01*
X14205063Y-6987063D02*
X14205063Y-6914937D01*
X14132937Y-6914937D01*
X14132937Y-6987063D01*
X14205063Y-6987063D01*
X14205063Y-8765063D02*
X14205063Y-8692937D01*
X14132937Y-8692937D01*
X14132937Y-8765063D01*
X14205063Y-8765063D01*
X14459063Y-6987063D02*
X14459063Y-6914937D01*
X14386937Y-6914937D01*
X14386937Y-6987063D01*
X14459063Y-6987063D01*
X14459063Y-8765063D02*
X14459063Y-8692937D01*
X14386937Y-8692937D01*
X14386937Y-8765063D01*
X14459063Y-8765063D01*
X14713063Y-6987063D02*
X14713063Y-6914937D01*
X14640937Y-6914937D01*
X14640937Y-6987063D01*
X14713063Y-6987063D01*
X14713063Y-8765063D02*
X14713063Y-8692937D01*
X14640937Y-8692937D01*
X14640937Y-8765063D01*
X14713063Y-8765063D01*
X14967063Y-6987063D02*
X14967063Y-6914937D01*
X14894937Y-6914937D01*
X14894937Y-6987063D01*
X14967063Y-6987063D01*
X14967063Y-8765063D02*
X14967063Y-8692937D01*
X14894937Y-8692937D01*
X14894937Y-8765063D01*
X14967063Y-8765063D01*
X15221063Y-6987063D02*
X15221063Y-6914937D01*
X15148937Y-6914937D01*
X15148937Y-6987063D01*
X15221063Y-6987063D01*
X15221063Y-8765063D02*
X15221063Y-8692937D01*
X15148937Y-8692937D01*
X15148937Y-8765063D01*
X15221063Y-8765063D01*
X15475063Y-6987063D02*
X15475063Y-6914937D01*
X15402937Y-6914937D01*
X15402937Y-6987063D01*
X15475063Y-6987063D01*
X15475063Y-8765063D02*
X15475063Y-8692937D01*
X15402937Y-8692937D01*
X15402937Y-8765063D01*
X15475063Y-8765063D01*
X15706063Y-7622063D02*
X15706063Y-7549937D01*
X15633937Y-7549937D01*
X15633937Y-7622063D01*
X15706063Y-7622063D01*
X15706063Y-7876063D02*
X15706063Y-7803937D01*
X15633937Y-7803937D01*
X15633937Y-7876063D01*
X15706063Y-7876063D01*
X15706063Y-8130063D02*
X15706063Y-8057937D01*
X15633937Y-8057937D01*
X15633937Y-8130063D01*
X15706063Y-8130063D01*
X15729063Y-6987063D02*
X15729063Y-6914937D01*
X15656937Y-6914937D01*
X15656937Y-6987063D01*
X15729063Y-6987063D01*
X15729063Y-8765063D02*
X15729063Y-8692937D01*
X15656937Y-8692937D01*
X15656937Y-8765063D01*
X15729063Y-8765063D01*
D15*
X15225500Y-10461000D02*
X15280500Y-10406000D01*
X15225500Y-10351000D01*
X15170500Y-10406000D01*
X15225500Y-10461000D01*
X15225500Y-10969000D02*
X15280500Y-10914000D01*
X15225500Y-10859000D01*
X15170500Y-10914000D01*
X15225500Y-10969000D01*
D16*
X16301500Y-9041500D02*
X16418500Y-9158500D01*
X16418500Y-9041500D02*
X16301500Y-9158500D01*
X16418500Y-9100000D02*
G75*
G03*
X16418500Y-9100000I-58500J0D01*
G01*
X16301500Y-9541500D02*
X16418500Y-9658500D01*
X16418500Y-9541500D02*
X16301500Y-9658500D01*
X16418500Y-9600000D02*
G75*
G03*
X16418500Y-9600000I-58500J0D01*
G01*
X18081500Y-9041500D02*
X18198500Y-9158500D01*
X18198500Y-9041500D02*
X18081500Y-9158500D01*
X18198500Y-9100000D02*
G75*
G03*
X18198500Y-9100000I-58500J0D01*
G01*
X18081500Y-9541500D02*
X18198500Y-9658500D01*
X18198500Y-9541500D02*
X18081500Y-9658500D01*
X18198500Y-9600000D02*
G75*
G03*
X18198500Y-9600000I-58500J0D01*
G01*
D17*
X19365000Y-5153000D02*
X19495000Y-5283000D01*
X19495000Y-5153000D02*
X19365000Y-5283000D01*
X19430000Y-5153000D02*
X19430000Y-5283000D01*
X19365000Y-5218000D02*
X19495000Y-5218000D01*
X19365000Y-5661000D02*
X19495000Y-5791000D01*
X19495000Y-5661000D02*
X19365000Y-5791000D01*
X19430000Y-5661000D02*
X19430000Y-5791000D01*
X19365000Y-5726000D02*
X19495000Y-5726000D01*
X19365000Y-6169000D02*
X19495000Y-6299000D01*
X19495000Y-6169000D02*
X19365000Y-6299000D01*
X19430000Y-6169000D02*
X19430000Y-6299000D01*
X19365000Y-6234000D02*
X19495000Y-6234000D01*
X19365000Y-6677000D02*
X19495000Y-6807000D01*
X19495000Y-6677000D02*
X19365000Y-6807000D01*
X19430000Y-6677000D02*
X19430000Y-6807000D01*
X19365000Y-6742000D02*
X19495000Y-6742000D01*
X19365000Y-7185000D02*
X19495000Y-7315000D01*
X19495000Y-7185000D02*
X19365000Y-7315000D01*
X19430000Y-7185000D02*
X19430000Y-7315000D01*
X19365000Y-7250000D02*
X19495000Y-7250000D01*
X19365000Y-7827000D02*
X19495000Y-7957000D01*
X19495000Y-7827000D02*
X19365000Y-7957000D01*
X19430000Y-7827000D02*
X19430000Y-7957000D01*
X19365000Y-7892000D02*
X19495000Y-7892000D01*
X19365000Y-8335000D02*
X19495000Y-8465000D01*
X19495000Y-8335000D02*
X19365000Y-8465000D01*
X19430000Y-8335000D02*
X19430000Y-8465000D01*
X19365000Y-8400000D02*
X19495000Y-8400000D01*
X19365000Y-8981500D02*
X19495000Y-9111500D01*
X19495000Y-8981500D02*
X19365000Y-9111500D01*
X19430000Y-8981500D02*
X19430000Y-9111500D01*
X19365000Y-9046500D02*
X19495000Y-9046500D01*
X19365000Y-9489500D02*
X19495000Y-9619500D01*
X19495000Y-9489500D02*
X19365000Y-9619500D01*
X19430000Y-9489500D02*
X19430000Y-9619500D01*
X19365000Y-9554500D02*
X19495000Y-9554500D01*
D18*
X17360500Y-5430500D02*
X17499500Y-5569500D01*
X17499500Y-5430500D02*
X17360500Y-5569500D01*
X17479144Y-5549144D02*
X17479144Y-5450856D01*
X17380856Y-5450856D01*
X17380856Y-5549144D01*
X17479144Y-5549144D01*
X17360500Y-6180500D02*
X17499500Y-6319500D01*
X17499500Y-6180500D02*
X17360500Y-6319500D01*
X17479144Y-6299144D02*
X17479144Y-6200856D01*
X17380856Y-6200856D01*
X17380856Y-6299144D01*
X17479144Y-6299144D01*
X17360500Y-6930500D02*
X17499500Y-7069500D01*
X17499500Y-6930500D02*
X17360500Y-7069500D01*
X17479144Y-7049144D02*
X17479144Y-6950856D01*
X17380856Y-6950856D01*
X17380856Y-7049144D01*
X17479144Y-7049144D01*
X17360500Y-7680500D02*
X17499500Y-7819500D01*
X17499500Y-7680500D02*
X17360500Y-7819500D01*
X17479144Y-7799144D02*
X17479144Y-7700856D01*
X17380856Y-7700856D01*
X17380856Y-7799144D01*
X17479144Y-7799144D01*
X17360500Y-8430500D02*
X17499500Y-8569500D01*
X17499500Y-8430500D02*
X17360500Y-8569500D01*
X17479144Y-8549144D02*
X17479144Y-8450856D01*
X17380856Y-8450856D01*
X17380856Y-8549144D01*
X17479144Y-8549144D01*
D19*
X14127000Y-9540000D02*
X14277000Y-9690000D01*
X14277000Y-9540000D02*
X14127000Y-9690000D01*
X14202000Y-9690000D02*
X14277000Y-9615000D01*
X14202000Y-9540000D01*
X14127000Y-9615000D01*
X14202000Y-9690000D01*
X14127000Y-10085000D02*
X14277000Y-10235000D01*
X14277000Y-10085000D02*
X14127000Y-10235000D01*
X14202000Y-10235000D02*
X14277000Y-10160000D01*
X14202000Y-10085000D01*
X14127000Y-10160000D01*
X14202000Y-10235000D01*
X14127000Y-10630000D02*
X14277000Y-10780000D01*
X14277000Y-10630000D02*
X14127000Y-10780000D01*
X14202000Y-10780000D02*
X14277000Y-10705000D01*
X14202000Y-10630000D01*
X14127000Y-10705000D01*
X14202000Y-10780000D01*
D11*
X13600000Y-12200000D02*
X13600000Y-12400000D01*
X13500000Y-12300000D02*
X13700000Y-12300000D01*
X13700000Y-12300000D02*
G75*
G03*
X13700000Y-12300000I-100000J0D01*
G01*
X13600000Y-13200000D02*
X13600000Y-13400000D01*
X13500000Y-13300000D02*
X13700000Y-13300000D01*
X13700000Y-13300000D02*
G75*
G03*
X13700000Y-13300000I-100000J0D01*
G01*
X17200000Y-12206950D02*
X17200000Y-12406950D01*
X17100000Y-12306950D02*
X17300000Y-12306950D01*
X17300000Y-12306950D02*
G75*
G03*
X17300000Y-12306950I-100000J0D01*
G01*
X17200000Y-13206950D02*
X17200000Y-13406950D01*
X17100000Y-13306950D02*
X17300000Y-13306950D01*
X17300000Y-13306950D02*
G75*
G03*
X17300000Y-13306950I-100000J0D01*
G01*
D20*
X11063138Y-4453138D02*
X11063138Y-4226862D01*
X10836862Y-4226862D01*
X10836862Y-4453138D01*
X11063138Y-4453138D01*
X11110000Y-4340000D02*
G75*
G03*
X11110000Y-4340000I-160000J0D01*
G01*
X11063138Y-13513138D02*
X11063138Y-13286862D01*
X10836862Y-13286862D01*
X10836862Y-13513138D01*
X11063138Y-13513138D01*
X11110000Y-13400000D02*
G75*
G03*
X11110000Y-13400000I-160000J0D01*
G01*
X19813138Y-4463138D02*
X19813138Y-4236862D01*
X19586862Y-4236862D01*
X19586862Y-4463138D01*
X19813138Y-4463138D01*
X19860000Y-4350000D02*
G75*
G03*
X19860000Y-4350000I-160000J0D01*
G01*
X19813138Y-13513138D02*
X19813138Y-13286862D01*
X19586862Y-13286862D01*
X19586862Y-13513138D01*
X19813138Y-13513138D01*
X19860000Y-13400000D02*
G75*
G03*
X19860000Y-13400000I-160000J0D01*
G01*
D11*
X10752619Y-14165476D02*
X10752619Y-13965476D01*
X10800238Y-13965476D01*
X10828810Y-13975000D01*
X10847857Y-13994048D01*
X10857381Y-14013095D01*
X10866905Y-14051190D01*
X10866905Y-14079762D01*
X10857381Y-14117857D01*
X10847857Y-14136905D01*
X10828810Y-14155952D01*
X10800238Y-14165476D01*
X10752619Y-14165476D01*
X10952619Y-14165476D02*
X10952619Y-14032143D01*
X10952619Y-14070238D02*
X10962143Y-14051190D01*
X10971667Y-14041667D01*
X10990714Y-14032143D01*
X11009762Y-14032143D01*
X11076429Y-14165476D02*
X11076429Y-14032143D01*
X11076429Y-13965476D02*
X11066905Y-13975000D01*
X11076429Y-13984524D01*
X11085952Y-13975000D01*
X11076429Y-13965476D01*
X11076429Y-13984524D01*
X11200238Y-14165476D02*
X11181190Y-14155952D01*
X11171667Y-14136905D01*
X11171667Y-13965476D01*
X11305000Y-14165476D02*
X11285952Y-14155952D01*
X11276428Y-14136905D01*
X11276428Y-13965476D01*
X11533571Y-14165476D02*
X11533571Y-13965476D01*
X11600238Y-14108333D01*
X11666905Y-13965476D01*
X11666905Y-14165476D01*
X11847857Y-14165476D02*
X11847857Y-14060714D01*
X11838333Y-14041667D01*
X11819286Y-14032143D01*
X11781190Y-14032143D01*
X11762143Y-14041667D01*
X11847857Y-14155952D02*
X11828809Y-14165476D01*
X11781190Y-14165476D01*
X11762143Y-14155952D01*
X11752619Y-14136905D01*
X11752619Y-14117857D01*
X11762143Y-14098809D01*
X11781190Y-14089286D01*
X11828809Y-14089286D01*
X11847857Y-14079762D01*
X11943095Y-14032143D02*
X11943095Y-14232143D01*
X11943095Y-14041667D02*
X11962143Y-14032143D01*
X12000238Y-14032143D01*
X12019286Y-14041667D01*
X12028809Y-14051190D01*
X12038333Y-14070238D01*
X12038333Y-14127381D01*
X12028809Y-14146428D01*
X12019286Y-14155952D01*
X12000238Y-14165476D01*
X11962143Y-14165476D01*
X11943095Y-14155952D01*
X12124048Y-14146428D02*
X12133571Y-14155952D01*
X12124048Y-14165476D01*
X12114524Y-14155952D01*
X12124048Y-14146428D01*
X12124048Y-14165476D01*
X12124048Y-14041667D02*
X12133571Y-14051190D01*
X12124048Y-14060714D01*
X12114524Y-14051190D01*
X12124048Y-14041667D01*
X12124048Y-14060714D01*
D12*
X10455000Y-14475000D02*
X10495000Y-14515000D01*
X10495000Y-14475000D02*
X10455000Y-14515000D01*
D11*
X10790714Y-14385476D02*
X10809762Y-14385476D01*
X10828810Y-14395000D01*
X10838333Y-14404524D01*
X10847857Y-14423571D01*
X10857381Y-14461667D01*
X10857381Y-14509286D01*
X10847857Y-14547381D01*
X10838333Y-14566428D01*
X10828810Y-14575952D01*
X10809762Y-14585476D01*
X10790714Y-14585476D01*
X10771667Y-14575952D01*
X10762143Y-14566428D01*
X10752619Y-14547381D01*
X10743095Y-14509286D01*
X10743095Y-14461667D01*
X10752619Y-14423571D01*
X10762143Y-14404524D01*
X10771667Y-14395000D01*
X10790714Y-14385476D01*
X10943095Y-14566428D02*
X10952619Y-14575952D01*
X10943095Y-14585476D01*
X10933571Y-14575952D01*
X10943095Y-14566428D01*
X10943095Y-14585476D01*
X11124048Y-14452143D02*
X11124048Y-14585476D01*
X11076429Y-14375952D02*
X11028810Y-14518809D01*
X11152619Y-14518809D01*
X11266905Y-14385476D02*
X11285952Y-14385476D01*
X11305000Y-14395000D01*
X11314524Y-14404524D01*
X11324048Y-14423571D01*
X11333571Y-14461667D01*
X11333571Y-14509286D01*
X11324048Y-14547381D01*
X11314524Y-14566428D01*
X11305000Y-14575952D01*
X11285952Y-14585476D01*
X11266905Y-14585476D01*
X11247857Y-14575952D01*
X11238333Y-14566428D01*
X11228809Y-14547381D01*
X11219286Y-14509286D01*
X11219286Y-14461667D01*
X11228809Y-14423571D01*
X11238333Y-14404524D01*
X11247857Y-14395000D01*
X11266905Y-14385476D01*
X11457381Y-14385476D02*
X11476428Y-14385476D01*
X11495476Y-14395000D01*
X11505000Y-14404524D01*
X11514524Y-14423571D01*
X11524048Y-14461667D01*
X11524048Y-14509286D01*
X11514524Y-14547381D01*
X11505000Y-14566428D01*
X11495476Y-14575952D01*
X11476428Y-14585476D01*
X11457381Y-14585476D01*
X11438333Y-14575952D01*
X11428809Y-14566428D01*
X11419286Y-14547381D01*
X11409762Y-14509286D01*
X11409762Y-14461667D01*
X11419286Y-14423571D01*
X11428809Y-14404524D01*
X11438333Y-14395000D01*
X11457381Y-14385476D01*
X11609762Y-14585476D02*
X11609762Y-14452143D01*
X11609762Y-14471190D02*
X11619286Y-14461667D01*
X11638333Y-14452143D01*
X11666905Y-14452143D01*
X11685952Y-14461667D01*
X11695476Y-14480714D01*
X11695476Y-14585476D01*
X11695476Y-14480714D02*
X11705000Y-14461667D01*
X11724048Y-14452143D01*
X11752619Y-14452143D01*
X11771667Y-14461667D01*
X11781190Y-14480714D01*
X11781190Y-14585476D01*
X11876428Y-14585476D02*
X11876428Y-14452143D01*
X11876428Y-14471190D02*
X11885952Y-14461667D01*
X11905000Y-14452143D01*
X11933571Y-14452143D01*
X11952619Y-14461667D01*
X11962143Y-14480714D01*
X11962143Y-14585476D01*
X11962143Y-14480714D02*
X11971667Y-14461667D01*
X11990714Y-14452143D01*
X12019286Y-14452143D01*
X12038333Y-14461667D01*
X12047857Y-14480714D01*
X12047857Y-14585476D01*
X12438333Y-14375952D02*
X12266905Y-14633095D01*
X12695476Y-14385476D02*
X12714524Y-14385476D01*
X12733571Y-14395000D01*
X12743095Y-14404524D01*
X12752619Y-14423571D01*
X12762143Y-14461667D01*
X12762143Y-14509286D01*
X12752619Y-14547381D01*
X12743095Y-14566428D01*
X12733571Y-14575952D01*
X12714524Y-14585476D01*
X12695476Y-14585476D01*
X12676428Y-14575952D01*
X12666905Y-14566428D01*
X12657381Y-14547381D01*
X12647857Y-14509286D01*
X12647857Y-14461667D01*
X12657381Y-14423571D01*
X12666905Y-14404524D01*
X12676428Y-14395000D01*
X12695476Y-14385476D01*
X12847857Y-14566428D02*
X12857381Y-14575952D01*
X12847857Y-14585476D01*
X12838333Y-14575952D01*
X12847857Y-14566428D01*
X12847857Y-14585476D01*
X12981190Y-14385476D02*
X13000238Y-14385476D01*
X13019286Y-14395000D01*
X13028809Y-14404524D01*
X13038333Y-14423571D01*
X13047857Y-14461667D01*
X13047857Y-14509286D01*
X13038333Y-14547381D01*
X13028809Y-14566428D01*
X13019286Y-14575952D01*
X13000238Y-14585476D01*
X12981190Y-14585476D01*
X12962143Y-14575952D01*
X12952619Y-14566428D01*
X12943095Y-14547381D01*
X12933571Y-14509286D01*
X12933571Y-14461667D01*
X12943095Y-14423571D01*
X12952619Y-14404524D01*
X12962143Y-14395000D01*
X12981190Y-14385476D01*
X13238333Y-14585476D02*
X13124048Y-14585476D01*
X13181190Y-14585476D02*
X13181190Y-14385476D01*
X13162143Y-14414048D01*
X13143095Y-14433095D01*
X13124048Y-14442619D01*
X13419286Y-14385476D02*
X13324048Y-14385476D01*
X13314524Y-14480714D01*
X13324048Y-14471190D01*
X13343095Y-14461667D01*
X13390714Y-14461667D01*
X13409762Y-14471190D01*
X13419286Y-14480714D01*
X13428809Y-14499762D01*
X13428809Y-14547381D01*
X13419286Y-14566428D01*
X13409762Y-14575952D01*
X13390714Y-14585476D01*
X13343095Y-14585476D01*
X13324048Y-14575952D01*
X13314524Y-14566428D01*
X13495476Y-14385476D02*
X13628809Y-14385476D01*
X13543095Y-14585476D01*
X13695476Y-14385476D02*
X13695476Y-14423571D01*
X13771667Y-14385476D02*
X13771667Y-14423571D01*
X14066905Y-14661667D02*
X14057381Y-14652143D01*
X14038333Y-14623571D01*
X14028809Y-14604524D01*
X14019286Y-14575952D01*
X14009762Y-14528333D01*
X14009762Y-14490238D01*
X14019286Y-14442619D01*
X14028809Y-14414048D01*
X14038333Y-14395000D01*
X14057381Y-14366428D01*
X14066905Y-14356905D01*
X14133571Y-14404524D02*
X14143095Y-14395000D01*
X14162143Y-14385476D01*
X14209762Y-14385476D01*
X14228809Y-14395000D01*
X14238333Y-14404524D01*
X14247857Y-14423571D01*
X14247857Y-14442619D01*
X14238333Y-14471190D01*
X14124048Y-14585476D01*
X14247857Y-14585476D01*
X14324048Y-14404524D02*
X14333571Y-14395000D01*
X14352619Y-14385476D01*
X14400238Y-14385476D01*
X14419286Y-14395000D01*
X14428809Y-14404524D01*
X14438333Y-14423571D01*
X14438333Y-14442619D01*
X14428809Y-14471190D01*
X14314524Y-14585476D01*
X14438333Y-14585476D01*
X14628809Y-14585476D02*
X14514524Y-14585476D01*
X14571667Y-14585476D02*
X14571667Y-14385476D01*
X14552619Y-14414048D01*
X14533571Y-14433095D01*
X14514524Y-14442619D01*
X14866905Y-14585476D02*
X14866905Y-14385476D01*
X14952619Y-14585476D02*
X14952619Y-14480714D01*
X14943095Y-14461667D01*
X14924048Y-14452143D01*
X14895476Y-14452143D01*
X14876428Y-14461667D01*
X14866905Y-14471190D01*
X15076428Y-14585476D02*
X15057381Y-14575952D01*
X15047857Y-14566428D01*
X15038333Y-14547381D01*
X15038333Y-14490238D01*
X15047857Y-14471190D01*
X15057381Y-14461667D01*
X15076428Y-14452143D01*
X15105000Y-14452143D01*
X15124048Y-14461667D01*
X15133571Y-14471190D01*
X15143095Y-14490238D01*
X15143095Y-14547381D01*
X15133571Y-14566428D01*
X15124048Y-14575952D01*
X15105000Y-14585476D01*
X15076428Y-14585476D01*
X15257381Y-14585476D02*
X15238333Y-14575952D01*
X15228809Y-14556905D01*
X15228809Y-14385476D01*
X15409762Y-14575952D02*
X15390714Y-14585476D01*
X15352619Y-14585476D01*
X15333571Y-14575952D01*
X15324048Y-14556905D01*
X15324048Y-14480714D01*
X15333571Y-14461667D01*
X15352619Y-14452143D01*
X15390714Y-14452143D01*
X15409762Y-14461667D01*
X15419286Y-14480714D01*
X15419286Y-14499762D01*
X15324048Y-14518809D01*
X15495476Y-14575952D02*
X15514524Y-14585476D01*
X15552619Y-14585476D01*
X15571667Y-14575952D01*
X15581190Y-14556905D01*
X15581190Y-14547381D01*
X15571667Y-14528333D01*
X15552619Y-14518809D01*
X15524048Y-14518809D01*
X15505000Y-14509286D01*
X15495476Y-14490238D01*
X15495476Y-14480714D01*
X15505000Y-14461667D01*
X15524048Y-14452143D01*
X15552619Y-14452143D01*
X15571667Y-14461667D01*
X15647857Y-14661667D02*
X15657381Y-14652143D01*
X15676428Y-14623571D01*
X15685952Y-14604524D01*
X15695476Y-14575952D01*
X15705000Y-14528333D01*
X15705000Y-14490238D01*
X15695476Y-14442619D01*
X15685952Y-14414048D01*
X15676428Y-14395000D01*
X15657381Y-14366428D01*
X15647857Y-14356905D01*
D13*
X10495000Y-14759000D02*
G75*
G03*
X10495000Y-14759000I-40000J0D01*
G01*
D11*
X10790714Y-14649476D02*
X10809762Y-14649476D01*
X10828810Y-14659000D01*
X10838333Y-14668524D01*
X10847857Y-14687571D01*
X10857381Y-14725667D01*
X10857381Y-14773286D01*
X10847857Y-14811381D01*
X10838333Y-14830428D01*
X10828810Y-14839952D01*
X10809762Y-14849476D01*
X10790714Y-14849476D01*
X10771667Y-14839952D01*
X10762143Y-14830428D01*
X10752619Y-14811381D01*
X10743095Y-14773286D01*
X10743095Y-14725667D01*
X10752619Y-14687571D01*
X10762143Y-14668524D01*
X10771667Y-14659000D01*
X10790714Y-14649476D01*
X10943095Y-14830428D02*
X10952619Y-14839952D01*
X10943095Y-14849476D01*
X10933571Y-14839952D01*
X10943095Y-14830428D01*
X10943095Y-14849476D01*
X11066905Y-14735190D02*
X11047857Y-14725667D01*
X11038333Y-14716143D01*
X11028810Y-14697095D01*
X11028810Y-14687571D01*
X11038333Y-14668524D01*
X11047857Y-14659000D01*
X11066905Y-14649476D01*
X11105000Y-14649476D01*
X11124048Y-14659000D01*
X11133571Y-14668524D01*
X11143095Y-14687571D01*
X11143095Y-14697095D01*
X11133571Y-14716143D01*
X11124048Y-14725667D01*
X11105000Y-14735190D01*
X11066905Y-14735190D01*
X11047857Y-14744714D01*
X11038333Y-14754238D01*
X11028810Y-14773286D01*
X11028810Y-14811381D01*
X11038333Y-14830428D01*
X11047857Y-14839952D01*
X11066905Y-14849476D01*
X11105000Y-14849476D01*
X11124048Y-14839952D01*
X11133571Y-14830428D01*
X11143095Y-14811381D01*
X11143095Y-14773286D01*
X11133571Y-14754238D01*
X11124048Y-14744714D01*
X11105000Y-14735190D01*
X11266905Y-14649476D02*
X11285952Y-14649476D01*
X11305000Y-14659000D01*
X11314524Y-14668524D01*
X11324048Y-14687571D01*
X11333571Y-14725667D01*
X11333571Y-14773286D01*
X11324048Y-14811381D01*
X11314524Y-14830428D01*
X11305000Y-14839952D01*
X11285952Y-14849476D01*
X11266905Y-14849476D01*
X11247857Y-14839952D01*
X11238333Y-14830428D01*
X11228809Y-14811381D01*
X11219286Y-14773286D01*
X11219286Y-14725667D01*
X11228809Y-14687571D01*
X11238333Y-14668524D01*
X11247857Y-14659000D01*
X11266905Y-14649476D01*
X11457381Y-14649476D02*
X11476428Y-14649476D01*
X11495476Y-14659000D01*
X11505000Y-14668524D01*
X11514524Y-14687571D01*
X11524048Y-14725667D01*
X11524048Y-14773286D01*
X11514524Y-14811381D01*
X11505000Y-14830428D01*
X11495476Y-14839952D01*
X11476428Y-14849476D01*
X11457381Y-14849476D01*
X11438333Y-14839952D01*
X11428809Y-14830428D01*
X11419286Y-14811381D01*
X11409762Y-14773286D01*
X11409762Y-14725667D01*
X11419286Y-14687571D01*
X11428809Y-14668524D01*
X11438333Y-14659000D01*
X11457381Y-14649476D01*
X11609762Y-14849476D02*
X11609762Y-14716143D01*
X11609762Y-14735190D02*
X11619286Y-14725667D01*
X11638333Y-14716143D01*
X11666905Y-14716143D01*
X11685952Y-14725667D01*
X11695476Y-14744714D01*
X11695476Y-14849476D01*
X11695476Y-14744714D02*
X11705000Y-14725667D01*
X11724048Y-14716143D01*
X11752619Y-14716143D01*
X11771667Y-14725667D01*
X11781190Y-14744714D01*
X11781190Y-14849476D01*
X11876428Y-14849476D02*
X11876428Y-14716143D01*
X11876428Y-14735190D02*
X11885952Y-14725667D01*
X11905000Y-14716143D01*
X11933571Y-14716143D01*
X11952619Y-14725667D01*
X11962143Y-14744714D01*
X11962143Y-14849476D01*
X11962143Y-14744714D02*
X11971667Y-14725667D01*
X11990714Y-14716143D01*
X12019286Y-14716143D01*
X12038333Y-14725667D01*
X12047857Y-14744714D01*
X12047857Y-14849476D01*
X12438333Y-14639952D02*
X12266905Y-14897095D01*
X12695476Y-14649476D02*
X12714524Y-14649476D01*
X12733571Y-14659000D01*
X12743095Y-14668524D01*
X12752619Y-14687571D01*
X12762143Y-14725667D01*
X12762143Y-14773286D01*
X12752619Y-14811381D01*
X12743095Y-14830428D01*
X12733571Y-14839952D01*
X12714524Y-14849476D01*
X12695476Y-14849476D01*
X12676428Y-14839952D01*
X12666905Y-14830428D01*
X12657381Y-14811381D01*
X12647857Y-14773286D01*
X12647857Y-14725667D01*
X12657381Y-14687571D01*
X12666905Y-14668524D01*
X12676428Y-14659000D01*
X12695476Y-14649476D01*
X12847857Y-14830428D02*
X12857381Y-14839952D01*
X12847857Y-14849476D01*
X12838333Y-14839952D01*
X12847857Y-14830428D01*
X12847857Y-14849476D01*
X12981190Y-14649476D02*
X13000238Y-14649476D01*
X13019286Y-14659000D01*
X13028809Y-14668524D01*
X13038333Y-14687571D01*
X13047857Y-14725667D01*
X13047857Y-14773286D01*
X13038333Y-14811381D01*
X13028809Y-14830428D01*
X13019286Y-14839952D01*
X13000238Y-14849476D01*
X12981190Y-14849476D01*
X12962143Y-14839952D01*
X12952619Y-14830428D01*
X12943095Y-14811381D01*
X12933571Y-14773286D01*
X12933571Y-14725667D01*
X12943095Y-14687571D01*
X12952619Y-14668524D01*
X12962143Y-14659000D01*
X12981190Y-14649476D01*
X13114524Y-14649476D02*
X13238333Y-14649476D01*
X13171667Y-14725667D01*
X13200238Y-14725667D01*
X13219286Y-14735190D01*
X13228809Y-14744714D01*
X13238333Y-14763762D01*
X13238333Y-14811381D01*
X13228809Y-14830428D01*
X13219286Y-14839952D01*
X13200238Y-14849476D01*
X13143095Y-14849476D01*
X13124048Y-14839952D01*
X13114524Y-14830428D01*
X13428809Y-14849476D02*
X13314524Y-14849476D01*
X13371667Y-14849476D02*
X13371667Y-14649476D01*
X13352619Y-14678048D01*
X13333571Y-14697095D01*
X13314524Y-14706619D01*
X13609762Y-14649476D02*
X13514524Y-14649476D01*
X13505000Y-14744714D01*
X13514524Y-14735190D01*
X13533571Y-14725667D01*
X13581190Y-14725667D01*
X13600238Y-14735190D01*
X13609762Y-14744714D01*
X13619286Y-14763762D01*
X13619286Y-14811381D01*
X13609762Y-14830428D01*
X13600238Y-14839952D01*
X13581190Y-14849476D01*
X13533571Y-14849476D01*
X13514524Y-14839952D01*
X13505000Y-14830428D01*
X13695476Y-14649476D02*
X13695476Y-14687571D01*
X13771667Y-14649476D02*
X13771667Y-14687571D01*
X14066905Y-14925667D02*
X14057381Y-14916143D01*
X14038333Y-14887571D01*
X14028809Y-14868524D01*
X14019286Y-14839952D01*
X14009762Y-14792333D01*
X14009762Y-14754238D01*
X14019286Y-14706619D01*
X14028809Y-14678048D01*
X14038333Y-14659000D01*
X14057381Y-14630428D01*
X14066905Y-14620905D01*
X14247857Y-14849476D02*
X14133571Y-14849476D01*
X14190714Y-14849476D02*
X14190714Y-14649476D01*
X14171667Y-14678048D01*
X14152619Y-14697095D01*
X14133571Y-14706619D01*
X14419286Y-14649476D02*
X14381190Y-14649476D01*
X14362143Y-14659000D01*
X14352619Y-14668524D01*
X14333571Y-14697095D01*
X14324048Y-14735190D01*
X14324048Y-14811381D01*
X14333571Y-14830428D01*
X14343095Y-14839952D01*
X14362143Y-14849476D01*
X14400238Y-14849476D01*
X14419286Y-14839952D01*
X14428809Y-14830428D01*
X14438333Y-14811381D01*
X14438333Y-14763762D01*
X14428809Y-14744714D01*
X14419286Y-14735190D01*
X14400238Y-14725667D01*
X14362143Y-14725667D01*
X14343095Y-14735190D01*
X14333571Y-14744714D01*
X14324048Y-14763762D01*
X14676428Y-14849476D02*
X14676428Y-14649476D01*
X14762143Y-14849476D02*
X14762143Y-14744714D01*
X14752619Y-14725667D01*
X14733571Y-14716143D01*
X14705000Y-14716143D01*
X14685952Y-14725667D01*
X14676428Y-14735190D01*
X14885952Y-14849476D02*
X14866905Y-14839952D01*
X14857381Y-14830428D01*
X14847857Y-14811381D01*
X14847857Y-14754238D01*
X14857381Y-14735190D01*
X14866905Y-14725667D01*
X14885952Y-14716143D01*
X14914524Y-14716143D01*
X14933571Y-14725667D01*
X14943095Y-14735190D01*
X14952619Y-14754238D01*
X14952619Y-14811381D01*
X14943095Y-14830428D01*
X14933571Y-14839952D01*
X14914524Y-14849476D01*
X14885952Y-14849476D01*
X15066905Y-14849476D02*
X15047857Y-14839952D01*
X15038333Y-14820905D01*
X15038333Y-14649476D01*
X15219286Y-14839952D02*
X15200238Y-14849476D01*
X15162143Y-14849476D01*
X15143095Y-14839952D01*
X15133571Y-14820905D01*
X15133571Y-14744714D01*
X15143095Y-14725667D01*
X15162143Y-14716143D01*
X15200238Y-14716143D01*
X15219286Y-14725667D01*
X15228809Y-14744714D01*
X15228809Y-14763762D01*
X15133571Y-14782809D01*
X15305000Y-14839952D02*
X15324048Y-14849476D01*
X15362143Y-14849476D01*
X15381190Y-14839952D01*
X15390714Y-14820905D01*
X15390714Y-14811381D01*
X15381190Y-14792333D01*
X15362143Y-14782809D01*
X15333571Y-14782809D01*
X15314524Y-14773286D01*
X15305000Y-14754238D01*
X15305000Y-14744714D01*
X15314524Y-14725667D01*
X15333571Y-14716143D01*
X15362143Y-14716143D01*
X15381190Y-14725667D01*
X15457381Y-14925667D02*
X15466905Y-14916143D01*
X15485952Y-14887571D01*
X15495476Y-14868524D01*
X15505000Y-14839952D01*
X15514524Y-14792333D01*
X15514524Y-14754238D01*
X15505000Y-14706619D01*
X15495476Y-14678048D01*
X15485952Y-14659000D01*
X15466905Y-14630428D01*
X15457381Y-14620905D01*
D10*
X10445000Y-14973000D02*
X10445000Y-15073000D01*
X10395000Y-15023000D02*
X10495000Y-15023000D01*
D11*
X10857381Y-15113476D02*
X10743095Y-15113476D01*
X10800238Y-15113476D02*
X10800238Y-14913476D01*
X10781190Y-14942048D01*
X10762143Y-14961095D01*
X10743095Y-14970619D01*
X10943095Y-15094428D02*
X10952619Y-15103952D01*
X10943095Y-15113476D01*
X10933571Y-15103952D01*
X10943095Y-15094428D01*
X10943095Y-15113476D01*
X11076429Y-14913476D02*
X11095476Y-14913476D01*
X11114524Y-14923000D01*
X11124048Y-14932524D01*
X11133571Y-14951571D01*
X11143095Y-14989667D01*
X11143095Y-15037286D01*
X11133571Y-15075381D01*
X11124048Y-15094428D01*
X11114524Y-15103952D01*
X11095476Y-15113476D01*
X11076429Y-15113476D01*
X11057381Y-15103952D01*
X11047857Y-15094428D01*
X11038333Y-15075381D01*
X11028810Y-15037286D01*
X11028810Y-14989667D01*
X11038333Y-14951571D01*
X11047857Y-14932524D01*
X11057381Y-14923000D01*
X11076429Y-14913476D01*
X11266905Y-14913476D02*
X11285952Y-14913476D01*
X11305000Y-14923000D01*
X11314524Y-14932524D01*
X11324048Y-14951571D01*
X11333571Y-14989667D01*
X11333571Y-15037286D01*
X11324048Y-15075381D01*
X11314524Y-15094428D01*
X11305000Y-15103952D01*
X11285952Y-15113476D01*
X11266905Y-15113476D01*
X11247857Y-15103952D01*
X11238333Y-15094428D01*
X11228809Y-15075381D01*
X11219286Y-15037286D01*
X11219286Y-14989667D01*
X11228809Y-14951571D01*
X11238333Y-14932524D01*
X11247857Y-14923000D01*
X11266905Y-14913476D01*
X11457381Y-14913476D02*
X11476428Y-14913476D01*
X11495476Y-14923000D01*
X11505000Y-14932524D01*
X11514524Y-14951571D01*
X11524048Y-14989667D01*
X11524048Y-15037286D01*
X11514524Y-15075381D01*
X11505000Y-15094428D01*
X11495476Y-15103952D01*
X11476428Y-15113476D01*
X11457381Y-15113476D01*
X11438333Y-15103952D01*
X11428809Y-15094428D01*
X11419286Y-15075381D01*
X11409762Y-15037286D01*
X11409762Y-14989667D01*
X11419286Y-14951571D01*
X11428809Y-14932524D01*
X11438333Y-14923000D01*
X11457381Y-14913476D01*
X11609762Y-15113476D02*
X11609762Y-14980143D01*
X11609762Y-14999190D02*
X11619286Y-14989667D01*
X11638333Y-14980143D01*
X11666905Y-14980143D01*
X11685952Y-14989667D01*
X11695476Y-15008714D01*
X11695476Y-15113476D01*
X11695476Y-15008714D02*
X11705000Y-14989667D01*
X11724048Y-14980143D01*
X11752619Y-14980143D01*
X11771667Y-14989667D01*
X11781190Y-15008714D01*
X11781190Y-15113476D01*
X11876428Y-15113476D02*
X11876428Y-14980143D01*
X11876428Y-14999190D02*
X11885952Y-14989667D01*
X11905000Y-14980143D01*
X11933571Y-14980143D01*
X11952619Y-14989667D01*
X11962143Y-15008714D01*
X11962143Y-15113476D01*
X11962143Y-15008714D02*
X11971667Y-14989667D01*
X11990714Y-14980143D01*
X12019286Y-14980143D01*
X12038333Y-14989667D01*
X12047857Y-15008714D01*
X12047857Y-15113476D01*
X12438333Y-14903952D02*
X12266905Y-15161095D01*
X12695476Y-14913476D02*
X12714524Y-14913476D01*
X12733571Y-14923000D01*
X12743095Y-14932524D01*
X12752619Y-14951571D01*
X12762143Y-14989667D01*
X12762143Y-15037286D01*
X12752619Y-15075381D01*
X12743095Y-15094428D01*
X12733571Y-15103952D01*
X12714524Y-15113476D01*
X12695476Y-15113476D01*
X12676428Y-15103952D01*
X12666905Y-15094428D01*
X12657381Y-15075381D01*
X12647857Y-15037286D01*
X12647857Y-14989667D01*
X12657381Y-14951571D01*
X12666905Y-14932524D01*
X12676428Y-14923000D01*
X12695476Y-14913476D01*
X12847857Y-15094428D02*
X12857381Y-15103952D01*
X12847857Y-15113476D01*
X12838333Y-15103952D01*
X12847857Y-15094428D01*
X12847857Y-15113476D01*
X12981190Y-14913476D02*
X13000238Y-14913476D01*
X13019286Y-14923000D01*
X13028809Y-14932524D01*
X13038333Y-14951571D01*
X13047857Y-14989667D01*
X13047857Y-15037286D01*
X13038333Y-15075381D01*
X13028809Y-15094428D01*
X13019286Y-15103952D01*
X13000238Y-15113476D01*
X12981190Y-15113476D01*
X12962143Y-15103952D01*
X12952619Y-15094428D01*
X12943095Y-15075381D01*
X12933571Y-15037286D01*
X12933571Y-14989667D01*
X12943095Y-14951571D01*
X12952619Y-14932524D01*
X12962143Y-14923000D01*
X12981190Y-14913476D01*
X13114524Y-14913476D02*
X13238333Y-14913476D01*
X13171667Y-14989667D01*
X13200238Y-14989667D01*
X13219286Y-14999190D01*
X13228809Y-15008714D01*
X13238333Y-15027762D01*
X13238333Y-15075381D01*
X13228809Y-15094428D01*
X13219286Y-15103952D01*
X13200238Y-15113476D01*
X13143095Y-15113476D01*
X13124048Y-15103952D01*
X13114524Y-15094428D01*
X13333571Y-15113476D02*
X13371667Y-15113476D01*
X13390714Y-15103952D01*
X13400238Y-15094428D01*
X13419286Y-15065857D01*
X13428809Y-15027762D01*
X13428809Y-14951571D01*
X13419286Y-14932524D01*
X13409762Y-14923000D01*
X13390714Y-14913476D01*
X13352619Y-14913476D01*
X13333571Y-14923000D01*
X13324048Y-14932524D01*
X13314524Y-14951571D01*
X13314524Y-14999190D01*
X13324048Y-15018238D01*
X13333571Y-15027762D01*
X13352619Y-15037286D01*
X13390714Y-15037286D01*
X13409762Y-15027762D01*
X13419286Y-15018238D01*
X13428809Y-14999190D01*
X13600238Y-14980143D02*
X13600238Y-15113476D01*
X13552619Y-14903952D02*
X13505000Y-15046809D01*
X13628809Y-15046809D01*
X13695476Y-14913476D02*
X13695476Y-14951571D01*
X13771667Y-14913476D02*
X13771667Y-14951571D01*
X14066905Y-15189667D02*
X14057381Y-15180143D01*
X14038333Y-15151571D01*
X14028809Y-15132524D01*
X14019286Y-15103952D01*
X14009762Y-15056333D01*
X14009762Y-15018238D01*
X14019286Y-14970619D01*
X14028809Y-14942048D01*
X14038333Y-14923000D01*
X14057381Y-14894428D01*
X14066905Y-14884905D01*
X14238333Y-14913476D02*
X14143095Y-14913476D01*
X14133571Y-15008714D01*
X14143095Y-14999190D01*
X14162143Y-14989667D01*
X14209762Y-14989667D01*
X14228809Y-14999190D01*
X14238333Y-15008714D01*
X14247857Y-15027762D01*
X14247857Y-15075381D01*
X14238333Y-15094428D01*
X14228809Y-15103952D01*
X14209762Y-15113476D01*
X14162143Y-15113476D01*
X14143095Y-15103952D01*
X14133571Y-15094428D01*
X14485952Y-15113476D02*
X14485952Y-14913476D01*
X14571667Y-15113476D02*
X14571667Y-15008714D01*
X14562143Y-14989667D01*
X14543095Y-14980143D01*
X14514524Y-14980143D01*
X14495476Y-14989667D01*
X14485952Y-14999190D01*
X14695476Y-15113476D02*
X14676428Y-15103952D01*
X14666905Y-15094428D01*
X14657381Y-15075381D01*
X14657381Y-15018238D01*
X14666905Y-14999190D01*
X14676428Y-14989667D01*
X14695476Y-14980143D01*
X14724048Y-14980143D01*
X14743095Y-14989667D01*
X14752619Y-14999190D01*
X14762143Y-15018238D01*
X14762143Y-15075381D01*
X14752619Y-15094428D01*
X14743095Y-15103952D01*
X14724048Y-15113476D01*
X14695476Y-15113476D01*
X14876428Y-15113476D02*
X14857381Y-15103952D01*
X14847857Y-15084905D01*
X14847857Y-14913476D01*
X15028809Y-15103952D02*
X15009762Y-15113476D01*
X14971667Y-15113476D01*
X14952619Y-15103952D01*
X14943095Y-15084905D01*
X14943095Y-15008714D01*
X14952619Y-14989667D01*
X14971667Y-14980143D01*
X15009762Y-14980143D01*
X15028809Y-14989667D01*
X15038333Y-15008714D01*
X15038333Y-15027762D01*
X14943095Y-15046809D01*
X15114524Y-15103952D02*
X15133571Y-15113476D01*
X15171667Y-15113476D01*
X15190714Y-15103952D01*
X15200238Y-15084905D01*
X15200238Y-15075381D01*
X15190714Y-15056333D01*
X15171667Y-15046809D01*
X15143095Y-15046809D01*
X15124048Y-15037286D01*
X15114524Y-15018238D01*
X15114524Y-15008714D01*
X15124048Y-14989667D01*
X15143095Y-14980143D01*
X15171667Y-14980143D01*
X15190714Y-14989667D01*
X15266905Y-15189667D02*
X15276428Y-15180143D01*
X15295476Y-15151571D01*
X15305000Y-15132524D01*
X15314524Y-15103952D01*
X15324048Y-15056333D01*
X15324048Y-15018238D01*
X15314524Y-14970619D01*
X15305000Y-14942048D01*
X15295476Y-14923000D01*
X15276428Y-14894428D01*
X15266905Y-14884905D01*
D14*
X10480063Y-15323063D02*
X10480063Y-15250937D01*
X10407937Y-15250937D01*
X10407937Y-15323063D01*
X10480063Y-15323063D01*
D11*
X10857381Y-15377476D02*
X10743095Y-15377476D01*
X10800238Y-15377476D02*
X10800238Y-15177476D01*
X10781190Y-15206048D01*
X10762143Y-15225095D01*
X10743095Y-15234619D01*
X10943095Y-15358428D02*
X10952619Y-15367952D01*
X10943095Y-15377476D01*
X10933571Y-15367952D01*
X10943095Y-15358428D01*
X10943095Y-15377476D01*
X11076429Y-15177476D02*
X11095476Y-15177476D01*
X11114524Y-15187000D01*
X11124048Y-15196524D01*
X11133571Y-15215571D01*
X11143095Y-15253667D01*
X11143095Y-15301286D01*
X11133571Y-15339381D01*
X11124048Y-15358428D01*
X11114524Y-15367952D01*
X11095476Y-15377476D01*
X11076429Y-15377476D01*
X11057381Y-15367952D01*
X11047857Y-15358428D01*
X11038333Y-15339381D01*
X11028810Y-15301286D01*
X11028810Y-15253667D01*
X11038333Y-15215571D01*
X11047857Y-15196524D01*
X11057381Y-15187000D01*
X11076429Y-15177476D01*
X11219286Y-15196524D02*
X11228809Y-15187000D01*
X11247857Y-15177476D01*
X11295476Y-15177476D01*
X11314524Y-15187000D01*
X11324048Y-15196524D01*
X11333571Y-15215571D01*
X11333571Y-15234619D01*
X11324048Y-15263190D01*
X11209762Y-15377476D01*
X11333571Y-15377476D01*
X11457381Y-15177476D02*
X11476428Y-15177476D01*
X11495476Y-15187000D01*
X11505000Y-15196524D01*
X11514524Y-15215571D01*
X11524048Y-15253667D01*
X11524048Y-15301286D01*
X11514524Y-15339381D01*
X11505000Y-15358428D01*
X11495476Y-15367952D01*
X11476428Y-15377476D01*
X11457381Y-15377476D01*
X11438333Y-15367952D01*
X11428809Y-15358428D01*
X11419286Y-15339381D01*
X11409762Y-15301286D01*
X11409762Y-15253667D01*
X11419286Y-15215571D01*
X11428809Y-15196524D01*
X11438333Y-15187000D01*
X11457381Y-15177476D01*
X11609762Y-15377476D02*
X11609762Y-15244143D01*
X11609762Y-15263190D02*
X11619286Y-15253667D01*
X11638333Y-15244143D01*
X11666905Y-15244143D01*
X11685952Y-15253667D01*
X11695476Y-15272714D01*
X11695476Y-15377476D01*
X11695476Y-15272714D02*
X11705000Y-15253667D01*
X11724048Y-15244143D01*
X11752619Y-15244143D01*
X11771667Y-15253667D01*
X11781190Y-15272714D01*
X11781190Y-15377476D01*
X11876428Y-15377476D02*
X11876428Y-15244143D01*
X11876428Y-15263190D02*
X11885952Y-15253667D01*
X11905000Y-15244143D01*
X11933571Y-15244143D01*
X11952619Y-15253667D01*
X11962143Y-15272714D01*
X11962143Y-15377476D01*
X11962143Y-15272714D02*
X11971667Y-15253667D01*
X11990714Y-15244143D01*
X12019286Y-15244143D01*
X12038333Y-15253667D01*
X12047857Y-15272714D01*
X12047857Y-15377476D01*
X12438333Y-15167952D02*
X12266905Y-15425095D01*
X12695476Y-15177476D02*
X12714524Y-15177476D01*
X12733571Y-15187000D01*
X12743095Y-15196524D01*
X12752619Y-15215571D01*
X12762143Y-15253667D01*
X12762143Y-15301286D01*
X12752619Y-15339381D01*
X12743095Y-15358428D01*
X12733571Y-15367952D01*
X12714524Y-15377476D01*
X12695476Y-15377476D01*
X12676428Y-15367952D01*
X12666905Y-15358428D01*
X12657381Y-15339381D01*
X12647857Y-15301286D01*
X12647857Y-15253667D01*
X12657381Y-15215571D01*
X12666905Y-15196524D01*
X12676428Y-15187000D01*
X12695476Y-15177476D01*
X12847857Y-15358428D02*
X12857381Y-15367952D01*
X12847857Y-15377476D01*
X12838333Y-15367952D01*
X12847857Y-15358428D01*
X12847857Y-15377476D01*
X12981190Y-15177476D02*
X13000238Y-15177476D01*
X13019286Y-15187000D01*
X13028809Y-15196524D01*
X13038333Y-15215571D01*
X13047857Y-15253667D01*
X13047857Y-15301286D01*
X13038333Y-15339381D01*
X13028809Y-15358428D01*
X13019286Y-15367952D01*
X13000238Y-15377476D01*
X12981190Y-15377476D01*
X12962143Y-15367952D01*
X12952619Y-15358428D01*
X12943095Y-15339381D01*
X12933571Y-15301286D01*
X12933571Y-15253667D01*
X12943095Y-15215571D01*
X12952619Y-15196524D01*
X12962143Y-15187000D01*
X12981190Y-15177476D01*
X13219286Y-15244143D02*
X13219286Y-15377476D01*
X13171667Y-15167952D02*
X13124048Y-15310809D01*
X13247857Y-15310809D01*
X13362143Y-15177476D02*
X13381190Y-15177476D01*
X13400238Y-15187000D01*
X13409762Y-15196524D01*
X13419286Y-15215571D01*
X13428809Y-15253667D01*
X13428809Y-15301286D01*
X13419286Y-15339381D01*
X13409762Y-15358428D01*
X13400238Y-15367952D01*
X13381190Y-15377476D01*
X13362143Y-15377476D01*
X13343095Y-15367952D01*
X13333571Y-15358428D01*
X13324048Y-15339381D01*
X13314524Y-15301286D01*
X13314524Y-15253667D01*
X13324048Y-15215571D01*
X13333571Y-15196524D01*
X13343095Y-15187000D01*
X13362143Y-15177476D01*
X13505000Y-15196524D02*
X13514524Y-15187000D01*
X13533571Y-15177476D01*
X13581190Y-15177476D01*
X13600238Y-15187000D01*
X13609762Y-15196524D01*
X13619286Y-15215571D01*
X13619286Y-15234619D01*
X13609762Y-15263190D01*
X13495476Y-15377476D01*
X13619286Y-15377476D01*
X13695476Y-15177476D02*
X13695476Y-15215571D01*
X13771667Y-15177476D02*
X13771667Y-15215571D01*
X14066905Y-15453667D02*
X14057381Y-15444143D01*
X14038333Y-15415571D01*
X14028809Y-15396524D01*
X14019286Y-15367952D01*
X14009762Y-15320333D01*
X14009762Y-15282238D01*
X14019286Y-15234619D01*
X14028809Y-15206048D01*
X14038333Y-15187000D01*
X14057381Y-15158428D01*
X14066905Y-15148905D01*
X14228809Y-15244143D02*
X14228809Y-15377476D01*
X14181190Y-15167952D02*
X14133571Y-15310809D01*
X14257381Y-15310809D01*
X14314524Y-15177476D02*
X14438333Y-15177476D01*
X14371667Y-15253667D01*
X14400238Y-15253667D01*
X14419286Y-15263190D01*
X14428809Y-15272714D01*
X14438333Y-15291762D01*
X14438333Y-15339381D01*
X14428809Y-15358428D01*
X14419286Y-15367952D01*
X14400238Y-15377476D01*
X14343095Y-15377476D01*
X14324048Y-15367952D01*
X14314524Y-15358428D01*
X14676428Y-15377476D02*
X14676428Y-15177476D01*
X14762143Y-15377476D02*
X14762143Y-15272714D01*
X14752619Y-15253667D01*
X14733571Y-15244143D01*
X14705000Y-15244143D01*
X14685952Y-15253667D01*
X14676428Y-15263190D01*
X14885952Y-15377476D02*
X14866905Y-15367952D01*
X14857381Y-15358428D01*
X14847857Y-15339381D01*
X14847857Y-15282238D01*
X14857381Y-15263190D01*
X14866905Y-15253667D01*
X14885952Y-15244143D01*
X14914524Y-15244143D01*
X14933571Y-15253667D01*
X14943095Y-15263190D01*
X14952619Y-15282238D01*
X14952619Y-15339381D01*
X14943095Y-15358428D01*
X14933571Y-15367952D01*
X14914524Y-15377476D01*
X14885952Y-15377476D01*
X15066905Y-15377476D02*
X15047857Y-15367952D01*
X15038333Y-15348905D01*
X15038333Y-15177476D01*
X15219286Y-15367952D02*
X15200238Y-15377476D01*
X15162143Y-15377476D01*
X15143095Y-15367952D01*
X15133571Y-15348905D01*
X15133571Y-15272714D01*
X15143095Y-15253667D01*
X15162143Y-15244143D01*
X15200238Y-15244143D01*
X15219286Y-15253667D01*
X15228809Y-15272714D01*
X15228809Y-15291762D01*
X15133571Y-15310809D01*
X15305000Y-15367952D02*
X15324048Y-15377476D01*
X15362143Y-15377476D01*
X15381190Y-15367952D01*
X15390714Y-15348905D01*
X15390714Y-15339381D01*
X15381190Y-15320333D01*
X15362143Y-15310809D01*
X15333571Y-15310809D01*
X15314524Y-15301286D01*
X15305000Y-15282238D01*
X15305000Y-15272714D01*
X15314524Y-15253667D01*
X15333571Y-15244143D01*
X15362143Y-15244143D01*
X15381190Y-15253667D01*
X15457381Y-15453667D02*
X15466905Y-15444143D01*
X15485952Y-15415571D01*
X15495476Y-15396524D01*
X15505000Y-15367952D01*
X15514524Y-15320333D01*
X15514524Y-15282238D01*
X15505000Y-15234619D01*
X15495476Y-15206048D01*
X15485952Y-15187000D01*
X15466905Y-15158428D01*
X15457381Y-15148905D01*
D15*
X10440000Y-15606000D02*
X10495000Y-15551000D01*
X10440000Y-15496000D01*
X10385000Y-15551000D01*
X10440000Y-15606000D01*
D11*
X10857381Y-15641476D02*
X10743095Y-15641476D01*
X10800238Y-15641476D02*
X10800238Y-15441476D01*
X10781190Y-15470048D01*
X10762143Y-15489095D01*
X10743095Y-15498619D01*
X10943095Y-15622428D02*
X10952619Y-15631952D01*
X10943095Y-15641476D01*
X10933571Y-15631952D01*
X10943095Y-15622428D01*
X10943095Y-15641476D01*
X11143095Y-15641476D02*
X11028810Y-15641476D01*
X11085952Y-15641476D02*
X11085952Y-15441476D01*
X11066905Y-15470048D01*
X11047857Y-15489095D01*
X11028810Y-15498619D01*
X11266905Y-15441476D02*
X11285952Y-15441476D01*
X11305000Y-15451000D01*
X11314524Y-15460524D01*
X11324048Y-15479571D01*
X11333571Y-15517667D01*
X11333571Y-15565286D01*
X11324048Y-15603381D01*
X11314524Y-15622428D01*
X11305000Y-15631952D01*
X11285952Y-15641476D01*
X11266905Y-15641476D01*
X11247857Y-15631952D01*
X11238333Y-15622428D01*
X11228809Y-15603381D01*
X11219286Y-15565286D01*
X11219286Y-15517667D01*
X11228809Y-15479571D01*
X11238333Y-15460524D01*
X11247857Y-15451000D01*
X11266905Y-15441476D01*
X11457381Y-15441476D02*
X11476428Y-15441476D01*
X11495476Y-15451000D01*
X11505000Y-15460524D01*
X11514524Y-15479571D01*
X11524048Y-15517667D01*
X11524048Y-15565286D01*
X11514524Y-15603381D01*
X11505000Y-15622428D01*
X11495476Y-15631952D01*
X11476428Y-15641476D01*
X11457381Y-15641476D01*
X11438333Y-15631952D01*
X11428809Y-15622428D01*
X11419286Y-15603381D01*
X11409762Y-15565286D01*
X11409762Y-15517667D01*
X11419286Y-15479571D01*
X11428809Y-15460524D01*
X11438333Y-15451000D01*
X11457381Y-15441476D01*
X11609762Y-15641476D02*
X11609762Y-15508143D01*
X11609762Y-15527190D02*
X11619286Y-15517667D01*
X11638333Y-15508143D01*
X11666905Y-15508143D01*
X11685952Y-15517667D01*
X11695476Y-15536714D01*
X11695476Y-15641476D01*
X11695476Y-15536714D02*
X11705000Y-15517667D01*
X11724048Y-15508143D01*
X11752619Y-15508143D01*
X11771667Y-15517667D01*
X11781190Y-15536714D01*
X11781190Y-15641476D01*
X11876428Y-15641476D02*
X11876428Y-15508143D01*
X11876428Y-15527190D02*
X11885952Y-15517667D01*
X11905000Y-15508143D01*
X11933571Y-15508143D01*
X11952619Y-15517667D01*
X11962143Y-15536714D01*
X11962143Y-15641476D01*
X11962143Y-15536714D02*
X11971667Y-15517667D01*
X11990714Y-15508143D01*
X12019286Y-15508143D01*
X12038333Y-15517667D01*
X12047857Y-15536714D01*
X12047857Y-15641476D01*
X12438333Y-15431952D02*
X12266905Y-15689095D01*
X12695476Y-15441476D02*
X12714524Y-15441476D01*
X12733571Y-15451000D01*
X12743095Y-15460524D01*
X12752619Y-15479571D01*
X12762143Y-15517667D01*
X12762143Y-15565286D01*
X12752619Y-15603381D01*
X12743095Y-15622428D01*
X12733571Y-15631952D01*
X12714524Y-15641476D01*
X12695476Y-15641476D01*
X12676428Y-15631952D01*
X12666905Y-15622428D01*
X12657381Y-15603381D01*
X12647857Y-15565286D01*
X12647857Y-15517667D01*
X12657381Y-15479571D01*
X12666905Y-15460524D01*
X12676428Y-15451000D01*
X12695476Y-15441476D01*
X12847857Y-15622428D02*
X12857381Y-15631952D01*
X12847857Y-15641476D01*
X12838333Y-15631952D01*
X12847857Y-15622428D01*
X12847857Y-15641476D01*
X12981190Y-15441476D02*
X13000238Y-15441476D01*
X13019286Y-15451000D01*
X13028809Y-15460524D01*
X13038333Y-15479571D01*
X13047857Y-15517667D01*
X13047857Y-15565286D01*
X13038333Y-15603381D01*
X13028809Y-15622428D01*
X13019286Y-15631952D01*
X13000238Y-15641476D01*
X12981190Y-15641476D01*
X12962143Y-15631952D01*
X12952619Y-15622428D01*
X12943095Y-15603381D01*
X12933571Y-15565286D01*
X12933571Y-15517667D01*
X12943095Y-15479571D01*
X12952619Y-15460524D01*
X12962143Y-15451000D01*
X12981190Y-15441476D01*
X13219286Y-15508143D02*
X13219286Y-15641476D01*
X13171667Y-15431952D02*
X13124048Y-15574809D01*
X13247857Y-15574809D01*
X13305000Y-15441476D02*
X13428809Y-15441476D01*
X13362143Y-15517667D01*
X13390714Y-15517667D01*
X13409762Y-15527190D01*
X13419286Y-15536714D01*
X13428809Y-15555762D01*
X13428809Y-15603381D01*
X13419286Y-15622428D01*
X13409762Y-15631952D01*
X13390714Y-15641476D01*
X13333571Y-15641476D01*
X13314524Y-15631952D01*
X13305000Y-15622428D01*
X13495476Y-15441476D02*
X13619286Y-15441476D01*
X13552619Y-15517667D01*
X13581190Y-15517667D01*
X13600238Y-15527190D01*
X13609762Y-15536714D01*
X13619286Y-15555762D01*
X13619286Y-15603381D01*
X13609762Y-15622428D01*
X13600238Y-15631952D01*
X13581190Y-15641476D01*
X13524048Y-15641476D01*
X13505000Y-15631952D01*
X13495476Y-15622428D01*
X13695476Y-15441476D02*
X13695476Y-15479571D01*
X13771667Y-15441476D02*
X13771667Y-15479571D01*
X14066905Y-15717667D02*
X14057381Y-15708143D01*
X14038333Y-15679571D01*
X14028809Y-15660524D01*
X14019286Y-15631952D01*
X14009762Y-15584333D01*
X14009762Y-15546238D01*
X14019286Y-15498619D01*
X14028809Y-15470048D01*
X14038333Y-15451000D01*
X14057381Y-15422428D01*
X14066905Y-15412905D01*
X14133571Y-15460524D02*
X14143095Y-15451000D01*
X14162143Y-15441476D01*
X14209762Y-15441476D01*
X14228809Y-15451000D01*
X14238333Y-15460524D01*
X14247857Y-15479571D01*
X14247857Y-15498619D01*
X14238333Y-15527190D01*
X14124048Y-15641476D01*
X14247857Y-15641476D01*
X14485952Y-15641476D02*
X14485952Y-15441476D01*
X14571667Y-15641476D02*
X14571667Y-15536714D01*
X14562143Y-15517667D01*
X14543095Y-15508143D01*
X14514524Y-15508143D01*
X14495476Y-15517667D01*
X14485952Y-15527190D01*
X14695476Y-15641476D02*
X14676428Y-15631952D01*
X14666905Y-15622428D01*
X14657381Y-15603381D01*
X14657381Y-15546238D01*
X14666905Y-15527190D01*
X14676428Y-15517667D01*
X14695476Y-15508143D01*
X14724048Y-15508143D01*
X14743095Y-15517667D01*
X14752619Y-15527190D01*
X14762143Y-15546238D01*
X14762143Y-15603381D01*
X14752619Y-15622428D01*
X14743095Y-15631952D01*
X14724048Y-15641476D01*
X14695476Y-15641476D01*
X14876428Y-15641476D02*
X14857381Y-15631952D01*
X14847857Y-15612905D01*
X14847857Y-15441476D01*
X15028809Y-15631952D02*
X15009762Y-15641476D01*
X14971667Y-15641476D01*
X14952619Y-15631952D01*
X14943095Y-15612905D01*
X14943095Y-15536714D01*
X14952619Y-15517667D01*
X14971667Y-15508143D01*
X15009762Y-15508143D01*
X15028809Y-15517667D01*
X15038333Y-15536714D01*
X15038333Y-15555762D01*
X14943095Y-15574809D01*
X15114524Y-15631952D02*
X15133571Y-15641476D01*
X15171667Y-15641476D01*
X15190714Y-15631952D01*
X15200238Y-15612905D01*
X15200238Y-15603381D01*
X15190714Y-15584333D01*
X15171667Y-15574809D01*
X15143095Y-15574809D01*
X15124048Y-15565286D01*
X15114524Y-15546238D01*
X15114524Y-15536714D01*
X15124048Y-15517667D01*
X15143095Y-15508143D01*
X15171667Y-15508143D01*
X15190714Y-15517667D01*
X15266905Y-15717667D02*
X15276428Y-15708143D01*
X15295476Y-15679571D01*
X15305000Y-15660524D01*
X15314524Y-15631952D01*
X15324048Y-15584333D01*
X15324048Y-15546238D01*
X15314524Y-15498619D01*
X15305000Y-15470048D01*
X15295476Y-15451000D01*
X15276428Y-15422428D01*
X15266905Y-15412905D01*
D16*
X10378000Y-15756500D02*
X10495000Y-15873500D01*
X10495000Y-15756500D02*
X10378000Y-15873500D01*
X10495000Y-15815000D02*
G75*
G03*
X10495000Y-15815000I-58500J0D01*
G01*
D11*
X10857381Y-15905476D02*
X10743095Y-15905476D01*
X10800238Y-15905476D02*
X10800238Y-15705476D01*
X10781190Y-15734048D01*
X10762143Y-15753095D01*
X10743095Y-15762619D01*
X10943095Y-15886428D02*
X10952619Y-15895952D01*
X10943095Y-15905476D01*
X10933571Y-15895952D01*
X10943095Y-15886428D01*
X10943095Y-15905476D01*
X11143095Y-15905476D02*
X11028810Y-15905476D01*
X11085952Y-15905476D02*
X11085952Y-15705476D01*
X11066905Y-15734048D01*
X11047857Y-15753095D01*
X11028810Y-15762619D01*
X11209762Y-15705476D02*
X11343095Y-15705476D01*
X11257381Y-15905476D01*
X11457381Y-15705476D02*
X11476428Y-15705476D01*
X11495476Y-15715000D01*
X11505000Y-15724524D01*
X11514524Y-15743571D01*
X11524048Y-15781667D01*
X11524048Y-15829286D01*
X11514524Y-15867381D01*
X11505000Y-15886428D01*
X11495476Y-15895952D01*
X11476428Y-15905476D01*
X11457381Y-15905476D01*
X11438333Y-15895952D01*
X11428809Y-15886428D01*
X11419286Y-15867381D01*
X11409762Y-15829286D01*
X11409762Y-15781667D01*
X11419286Y-15743571D01*
X11428809Y-15724524D01*
X11438333Y-15715000D01*
X11457381Y-15705476D01*
X11609762Y-15905476D02*
X11609762Y-15772143D01*
X11609762Y-15791190D02*
X11619286Y-15781667D01*
X11638333Y-15772143D01*
X11666905Y-15772143D01*
X11685952Y-15781667D01*
X11695476Y-15800714D01*
X11695476Y-15905476D01*
X11695476Y-15800714D02*
X11705000Y-15781667D01*
X11724048Y-15772143D01*
X11752619Y-15772143D01*
X11771667Y-15781667D01*
X11781190Y-15800714D01*
X11781190Y-15905476D01*
X11876428Y-15905476D02*
X11876428Y-15772143D01*
X11876428Y-15791190D02*
X11885952Y-15781667D01*
X11905000Y-15772143D01*
X11933571Y-15772143D01*
X11952619Y-15781667D01*
X11962143Y-15800714D01*
X11962143Y-15905476D01*
X11962143Y-15800714D02*
X11971667Y-15781667D01*
X11990714Y-15772143D01*
X12019286Y-15772143D01*
X12038333Y-15781667D01*
X12047857Y-15800714D01*
X12047857Y-15905476D01*
X12438333Y-15695952D02*
X12266905Y-15953095D01*
X12695476Y-15705476D02*
X12714524Y-15705476D01*
X12733571Y-15715000D01*
X12743095Y-15724524D01*
X12752619Y-15743571D01*
X12762143Y-15781667D01*
X12762143Y-15829286D01*
X12752619Y-15867381D01*
X12743095Y-15886428D01*
X12733571Y-15895952D01*
X12714524Y-15905476D01*
X12695476Y-15905476D01*
X12676428Y-15895952D01*
X12666905Y-15886428D01*
X12657381Y-15867381D01*
X12647857Y-15829286D01*
X12647857Y-15781667D01*
X12657381Y-15743571D01*
X12666905Y-15724524D01*
X12676428Y-15715000D01*
X12695476Y-15705476D01*
X12847857Y-15886428D02*
X12857381Y-15895952D01*
X12847857Y-15905476D01*
X12838333Y-15895952D01*
X12847857Y-15886428D01*
X12847857Y-15905476D01*
X12981190Y-15705476D02*
X13000238Y-15705476D01*
X13019286Y-15715000D01*
X13028809Y-15724524D01*
X13038333Y-15743571D01*
X13047857Y-15781667D01*
X13047857Y-15829286D01*
X13038333Y-15867381D01*
X13028809Y-15886428D01*
X13019286Y-15895952D01*
X13000238Y-15905476D01*
X12981190Y-15905476D01*
X12962143Y-15895952D01*
X12952619Y-15886428D01*
X12943095Y-15867381D01*
X12933571Y-15829286D01*
X12933571Y-15781667D01*
X12943095Y-15743571D01*
X12952619Y-15724524D01*
X12962143Y-15715000D01*
X12981190Y-15705476D01*
X13219286Y-15772143D02*
X13219286Y-15905476D01*
X13171667Y-15695952D02*
X13124048Y-15838809D01*
X13247857Y-15838809D01*
X13409762Y-15705476D02*
X13371667Y-15705476D01*
X13352619Y-15715000D01*
X13343095Y-15724524D01*
X13324048Y-15753095D01*
X13314524Y-15791190D01*
X13314524Y-15867381D01*
X13324048Y-15886428D01*
X13333571Y-15895952D01*
X13352619Y-15905476D01*
X13390714Y-15905476D01*
X13409762Y-15895952D01*
X13419286Y-15886428D01*
X13428809Y-15867381D01*
X13428809Y-15819762D01*
X13419286Y-15800714D01*
X13409762Y-15791190D01*
X13390714Y-15781667D01*
X13352619Y-15781667D01*
X13333571Y-15791190D01*
X13324048Y-15800714D01*
X13314524Y-15819762D01*
X13619286Y-15905476D02*
X13505000Y-15905476D01*
X13562143Y-15905476D02*
X13562143Y-15705476D01*
X13543095Y-15734048D01*
X13524048Y-15753095D01*
X13505000Y-15762619D01*
X13695476Y-15705476D02*
X13695476Y-15743571D01*
X13771667Y-15705476D02*
X13771667Y-15743571D01*
X14066905Y-15981667D02*
X14057381Y-15972143D01*
X14038333Y-15943571D01*
X14028809Y-15924524D01*
X14019286Y-15895952D01*
X14009762Y-15848333D01*
X14009762Y-15810238D01*
X14019286Y-15762619D01*
X14028809Y-15734048D01*
X14038333Y-15715000D01*
X14057381Y-15686428D01*
X14066905Y-15676905D01*
X14228809Y-15772143D02*
X14228809Y-15905476D01*
X14181190Y-15695952D02*
X14133571Y-15838809D01*
X14257381Y-15838809D01*
X14485952Y-15905476D02*
X14485952Y-15705476D01*
X14571667Y-15905476D02*
X14571667Y-15800714D01*
X14562143Y-15781667D01*
X14543095Y-15772143D01*
X14514524Y-15772143D01*
X14495476Y-15781667D01*
X14485952Y-15791190D01*
X14695476Y-15905476D02*
X14676428Y-15895952D01*
X14666905Y-15886428D01*
X14657381Y-15867381D01*
X14657381Y-15810238D01*
X14666905Y-15791190D01*
X14676428Y-15781667D01*
X14695476Y-15772143D01*
X14724048Y-15772143D01*
X14743095Y-15781667D01*
X14752619Y-15791190D01*
X14762143Y-15810238D01*
X14762143Y-15867381D01*
X14752619Y-15886428D01*
X14743095Y-15895952D01*
X14724048Y-15905476D01*
X14695476Y-15905476D01*
X14876428Y-15905476D02*
X14857381Y-15895952D01*
X14847857Y-15876905D01*
X14847857Y-15705476D01*
X15028809Y-15895952D02*
X15009762Y-15905476D01*
X14971667Y-15905476D01*
X14952619Y-15895952D01*
X14943095Y-15876905D01*
X14943095Y-15800714D01*
X14952619Y-15781667D01*
X14971667Y-15772143D01*
X15009762Y-15772143D01*
X15028809Y-15781667D01*
X15038333Y-15800714D01*
X15038333Y-15819762D01*
X14943095Y-15838809D01*
X15114524Y-15895952D02*
X15133571Y-15905476D01*
X15171667Y-15905476D01*
X15190714Y-15895952D01*
X15200238Y-15876905D01*
X15200238Y-15867381D01*
X15190714Y-15848333D01*
X15171667Y-15838809D01*
X15143095Y-15838809D01*
X15124048Y-15829286D01*
X15114524Y-15810238D01*
X15114524Y-15800714D01*
X15124048Y-15781667D01*
X15143095Y-15772143D01*
X15171667Y-15772143D01*
X15190714Y-15781667D01*
X15266905Y-15981667D02*
X15276428Y-15972143D01*
X15295476Y-15943571D01*
X15305000Y-15924524D01*
X15314524Y-15895952D01*
X15324048Y-15848333D01*
X15324048Y-15810238D01*
X15314524Y-15762619D01*
X15305000Y-15734048D01*
X15295476Y-15715000D01*
X15276428Y-15686428D01*
X15266905Y-15676905D01*
D17*
X10365000Y-16014000D02*
X10495000Y-16144000D01*
X10495000Y-16014000D02*
X10365000Y-16144000D01*
X10430000Y-16014000D02*
X10430000Y-16144000D01*
X10365000Y-16079000D02*
X10495000Y-16079000D01*
D11*
X10857381Y-16169476D02*
X10743095Y-16169476D01*
X10800238Y-16169476D02*
X10800238Y-15969476D01*
X10781190Y-15998048D01*
X10762143Y-16017095D01*
X10743095Y-16026619D01*
X10943095Y-16150428D02*
X10952619Y-16159952D01*
X10943095Y-16169476D01*
X10933571Y-16159952D01*
X10943095Y-16150428D01*
X10943095Y-16169476D01*
X11019286Y-15969476D02*
X11143095Y-15969476D01*
X11076429Y-16045667D01*
X11105000Y-16045667D01*
X11124048Y-16055190D01*
X11133571Y-16064714D01*
X11143095Y-16083762D01*
X11143095Y-16131381D01*
X11133571Y-16150428D01*
X11124048Y-16159952D01*
X11105000Y-16169476D01*
X11047857Y-16169476D01*
X11028810Y-16159952D01*
X11019286Y-16150428D01*
X11266905Y-15969476D02*
X11285952Y-15969476D01*
X11305000Y-15979000D01*
X11314524Y-15988524D01*
X11324048Y-16007571D01*
X11333571Y-16045667D01*
X11333571Y-16093286D01*
X11324048Y-16131381D01*
X11314524Y-16150428D01*
X11305000Y-16159952D01*
X11285952Y-16169476D01*
X11266905Y-16169476D01*
X11247857Y-16159952D01*
X11238333Y-16150428D01*
X11228809Y-16131381D01*
X11219286Y-16093286D01*
X11219286Y-16045667D01*
X11228809Y-16007571D01*
X11238333Y-15988524D01*
X11247857Y-15979000D01*
X11266905Y-15969476D01*
X11457381Y-15969476D02*
X11476428Y-15969476D01*
X11495476Y-15979000D01*
X11505000Y-15988524D01*
X11514524Y-16007571D01*
X11524048Y-16045667D01*
X11524048Y-16093286D01*
X11514524Y-16131381D01*
X11505000Y-16150428D01*
X11495476Y-16159952D01*
X11476428Y-16169476D01*
X11457381Y-16169476D01*
X11438333Y-16159952D01*
X11428809Y-16150428D01*
X11419286Y-16131381D01*
X11409762Y-16093286D01*
X11409762Y-16045667D01*
X11419286Y-16007571D01*
X11428809Y-15988524D01*
X11438333Y-15979000D01*
X11457381Y-15969476D01*
X11609762Y-16169476D02*
X11609762Y-16036143D01*
X11609762Y-16055190D02*
X11619286Y-16045667D01*
X11638333Y-16036143D01*
X11666905Y-16036143D01*
X11685952Y-16045667D01*
X11695476Y-16064714D01*
X11695476Y-16169476D01*
X11695476Y-16064714D02*
X11705000Y-16045667D01*
X11724048Y-16036143D01*
X11752619Y-16036143D01*
X11771667Y-16045667D01*
X11781190Y-16064714D01*
X11781190Y-16169476D01*
X11876428Y-16169476D02*
X11876428Y-16036143D01*
X11876428Y-16055190D02*
X11885952Y-16045667D01*
X11905000Y-16036143D01*
X11933571Y-16036143D01*
X11952619Y-16045667D01*
X11962143Y-16064714D01*
X11962143Y-16169476D01*
X11962143Y-16064714D02*
X11971667Y-16045667D01*
X11990714Y-16036143D01*
X12019286Y-16036143D01*
X12038333Y-16045667D01*
X12047857Y-16064714D01*
X12047857Y-16169476D01*
X12438333Y-15959952D02*
X12266905Y-16217095D01*
X12695476Y-15969476D02*
X12714524Y-15969476D01*
X12733571Y-15979000D01*
X12743095Y-15988524D01*
X12752619Y-16007571D01*
X12762143Y-16045667D01*
X12762143Y-16093286D01*
X12752619Y-16131381D01*
X12743095Y-16150428D01*
X12733571Y-16159952D01*
X12714524Y-16169476D01*
X12695476Y-16169476D01*
X12676428Y-16159952D01*
X12666905Y-16150428D01*
X12657381Y-16131381D01*
X12647857Y-16093286D01*
X12647857Y-16045667D01*
X12657381Y-16007571D01*
X12666905Y-15988524D01*
X12676428Y-15979000D01*
X12695476Y-15969476D01*
X12847857Y-16150428D02*
X12857381Y-16159952D01*
X12847857Y-16169476D01*
X12838333Y-16159952D01*
X12847857Y-16150428D01*
X12847857Y-16169476D01*
X12981190Y-15969476D02*
X13000238Y-15969476D01*
X13019286Y-15979000D01*
X13028809Y-15988524D01*
X13038333Y-16007571D01*
X13047857Y-16045667D01*
X13047857Y-16093286D01*
X13038333Y-16131381D01*
X13028809Y-16150428D01*
X13019286Y-16159952D01*
X13000238Y-16169476D01*
X12981190Y-16169476D01*
X12962143Y-16159952D01*
X12952619Y-16150428D01*
X12943095Y-16131381D01*
X12933571Y-16093286D01*
X12933571Y-16045667D01*
X12943095Y-16007571D01*
X12952619Y-15988524D01*
X12962143Y-15979000D01*
X12981190Y-15969476D01*
X13228809Y-15969476D02*
X13133571Y-15969476D01*
X13124048Y-16064714D01*
X13133571Y-16055190D01*
X13152619Y-16045667D01*
X13200238Y-16045667D01*
X13219286Y-16055190D01*
X13228809Y-16064714D01*
X13238333Y-16083762D01*
X13238333Y-16131381D01*
X13228809Y-16150428D01*
X13219286Y-16159952D01*
X13200238Y-16169476D01*
X13152619Y-16169476D01*
X13133571Y-16159952D01*
X13124048Y-16150428D01*
X13428809Y-16169476D02*
X13314524Y-16169476D01*
X13371667Y-16169476D02*
X13371667Y-15969476D01*
X13352619Y-15998048D01*
X13333571Y-16017095D01*
X13314524Y-16026619D01*
X13505000Y-15988524D02*
X13514524Y-15979000D01*
X13533571Y-15969476D01*
X13581190Y-15969476D01*
X13600238Y-15979000D01*
X13609762Y-15988524D01*
X13619286Y-16007571D01*
X13619286Y-16026619D01*
X13609762Y-16055190D01*
X13495476Y-16169476D01*
X13619286Y-16169476D01*
X13695476Y-15969476D02*
X13695476Y-16007571D01*
X13771667Y-15969476D02*
X13771667Y-16007571D01*
X14066905Y-16245667D02*
X14057381Y-16236143D01*
X14038333Y-16207571D01*
X14028809Y-16188524D01*
X14019286Y-16159952D01*
X14009762Y-16112333D01*
X14009762Y-16074238D01*
X14019286Y-16026619D01*
X14028809Y-15998048D01*
X14038333Y-15979000D01*
X14057381Y-15950428D01*
X14066905Y-15940905D01*
X14152619Y-16169476D02*
X14190714Y-16169476D01*
X14209762Y-16159952D01*
X14219286Y-16150428D01*
X14238333Y-16121857D01*
X14247857Y-16083762D01*
X14247857Y-16007571D01*
X14238333Y-15988524D01*
X14228809Y-15979000D01*
X14209762Y-15969476D01*
X14171667Y-15969476D01*
X14152619Y-15979000D01*
X14143095Y-15988524D01*
X14133571Y-16007571D01*
X14133571Y-16055190D01*
X14143095Y-16074238D01*
X14152619Y-16083762D01*
X14171667Y-16093286D01*
X14209762Y-16093286D01*
X14228809Y-16083762D01*
X14238333Y-16074238D01*
X14247857Y-16055190D01*
X14485952Y-16169476D02*
X14485952Y-15969476D01*
X14571667Y-16169476D02*
X14571667Y-16064714D01*
X14562143Y-16045667D01*
X14543095Y-16036143D01*
X14514524Y-16036143D01*
X14495476Y-16045667D01*
X14485952Y-16055190D01*
X14695476Y-16169476D02*
X14676428Y-16159952D01*
X14666905Y-16150428D01*
X14657381Y-16131381D01*
X14657381Y-16074238D01*
X14666905Y-16055190D01*
X14676428Y-16045667D01*
X14695476Y-16036143D01*
X14724048Y-16036143D01*
X14743095Y-16045667D01*
X14752619Y-16055190D01*
X14762143Y-16074238D01*
X14762143Y-16131381D01*
X14752619Y-16150428D01*
X14743095Y-16159952D01*
X14724048Y-16169476D01*
X14695476Y-16169476D01*
X14876428Y-16169476D02*
X14857381Y-16159952D01*
X14847857Y-16140905D01*
X14847857Y-15969476D01*
X15028809Y-16159952D02*
X15009762Y-16169476D01*
X14971667Y-16169476D01*
X14952619Y-16159952D01*
X14943095Y-16140905D01*
X14943095Y-16064714D01*
X14952619Y-16045667D01*
X14971667Y-16036143D01*
X15009762Y-16036143D01*
X15028809Y-16045667D01*
X15038333Y-16064714D01*
X15038333Y-16083762D01*
X14943095Y-16102809D01*
X15114524Y-16159952D02*
X15133571Y-16169476D01*
X15171667Y-16169476D01*
X15190714Y-16159952D01*
X15200238Y-16140905D01*
X15200238Y-16131381D01*
X15190714Y-16112333D01*
X15171667Y-16102809D01*
X15143095Y-16102809D01*
X15124048Y-16093286D01*
X15114524Y-16074238D01*
X15114524Y-16064714D01*
X15124048Y-16045667D01*
X15143095Y-16036143D01*
X15171667Y-16036143D01*
X15190714Y-16045667D01*
X15266905Y-16245667D02*
X15276428Y-16236143D01*
X15295476Y-16207571D01*
X15305000Y-16188524D01*
X15314524Y-16159952D01*
X15324048Y-16112333D01*
X15324048Y-16074238D01*
X15314524Y-16026619D01*
X15305000Y-15998048D01*
X15295476Y-15979000D01*
X15276428Y-15950428D01*
X15266905Y-15940905D01*
D18*
X10356000Y-16273500D02*
X10495000Y-16412500D01*
X10495000Y-16273500D02*
X10356000Y-16412500D01*
X10474644Y-16392144D02*
X10474644Y-16293856D01*
X10376356Y-16293856D01*
X10376356Y-16392144D01*
X10474644Y-16392144D01*
D11*
X10857381Y-16433476D02*
X10743095Y-16433476D01*
X10800238Y-16433476D02*
X10800238Y-16233476D01*
X10781190Y-16262048D01*
X10762143Y-16281095D01*
X10743095Y-16290619D01*
X10943095Y-16414428D02*
X10952619Y-16423952D01*
X10943095Y-16433476D01*
X10933571Y-16423952D01*
X10943095Y-16414428D01*
X10943095Y-16433476D01*
X11019286Y-16233476D02*
X11143095Y-16233476D01*
X11076429Y-16309667D01*
X11105000Y-16309667D01*
X11124048Y-16319190D01*
X11133571Y-16328714D01*
X11143095Y-16347762D01*
X11143095Y-16395381D01*
X11133571Y-16414428D01*
X11124048Y-16423952D01*
X11105000Y-16433476D01*
X11047857Y-16433476D01*
X11028810Y-16423952D01*
X11019286Y-16414428D01*
X11238333Y-16433476D02*
X11276428Y-16433476D01*
X11295476Y-16423952D01*
X11305000Y-16414428D01*
X11324048Y-16385857D01*
X11333571Y-16347762D01*
X11333571Y-16271571D01*
X11324048Y-16252524D01*
X11314524Y-16243000D01*
X11295476Y-16233476D01*
X11257381Y-16233476D01*
X11238333Y-16243000D01*
X11228809Y-16252524D01*
X11219286Y-16271571D01*
X11219286Y-16319190D01*
X11228809Y-16338238D01*
X11238333Y-16347762D01*
X11257381Y-16357286D01*
X11295476Y-16357286D01*
X11314524Y-16347762D01*
X11324048Y-16338238D01*
X11333571Y-16319190D01*
X11457381Y-16233476D02*
X11476428Y-16233476D01*
X11495476Y-16243000D01*
X11505000Y-16252524D01*
X11514524Y-16271571D01*
X11524048Y-16309667D01*
X11524048Y-16357286D01*
X11514524Y-16395381D01*
X11505000Y-16414428D01*
X11495476Y-16423952D01*
X11476428Y-16433476D01*
X11457381Y-16433476D01*
X11438333Y-16423952D01*
X11428809Y-16414428D01*
X11419286Y-16395381D01*
X11409762Y-16357286D01*
X11409762Y-16309667D01*
X11419286Y-16271571D01*
X11428809Y-16252524D01*
X11438333Y-16243000D01*
X11457381Y-16233476D01*
X11609762Y-16433476D02*
X11609762Y-16300143D01*
X11609762Y-16319190D02*
X11619286Y-16309667D01*
X11638333Y-16300143D01*
X11666905Y-16300143D01*
X11685952Y-16309667D01*
X11695476Y-16328714D01*
X11695476Y-16433476D01*
X11695476Y-16328714D02*
X11705000Y-16309667D01*
X11724048Y-16300143D01*
X11752619Y-16300143D01*
X11771667Y-16309667D01*
X11781190Y-16328714D01*
X11781190Y-16433476D01*
X11876428Y-16433476D02*
X11876428Y-16300143D01*
X11876428Y-16319190D02*
X11885952Y-16309667D01*
X11905000Y-16300143D01*
X11933571Y-16300143D01*
X11952619Y-16309667D01*
X11962143Y-16328714D01*
X11962143Y-16433476D01*
X11962143Y-16328714D02*
X11971667Y-16309667D01*
X11990714Y-16300143D01*
X12019286Y-16300143D01*
X12038333Y-16309667D01*
X12047857Y-16328714D01*
X12047857Y-16433476D01*
X12438333Y-16223952D02*
X12266905Y-16481095D01*
X12695476Y-16233476D02*
X12714524Y-16233476D01*
X12733571Y-16243000D01*
X12743095Y-16252524D01*
X12752619Y-16271571D01*
X12762143Y-16309667D01*
X12762143Y-16357286D01*
X12752619Y-16395381D01*
X12743095Y-16414428D01*
X12733571Y-16423952D01*
X12714524Y-16433476D01*
X12695476Y-16433476D01*
X12676428Y-16423952D01*
X12666905Y-16414428D01*
X12657381Y-16395381D01*
X12647857Y-16357286D01*
X12647857Y-16309667D01*
X12657381Y-16271571D01*
X12666905Y-16252524D01*
X12676428Y-16243000D01*
X12695476Y-16233476D01*
X12847857Y-16414428D02*
X12857381Y-16423952D01*
X12847857Y-16433476D01*
X12838333Y-16423952D01*
X12847857Y-16414428D01*
X12847857Y-16433476D01*
X12981190Y-16233476D02*
X13000238Y-16233476D01*
X13019286Y-16243000D01*
X13028809Y-16252524D01*
X13038333Y-16271571D01*
X13047857Y-16309667D01*
X13047857Y-16357286D01*
X13038333Y-16395381D01*
X13028809Y-16414428D01*
X13019286Y-16423952D01*
X13000238Y-16433476D01*
X12981190Y-16433476D01*
X12962143Y-16423952D01*
X12952619Y-16414428D01*
X12943095Y-16395381D01*
X12933571Y-16357286D01*
X12933571Y-16309667D01*
X12943095Y-16271571D01*
X12952619Y-16252524D01*
X12962143Y-16243000D01*
X12981190Y-16233476D01*
X13228809Y-16233476D02*
X13133571Y-16233476D01*
X13124048Y-16328714D01*
X13133571Y-16319190D01*
X13152619Y-16309667D01*
X13200238Y-16309667D01*
X13219286Y-16319190D01*
X13228809Y-16328714D01*
X13238333Y-16347762D01*
X13238333Y-16395381D01*
X13228809Y-16414428D01*
X13219286Y-16423952D01*
X13200238Y-16433476D01*
X13152619Y-16433476D01*
X13133571Y-16423952D01*
X13124048Y-16414428D01*
X13409762Y-16300143D02*
X13409762Y-16433476D01*
X13362143Y-16223952D02*
X13314524Y-16366809D01*
X13438333Y-16366809D01*
X13495476Y-16233476D02*
X13628809Y-16233476D01*
X13543095Y-16433476D01*
X13695476Y-16233476D02*
X13695476Y-16271571D01*
X13771667Y-16233476D02*
X13771667Y-16271571D01*
X14066905Y-16509667D02*
X14057381Y-16500143D01*
X14038333Y-16471571D01*
X14028809Y-16452524D01*
X14019286Y-16423952D01*
X14009762Y-16376333D01*
X14009762Y-16338238D01*
X14019286Y-16290619D01*
X14028809Y-16262048D01*
X14038333Y-16243000D01*
X14057381Y-16214428D01*
X14066905Y-16204905D01*
X14238333Y-16233476D02*
X14143095Y-16233476D01*
X14133571Y-16328714D01*
X14143095Y-16319190D01*
X14162143Y-16309667D01*
X14209762Y-16309667D01*
X14228809Y-16319190D01*
X14238333Y-16328714D01*
X14247857Y-16347762D01*
X14247857Y-16395381D01*
X14238333Y-16414428D01*
X14228809Y-16423952D01*
X14209762Y-16433476D01*
X14162143Y-16433476D01*
X14143095Y-16423952D01*
X14133571Y-16414428D01*
X14485952Y-16433476D02*
X14485952Y-16233476D01*
X14571667Y-16433476D02*
X14571667Y-16328714D01*
X14562143Y-16309667D01*
X14543095Y-16300143D01*
X14514524Y-16300143D01*
X14495476Y-16309667D01*
X14485952Y-16319190D01*
X14695476Y-16433476D02*
X14676428Y-16423952D01*
X14666905Y-16414428D01*
X14657381Y-16395381D01*
X14657381Y-16338238D01*
X14666905Y-16319190D01*
X14676428Y-16309667D01*
X14695476Y-16300143D01*
X14724048Y-16300143D01*
X14743095Y-16309667D01*
X14752619Y-16319190D01*
X14762143Y-16338238D01*
X14762143Y-16395381D01*
X14752619Y-16414428D01*
X14743095Y-16423952D01*
X14724048Y-16433476D01*
X14695476Y-16433476D01*
X14876428Y-16433476D02*
X14857381Y-16423952D01*
X14847857Y-16404905D01*
X14847857Y-16233476D01*
X15028809Y-16423952D02*
X15009762Y-16433476D01*
X14971667Y-16433476D01*
X14952619Y-16423952D01*
X14943095Y-16404905D01*
X14943095Y-16328714D01*
X14952619Y-16309667D01*
X14971667Y-16300143D01*
X15009762Y-16300143D01*
X15028809Y-16309667D01*
X15038333Y-16328714D01*
X15038333Y-16347762D01*
X14943095Y-16366809D01*
X15114524Y-16423952D02*
X15133571Y-16433476D01*
X15171667Y-16433476D01*
X15190714Y-16423952D01*
X15200238Y-16404905D01*
X15200238Y-16395381D01*
X15190714Y-16376333D01*
X15171667Y-16366809D01*
X15143095Y-16366809D01*
X15124048Y-16357286D01*
X15114524Y-16338238D01*
X15114524Y-16328714D01*
X15124048Y-16309667D01*
X15143095Y-16300143D01*
X15171667Y-16300143D01*
X15190714Y-16309667D01*
X15266905Y-16509667D02*
X15276428Y-16500143D01*
X15295476Y-16471571D01*
X15305000Y-16452524D01*
X15314524Y-16423952D01*
X15324048Y-16376333D01*
X15324048Y-16338238D01*
X15314524Y-16290619D01*
X15305000Y-16262048D01*
X15295476Y-16243000D01*
X15276428Y-16214428D01*
X15266905Y-16204905D01*
D19*
X10345000Y-16532000D02*
X10495000Y-16682000D01*
X10495000Y-16532000D02*
X10345000Y-16682000D01*
X10420000Y-16682000D02*
X10495000Y-16607000D01*
X10420000Y-16532000D01*
X10345000Y-16607000D01*
X10420000Y-16682000D01*
D11*
X10857381Y-16697476D02*
X10743095Y-16697476D01*
X10800238Y-16697476D02*
X10800238Y-16497476D01*
X10781190Y-16526048D01*
X10762143Y-16545095D01*
X10743095Y-16554619D01*
X10943095Y-16678428D02*
X10952619Y-16687952D01*
X10943095Y-16697476D01*
X10933571Y-16687952D01*
X10943095Y-16678428D01*
X10943095Y-16697476D01*
X11133571Y-16497476D02*
X11038333Y-16497476D01*
X11028810Y-16592714D01*
X11038333Y-16583190D01*
X11057381Y-16573667D01*
X11105000Y-16573667D01*
X11124048Y-16583190D01*
X11133571Y-16592714D01*
X11143095Y-16611762D01*
X11143095Y-16659381D01*
X11133571Y-16678428D01*
X11124048Y-16687952D01*
X11105000Y-16697476D01*
X11057381Y-16697476D01*
X11038333Y-16687952D01*
X11028810Y-16678428D01*
X11266905Y-16497476D02*
X11285952Y-16497476D01*
X11305000Y-16507000D01*
X11314524Y-16516524D01*
X11324048Y-16535571D01*
X11333571Y-16573667D01*
X11333571Y-16621286D01*
X11324048Y-16659381D01*
X11314524Y-16678428D01*
X11305000Y-16687952D01*
X11285952Y-16697476D01*
X11266905Y-16697476D01*
X11247857Y-16687952D01*
X11238333Y-16678428D01*
X11228809Y-16659381D01*
X11219286Y-16621286D01*
X11219286Y-16573667D01*
X11228809Y-16535571D01*
X11238333Y-16516524D01*
X11247857Y-16507000D01*
X11266905Y-16497476D01*
X11457381Y-16497476D02*
X11476428Y-16497476D01*
X11495476Y-16507000D01*
X11505000Y-16516524D01*
X11514524Y-16535571D01*
X11524048Y-16573667D01*
X11524048Y-16621286D01*
X11514524Y-16659381D01*
X11505000Y-16678428D01*
X11495476Y-16687952D01*
X11476428Y-16697476D01*
X11457381Y-16697476D01*
X11438333Y-16687952D01*
X11428809Y-16678428D01*
X11419286Y-16659381D01*
X11409762Y-16621286D01*
X11409762Y-16573667D01*
X11419286Y-16535571D01*
X11428809Y-16516524D01*
X11438333Y-16507000D01*
X11457381Y-16497476D01*
X11609762Y-16697476D02*
X11609762Y-16564143D01*
X11609762Y-16583190D02*
X11619286Y-16573667D01*
X11638333Y-16564143D01*
X11666905Y-16564143D01*
X11685952Y-16573667D01*
X11695476Y-16592714D01*
X11695476Y-16697476D01*
X11695476Y-16592714D02*
X11705000Y-16573667D01*
X11724048Y-16564143D01*
X11752619Y-16564143D01*
X11771667Y-16573667D01*
X11781190Y-16592714D01*
X11781190Y-16697476D01*
X11876428Y-16697476D02*
X11876428Y-16564143D01*
X11876428Y-16583190D02*
X11885952Y-16573667D01*
X11905000Y-16564143D01*
X11933571Y-16564143D01*
X11952619Y-16573667D01*
X11962143Y-16592714D01*
X11962143Y-16697476D01*
X11962143Y-16592714D02*
X11971667Y-16573667D01*
X11990714Y-16564143D01*
X12019286Y-16564143D01*
X12038333Y-16573667D01*
X12047857Y-16592714D01*
X12047857Y-16697476D01*
X12438333Y-16487952D02*
X12266905Y-16745095D01*
X12695476Y-16497476D02*
X12714524Y-16497476D01*
X12733571Y-16507000D01*
X12743095Y-16516524D01*
X12752619Y-16535571D01*
X12762143Y-16573667D01*
X12762143Y-16621286D01*
X12752619Y-16659381D01*
X12743095Y-16678428D01*
X12733571Y-16687952D01*
X12714524Y-16697476D01*
X12695476Y-16697476D01*
X12676428Y-16687952D01*
X12666905Y-16678428D01*
X12657381Y-16659381D01*
X12647857Y-16621286D01*
X12647857Y-16573667D01*
X12657381Y-16535571D01*
X12666905Y-16516524D01*
X12676428Y-16507000D01*
X12695476Y-16497476D01*
X12847857Y-16678428D02*
X12857381Y-16687952D01*
X12847857Y-16697476D01*
X12838333Y-16687952D01*
X12847857Y-16678428D01*
X12847857Y-16697476D01*
X12981190Y-16497476D02*
X13000238Y-16497476D01*
X13019286Y-16507000D01*
X13028809Y-16516524D01*
X13038333Y-16535571D01*
X13047857Y-16573667D01*
X13047857Y-16621286D01*
X13038333Y-16659381D01*
X13028809Y-16678428D01*
X13019286Y-16687952D01*
X13000238Y-16697476D01*
X12981190Y-16697476D01*
X12962143Y-16687952D01*
X12952619Y-16678428D01*
X12943095Y-16659381D01*
X12933571Y-16621286D01*
X12933571Y-16573667D01*
X12943095Y-16535571D01*
X12952619Y-16516524D01*
X12962143Y-16507000D01*
X12981190Y-16497476D01*
X13228809Y-16497476D02*
X13133571Y-16497476D01*
X13124048Y-16592714D01*
X13133571Y-16583190D01*
X13152619Y-16573667D01*
X13200238Y-16573667D01*
X13219286Y-16583190D01*
X13228809Y-16592714D01*
X13238333Y-16611762D01*
X13238333Y-16659381D01*
X13228809Y-16678428D01*
X13219286Y-16687952D01*
X13200238Y-16697476D01*
X13152619Y-16697476D01*
X13133571Y-16687952D01*
X13124048Y-16678428D01*
X13333571Y-16697476D02*
X13371667Y-16697476D01*
X13390714Y-16687952D01*
X13400238Y-16678428D01*
X13419286Y-16649857D01*
X13428809Y-16611762D01*
X13428809Y-16535571D01*
X13419286Y-16516524D01*
X13409762Y-16507000D01*
X13390714Y-16497476D01*
X13352619Y-16497476D01*
X13333571Y-16507000D01*
X13324048Y-16516524D01*
X13314524Y-16535571D01*
X13314524Y-16583190D01*
X13324048Y-16602238D01*
X13333571Y-16611762D01*
X13352619Y-16621286D01*
X13390714Y-16621286D01*
X13409762Y-16611762D01*
X13419286Y-16602238D01*
X13428809Y-16583190D01*
X13619286Y-16697476D02*
X13505000Y-16697476D01*
X13562143Y-16697476D02*
X13562143Y-16497476D01*
X13543095Y-16526048D01*
X13524048Y-16545095D01*
X13505000Y-16554619D01*
X13695476Y-16497476D02*
X13695476Y-16535571D01*
X13771667Y-16497476D02*
X13771667Y-16535571D01*
X14066905Y-16773667D02*
X14057381Y-16764143D01*
X14038333Y-16735571D01*
X14028809Y-16716524D01*
X14019286Y-16687952D01*
X14009762Y-16640333D01*
X14009762Y-16602238D01*
X14019286Y-16554619D01*
X14028809Y-16526048D01*
X14038333Y-16507000D01*
X14057381Y-16478428D01*
X14066905Y-16468905D01*
X14124048Y-16497476D02*
X14247857Y-16497476D01*
X14181190Y-16573667D01*
X14209762Y-16573667D01*
X14228809Y-16583190D01*
X14238333Y-16592714D01*
X14247857Y-16611762D01*
X14247857Y-16659381D01*
X14238333Y-16678428D01*
X14228809Y-16687952D01*
X14209762Y-16697476D01*
X14152619Y-16697476D01*
X14133571Y-16687952D01*
X14124048Y-16678428D01*
X14485952Y-16697476D02*
X14485952Y-16497476D01*
X14571667Y-16697476D02*
X14571667Y-16592714D01*
X14562143Y-16573667D01*
X14543095Y-16564143D01*
X14514524Y-16564143D01*
X14495476Y-16573667D01*
X14485952Y-16583190D01*
X14695476Y-16697476D02*
X14676428Y-16687952D01*
X14666905Y-16678428D01*
X14657381Y-16659381D01*
X14657381Y-16602238D01*
X14666905Y-16583190D01*
X14676428Y-16573667D01*
X14695476Y-16564143D01*
X14724048Y-16564143D01*
X14743095Y-16573667D01*
X14752619Y-16583190D01*
X14762143Y-16602238D01*
X14762143Y-16659381D01*
X14752619Y-16678428D01*
X14743095Y-16687952D01*
X14724048Y-16697476D01*
X14695476Y-16697476D01*
X14876428Y-16697476D02*
X14857381Y-16687952D01*
X14847857Y-16668905D01*
X14847857Y-16497476D01*
X15028809Y-16687952D02*
X15009762Y-16697476D01*
X14971667Y-16697476D01*
X14952619Y-16687952D01*
X14943095Y-16668905D01*
X14943095Y-16592714D01*
X14952619Y-16573667D01*
X14971667Y-16564143D01*
X15009762Y-16564143D01*
X15028809Y-16573667D01*
X15038333Y-16592714D01*
X15038333Y-16611762D01*
X14943095Y-16630809D01*
X15114524Y-16687952D02*
X15133571Y-16697476D01*
X15171667Y-16697476D01*
X15190714Y-16687952D01*
X15200238Y-16668905D01*
X15200238Y-16659381D01*
X15190714Y-16640333D01*
X15171667Y-16630809D01*
X15143095Y-16630809D01*
X15124048Y-16621286D01*
X15114524Y-16602238D01*
X15114524Y-16592714D01*
X15124048Y-16573667D01*
X15143095Y-16564143D01*
X15171667Y-16564143D01*
X15190714Y-16573667D01*
X15266905Y-16773667D02*
X15276428Y-16764143D01*
X15295476Y-16735571D01*
X15305000Y-16716524D01*
X15314524Y-16687952D01*
X15324048Y-16640333D01*
X15324048Y-16602238D01*
X15314524Y-16554619D01*
X15305000Y-16526048D01*
X15295476Y-16507000D01*
X15276428Y-16478428D01*
X15266905Y-16468905D01*
X10395000Y-16777000D02*
X10395000Y-16977000D01*
X10295000Y-16877000D02*
X10495000Y-16877000D01*
X10495000Y-16877000D02*
G75*
G03*
X10495000Y-16877000I-100000J0D01*
G01*
X10743095Y-16786524D02*
X10752619Y-16777000D01*
X10771667Y-16767476D01*
X10819286Y-16767476D01*
X10838333Y-16777000D01*
X10847857Y-16786524D01*
X10857381Y-16805571D01*
X10857381Y-16824619D01*
X10847857Y-16853190D01*
X10733571Y-16967476D01*
X10857381Y-16967476D01*
X10943095Y-16948429D02*
X10952619Y-16957952D01*
X10943095Y-16967476D01*
X10933571Y-16957952D01*
X10943095Y-16948429D01*
X10943095Y-16967476D01*
X11076429Y-16767476D02*
X11095476Y-16767476D01*
X11114524Y-16777000D01*
X11124048Y-16786524D01*
X11133571Y-16805571D01*
X11143095Y-16843667D01*
X11143095Y-16891286D01*
X11133571Y-16929381D01*
X11124048Y-16948429D01*
X11114524Y-16957952D01*
X11095476Y-16967476D01*
X11076429Y-16967476D01*
X11057381Y-16957952D01*
X11047857Y-16948429D01*
X11038333Y-16929381D01*
X11028810Y-16891286D01*
X11028810Y-16843667D01*
X11038333Y-16805571D01*
X11047857Y-16786524D01*
X11057381Y-16777000D01*
X11076429Y-16767476D01*
X11266905Y-16767476D02*
X11285952Y-16767476D01*
X11305000Y-16777000D01*
X11314524Y-16786524D01*
X11324048Y-16805571D01*
X11333571Y-16843667D01*
X11333571Y-16891286D01*
X11324048Y-16929381D01*
X11314524Y-16948429D01*
X11305000Y-16957952D01*
X11285952Y-16967476D01*
X11266905Y-16967476D01*
X11247857Y-16957952D01*
X11238333Y-16948429D01*
X11228809Y-16929381D01*
X11219286Y-16891286D01*
X11219286Y-16843667D01*
X11228809Y-16805571D01*
X11238333Y-16786524D01*
X11247857Y-16777000D01*
X11266905Y-16767476D01*
X11457381Y-16767476D02*
X11476428Y-16767476D01*
X11495476Y-16777000D01*
X11505000Y-16786524D01*
X11514524Y-16805571D01*
X11524048Y-16843667D01*
X11524048Y-16891286D01*
X11514524Y-16929381D01*
X11505000Y-16948429D01*
X11495476Y-16957952D01*
X11476428Y-16967476D01*
X11457381Y-16967476D01*
X11438333Y-16957952D01*
X11428809Y-16948429D01*
X11419286Y-16929381D01*
X11409762Y-16891286D01*
X11409762Y-16843667D01*
X11419286Y-16805571D01*
X11428809Y-16786524D01*
X11438333Y-16777000D01*
X11457381Y-16767476D01*
X11609762Y-16967476D02*
X11609762Y-16834143D01*
X11609762Y-16853190D02*
X11619286Y-16843667D01*
X11638333Y-16834143D01*
X11666905Y-16834143D01*
X11685952Y-16843667D01*
X11695476Y-16862714D01*
X11695476Y-16967476D01*
X11695476Y-16862714D02*
X11705000Y-16843667D01*
X11724048Y-16834143D01*
X11752619Y-16834143D01*
X11771667Y-16843667D01*
X11781190Y-16862714D01*
X11781190Y-16967476D01*
X11876428Y-16967476D02*
X11876428Y-16834143D01*
X11876428Y-16853190D02*
X11885952Y-16843667D01*
X11905000Y-16834143D01*
X11933571Y-16834143D01*
X11952619Y-16843667D01*
X11962143Y-16862714D01*
X11962143Y-16967476D01*
X11962143Y-16862714D02*
X11971667Y-16843667D01*
X11990714Y-16834143D01*
X12019286Y-16834143D01*
X12038333Y-16843667D01*
X12047857Y-16862714D01*
X12047857Y-16967476D01*
X12438333Y-16757952D02*
X12266905Y-17015095D01*
X12695476Y-16767476D02*
X12714524Y-16767476D01*
X12733571Y-16777000D01*
X12743095Y-16786524D01*
X12752619Y-16805571D01*
X12762143Y-16843667D01*
X12762143Y-16891286D01*
X12752619Y-16929381D01*
X12743095Y-16948429D01*
X12733571Y-16957952D01*
X12714524Y-16967476D01*
X12695476Y-16967476D01*
X12676428Y-16957952D01*
X12666905Y-16948429D01*
X12657381Y-16929381D01*
X12647857Y-16891286D01*
X12647857Y-16843667D01*
X12657381Y-16805571D01*
X12666905Y-16786524D01*
X12676428Y-16777000D01*
X12695476Y-16767476D01*
X12847857Y-16948429D02*
X12857381Y-16957952D01*
X12847857Y-16967476D01*
X12838333Y-16957952D01*
X12847857Y-16948429D01*
X12847857Y-16967476D01*
X12981190Y-16767476D02*
X13000238Y-16767476D01*
X13019286Y-16777000D01*
X13028809Y-16786524D01*
X13038333Y-16805571D01*
X13047857Y-16843667D01*
X13047857Y-16891286D01*
X13038333Y-16929381D01*
X13028809Y-16948429D01*
X13019286Y-16957952D01*
X13000238Y-16967476D01*
X12981190Y-16967476D01*
X12962143Y-16957952D01*
X12952619Y-16948429D01*
X12943095Y-16929381D01*
X12933571Y-16891286D01*
X12933571Y-16843667D01*
X12943095Y-16805571D01*
X12952619Y-16786524D01*
X12962143Y-16777000D01*
X12981190Y-16767476D01*
X13114524Y-16767476D02*
X13247857Y-16767476D01*
X13162143Y-16967476D01*
X13352619Y-16853190D02*
X13333571Y-16843667D01*
X13324048Y-16834143D01*
X13314524Y-16815095D01*
X13314524Y-16805571D01*
X13324048Y-16786524D01*
X13333571Y-16777000D01*
X13352619Y-16767476D01*
X13390714Y-16767476D01*
X13409762Y-16777000D01*
X13419286Y-16786524D01*
X13428809Y-16805571D01*
X13428809Y-16815095D01*
X13419286Y-16834143D01*
X13409762Y-16843667D01*
X13390714Y-16853190D01*
X13352619Y-16853190D01*
X13333571Y-16862714D01*
X13324048Y-16872238D01*
X13314524Y-16891286D01*
X13314524Y-16929381D01*
X13324048Y-16948429D01*
X13333571Y-16957952D01*
X13352619Y-16967476D01*
X13390714Y-16967476D01*
X13409762Y-16957952D01*
X13419286Y-16948429D01*
X13428809Y-16929381D01*
X13428809Y-16891286D01*
X13419286Y-16872238D01*
X13409762Y-16862714D01*
X13390714Y-16853190D01*
X13495476Y-16767476D02*
X13628809Y-16767476D01*
X13543095Y-16967476D01*
X13695476Y-16767476D02*
X13695476Y-16805571D01*
X13771667Y-16767476D02*
X13771667Y-16805571D01*
X14066905Y-17043667D02*
X14057381Y-17034143D01*
X14038333Y-17005571D01*
X14028809Y-16986524D01*
X14019286Y-16957952D01*
X14009762Y-16910333D01*
X14009762Y-16872238D01*
X14019286Y-16824619D01*
X14028809Y-16796048D01*
X14038333Y-16777000D01*
X14057381Y-16748428D01*
X14066905Y-16738905D01*
X14228809Y-16834143D02*
X14228809Y-16967476D01*
X14181190Y-16757952D02*
X14133571Y-16900810D01*
X14257381Y-16900810D01*
X14485952Y-16967476D02*
X14485952Y-16767476D01*
X14571667Y-16967476D02*
X14571667Y-16862714D01*
X14562143Y-16843667D01*
X14543095Y-16834143D01*
X14514524Y-16834143D01*
X14495476Y-16843667D01*
X14485952Y-16853190D01*
X14695476Y-16967476D02*
X14676428Y-16957952D01*
X14666905Y-16948429D01*
X14657381Y-16929381D01*
X14657381Y-16872238D01*
X14666905Y-16853190D01*
X14676428Y-16843667D01*
X14695476Y-16834143D01*
X14724048Y-16834143D01*
X14743095Y-16843667D01*
X14752619Y-16853190D01*
X14762143Y-16872238D01*
X14762143Y-16929381D01*
X14752619Y-16948429D01*
X14743095Y-16957952D01*
X14724048Y-16967476D01*
X14695476Y-16967476D01*
X14876428Y-16967476D02*
X14857381Y-16957952D01*
X14847857Y-16938905D01*
X14847857Y-16767476D01*
X15028809Y-16957952D02*
X15009762Y-16967476D01*
X14971667Y-16967476D01*
X14952619Y-16957952D01*
X14943095Y-16938905D01*
X14943095Y-16862714D01*
X14952619Y-16843667D01*
X14971667Y-16834143D01*
X15009762Y-16834143D01*
X15028809Y-16843667D01*
X15038333Y-16862714D01*
X15038333Y-16881762D01*
X14943095Y-16900810D01*
X15114524Y-16957952D02*
X15133571Y-16967476D01*
X15171667Y-16967476D01*
X15190714Y-16957952D01*
X15200238Y-16938905D01*
X15200238Y-16929381D01*
X15190714Y-16910333D01*
X15171667Y-16900810D01*
X15143095Y-16900810D01*
X15124048Y-16891286D01*
X15114524Y-16872238D01*
X15114524Y-16862714D01*
X15124048Y-16843667D01*
X15143095Y-16834143D01*
X15171667Y-16834143D01*
X15190714Y-16843667D01*
X15266905Y-17043667D02*
X15276428Y-17034143D01*
X15295476Y-17005571D01*
X15305000Y-16986524D01*
X15314524Y-16957952D01*
X15324048Y-16910333D01*
X15324048Y-16872238D01*
X15314524Y-16824619D01*
X15305000Y-16796048D01*
X15295476Y-16777000D01*
X15276428Y-16748428D01*
X15266905Y-16738905D01*
X10465711Y-17267711D02*
X10465711Y-17126289D01*
X10324289Y-17126289D01*
X10324289Y-17267711D01*
X10465711Y-17267711D01*
X10495000Y-17197000D02*
G75*
G03*
X10495000Y-17197000I-100000J0D01*
G01*
X10733571Y-17087476D02*
X10857381Y-17087476D01*
X10790714Y-17163667D01*
X10819286Y-17163667D01*
X10838333Y-17173190D01*
X10847857Y-17182714D01*
X10857381Y-17201762D01*
X10857381Y-17249381D01*
X10847857Y-17268429D01*
X10838333Y-17277952D01*
X10819286Y-17287476D01*
X10762143Y-17287476D01*
X10743095Y-17277952D01*
X10733571Y-17268429D01*
X10943095Y-17268429D02*
X10952619Y-17277952D01*
X10943095Y-17287476D01*
X10933571Y-17277952D01*
X10943095Y-17268429D01*
X10943095Y-17287476D01*
X11028810Y-17106524D02*
X11038333Y-17097000D01*
X11057381Y-17087476D01*
X11105000Y-17087476D01*
X11124048Y-17097000D01*
X11133571Y-17106524D01*
X11143095Y-17125571D01*
X11143095Y-17144619D01*
X11133571Y-17173190D01*
X11019286Y-17287476D01*
X11143095Y-17287476D01*
X11266905Y-17087476D02*
X11285952Y-17087476D01*
X11305000Y-17097000D01*
X11314524Y-17106524D01*
X11324048Y-17125571D01*
X11333571Y-17163667D01*
X11333571Y-17211286D01*
X11324048Y-17249381D01*
X11314524Y-17268429D01*
X11305000Y-17277952D01*
X11285952Y-17287476D01*
X11266905Y-17287476D01*
X11247857Y-17277952D01*
X11238333Y-17268429D01*
X11228809Y-17249381D01*
X11219286Y-17211286D01*
X11219286Y-17163667D01*
X11228809Y-17125571D01*
X11238333Y-17106524D01*
X11247857Y-17097000D01*
X11266905Y-17087476D01*
X11457381Y-17087476D02*
X11476428Y-17087476D01*
X11495476Y-17097000D01*
X11505000Y-17106524D01*
X11514524Y-17125571D01*
X11524048Y-17163667D01*
X11524048Y-17211286D01*
X11514524Y-17249381D01*
X11505000Y-17268429D01*
X11495476Y-17277952D01*
X11476428Y-17287476D01*
X11457381Y-17287476D01*
X11438333Y-17277952D01*
X11428809Y-17268429D01*
X11419286Y-17249381D01*
X11409762Y-17211286D01*
X11409762Y-17163667D01*
X11419286Y-17125571D01*
X11428809Y-17106524D01*
X11438333Y-17097000D01*
X11457381Y-17087476D01*
X11609762Y-17287476D02*
X11609762Y-17154143D01*
X11609762Y-17173190D02*
X11619286Y-17163667D01*
X11638333Y-17154143D01*
X11666905Y-17154143D01*
X11685952Y-17163667D01*
X11695476Y-17182714D01*
X11695476Y-17287476D01*
X11695476Y-17182714D02*
X11705000Y-17163667D01*
X11724048Y-17154143D01*
X11752619Y-17154143D01*
X11771667Y-17163667D01*
X11781190Y-17182714D01*
X11781190Y-17287476D01*
X11876428Y-17287476D02*
X11876428Y-17154143D01*
X11876428Y-17173190D02*
X11885952Y-17163667D01*
X11905000Y-17154143D01*
X11933571Y-17154143D01*
X11952619Y-17163667D01*
X11962143Y-17182714D01*
X11962143Y-17287476D01*
X11962143Y-17182714D02*
X11971667Y-17163667D01*
X11990714Y-17154143D01*
X12019286Y-17154143D01*
X12038333Y-17163667D01*
X12047857Y-17182714D01*
X12047857Y-17287476D01*
X12438333Y-17077952D02*
X12266905Y-17335095D01*
X12695476Y-17087476D02*
X12714524Y-17087476D01*
X12733571Y-17097000D01*
X12743095Y-17106524D01*
X12752619Y-17125571D01*
X12762143Y-17163667D01*
X12762143Y-17211286D01*
X12752619Y-17249381D01*
X12743095Y-17268429D01*
X12733571Y-17277952D01*
X12714524Y-17287476D01*
X12695476Y-17287476D01*
X12676428Y-17277952D01*
X12666905Y-17268429D01*
X12657381Y-17249381D01*
X12647857Y-17211286D01*
X12647857Y-17163667D01*
X12657381Y-17125571D01*
X12666905Y-17106524D01*
X12676428Y-17097000D01*
X12695476Y-17087476D01*
X12847857Y-17268429D02*
X12857381Y-17277952D01*
X12847857Y-17287476D01*
X12838333Y-17277952D01*
X12847857Y-17268429D01*
X12847857Y-17287476D01*
X13047857Y-17287476D02*
X12933571Y-17287476D01*
X12990714Y-17287476D02*
X12990714Y-17087476D01*
X12971667Y-17116048D01*
X12952619Y-17135095D01*
X12933571Y-17144619D01*
X13124048Y-17106524D02*
X13133571Y-17097000D01*
X13152619Y-17087476D01*
X13200238Y-17087476D01*
X13219286Y-17097000D01*
X13228809Y-17106524D01*
X13238333Y-17125571D01*
X13238333Y-17144619D01*
X13228809Y-17173190D01*
X13114524Y-17287476D01*
X13238333Y-17287476D01*
X13409762Y-17087476D02*
X13371667Y-17087476D01*
X13352619Y-17097000D01*
X13343095Y-17106524D01*
X13324048Y-17135095D01*
X13314524Y-17173190D01*
X13314524Y-17249381D01*
X13324048Y-17268429D01*
X13333571Y-17277952D01*
X13352619Y-17287476D01*
X13390714Y-17287476D01*
X13409762Y-17277952D01*
X13419286Y-17268429D01*
X13428809Y-17249381D01*
X13428809Y-17201762D01*
X13419286Y-17182714D01*
X13409762Y-17173190D01*
X13390714Y-17163667D01*
X13352619Y-17163667D01*
X13333571Y-17173190D01*
X13324048Y-17182714D01*
X13314524Y-17201762D01*
X13552619Y-17087476D02*
X13571667Y-17087476D01*
X13590714Y-17097000D01*
X13600238Y-17106524D01*
X13609762Y-17125571D01*
X13619286Y-17163667D01*
X13619286Y-17211286D01*
X13609762Y-17249381D01*
X13600238Y-17268429D01*
X13590714Y-17277952D01*
X13571667Y-17287476D01*
X13552619Y-17287476D01*
X13533571Y-17277952D01*
X13524048Y-17268429D01*
X13514524Y-17249381D01*
X13505000Y-17211286D01*
X13505000Y-17163667D01*
X13514524Y-17125571D01*
X13524048Y-17106524D01*
X13533571Y-17097000D01*
X13552619Y-17087476D01*
X13695476Y-17087476D02*
X13695476Y-17125571D01*
X13771667Y-17087476D02*
X13771667Y-17125571D01*
X14066905Y-17363667D02*
X14057381Y-17354143D01*
X14038333Y-17325571D01*
X14028809Y-17306524D01*
X14019286Y-17277952D01*
X14009762Y-17230333D01*
X14009762Y-17192238D01*
X14019286Y-17144619D01*
X14028809Y-17116048D01*
X14038333Y-17097000D01*
X14057381Y-17068429D01*
X14066905Y-17058905D01*
X14228809Y-17154143D02*
X14228809Y-17287476D01*
X14181190Y-17077952D02*
X14133571Y-17220810D01*
X14257381Y-17220810D01*
X14485952Y-17287476D02*
X14485952Y-17087476D01*
X14571667Y-17287476D02*
X14571667Y-17182714D01*
X14562143Y-17163667D01*
X14543095Y-17154143D01*
X14514524Y-17154143D01*
X14495476Y-17163667D01*
X14485952Y-17173190D01*
X14695476Y-17287476D02*
X14676428Y-17277952D01*
X14666905Y-17268429D01*
X14657381Y-17249381D01*
X14657381Y-17192238D01*
X14666905Y-17173190D01*
X14676428Y-17163667D01*
X14695476Y-17154143D01*
X14724048Y-17154143D01*
X14743095Y-17163667D01*
X14752619Y-17173190D01*
X14762143Y-17192238D01*
X14762143Y-17249381D01*
X14752619Y-17268429D01*
X14743095Y-17277952D01*
X14724048Y-17287476D01*
X14695476Y-17287476D01*
X14876428Y-17287476D02*
X14857381Y-17277952D01*
X14847857Y-17258905D01*
X14847857Y-17087476D01*
X15028809Y-17277952D02*
X15009762Y-17287476D01*
X14971667Y-17287476D01*
X14952619Y-17277952D01*
X14943095Y-17258905D01*
X14943095Y-17182714D01*
X14952619Y-17163667D01*
X14971667Y-17154143D01*
X15009762Y-17154143D01*
X15028809Y-17163667D01*
X15038333Y-17182714D01*
X15038333Y-17201762D01*
X14943095Y-17220810D01*
X15114524Y-17277952D02*
X15133571Y-17287476D01*
X15171667Y-17287476D01*
X15190714Y-17277952D01*
X15200238Y-17258905D01*
X15200238Y-17249381D01*
X15190714Y-17230333D01*
X15171667Y-17220810D01*
X15143095Y-17220810D01*
X15124048Y-17211286D01*
X15114524Y-17192238D01*
X15114524Y-17182714D01*
X15124048Y-17163667D01*
X15143095Y-17154143D01*
X15171667Y-17154143D01*
X15190714Y-17163667D01*
X15266905Y-17363667D02*
X15276428Y-17354143D01*
X15295476Y-17325571D01*
X15305000Y-17306524D01*
X15314524Y-17277952D01*
X15324048Y-17230333D01*
X15324048Y-17192238D01*
X15314524Y-17144619D01*
X15305000Y-17116048D01*
X15295476Y-17097000D01*
X15276428Y-17068429D01*
X15266905Y-17058905D01*
M02*
