%TF.GenerationSoftware,KiCad,Pcbnew,(6.0.9)*%
%TF.CreationDate,2022-12-28T04:29:14+03:00*%
%TF.ProjectId,v3,76332e6b-6963-4616-945f-706362585858,rev?*%
%TF.SameCoordinates,Original*%
%TF.FileFunction,Legend,Bot*%
%TF.FilePolarity,Positive*%
%FSLAX46Y46*%
G04 Gerber Fmt 4.6, Leading zero omitted, Abs format (unit mm)*
G04 Created by KiCad (PCBNEW (6.0.9)) date 2022-12-28 04:29:14*
%MOMM*%
%LPD*%
G01*
G04 APERTURE LIST*
%ADD10C,0.100000*%
%ADD11C,0.150000*%
%ADD12C,0.300000*%
%ADD13C,0.400000*%
%TA.AperFunction,Profile*%
%ADD14C,0.100000*%
%TD*%
%ADD15C,0.080000*%
%ADD16C,0.120000*%
G04 APERTURE END LIST*
D10*
D11*
X177002200Y-166007200D02*
X177002200Y-198007200D01*
X285002200Y-198007200D01*
X285002200Y-166007200D01*
X177002200Y-166007200D01*
D10*
D11*
X10000000Y-10000000D02*
X10000000Y-200007200D01*
X287002200Y-200007200D01*
X287002200Y-10000000D01*
X10000000Y-10000000D01*
D10*
D11*
X12000000Y-12000000D02*
X12000000Y-198007200D01*
X285002200Y-198007200D01*
X285002200Y-12000000D01*
X12000000Y-12000000D01*
D10*
D11*
X60000000Y-12000000D02*
X60000000Y-10000000D01*
D10*
D11*
X110000000Y-12000000D02*
X110000000Y-10000000D01*
D10*
D11*
X160000000Y-12000000D02*
X160000000Y-10000000D01*
D10*
D11*
X210000000Y-12000000D02*
X210000000Y-10000000D01*
D10*
D11*
X260000000Y-12000000D02*
X260000000Y-10000000D01*
D10*
D11*
X36065476Y-11588095D02*
X35322619Y-11588095D01*
X35694047Y-11588095D02*
X35694047Y-10288095D01*
X35570238Y-10473809D01*
X35446428Y-10597619D01*
X35322619Y-10659523D01*
D10*
D11*
X85322619Y-10411904D02*
X85384523Y-10350000D01*
X85508333Y-10288095D01*
X85817857Y-10288095D01*
X85941666Y-10350000D01*
X86003571Y-10411904D01*
X86065476Y-10535714D01*
X86065476Y-10659523D01*
X86003571Y-10845238D01*
X85260714Y-11588095D01*
X86065476Y-11588095D01*
D10*
D11*
X135260714Y-10288095D02*
X136065476Y-10288095D01*
X135632142Y-10783333D01*
X135817857Y-10783333D01*
X135941666Y-10845238D01*
X136003571Y-10907142D01*
X136065476Y-11030952D01*
X136065476Y-11340476D01*
X136003571Y-11464285D01*
X135941666Y-11526190D01*
X135817857Y-11588095D01*
X135446428Y-11588095D01*
X135322619Y-11526190D01*
X135260714Y-11464285D01*
D10*
D11*
X185941666Y-10721428D02*
X185941666Y-11588095D01*
X185632142Y-10226190D02*
X185322619Y-11154761D01*
X186127380Y-11154761D01*
D10*
D11*
X236003571Y-10288095D02*
X235384523Y-10288095D01*
X235322619Y-10907142D01*
X235384523Y-10845238D01*
X235508333Y-10783333D01*
X235817857Y-10783333D01*
X235941666Y-10845238D01*
X236003571Y-10907142D01*
X236065476Y-11030952D01*
X236065476Y-11340476D01*
X236003571Y-11464285D01*
X235941666Y-11526190D01*
X235817857Y-11588095D01*
X235508333Y-11588095D01*
X235384523Y-11526190D01*
X235322619Y-11464285D01*
D10*
D11*
X285941666Y-10288095D02*
X285694047Y-10288095D01*
X285570238Y-10350000D01*
X285508333Y-10411904D01*
X285384523Y-10597619D01*
X285322619Y-10845238D01*
X285322619Y-11340476D01*
X285384523Y-11464285D01*
X285446428Y-11526190D01*
X285570238Y-11588095D01*
X285817857Y-11588095D01*
X285941666Y-11526190D01*
X286003571Y-11464285D01*
X286065476Y-11340476D01*
X286065476Y-11030952D01*
X286003571Y-10907142D01*
X285941666Y-10845238D01*
X285817857Y-10783333D01*
X285570238Y-10783333D01*
X285446428Y-10845238D01*
X285384523Y-10907142D01*
X285322619Y-11030952D01*
D10*
D11*
X60000000Y-198007200D02*
X60000000Y-200007200D01*
D10*
D11*
X110000000Y-198007200D02*
X110000000Y-200007200D01*
D10*
D11*
X160000000Y-198007200D02*
X160000000Y-200007200D01*
D10*
D11*
X210000000Y-198007200D02*
X210000000Y-200007200D01*
D10*
D11*
X260000000Y-198007200D02*
X260000000Y-200007200D01*
D10*
D11*
X36065476Y-199595295D02*
X35322619Y-199595295D01*
X35694047Y-199595295D02*
X35694047Y-198295295D01*
X35570238Y-198481009D01*
X35446428Y-198604819D01*
X35322619Y-198666723D01*
D10*
D11*
X85322619Y-198419104D02*
X85384523Y-198357200D01*
X85508333Y-198295295D01*
X85817857Y-198295295D01*
X85941666Y-198357200D01*
X86003571Y-198419104D01*
X86065476Y-198542914D01*
X86065476Y-198666723D01*
X86003571Y-198852438D01*
X85260714Y-199595295D01*
X86065476Y-199595295D01*
D10*
D11*
X135260714Y-198295295D02*
X136065476Y-198295295D01*
X135632142Y-198790533D01*
X135817857Y-198790533D01*
X135941666Y-198852438D01*
X136003571Y-198914342D01*
X136065476Y-199038152D01*
X136065476Y-199347676D01*
X136003571Y-199471485D01*
X135941666Y-199533390D01*
X135817857Y-199595295D01*
X135446428Y-199595295D01*
X135322619Y-199533390D01*
X135260714Y-199471485D01*
D10*
D11*
X185941666Y-198728628D02*
X185941666Y-199595295D01*
X185632142Y-198233390D02*
X185322619Y-199161961D01*
X186127380Y-199161961D01*
D10*
D11*
X236003571Y-198295295D02*
X235384523Y-198295295D01*
X235322619Y-198914342D01*
X235384523Y-198852438D01*
X235508333Y-198790533D01*
X235817857Y-198790533D01*
X235941666Y-198852438D01*
X236003571Y-198914342D01*
X236065476Y-199038152D01*
X236065476Y-199347676D01*
X236003571Y-199471485D01*
X235941666Y-199533390D01*
X235817857Y-199595295D01*
X235508333Y-199595295D01*
X235384523Y-199533390D01*
X235322619Y-199471485D01*
D10*
D11*
X285941666Y-198295295D02*
X285694047Y-198295295D01*
X285570238Y-198357200D01*
X285508333Y-198419104D01*
X285384523Y-198604819D01*
X285322619Y-198852438D01*
X285322619Y-199347676D01*
X285384523Y-199471485D01*
X285446428Y-199533390D01*
X285570238Y-199595295D01*
X285817857Y-199595295D01*
X285941666Y-199533390D01*
X286003571Y-199471485D01*
X286065476Y-199347676D01*
X286065476Y-199038152D01*
X286003571Y-198914342D01*
X285941666Y-198852438D01*
X285817857Y-198790533D01*
X285570238Y-198790533D01*
X285446428Y-198852438D01*
X285384523Y-198914342D01*
X285322619Y-199038152D01*
D10*
D11*
X10000000Y-60000000D02*
X12000000Y-60000000D01*
D10*
D11*
X10000000Y-110000000D02*
X12000000Y-110000000D01*
D10*
D11*
X10000000Y-160000000D02*
X12000000Y-160000000D01*
D10*
D11*
X10690476Y-35216666D02*
X11309523Y-35216666D01*
X10566666Y-35588095D02*
X11000000Y-34288095D01*
X11433333Y-35588095D01*
D10*
D11*
X11092857Y-84907142D02*
X11278571Y-84969047D01*
X11340476Y-85030952D01*
X11402380Y-85154761D01*
X11402380Y-85340476D01*
X11340476Y-85464285D01*
X11278571Y-85526190D01*
X11154761Y-85588095D01*
X10659523Y-85588095D01*
X10659523Y-84288095D01*
X11092857Y-84288095D01*
X11216666Y-84350000D01*
X11278571Y-84411904D01*
X11340476Y-84535714D01*
X11340476Y-84659523D01*
X11278571Y-84783333D01*
X11216666Y-84845238D01*
X11092857Y-84907142D01*
X10659523Y-84907142D01*
D10*
D11*
X11402380Y-135464285D02*
X11340476Y-135526190D01*
X11154761Y-135588095D01*
X11030952Y-135588095D01*
X10845238Y-135526190D01*
X10721428Y-135402380D01*
X10659523Y-135278571D01*
X10597619Y-135030952D01*
X10597619Y-134845238D01*
X10659523Y-134597619D01*
X10721428Y-134473809D01*
X10845238Y-134350000D01*
X11030952Y-134288095D01*
X11154761Y-134288095D01*
X11340476Y-134350000D01*
X11402380Y-134411904D01*
D10*
D11*
X10659523Y-185588095D02*
X10659523Y-184288095D01*
X10969047Y-184288095D01*
X11154761Y-184350000D01*
X11278571Y-184473809D01*
X11340476Y-184597619D01*
X11402380Y-184845238D01*
X11402380Y-185030952D01*
X11340476Y-185278571D01*
X11278571Y-185402380D01*
X11154761Y-185526190D01*
X10969047Y-185588095D01*
X10659523Y-185588095D01*
D10*
D11*
X287002200Y-60000000D02*
X285002200Y-60000000D01*
D10*
D11*
X287002200Y-110000000D02*
X285002200Y-110000000D01*
D10*
D11*
X287002200Y-160000000D02*
X285002200Y-160000000D01*
D10*
D11*
X285692676Y-35216666D02*
X286311723Y-35216666D01*
X285568866Y-35588095D02*
X286002200Y-34288095D01*
X286435533Y-35588095D01*
D10*
D11*
X286095057Y-84907142D02*
X286280771Y-84969047D01*
X286342676Y-85030952D01*
X286404580Y-85154761D01*
X286404580Y-85340476D01*
X286342676Y-85464285D01*
X286280771Y-85526190D01*
X286156961Y-85588095D01*
X285661723Y-85588095D01*
X285661723Y-84288095D01*
X286095057Y-84288095D01*
X286218866Y-84350000D01*
X286280771Y-84411904D01*
X286342676Y-84535714D01*
X286342676Y-84659523D01*
X286280771Y-84783333D01*
X286218866Y-84845238D01*
X286095057Y-84907142D01*
X285661723Y-84907142D01*
D10*
D11*
X286404580Y-135464285D02*
X286342676Y-135526190D01*
X286156961Y-135588095D01*
X286033152Y-135588095D01*
X285847438Y-135526190D01*
X285723628Y-135402380D01*
X285661723Y-135278571D01*
X285599819Y-135030952D01*
X285599819Y-134845238D01*
X285661723Y-134597619D01*
X285723628Y-134473809D01*
X285847438Y-134350000D01*
X286033152Y-134288095D01*
X286156961Y-134288095D01*
X286342676Y-134350000D01*
X286404580Y-134411904D01*
D10*
D11*
X285661723Y-185588095D02*
X285661723Y-184288095D01*
X285971247Y-184288095D01*
X286156961Y-184350000D01*
X286280771Y-184473809D01*
X286342676Y-184597619D01*
X286404580Y-184845238D01*
X286404580Y-185030952D01*
X286342676Y-185278571D01*
X286280771Y-185402380D01*
X286156961Y-185526190D01*
X285971247Y-185588095D01*
X285661723Y-185588095D01*
D10*
D11*
X200434342Y-193785771D02*
X200434342Y-192285771D01*
X200791485Y-192285771D01*
X201005771Y-192357200D01*
X201148628Y-192500057D01*
X201220057Y-192642914D01*
X201291485Y-192928628D01*
X201291485Y-193142914D01*
X201220057Y-193428628D01*
X201148628Y-193571485D01*
X201005771Y-193714342D01*
X200791485Y-193785771D01*
X200434342Y-193785771D01*
X202577200Y-193785771D02*
X202577200Y-193000057D01*
X202505771Y-192857200D01*
X202362914Y-192785771D01*
X202077200Y-192785771D01*
X201934342Y-192857200D01*
X202577200Y-193714342D02*
X202434342Y-193785771D01*
X202077200Y-193785771D01*
X201934342Y-193714342D01*
X201862914Y-193571485D01*
X201862914Y-193428628D01*
X201934342Y-193285771D01*
X202077200Y-193214342D01*
X202434342Y-193214342D01*
X202577200Y-193142914D01*
X203077200Y-192785771D02*
X203648628Y-192785771D01*
X203291485Y-192285771D02*
X203291485Y-193571485D01*
X203362914Y-193714342D01*
X203505771Y-193785771D01*
X203648628Y-193785771D01*
X204720057Y-193714342D02*
X204577200Y-193785771D01*
X204291485Y-193785771D01*
X204148628Y-193714342D01*
X204077200Y-193571485D01*
X204077200Y-193000057D01*
X204148628Y-192857200D01*
X204291485Y-192785771D01*
X204577200Y-192785771D01*
X204720057Y-192857200D01*
X204791485Y-193000057D01*
X204791485Y-193142914D01*
X204077200Y-193285771D01*
X205434342Y-193642914D02*
X205505771Y-193714342D01*
X205434342Y-193785771D01*
X205362914Y-193714342D01*
X205434342Y-193642914D01*
X205434342Y-193785771D01*
X205434342Y-192857200D02*
X205505771Y-192928628D01*
X205434342Y-193000057D01*
X205362914Y-192928628D01*
X205434342Y-192857200D01*
X205434342Y-193000057D01*
D10*
D11*
X177002200Y-194507200D02*
X285002200Y-194507200D01*
D10*
D11*
X178434342Y-196585771D02*
X178434342Y-195085771D01*
X179291485Y-196585771D02*
X178648628Y-195728628D01*
X179291485Y-195085771D02*
X178434342Y-195942914D01*
X179934342Y-196585771D02*
X179934342Y-195585771D01*
X179934342Y-195085771D02*
X179862914Y-195157200D01*
X179934342Y-195228628D01*
X180005771Y-195157200D01*
X179934342Y-195085771D01*
X179934342Y-195228628D01*
X181505771Y-196442914D02*
X181434342Y-196514342D01*
X181220057Y-196585771D01*
X181077200Y-196585771D01*
X180862914Y-196514342D01*
X180720057Y-196371485D01*
X180648628Y-196228628D01*
X180577200Y-195942914D01*
X180577200Y-195728628D01*
X180648628Y-195442914D01*
X180720057Y-195300057D01*
X180862914Y-195157200D01*
X181077200Y-195085771D01*
X181220057Y-195085771D01*
X181434342Y-195157200D01*
X181505771Y-195228628D01*
X182791485Y-196585771D02*
X182791485Y-195800057D01*
X182720057Y-195657200D01*
X182577200Y-195585771D01*
X182291485Y-195585771D01*
X182148628Y-195657200D01*
X182791485Y-196514342D02*
X182648628Y-196585771D01*
X182291485Y-196585771D01*
X182148628Y-196514342D01*
X182077200Y-196371485D01*
X182077200Y-196228628D01*
X182148628Y-196085771D01*
X182291485Y-196014342D01*
X182648628Y-196014342D01*
X182791485Y-195942914D01*
X184148628Y-196585771D02*
X184148628Y-195085771D01*
X184148628Y-196514342D02*
X184005771Y-196585771D01*
X183720057Y-196585771D01*
X183577200Y-196514342D01*
X183505771Y-196442914D01*
X183434342Y-196300057D01*
X183434342Y-195871485D01*
X183505771Y-195728628D01*
X183577200Y-195657200D01*
X183720057Y-195585771D01*
X184005771Y-195585771D01*
X184148628Y-195657200D01*
X186005771Y-195800057D02*
X186505771Y-195800057D01*
X186720057Y-196585771D02*
X186005771Y-196585771D01*
X186005771Y-195085771D01*
X186720057Y-195085771D01*
X187362914Y-196442914D02*
X187434342Y-196514342D01*
X187362914Y-196585771D01*
X187291485Y-196514342D01*
X187362914Y-196442914D01*
X187362914Y-196585771D01*
X188077200Y-196585771D02*
X188077200Y-195085771D01*
X188434342Y-195085771D01*
X188648628Y-195157200D01*
X188791485Y-195300057D01*
X188862914Y-195442914D01*
X188934342Y-195728628D01*
X188934342Y-195942914D01*
X188862914Y-196228628D01*
X188791485Y-196371485D01*
X188648628Y-196514342D01*
X188434342Y-196585771D01*
X188077200Y-196585771D01*
X189577200Y-196442914D02*
X189648628Y-196514342D01*
X189577200Y-196585771D01*
X189505771Y-196514342D01*
X189577200Y-196442914D01*
X189577200Y-196585771D01*
X190220057Y-196157200D02*
X190934342Y-196157200D01*
X190077200Y-196585771D02*
X190577200Y-195085771D01*
X191077200Y-196585771D01*
X191577200Y-196442914D02*
X191648628Y-196514342D01*
X191577200Y-196585771D01*
X191505771Y-196514342D01*
X191577200Y-196442914D01*
X191577200Y-196585771D01*
X194577200Y-196585771D02*
X194577200Y-195085771D01*
X194720057Y-196014342D02*
X195148628Y-196585771D01*
X195148628Y-195585771D02*
X194577200Y-196157200D01*
X195791485Y-196585771D02*
X195791485Y-195585771D01*
X195791485Y-195085771D02*
X195720057Y-195157200D01*
X195791485Y-195228628D01*
X195862914Y-195157200D01*
X195791485Y-195085771D01*
X195791485Y-195228628D01*
X197148628Y-196514342D02*
X197005771Y-196585771D01*
X196720057Y-196585771D01*
X196577200Y-196514342D01*
X196505771Y-196442914D01*
X196434342Y-196300057D01*
X196434342Y-195871485D01*
X196505771Y-195728628D01*
X196577200Y-195657200D01*
X196720057Y-195585771D01*
X197005771Y-195585771D01*
X197148628Y-195657200D01*
X198434342Y-196585771D02*
X198434342Y-195800057D01*
X198362914Y-195657200D01*
X198220057Y-195585771D01*
X197934342Y-195585771D01*
X197791485Y-195657200D01*
X198434342Y-196514342D02*
X198291485Y-196585771D01*
X197934342Y-196585771D01*
X197791485Y-196514342D01*
X197720057Y-196371485D01*
X197720057Y-196228628D01*
X197791485Y-196085771D01*
X197934342Y-196014342D01*
X198291485Y-196014342D01*
X198434342Y-195942914D01*
X199791485Y-196585771D02*
X199791485Y-195085771D01*
X199791485Y-196514342D02*
X199648628Y-196585771D01*
X199362914Y-196585771D01*
X199220057Y-196514342D01*
X199148628Y-196442914D01*
X199077200Y-196300057D01*
X199077200Y-195871485D01*
X199148628Y-195728628D01*
X199220057Y-195657200D01*
X199362914Y-195585771D01*
X199648628Y-195585771D01*
X199791485Y-195657200D01*
X202077200Y-197157200D02*
X202005771Y-197085771D01*
X201862914Y-196871485D01*
X201791485Y-196728628D01*
X201720057Y-196514342D01*
X201648628Y-196157200D01*
X201648628Y-195871485D01*
X201720057Y-195514342D01*
X201791485Y-195300057D01*
X201862914Y-195157200D01*
X202005771Y-194942914D01*
X202077200Y-194871485D01*
X203291485Y-195085771D02*
X203005771Y-195085771D01*
X202862914Y-195157200D01*
X202791485Y-195228628D01*
X202648628Y-195442914D01*
X202577200Y-195728628D01*
X202577200Y-196300057D01*
X202648628Y-196442914D01*
X202720057Y-196514342D01*
X202862914Y-196585771D01*
X203148628Y-196585771D01*
X203291485Y-196514342D01*
X203362914Y-196442914D01*
X203434342Y-196300057D01*
X203434342Y-195942914D01*
X203362914Y-195800057D01*
X203291485Y-195728628D01*
X203148628Y-195657200D01*
X202862914Y-195657200D01*
X202720057Y-195728628D01*
X202648628Y-195800057D01*
X202577200Y-195942914D01*
X204077200Y-196442914D02*
X204148628Y-196514342D01*
X204077200Y-196585771D01*
X204005771Y-196514342D01*
X204077200Y-196442914D01*
X204077200Y-196585771D01*
X205077200Y-195085771D02*
X205220057Y-195085771D01*
X205362914Y-195157200D01*
X205434342Y-195228628D01*
X205505771Y-195371485D01*
X205577200Y-195657200D01*
X205577200Y-196014342D01*
X205505771Y-196300057D01*
X205434342Y-196442914D01*
X205362914Y-196514342D01*
X205220057Y-196585771D01*
X205077200Y-196585771D01*
X204934342Y-196514342D01*
X204862914Y-196442914D01*
X204791485Y-196300057D01*
X204720057Y-196014342D01*
X204720057Y-195657200D01*
X204791485Y-195371485D01*
X204862914Y-195228628D01*
X204934342Y-195157200D01*
X205077200Y-195085771D01*
X206220057Y-196442914D02*
X206291485Y-196514342D01*
X206220057Y-196585771D01*
X206148628Y-196514342D01*
X206220057Y-196442914D01*
X206220057Y-196585771D01*
X207005771Y-196585771D02*
X207291485Y-196585771D01*
X207434342Y-196514342D01*
X207505771Y-196442914D01*
X207648628Y-196228628D01*
X207720057Y-195942914D01*
X207720057Y-195371485D01*
X207648628Y-195228628D01*
X207577200Y-195157200D01*
X207434342Y-195085771D01*
X207148628Y-195085771D01*
X207005771Y-195157200D01*
X206934342Y-195228628D01*
X206862914Y-195371485D01*
X206862914Y-195728628D01*
X206934342Y-195871485D01*
X207005771Y-195942914D01*
X207148628Y-196014342D01*
X207434342Y-196014342D01*
X207577200Y-195942914D01*
X207648628Y-195871485D01*
X207720057Y-195728628D01*
X208220057Y-197157200D02*
X208291485Y-197085771D01*
X208434342Y-196871485D01*
X208505771Y-196728628D01*
X208577200Y-196514342D01*
X208648628Y-196157200D01*
X208648628Y-195871485D01*
X208577200Y-195514342D01*
X208505771Y-195300057D01*
X208434342Y-195157200D01*
X208291485Y-194942914D01*
X208220057Y-194871485D01*
D10*
D11*
X177002200Y-191507200D02*
X285002200Y-191507200D01*
D10*
D12*
X264411485Y-193785771D02*
X263911485Y-193071485D01*
X263554342Y-193785771D02*
X263554342Y-192285771D01*
X264125771Y-192285771D01*
X264268628Y-192357200D01*
X264340057Y-192428628D01*
X264411485Y-192571485D01*
X264411485Y-192785771D01*
X264340057Y-192928628D01*
X264268628Y-193000057D01*
X264125771Y-193071485D01*
X263554342Y-193071485D01*
X265625771Y-193714342D02*
X265482914Y-193785771D01*
X265197200Y-193785771D01*
X265054342Y-193714342D01*
X264982914Y-193571485D01*
X264982914Y-193000057D01*
X265054342Y-192857200D01*
X265197200Y-192785771D01*
X265482914Y-192785771D01*
X265625771Y-192857200D01*
X265697200Y-193000057D01*
X265697200Y-193142914D01*
X264982914Y-193285771D01*
X266197200Y-192785771D02*
X266554342Y-193785771D01*
X266911485Y-192785771D01*
X267482914Y-193642914D02*
X267554342Y-193714342D01*
X267482914Y-193785771D01*
X267411485Y-193714342D01*
X267482914Y-193642914D01*
X267482914Y-193785771D01*
X267482914Y-192857200D02*
X267554342Y-192928628D01*
X267482914Y-193000057D01*
X267411485Y-192928628D01*
X267482914Y-192857200D01*
X267482914Y-193000057D01*
D10*
D11*
X178362914Y-193714342D02*
X178577200Y-193785771D01*
X178934342Y-193785771D01*
X179077200Y-193714342D01*
X179148628Y-193642914D01*
X179220057Y-193500057D01*
X179220057Y-193357200D01*
X179148628Y-193214342D01*
X179077200Y-193142914D01*
X178934342Y-193071485D01*
X178648628Y-193000057D01*
X178505771Y-192928628D01*
X178434342Y-192857200D01*
X178362914Y-192714342D01*
X178362914Y-192571485D01*
X178434342Y-192428628D01*
X178505771Y-192357200D01*
X178648628Y-192285771D01*
X179005771Y-192285771D01*
X179220057Y-192357200D01*
X179862914Y-193785771D02*
X179862914Y-192785771D01*
X179862914Y-192285771D02*
X179791485Y-192357200D01*
X179862914Y-192428628D01*
X179934342Y-192357200D01*
X179862914Y-192285771D01*
X179862914Y-192428628D01*
X180434342Y-192785771D02*
X181220057Y-192785771D01*
X180434342Y-193785771D01*
X181220057Y-193785771D01*
X182362914Y-193714342D02*
X182220057Y-193785771D01*
X181934342Y-193785771D01*
X181791485Y-193714342D01*
X181720057Y-193571485D01*
X181720057Y-193000057D01*
X181791485Y-192857200D01*
X181934342Y-192785771D01*
X182220057Y-192785771D01*
X182362914Y-192857200D01*
X182434342Y-193000057D01*
X182434342Y-193142914D01*
X181720057Y-193285771D01*
X183077200Y-193642914D02*
X183148628Y-193714342D01*
X183077200Y-193785771D01*
X183005771Y-193714342D01*
X183077200Y-193642914D01*
X183077200Y-193785771D01*
X183077200Y-192857200D02*
X183148628Y-192928628D01*
X183077200Y-193000057D01*
X183005771Y-192928628D01*
X183077200Y-192857200D01*
X183077200Y-193000057D01*
X184862914Y-193357200D02*
X185577200Y-193357200D01*
X184720057Y-193785771D02*
X185220057Y-192285771D01*
X185720057Y-193785771D01*
X186862914Y-192785771D02*
X186862914Y-193785771D01*
X186505771Y-192214342D02*
X186148628Y-193285771D01*
X187077200Y-193285771D01*
D10*
D11*
X263434342Y-196585771D02*
X263434342Y-195085771D01*
X264791485Y-196585771D02*
X264791485Y-195085771D01*
X264791485Y-196514342D02*
X264648628Y-196585771D01*
X264362914Y-196585771D01*
X264220057Y-196514342D01*
X264148628Y-196442914D01*
X264077200Y-196300057D01*
X264077200Y-195871485D01*
X264148628Y-195728628D01*
X264220057Y-195657200D01*
X264362914Y-195585771D01*
X264648628Y-195585771D01*
X264791485Y-195657200D01*
X265505771Y-196442914D02*
X265577200Y-196514342D01*
X265505771Y-196585771D01*
X265434342Y-196514342D01*
X265505771Y-196442914D01*
X265505771Y-196585771D01*
X265505771Y-195657200D02*
X265577200Y-195728628D01*
X265505771Y-195800057D01*
X265434342Y-195728628D01*
X265505771Y-195657200D01*
X265505771Y-195800057D01*
X268148628Y-196585771D02*
X267291485Y-196585771D01*
X267720057Y-196585771D02*
X267720057Y-195085771D01*
X267577200Y-195300057D01*
X267434342Y-195442914D01*
X267291485Y-195514342D01*
X269862914Y-195014342D02*
X268577200Y-196942914D01*
X271148628Y-196585771D02*
X270291485Y-196585771D01*
X270720057Y-196585771D02*
X270720057Y-195085771D01*
X270577200Y-195300057D01*
X270434342Y-195442914D01*
X270291485Y-195514342D01*
D10*
D11*
X177002200Y-187507200D02*
X285002200Y-187507200D01*
D10*
D13*
X178714580Y-188211961D02*
X179857438Y-188211961D01*
X179036009Y-190211961D02*
X179286009Y-188211961D01*
X180274104Y-190211961D02*
X180440771Y-188878628D01*
X180524104Y-188211961D02*
X180416961Y-188307200D01*
X180500295Y-188402438D01*
X180607438Y-188307200D01*
X180524104Y-188211961D01*
X180500295Y-188402438D01*
X181107438Y-188878628D02*
X181869342Y-188878628D01*
X181476485Y-188211961D02*
X181262200Y-189926247D01*
X181333628Y-190116723D01*
X181512200Y-190211961D01*
X181702676Y-190211961D01*
X182655057Y-190211961D02*
X182476485Y-190116723D01*
X182405057Y-189926247D01*
X182619342Y-188211961D01*
X184190771Y-190116723D02*
X183988390Y-190211961D01*
X183607438Y-190211961D01*
X183428866Y-190116723D01*
X183357438Y-189926247D01*
X183452676Y-189164342D01*
X183571723Y-188973866D01*
X183774104Y-188878628D01*
X184155057Y-188878628D01*
X184333628Y-188973866D01*
X184405057Y-189164342D01*
X184381247Y-189354819D01*
X183405057Y-189545295D01*
X185155057Y-190021485D02*
X185238390Y-190116723D01*
X185131247Y-190211961D01*
X185047914Y-190116723D01*
X185155057Y-190021485D01*
X185131247Y-190211961D01*
X185286009Y-188973866D02*
X185369342Y-189069104D01*
X185262200Y-189164342D01*
X185178866Y-189069104D01*
X185286009Y-188973866D01*
X185262200Y-189164342D01*
D10*
D11*
X178934342Y-185600057D02*
X178434342Y-185600057D01*
X178434342Y-186385771D02*
X178434342Y-184885771D01*
X179148628Y-184885771D01*
X179720057Y-186385771D02*
X179720057Y-185385771D01*
X179720057Y-184885771D02*
X179648628Y-184957200D01*
X179720057Y-185028628D01*
X179791485Y-184957200D01*
X179720057Y-184885771D01*
X179720057Y-185028628D01*
X180648628Y-186385771D02*
X180505771Y-186314342D01*
X180434342Y-186171485D01*
X180434342Y-184885771D01*
X181791485Y-186314342D02*
X181648628Y-186385771D01*
X181362914Y-186385771D01*
X181220057Y-186314342D01*
X181148628Y-186171485D01*
X181148628Y-185600057D01*
X181220057Y-185457200D01*
X181362914Y-185385771D01*
X181648628Y-185385771D01*
X181791485Y-185457200D01*
X181862914Y-185600057D01*
X181862914Y-185742914D01*
X181148628Y-185885771D01*
X182505771Y-186242914D02*
X182577200Y-186314342D01*
X182505771Y-186385771D01*
X182434342Y-186314342D01*
X182505771Y-186242914D01*
X182505771Y-186385771D01*
X182505771Y-185457200D02*
X182577200Y-185528628D01*
X182505771Y-185600057D01*
X182434342Y-185528628D01*
X182505771Y-185457200D01*
X182505771Y-185600057D01*
X184220057Y-185385771D02*
X184577200Y-186385771D01*
X184934342Y-185385771D01*
X185362914Y-184885771D02*
X186291485Y-184885771D01*
X185791485Y-185457200D01*
X186005771Y-185457200D01*
X186148628Y-185528628D01*
X186220057Y-185600057D01*
X186291485Y-185742914D01*
X186291485Y-186100057D01*
X186220057Y-186242914D01*
X186148628Y-186314342D01*
X186005771Y-186385771D01*
X185577200Y-186385771D01*
X185434342Y-186314342D01*
X185362914Y-186242914D01*
X186934342Y-186242914D02*
X187005771Y-186314342D01*
X186934342Y-186385771D01*
X186862914Y-186314342D01*
X186934342Y-186242914D01*
X186934342Y-186385771D01*
X187648628Y-186385771D02*
X187648628Y-184885771D01*
X187791485Y-185814342D02*
X188220057Y-186385771D01*
X188220057Y-185385771D02*
X187648628Y-185957200D01*
X188862914Y-186385771D02*
X188862914Y-185385771D01*
X188862914Y-184885771D02*
X188791485Y-184957200D01*
X188862914Y-185028628D01*
X188934342Y-184957200D01*
X188862914Y-184885771D01*
X188862914Y-185028628D01*
X190220057Y-186314342D02*
X190077200Y-186385771D01*
X189791485Y-186385771D01*
X189648628Y-186314342D01*
X189577200Y-186242914D01*
X189505771Y-186100057D01*
X189505771Y-185671485D01*
X189577200Y-185528628D01*
X189648628Y-185457200D01*
X189791485Y-185385771D01*
X190077200Y-185385771D01*
X190220057Y-185457200D01*
X191505771Y-186385771D02*
X191505771Y-185600057D01*
X191434342Y-185457200D01*
X191291485Y-185385771D01*
X191005771Y-185385771D01*
X190862914Y-185457200D01*
X191505771Y-186314342D02*
X191362914Y-186385771D01*
X191005771Y-186385771D01*
X190862914Y-186314342D01*
X190791485Y-186171485D01*
X190791485Y-186028628D01*
X190862914Y-185885771D01*
X191005771Y-185814342D01*
X191362914Y-185814342D01*
X191505771Y-185742914D01*
X192862914Y-186385771D02*
X192862914Y-184885771D01*
X192862914Y-186314342D02*
X192720057Y-186385771D01*
X192434342Y-186385771D01*
X192291485Y-186314342D01*
X192220057Y-186242914D01*
X192148628Y-186100057D01*
X192148628Y-185671485D01*
X192220057Y-185528628D01*
X192291485Y-185457200D01*
X192434342Y-185385771D01*
X192720057Y-185385771D01*
X192862914Y-185457200D01*
X193220057Y-186528628D02*
X194362914Y-186528628D01*
X194720057Y-185385771D02*
X194720057Y-186885771D01*
X194720057Y-185457200D02*
X194862914Y-185385771D01*
X195148628Y-185385771D01*
X195291485Y-185457200D01*
X195362914Y-185528628D01*
X195434342Y-185671485D01*
X195434342Y-186100057D01*
X195362914Y-186242914D01*
X195291485Y-186314342D01*
X195148628Y-186385771D01*
X194862914Y-186385771D01*
X194720057Y-186314342D01*
X196720057Y-186314342D02*
X196577200Y-186385771D01*
X196291485Y-186385771D01*
X196148628Y-186314342D01*
X196077200Y-186242914D01*
X196005771Y-186100057D01*
X196005771Y-185671485D01*
X196077200Y-185528628D01*
X196148628Y-185457200D01*
X196291485Y-185385771D01*
X196577200Y-185385771D01*
X196720057Y-185457200D01*
X197362914Y-186385771D02*
X197362914Y-184885771D01*
X197362914Y-185457200D02*
X197505771Y-185385771D01*
X197791485Y-185385771D01*
X197934342Y-185457200D01*
X198005771Y-185528628D01*
X198077200Y-185671485D01*
X198077200Y-186100057D01*
X198005771Y-186242914D01*
X197934342Y-186314342D01*
X197791485Y-186385771D01*
X197505771Y-186385771D01*
X197362914Y-186314342D01*
D10*
D11*
X177002200Y-181507200D02*
X285002200Y-181507200D01*
D10*
D11*
X178362914Y-183614342D02*
X178577200Y-183685771D01*
X178934342Y-183685771D01*
X179077200Y-183614342D01*
X179148628Y-183542914D01*
X179220057Y-183400057D01*
X179220057Y-183257200D01*
X179148628Y-183114342D01*
X179077200Y-183042914D01*
X178934342Y-182971485D01*
X178648628Y-182900057D01*
X178505771Y-182828628D01*
X178434342Y-182757200D01*
X178362914Y-182614342D01*
X178362914Y-182471485D01*
X178434342Y-182328628D01*
X178505771Y-182257200D01*
X178648628Y-182185771D01*
X179005771Y-182185771D01*
X179220057Y-182257200D01*
X179862914Y-183685771D02*
X179862914Y-182185771D01*
X180505771Y-183685771D02*
X180505771Y-182900057D01*
X180434342Y-182757200D01*
X180291485Y-182685771D01*
X180077200Y-182685771D01*
X179934342Y-182757200D01*
X179862914Y-182828628D01*
X181791485Y-183614342D02*
X181648628Y-183685771D01*
X181362914Y-183685771D01*
X181220057Y-183614342D01*
X181148628Y-183471485D01*
X181148628Y-182900057D01*
X181220057Y-182757200D01*
X181362914Y-182685771D01*
X181648628Y-182685771D01*
X181791485Y-182757200D01*
X181862914Y-182900057D01*
X181862914Y-183042914D01*
X181148628Y-183185771D01*
X183077200Y-183614342D02*
X182934342Y-183685771D01*
X182648628Y-183685771D01*
X182505771Y-183614342D01*
X182434342Y-183471485D01*
X182434342Y-182900057D01*
X182505771Y-182757200D01*
X182648628Y-182685771D01*
X182934342Y-182685771D01*
X183077200Y-182757200D01*
X183148628Y-182900057D01*
X183148628Y-183042914D01*
X182434342Y-183185771D01*
X183577200Y-182685771D02*
X184148628Y-182685771D01*
X183791485Y-182185771D02*
X183791485Y-183471485D01*
X183862914Y-183614342D01*
X184005771Y-183685771D01*
X184148628Y-183685771D01*
X184648628Y-183542914D02*
X184720057Y-183614342D01*
X184648628Y-183685771D01*
X184577200Y-183614342D01*
X184648628Y-183542914D01*
X184648628Y-183685771D01*
X184648628Y-182757200D02*
X184720057Y-182828628D01*
X184648628Y-182900057D01*
X184577200Y-182828628D01*
X184648628Y-182757200D01*
X184648628Y-182900057D01*
D10*
D12*
D10*
D11*
D10*
D11*
D10*
D11*
D10*
D11*
D10*
D11*
X197002200Y-191507200D02*
X197002200Y-194507200D01*
D10*
D11*
X261002200Y-191507200D02*
X261002200Y-198007200D01*
D12*
X206450000Y-64457142D02*
X206378571Y-64314285D01*
X206378571Y-64100000D01*
X206450000Y-63885714D01*
X206592857Y-63742857D01*
X206735714Y-63671428D01*
X207021428Y-63600000D01*
X207235714Y-63600000D01*
X207521428Y-63671428D01*
X207664285Y-63742857D01*
X207807142Y-63885714D01*
X207878571Y-64100000D01*
X207878571Y-64242857D01*
X207807142Y-64457142D01*
X207735714Y-64528571D01*
X207235714Y-64528571D01*
X207235714Y-64242857D01*
X207878571Y-65171428D02*
X206378571Y-65171428D01*
X207878571Y-66028571D01*
X206378571Y-66028571D01*
X207878571Y-66742857D02*
X206378571Y-66742857D01*
X206378571Y-67100000D01*
X206450000Y-67314285D01*
X206592857Y-67457142D01*
X206735714Y-67528571D01*
X207021428Y-67600000D01*
X207235714Y-67600000D01*
X207521428Y-67528571D01*
X207664285Y-67457142D01*
X207807142Y-67314285D01*
X207878571Y-67100000D01*
X207878571Y-66742857D01*
X206378571Y-58199999D02*
X207878571Y-58699999D01*
X206378571Y-59199999D01*
X207735714Y-60557141D02*
X207807142Y-60485713D01*
X207878571Y-60271427D01*
X207878571Y-60128570D01*
X207807142Y-59914284D01*
X207664285Y-59771427D01*
X207521428Y-59699999D01*
X207235714Y-59628570D01*
X207021428Y-59628570D01*
X206735714Y-59699999D01*
X206592857Y-59771427D01*
X206450000Y-59914284D01*
X206378571Y-60128570D01*
X206378571Y-60271427D01*
X206450000Y-60485713D01*
X206521428Y-60557141D01*
X207735714Y-62057141D02*
X207807142Y-61985713D01*
X207878571Y-61771427D01*
X207878571Y-61628570D01*
X207807142Y-61414284D01*
X207664285Y-61271427D01*
X207521428Y-61199999D01*
X207235714Y-61128570D01*
X207021428Y-61128570D01*
X206735714Y-61199999D01*
X206592857Y-61271427D01*
X206450000Y-61414284D01*
X206378571Y-61628570D01*
X206378571Y-61771427D01*
X206450000Y-61985713D01*
X206521428Y-62057141D01*
X212850000Y-87478571D02*
X212850000Y-88192857D01*
X213278571Y-87335714D02*
X211778571Y-87835714D01*
X213278571Y-88335714D01*
X213135714Y-89692857D02*
X213207142Y-89621428D01*
X213278571Y-89407142D01*
X213278571Y-89264285D01*
X213207142Y-89050000D01*
X213064285Y-88907142D01*
X212921428Y-88835714D01*
X212635714Y-88764285D01*
X212421428Y-88764285D01*
X212135714Y-88835714D01*
X211992857Y-88907142D01*
X211850000Y-89050000D01*
X211778571Y-89264285D01*
X211778571Y-89407142D01*
X211850000Y-89621428D01*
X211921428Y-89692857D01*
X213421428Y-89978571D02*
X213421428Y-91121428D01*
X212850000Y-91407142D02*
X212850000Y-92121428D01*
X213278571Y-91264285D02*
X211778571Y-91764285D01*
X213278571Y-92264285D01*
X212850000Y-80171428D02*
X212850000Y-80885714D01*
X213278571Y-80028571D02*
X211778571Y-80528571D01*
X213278571Y-81028571D01*
X213135714Y-82385714D02*
X213207142Y-82314285D01*
X213278571Y-82100000D01*
X213278571Y-81957142D01*
X213207142Y-81742857D01*
X213064285Y-81600000D01*
X212921428Y-81528571D01*
X212635714Y-81457142D01*
X212421428Y-81457142D01*
X212135714Y-81528571D01*
X211992857Y-81600000D01*
X211850000Y-81742857D01*
X211778571Y-81957142D01*
X211778571Y-82100000D01*
X211850000Y-82314285D01*
X211921428Y-82385714D01*
X213421428Y-82671428D02*
X213421428Y-83814285D01*
X212492857Y-84671428D02*
X212564285Y-84885714D01*
X212635714Y-84957142D01*
X212778571Y-85028571D01*
X212992857Y-85028571D01*
X213135714Y-84957142D01*
X213207142Y-84885714D01*
X213278571Y-84742857D01*
X213278571Y-84171428D01*
X211778571Y-84171428D01*
X211778571Y-84671428D01*
X211850000Y-84814285D01*
X211921428Y-84885714D01*
X212064285Y-84957142D01*
X212207142Y-84957142D01*
X212350000Y-84885714D01*
X212421428Y-84814285D01*
X212492857Y-84671428D01*
X212492857Y-84171428D01*
X212850000Y-72371428D02*
X212850000Y-73085714D01*
X213278571Y-72228571D02*
X211778571Y-72728571D01*
X213278571Y-73228571D01*
X213135714Y-74585714D02*
X213207142Y-74514285D01*
X213278571Y-74300000D01*
X213278571Y-74157142D01*
X213207142Y-73942857D01*
X213064285Y-73800000D01*
X212921428Y-73728571D01*
X212635714Y-73657142D01*
X212421428Y-73657142D01*
X212135714Y-73728571D01*
X211992857Y-73800000D01*
X211850000Y-73942857D01*
X211778571Y-74157142D01*
X211778571Y-74300000D01*
X211850000Y-74514285D01*
X211921428Y-74585714D01*
X213421428Y-74871428D02*
X213421428Y-76014285D01*
X213135714Y-77228571D02*
X213207142Y-77157142D01*
X213278571Y-76942857D01*
X213278571Y-76800000D01*
X213207142Y-76585714D01*
X213064285Y-76442857D01*
X212921428Y-76371428D01*
X212635714Y-76300000D01*
X212421428Y-76300000D01*
X212135714Y-76371428D01*
X211992857Y-76442857D01*
X211850000Y-76585714D01*
X211778571Y-76800000D01*
X211778571Y-76942857D01*
X211850000Y-77157142D01*
X211921428Y-77228571D01*
X213050000Y-98914285D02*
X213050000Y-99628571D01*
X213478571Y-98771428D02*
X211978571Y-99271428D01*
X213478571Y-99771428D01*
X212907142Y-100271428D02*
X212907142Y-101414285D01*
X213478571Y-100842857D02*
X212335714Y-100842857D01*
X213050000Y-106714285D02*
X213050000Y-107428571D01*
X213478571Y-106571428D02*
X211978571Y-107071428D01*
X213478571Y-107571428D01*
X212907142Y-108071428D02*
X212907142Y-109214285D01*
X212850000Y-122914285D02*
X212850000Y-123628571D01*
X213278571Y-122771428D02*
X211778571Y-123271428D01*
X213278571Y-123771428D01*
X212707142Y-124271428D02*
X212707142Y-125414285D01*
X212064285Y-117064285D02*
X211992857Y-116992857D01*
X211921428Y-116778571D01*
X211921428Y-116635714D01*
X211992857Y-116421428D01*
X212135714Y-116278571D01*
X212278571Y-116207142D01*
X212564285Y-116135714D01*
X212778571Y-116135714D01*
X213064285Y-116207142D01*
X213207142Y-116278571D01*
X213350000Y-116421428D01*
X213421428Y-116635714D01*
X213421428Y-116778571D01*
X213350000Y-116992857D01*
X213278571Y-117064285D01*
D14*
X122500000Y-146500000D02*
X210000000Y-146500000D01*
X118000000Y-52000000D02*
X118000000Y-142000000D01*
X214500000Y-52000000D02*
G75*
G03*
X210000000Y-47500000I-4500000J0D01*
G01*
X214500000Y-142000000D02*
X214500000Y-52000000D01*
X210000000Y-146500000D02*
G75*
G03*
X214500000Y-142000000I0J4500000D01*
G01*
X122500000Y-47500000D02*
G75*
G03*
X118000000Y-52000000I0J-4500000D01*
G01*
X122500000Y-47500000D02*
X210000000Y-47500000D01*
X118000000Y-142000000D02*
G75*
G03*
X122500000Y-146500000I4500000J0D01*
G01*
D11*
%TO.C,U5*%
X139111904Y-79952380D02*
X139111904Y-80761904D01*
X139064285Y-80857142D01*
X139016666Y-80904761D01*
X138921428Y-80952380D01*
X138730952Y-80952380D01*
X138635714Y-80904761D01*
X138588095Y-80857142D01*
X138540476Y-80761904D01*
X138540476Y-79952380D01*
X137588095Y-79952380D02*
X138064285Y-79952380D01*
X138111904Y-80428571D01*
X138064285Y-80380952D01*
X137969047Y-80333333D01*
X137730952Y-80333333D01*
X137635714Y-80380952D01*
X137588095Y-80428571D01*
X137540476Y-80523809D01*
X137540476Y-80761904D01*
X137588095Y-80857142D01*
X137635714Y-80904761D01*
X137730952Y-80952380D01*
X137969047Y-80952380D01*
X138064285Y-80904761D01*
X138111904Y-80857142D01*
D15*
X146816666Y-66626190D02*
X146721428Y-66626190D01*
X146673809Y-66650000D01*
X146626190Y-66697619D01*
X146602380Y-66792857D01*
X146602380Y-66959523D01*
X146626190Y-67054761D01*
X146673809Y-67102380D01*
X146721428Y-67126190D01*
X146816666Y-67126190D01*
X146864285Y-67102380D01*
X146911904Y-67054761D01*
X146935714Y-66959523D01*
X146935714Y-66792857D01*
X146911904Y-66697619D01*
X146864285Y-66650000D01*
X146816666Y-66626190D01*
X146173809Y-66792857D02*
X146173809Y-67126190D01*
X146388095Y-66792857D02*
X146388095Y-67054761D01*
X146364285Y-67102380D01*
X146316666Y-67126190D01*
X146245238Y-67126190D01*
X146197619Y-67102380D01*
X146173809Y-67078571D01*
X146007142Y-66792857D02*
X145816666Y-66792857D01*
X145935714Y-66626190D02*
X145935714Y-67054761D01*
X145911904Y-67102380D01*
X145864285Y-67126190D01*
X145816666Y-67126190D01*
X150190476Y-85785714D02*
X149809523Y-85785714D01*
X149521428Y-66700000D02*
X149569047Y-66676190D01*
X149640476Y-66676190D01*
X149711904Y-66700000D01*
X149759523Y-66747619D01*
X149783333Y-66795238D01*
X149807142Y-66890476D01*
X149807142Y-66961904D01*
X149783333Y-67057142D01*
X149759523Y-67104761D01*
X149711904Y-67152380D01*
X149640476Y-67176190D01*
X149592857Y-67176190D01*
X149521428Y-67152380D01*
X149497619Y-67128571D01*
X149497619Y-66961904D01*
X149592857Y-66961904D01*
X149283333Y-66842857D02*
X149283333Y-67176190D01*
X149283333Y-66890476D02*
X149259523Y-66866666D01*
X149211904Y-66842857D01*
X149140476Y-66842857D01*
X149092857Y-66866666D01*
X149069047Y-66914285D01*
X149069047Y-67176190D01*
X148616666Y-67176190D02*
X148616666Y-66676190D01*
X148616666Y-67152380D02*
X148664285Y-67176190D01*
X148759523Y-67176190D01*
X148807142Y-67152380D01*
X148830952Y-67128571D01*
X148854761Y-67080952D01*
X148854761Y-66938095D01*
X148830952Y-66890476D01*
X148807142Y-66866666D01*
X148759523Y-66842857D01*
X148664285Y-66842857D01*
X148616666Y-66866666D01*
X143040476Y-85735714D02*
X142659523Y-85735714D01*
X142850000Y-85926190D02*
X142850000Y-85545238D01*
X144145238Y-66626190D02*
X143978571Y-67126190D01*
X143811904Y-66626190D01*
X143430952Y-67102380D02*
X143478571Y-67126190D01*
X143573809Y-67126190D01*
X143621428Y-67102380D01*
X143645238Y-67078571D01*
X143669047Y-67030952D01*
X143669047Y-66888095D01*
X143645238Y-66840476D01*
X143621428Y-66816666D01*
X143573809Y-66792857D01*
X143478571Y-66792857D01*
X143430952Y-66816666D01*
X143002380Y-67102380D02*
X143050000Y-67126190D01*
X143145238Y-67126190D01*
X143192857Y-67102380D01*
X143216666Y-67078571D01*
X143240476Y-67030952D01*
X143240476Y-66888095D01*
X143216666Y-66840476D01*
X143192857Y-66816666D01*
X143145238Y-66792857D01*
X143050000Y-66792857D01*
X143002380Y-66816666D01*
D11*
%TO.C,J11*%
X123362380Y-104640477D02*
X124076666Y-104640477D01*
X124219523Y-104592858D01*
X124314761Y-104497620D01*
X124362380Y-104354762D01*
X124362380Y-104259524D01*
X124362380Y-105640477D02*
X124362380Y-105069048D01*
X124362380Y-105354762D02*
X123362380Y-105354762D01*
X123505238Y-105259524D01*
X123600476Y-105164286D01*
X123648095Y-105069048D01*
X124362380Y-106592858D02*
X124362380Y-106021429D01*
X124362380Y-106307143D02*
X123362380Y-106307143D01*
X123505238Y-106211905D01*
X123600476Y-106116667D01*
X123648095Y-106021429D01*
%TO.C,C7*%
X169537641Y-134402834D02*
X169585260Y-134355215D01*
X169632879Y-134212358D01*
X169632879Y-134117120D01*
X169585260Y-133974262D01*
X169490022Y-133879024D01*
X169394784Y-133831405D01*
X169204308Y-133783786D01*
X169061451Y-133783786D01*
X168870975Y-133831405D01*
X168775737Y-133879024D01*
X168680499Y-133974262D01*
X168632879Y-134117120D01*
X168632879Y-134212358D01*
X168680499Y-134355215D01*
X168728118Y-134402834D01*
X168632879Y-134736167D02*
X168632879Y-135402834D01*
X169632879Y-134974262D01*
%TO.C,C6*%
X131607142Y-134333333D02*
X131654761Y-134285714D01*
X131702380Y-134142857D01*
X131702380Y-134047619D01*
X131654761Y-133904761D01*
X131559523Y-133809523D01*
X131464285Y-133761904D01*
X131273809Y-133714285D01*
X131130952Y-133714285D01*
X130940476Y-133761904D01*
X130845238Y-133809523D01*
X130750000Y-133904761D01*
X130702380Y-134047619D01*
X130702380Y-134142857D01*
X130750000Y-134285714D01*
X130797619Y-134333333D01*
X130702380Y-135190476D02*
X130702380Y-135000000D01*
X130750000Y-134904761D01*
X130797619Y-134857142D01*
X130940476Y-134761904D01*
X131130952Y-134714285D01*
X131511904Y-134714285D01*
X131607142Y-134761904D01*
X131654761Y-134809523D01*
X131702380Y-134904761D01*
X131702380Y-135095238D01*
X131654761Y-135190476D01*
X131607142Y-135238095D01*
X131511904Y-135285714D01*
X131273809Y-135285714D01*
X131178571Y-135238095D01*
X131130952Y-135190476D01*
X131083333Y-135095238D01*
X131083333Y-134904761D01*
X131130952Y-134809523D01*
X131178571Y-134761904D01*
X131273809Y-134714285D01*
%TO.C,J6*%
X141377380Y-66841666D02*
X142091666Y-66841666D01*
X142234523Y-66794047D01*
X142329761Y-66698809D01*
X142377380Y-66555952D01*
X142377380Y-66460714D01*
X141377380Y-67746428D02*
X141377380Y-67555952D01*
X141425000Y-67460714D01*
X141472619Y-67413095D01*
X141615476Y-67317857D01*
X141805952Y-67270238D01*
X142186904Y-67270238D01*
X142282142Y-67317857D01*
X142329761Y-67365476D01*
X142377380Y-67460714D01*
X142377380Y-67651190D01*
X142329761Y-67746428D01*
X142282142Y-67794047D01*
X142186904Y-67841666D01*
X141948809Y-67841666D01*
X141853571Y-67794047D01*
X141805952Y-67746428D01*
X141758333Y-67651190D01*
X141758333Y-67460714D01*
X141805952Y-67365476D01*
X141853571Y-67317857D01*
X141948809Y-67270238D01*
D16*
%TO.C,U5*%
X151900000Y-62900000D02*
X140900000Y-62900000D01*
X140900000Y-62900000D02*
X140900000Y-89900000D01*
X140900000Y-89900000D02*
X151900000Y-89900000D01*
X151900000Y-89900000D02*
X151900000Y-62900000D01*
X142900000Y-65400000D02*
X149900000Y-65400000D01*
X149900000Y-65400000D02*
X149900000Y-63700000D01*
X149900000Y-63700000D02*
X142900000Y-63700000D01*
X142900000Y-63700000D02*
X142900000Y-65400000D01*
X151400000Y-86300000D02*
X141400000Y-86300000D01*
X141400000Y-86300000D02*
X141400000Y-89700000D01*
X141400000Y-89700000D02*
X151400000Y-89700000D01*
X151400000Y-89700000D02*
X151400000Y-86300000D01*
X151700000Y-76900000D02*
G75*
G03*
X151700000Y-76900000I-1000000J0D01*
G01*
X143100000Y-76900000D02*
G75*
G03*
X143100000Y-76900000I-1000000J0D01*
G01*
%TO.C,J11*%
X116590000Y-103390001D02*
X116590000Y-102620001D01*
X117150000Y-105930001D02*
X117150000Y-104970001D01*
X122910000Y-102620001D02*
X116590000Y-102620001D01*
X117150000Y-108280001D02*
X117150000Y-107510001D01*
X122450000Y-108280001D02*
X122450000Y-102620001D01*
X122910000Y-108280001D02*
X122910000Y-102620001D01*
X116590000Y-105930001D02*
X116590000Y-104970001D01*
X116350000Y-108520001D02*
X116350000Y-108020001D01*
X117150000Y-103390001D02*
X117150000Y-102620001D01*
X116590000Y-108280001D02*
X116590000Y-107510001D01*
X122910000Y-108280001D02*
X116590000Y-108280001D01*
X117090000Y-108520001D02*
X116350000Y-108520001D01*
%TO.C,C7*%
X179553499Y-150049501D02*
X196307499Y-150049501D01*
X171432499Y-140650501D02*
X185690499Y-140650501D01*
X173602499Y-144769501D02*
X202258499Y-144769501D01*
X175030499Y-146529501D02*
X200830499Y-146529501D01*
X170438499Y-136330501D02*
X205422499Y-136330501D01*
X181735499Y-151049501D02*
X194125499Y-151049501D01*
X170681499Y-137970501D02*
X185690499Y-137970501D01*
X170950499Y-139130501D02*
X185690499Y-139130501D01*
X177703499Y-148889501D02*
X198157499Y-148889501D01*
X183802499Y-151689501D02*
X192058499Y-151689501D01*
X180855499Y-150689501D02*
X195005499Y-150689501D01*
X172942499Y-143769501D02*
X202918499Y-143769501D01*
X172131499Y-142290501D02*
X203729499Y-142290501D01*
X171537499Y-140930501D02*
X185690499Y-140930501D01*
X181841499Y-151089501D02*
X194019499Y-151089501D01*
X170705499Y-138090501D02*
X185690499Y-138090501D01*
X170586499Y-137450501D02*
X185690499Y-137450501D01*
X171997499Y-142010501D02*
X203863499Y-142010501D01*
X170376499Y-135530501D02*
X205484499Y-135530501D01*
X190170499Y-139170501D02*
X204899499Y-139170501D01*
X171731499Y-141410501D02*
X185690499Y-141410501D01*
X170628499Y-137690501D02*
X185690499Y-137690501D01*
X190170499Y-139690501D02*
X204750499Y-139690501D01*
X175256499Y-146769501D02*
X200604499Y-146769501D01*
X190170499Y-138610501D02*
X205041499Y-138610501D01*
X174110499Y-145449501D02*
X201750499Y-145449501D01*
X190170499Y-141010501D02*
X204291499Y-141010501D01*
X170363499Y-135249501D02*
X205497499Y-135249501D01*
X171924499Y-141850501D02*
X203936499Y-141850501D01*
X190170499Y-140290501D02*
X204556499Y-140290501D01*
X170473499Y-136650501D02*
X205387499Y-136650501D01*
X173688499Y-144889501D02*
X202172499Y-144889501D01*
X170929499Y-139050501D02*
X185690499Y-139050501D01*
X170555499Y-137250501D02*
X205305499Y-137250501D01*
X170643499Y-137770501D02*
X185690499Y-137770501D01*
X190170499Y-140610501D02*
X204443499Y-140610501D01*
X173435499Y-144529501D02*
X202425499Y-144529501D01*
X176815499Y-148209501D02*
X199045499Y-148209501D01*
X170621499Y-137650501D02*
X185690499Y-137650501D01*
X190170499Y-139010501D02*
X204942499Y-139010501D01*
X190170499Y-141650501D02*
X204025499Y-141650501D01*
X190170499Y-139610501D02*
X204774499Y-139610501D01*
X190170499Y-139450501D02*
X204821499Y-139450501D01*
X178055499Y-115715499D02*
X178055499Y-119215499D01*
X171098499Y-139650501D02*
X185690499Y-139650501D01*
X171210499Y-140010501D02*
X185690499Y-140010501D01*
X173955499Y-145249501D02*
X201905499Y-145249501D01*
X171236499Y-140090501D02*
X185690499Y-140090501D01*
X170908499Y-138970501D02*
X185690499Y-138970501D01*
X190170499Y-137530501D02*
X205260499Y-137530501D01*
X178165499Y-149209501D02*
X197695499Y-149209501D01*
X181527499Y-150969501D02*
X194333499Y-150969501D01*
X190170499Y-141610501D02*
X204043499Y-141610501D01*
X190170499Y-138050501D02*
X205163499Y-138050501D01*
X190170499Y-141170501D02*
X204228499Y-141170501D01*
X190170499Y-138210501D02*
X205130499Y-138210501D01*
X182175499Y-151209501D02*
X193685499Y-151209501D01*
X190170499Y-138010501D02*
X205171499Y-138010501D01*
X177538499Y-148769501D02*
X198322499Y-148769501D01*
X170393499Y-135810501D02*
X205467499Y-135810501D01*
X190170499Y-140010501D02*
X204650499Y-140010501D01*
X180171499Y-150369501D02*
X195689499Y-150369501D01*
X190170499Y-137410501D02*
X205280499Y-137410501D01*
X171086499Y-139610501D02*
X185690499Y-139610501D01*
X171584499Y-141050501D02*
X185690499Y-141050501D01*
X171122499Y-139730501D02*
X185690499Y-139730501D01*
X170361499Y-135209501D02*
X205499499Y-135209501D01*
X175491499Y-147009501D02*
X200369499Y-147009501D01*
X181950499Y-151129501D02*
X193910499Y-151129501D01*
X177592499Y-148809501D02*
X198268499Y-148809501D01*
X170468499Y-136610501D02*
X205392499Y-136610501D01*
X176670499Y-148089501D02*
X199190499Y-148089501D01*
X190170499Y-141770501D02*
X203972499Y-141770501D01*
X190170499Y-141090501D02*
X204260499Y-141090501D01*
X171016499Y-139370501D02*
X185690499Y-139370501D01*
X170415499Y-136090501D02*
X205445499Y-136090501D01*
X175946499Y-147449501D02*
X199914499Y-147449501D01*
X190170499Y-137690501D02*
X205232499Y-137690501D01*
X172704499Y-143369501D02*
X203156499Y-143369501D01*
X170689499Y-138010501D02*
X185690499Y-138010501D01*
X184732499Y-151889501D02*
X191128499Y-151889501D01*
X173631499Y-144809501D02*
X202229499Y-144809501D01*
X172190499Y-142410501D02*
X203670499Y-142410501D01*
X172893499Y-143689501D02*
X202967499Y-143689501D01*
X171197499Y-139970501D02*
X185690499Y-139970501D01*
X170351499Y-134769501D02*
X205509499Y-134769501D01*
X174205499Y-145569501D02*
X201655499Y-145569501D01*
X171388499Y-140530501D02*
X185690499Y-140530501D01*
X180418499Y-150489501D02*
X195442499Y-150489501D01*
X170434499Y-136290501D02*
X205426499Y-136290501D01*
X170600499Y-137530501D02*
X185690499Y-137530501D01*
X170738499Y-138250501D02*
X185690499Y-138250501D01*
X171005499Y-139330501D02*
X185690499Y-139330501D01*
X170487499Y-136770501D02*
X205373499Y-136770501D01*
X190170499Y-141730501D02*
X203990499Y-141730501D01*
X181327499Y-150889501D02*
X194533499Y-150889501D01*
X174884499Y-146369501D02*
X200976499Y-146369501D01*
X178346499Y-149329501D02*
X197514499Y-149329501D01*
X175612499Y-147129501D02*
X200248499Y-147129501D01*
X171461499Y-140730501D02*
X185690499Y-140730501D01*
X170446499Y-136410501D02*
X205414499Y-136410501D01*
X170773499Y-138410501D02*
X185690499Y-138410501D01*
X182917499Y-151449501D02*
X192943499Y-151449501D01*
X181134499Y-150809501D02*
X194726499Y-150809501D01*
X170519499Y-137010501D02*
X205341499Y-137010501D01*
X172111499Y-142250501D02*
X203749499Y-142250501D01*
X174742499Y-146209501D02*
X201118499Y-146209501D01*
X177219499Y-148529501D02*
X198641499Y-148529501D01*
X190170499Y-140090501D02*
X204624499Y-140090501D01*
X170360499Y-135169501D02*
X205500499Y-135169501D01*
X172459499Y-142929501D02*
X203401499Y-142929501D01*
X170450499Y-136450501D02*
X205410499Y-136450501D01*
X171782499Y-141530501D02*
X185690499Y-141530501D01*
X173247499Y-144249501D02*
X202613499Y-144249501D01*
X175142499Y-146649501D02*
X200718499Y-146649501D01*
X174848499Y-146329501D02*
X201012499Y-146329501D01*
X173546499Y-144689501D02*
X202314499Y-144689501D01*
X190170499Y-140370501D02*
X204529499Y-140370501D01*
X190170499Y-139930501D02*
X204675499Y-139930501D01*
X190170499Y-138810501D02*
X204993499Y-138810501D01*
X190170499Y-137930501D02*
X205187499Y-137930501D01*
X170412499Y-136050501D02*
X205448499Y-136050501D01*
X171250499Y-140130501D02*
X185690499Y-140130501D01*
X190170499Y-140730501D02*
X204399499Y-140730501D01*
X179195499Y-149849501D02*
X196665499Y-149849501D01*
X190170499Y-141490501D02*
X204095499Y-141490501D01*
X190170499Y-140530501D02*
X204472499Y-140530501D01*
X176119499Y-147609501D02*
X199741499Y-147609501D01*
X175903499Y-147409501D02*
X199957499Y-147409501D01*
X186095499Y-152089501D02*
X189765499Y-152089501D01*
X173805499Y-145049501D02*
X202055499Y-145049501D01*
X173518499Y-144649501D02*
X202342499Y-144649501D01*
X172569499Y-143129501D02*
X203291499Y-143129501D01*
X170897499Y-138930501D02*
X185690499Y-138930501D01*
X176164499Y-147649501D02*
X199696499Y-147649501D01*
X186517499Y-152129501D02*
X189343499Y-152129501D01*
X171147499Y-139810501D02*
X185690499Y-139810501D01*
X170939499Y-139090501D02*
X185690499Y-139090501D01*
X171074499Y-139570501D02*
X185690499Y-139570501D01*
X170383499Y-135650501D02*
X205477499Y-135650501D01*
X171507499Y-140850501D02*
X185690499Y-140850501D01*
X178285499Y-149289501D02*
X197575499Y-149289501D01*
X190170499Y-138930501D02*
X204963499Y-138930501D01*
X175989499Y-147489501D02*
X199871499Y-147489501D01*
X170887499Y-138890501D02*
X185690499Y-138890501D01*
X179932499Y-150249501D02*
X195928499Y-150249501D01*
X190170499Y-139570501D02*
X204786499Y-139570501D01*
X171569499Y-141010501D02*
X185690499Y-141010501D01*
X171374499Y-140490501D02*
X185690499Y-140490501D01*
X190170499Y-139810501D02*
X204713499Y-139810501D01*
X190170499Y-141410501D02*
X204129499Y-141410501D01*
X171870499Y-141730501D02*
X185690499Y-141730501D01*
X180335499Y-150449501D02*
X195525499Y-150449501D01*
X182657499Y-151369501D02*
X193203499Y-151369501D01*
X176623499Y-148049501D02*
X199237499Y-148049501D01*
X183641499Y-151649501D02*
X192219499Y-151649501D01*
X170459499Y-136530501D02*
X205401499Y-136530501D01*
X190170499Y-140850501D02*
X204353499Y-140850501D01*
X170993499Y-139290501D02*
X185690499Y-139290501D01*
X171318499Y-140330501D02*
X185690499Y-140330501D01*
X175180499Y-146689501D02*
X200680499Y-146689501D01*
X190170499Y-140170501D02*
X204597499Y-140170501D01*
X170390499Y-135770501D02*
X205470499Y-135770501D01*
X176528499Y-147969501D02*
X199332499Y-147969501D01*
X170463499Y-136570501D02*
X205397499Y-136570501D01*
X171050499Y-139490501D02*
X185690499Y-139490501D01*
X173407499Y-144489501D02*
X202453499Y-144489501D01*
X172353499Y-142730501D02*
X203507499Y-142730501D01*
X171979499Y-141970501D02*
X203881499Y-141970501D01*
X190170499Y-139890501D02*
X204688499Y-139890501D01*
X175819499Y-147329501D02*
X200041499Y-147329501D01*
X174016499Y-145329501D02*
X201844499Y-145329501D01*
X190170499Y-138170501D02*
X205139499Y-138170501D01*
X190170499Y-140930501D02*
X204323499Y-140930501D01*
X175653499Y-147169501D02*
X200207499Y-147169501D01*
X173092499Y-144009501D02*
X202768499Y-144009501D01*
X173895499Y-145169501D02*
X201965499Y-145169501D01*
X185194499Y-151969501D02*
X190666499Y-151969501D01*
X183337499Y-151569501D02*
X192523499Y-151569501D01*
X190170499Y-141050501D02*
X204276499Y-141050501D01*
X190170499Y-138850501D02*
X204983499Y-138850501D01*
X171906499Y-141810501D02*
X203954499Y-141810501D01*
X177872499Y-149009501D02*
X197988499Y-149009501D01*
X171062499Y-139530501D02*
X185690499Y-139530501D01*
X172524499Y-143049501D02*
X203336499Y-143049501D01*
X170838499Y-138690501D02*
X185690499Y-138690501D01*
X190170499Y-139090501D02*
X204921499Y-139090501D01*
X171223499Y-140050501D02*
X185690499Y-140050501D01*
X190170499Y-141530501D02*
X204078499Y-141530501D01*
X190170499Y-138690501D02*
X205022499Y-138690501D01*
X172967499Y-143809501D02*
X202893499Y-143809501D01*
X170867499Y-138810501D02*
X185690499Y-138810501D01*
X170961499Y-139170501D02*
X185690499Y-139170501D01*
X175105499Y-146609501D02*
X200755499Y-146609501D01*
X172845499Y-143609501D02*
X203015499Y-143609501D01*
X174237499Y-145609501D02*
X201623499Y-145609501D01*
X173574499Y-144729501D02*
X202286499Y-144729501D01*
X170355499Y-135009501D02*
X205505499Y-135009501D01*
X190170499Y-139250501D02*
X204878499Y-139250501D01*
X170918499Y-139010501D02*
X185690499Y-139010501D01*
X170370499Y-135410501D02*
X205490499Y-135410501D01*
X174813499Y-146289501D02*
X201047499Y-146289501D01*
X183052499Y-151489501D02*
X192808499Y-151489501D01*
X172073499Y-142170501D02*
X203787499Y-142170501D01*
X178660499Y-149529501D02*
X197200499Y-149529501D01*
X170380499Y-135610501D02*
X205480499Y-135610501D01*
X175571499Y-147089501D02*
X200289499Y-147089501D01*
X171446499Y-140690501D02*
X185690499Y-140690501D01*
X170567499Y-137330501D02*
X185690499Y-137330501D01*
X182785499Y-151409501D02*
X193075499Y-151409501D01*
X174302499Y-145689501D02*
X201558499Y-145689501D01*
X170573499Y-137370501D02*
X185690499Y-137370501D01*
X175067499Y-146569501D02*
X200793499Y-146569501D01*
X176298499Y-147769501D02*
X199562499Y-147769501D01*
X183970499Y-151729501D02*
X191890499Y-151729501D01*
X172727499Y-143409501D02*
X203133499Y-143409501D01*
X170351499Y-134809501D02*
X205509499Y-134809501D01*
X170353499Y-134929501D02*
X205507499Y-134929501D01*
X190170499Y-140130501D02*
X204610499Y-140130501D01*
X180677499Y-150609501D02*
X195183499Y-150609501D01*
X190170499Y-139290501D02*
X204867499Y-139290501D01*
X178046499Y-149129501D02*
X197814499Y-149129501D01*
X176718499Y-148129501D02*
X199142499Y-148129501D01*
X176767499Y-148169501D02*
X199093499Y-148169501D01*
X172636499Y-143249501D02*
X203224499Y-143249501D01*
X170402499Y-135930501D02*
X205458499Y-135930501D01*
X190170499Y-137330501D02*
X205293499Y-137330501D01*
X170350499Y-134609501D02*
X205510499Y-134609501D01*
X178922499Y-149689501D02*
X196938499Y-149689501D01*
X190170499Y-139770501D02*
X204726499Y-139770501D01*
X190170499Y-139850501D02*
X204701499Y-139850501D01*
X190170499Y-137850501D02*
X205203499Y-137850501D01*
X172774499Y-143489501D02*
X203086499Y-143489501D01*
X181040499Y-150769501D02*
X194820499Y-150769501D01*
X172751499Y-143449501D02*
X203109499Y-143449501D01*
X170580499Y-137410501D02*
X185690499Y-137410501D01*
X171632499Y-141170501D02*
X185690499Y-141170501D01*
X170828499Y-138650501D02*
X185690499Y-138650501D01*
X175861499Y-147369501D02*
X199999499Y-147369501D01*
X190170499Y-139530501D02*
X204798499Y-139530501D01*
X190170499Y-138650501D02*
X205032499Y-138650501D01*
X173300499Y-144329501D02*
X202560499Y-144329501D01*
X180765499Y-150649501D02*
X195095499Y-150649501D01*
X172374499Y-142769501D02*
X203486499Y-142769501D01*
X170358499Y-135129501D02*
X205502499Y-135129501D01*
X190170499Y-138490501D02*
X205069499Y-138490501D01*
X182291499Y-151249501D02*
X193569499Y-151249501D01*
X185753499Y-152049501D02*
X190107499Y-152049501D01*
X190170499Y-141450501D02*
X204112499Y-141450501D01*
X180503499Y-150529501D02*
X195357499Y-150529501D01*
X179778499Y-150169501D02*
X196082499Y-150169501D01*
X170356499Y-135049501D02*
X205504499Y-135049501D01*
X170408499Y-136010501D02*
X205452499Y-136010501D01*
X172502499Y-143009501D02*
X203358499Y-143009501D01*
X174334499Y-145729501D02*
X201526499Y-145729501D01*
X190170499Y-140490501D02*
X204486499Y-140490501D01*
X170503499Y-136890501D02*
X205357499Y-136890501D01*
X171835499Y-141650501D02*
X185690499Y-141650501D01*
X173380499Y-144449501D02*
X202480499Y-144449501D01*
X178470499Y-149409501D02*
X197390499Y-149409501D01*
X172170499Y-142370501D02*
X203690499Y-142370501D01*
X178533499Y-149449501D02*
X197327499Y-149449501D01*
X190170499Y-140410501D02*
X204515499Y-140410501D01*
X190170499Y-138890501D02*
X204973499Y-138890501D01*
X179126499Y-149809501D02*
X196734499Y-149809501D01*
X179854499Y-150209501D02*
X196006499Y-150209501D01*
X190170499Y-137970501D02*
X205179499Y-137970501D01*
X190170499Y-139730501D02*
X204738499Y-139730501D01*
X173865499Y-145129501D02*
X201995499Y-145129501D01*
X176253499Y-147729501D02*
X199607499Y-147729501D01*
X190170499Y-141330501D02*
X204162499Y-141330501D01*
X177376499Y-148649501D02*
X198484499Y-148649501D01*
X180010499Y-150289501D02*
X195850499Y-150289501D01*
X170542499Y-137170501D02*
X205318499Y-137170501D01*
X190170499Y-141250501D02*
X204195499Y-141250501D01*
X174079499Y-145409501D02*
X201781499Y-145409501D01*
X174637499Y-146089501D02*
X201223499Y-146089501D01*
X174400499Y-145809501D02*
X201460499Y-145809501D01*
X174433499Y-145849501D02*
X201427499Y-145849501D01*
X190170499Y-137730501D02*
X205225499Y-137730501D01*
X190170499Y-139490501D02*
X204810499Y-139490501D01*
X170357499Y-135089501D02*
X205503499Y-135089501D01*
X171765499Y-141490501D02*
X185690499Y-141490501D01*
X177065499Y-148409501D02*
X198795499Y-148409501D01*
X176305499Y-117465499D02*
X179805499Y-117465499D01*
X182062499Y-151169501D02*
X193798499Y-151169501D01*
X178725499Y-149569501D02*
X197135499Y-149569501D01*
X174173499Y-145529501D02*
X201687499Y-145529501D01*
X182410499Y-151289501D02*
X193450499Y-151289501D01*
X174993499Y-146489501D02*
X200867499Y-146489501D01*
X183192499Y-151529501D02*
X192668499Y-151529501D01*
X190170499Y-139410501D02*
X204833499Y-139410501D01*
X170800499Y-138530501D02*
X185690499Y-138530501D01*
X174467499Y-145889501D02*
X201393499Y-145889501D01*
X172016499Y-142050501D02*
X203844499Y-142050501D01*
X170371499Y-135450501D02*
X205489499Y-135450501D01*
X171600499Y-141090501D02*
X185690499Y-141090501D01*
X170635499Y-137730501D02*
X185690499Y-137730501D01*
X171800499Y-141570501D02*
X185690499Y-141570501D01*
X171027499Y-139410501D02*
X185690499Y-139410501D01*
X170791499Y-138490501D02*
X185690499Y-138490501D01*
X190170499Y-140050501D02*
X204637499Y-140050501D01*
X172546499Y-143089501D02*
X203314499Y-143089501D01*
X170350499Y-134569501D02*
X205510499Y-134569501D01*
X170396499Y-135850501D02*
X205464499Y-135850501D01*
X171159499Y-139850501D02*
X185690499Y-139850501D01*
X190170499Y-138770501D02*
X205003499Y-138770501D01*
X170982499Y-139250501D02*
X185690499Y-139250501D01*
X173462499Y-144569501D02*
X202398499Y-144569501D01*
X190170499Y-140450501D02*
X204500499Y-140450501D01*
X174534499Y-145969501D02*
X201326499Y-145969501D01*
X175531499Y-147049501D02*
X200329499Y-147049501D01*
X170478499Y-136690501D02*
X205382499Y-136690501D01*
X170697499Y-138050501D02*
X185690499Y-138050501D01*
X173168499Y-144129501D02*
X202692499Y-144129501D01*
X190170499Y-139650501D02*
X204762499Y-139650501D01*
X171345499Y-140410501D02*
X185690499Y-140410501D01*
X174269499Y-145649501D02*
X201591499Y-145649501D01*
X170405499Y-135970501D02*
X205455499Y-135970501D01*
X176481499Y-147929501D02*
X199379499Y-147929501D01*
X190170499Y-140210501D02*
X204583499Y-140210501D01*
X171290499Y-140250501D02*
X185690499Y-140250501D01*
X190170499Y-138570501D02*
X205050499Y-138570501D01*
X180947499Y-150729501D02*
X194913499Y-150729501D01*
X173986499Y-145289501D02*
X201874499Y-145289501D01*
X174568499Y-146009501D02*
X201292499Y-146009501D01*
X170368499Y-135370501D02*
X205492499Y-135370501D01*
X190170499Y-138970501D02*
X204952499Y-138970501D01*
X176032499Y-147529501D02*
X199828499Y-147529501D01*
X173717499Y-144929501D02*
X202143499Y-144929501D01*
X172250499Y-142530501D02*
X203610499Y-142530501D01*
X174672499Y-146129501D02*
X201188499Y-146129501D01*
X171263499Y-140170501D02*
X185690499Y-140170501D01*
X171681499Y-141290501D02*
X185690499Y-141290501D01*
X190170499Y-141130501D02*
X204244499Y-141130501D01*
X175295499Y-146809501D02*
X200565499Y-146809501D01*
X176575499Y-148009501D02*
X199285499Y-148009501D01*
X171491499Y-140810501D02*
X185690499Y-140810501D01*
X172311499Y-142650501D02*
X203549499Y-142650501D01*
X172591499Y-143169501D02*
X203269499Y-143169501D01*
X170350499Y-134649501D02*
X205510499Y-134649501D01*
X171172499Y-139890501D02*
X185690499Y-139890501D01*
X170508499Y-136930501D02*
X205352499Y-136930501D01*
X177759499Y-148929501D02*
X198101499Y-148929501D01*
X171110499Y-139690501D02*
X185690499Y-139690501D01*
X172681499Y-143329501D02*
X203179499Y-143329501D01*
X190170499Y-137570501D02*
X205253499Y-137570501D01*
X172054499Y-142130501D02*
X203806499Y-142130501D01*
X172395499Y-142809501D02*
X203465499Y-142809501D01*
X170442499Y-136370501D02*
X205418499Y-136370501D01*
X170454499Y-136490501D02*
X205406499Y-136490501D01*
X170430499Y-136250501D02*
X205430499Y-136250501D01*
X182532499Y-151329501D02*
X193328499Y-151329501D01*
X173220499Y-144209501D02*
X202640499Y-144209501D01*
X170819499Y-138610501D02*
X185690499Y-138610501D01*
X173353499Y-144409501D02*
X202507499Y-144409501D01*
X171553499Y-140970501D02*
X185690499Y-140970501D01*
X170426499Y-136210501D02*
X205434499Y-136210501D01*
X190170499Y-139370501D02*
X204844499Y-139370501D01*
X177430499Y-148689501D02*
X198430499Y-148689501D01*
X171304499Y-140290501D02*
X185690499Y-140290501D01*
X170877499Y-138850501D02*
X185690499Y-138850501D01*
X170614499Y-137610501D02*
X185690499Y-137610501D01*
X180589499Y-150569501D02*
X195271499Y-150569501D01*
X172092499Y-142210501D02*
X203768499Y-142210501D01*
X171748499Y-141450501D02*
X185690499Y-141450501D01*
X172613499Y-143209501D02*
X203247499Y-143209501D01*
X190170499Y-139970501D02*
X204663499Y-139970501D01*
X173273499Y-144289501D02*
X202587499Y-144289501D01*
X170782499Y-138450501D02*
X185690499Y-138450501D01*
X190170499Y-141370501D02*
X204145499Y-141370501D01*
X174777499Y-146249501D02*
X201083499Y-146249501D01*
X181630499Y-151009501D02*
X194230499Y-151009501D01*
X174957499Y-146449501D02*
X200903499Y-146449501D01*
X173066499Y-143969501D02*
X202794499Y-143969501D01*
X179480499Y-150009501D02*
X196380499Y-150009501D01*
X174367499Y-145769501D02*
X201493499Y-145769501D01*
X170514499Y-136970501D02*
X205346499Y-136970501D01*
X179702499Y-150129501D02*
X196158499Y-150129501D01*
X190170499Y-138450501D02*
X205078499Y-138450501D01*
X171942499Y-141890501D02*
X203918499Y-141890501D01*
X170561499Y-137290501D02*
X205299499Y-137290501D01*
X174707499Y-146169501D02*
X201153499Y-146169501D01*
X170971499Y-139210501D02*
X185690499Y-139210501D01*
X178596499Y-149489501D02*
X197264499Y-149489501D01*
X190170499Y-141570501D02*
X204060499Y-141570501D01*
X184330499Y-151809501D02*
X191530499Y-151809501D01*
X170525499Y-137050501D02*
X205335499Y-137050501D01*
X170388499Y-135730501D02*
X205472499Y-135730501D01*
X172798499Y-143529501D02*
X203062499Y-143529501D01*
X175694499Y-147209501D02*
X200166499Y-147209501D01*
X170354499Y-134969501D02*
X205506499Y-134969501D01*
X190170499Y-137650501D02*
X205239499Y-137650501D01*
X175218499Y-146729501D02*
X200642499Y-146729501D01*
X171888499Y-141770501D02*
X185690499Y-141770501D01*
X190170499Y-138530501D02*
X205060499Y-138530501D01*
X190170499Y-140770501D02*
X204384499Y-140770501D01*
X170607499Y-137570501D02*
X185690499Y-137570501D01*
X171960499Y-141930501D02*
X203900499Y-141930501D01*
X171649499Y-141210501D02*
X185690499Y-141210501D01*
X171698499Y-141330501D02*
X185690499Y-141330501D01*
X184954499Y-151929501D02*
X190906499Y-151929501D01*
X170593499Y-137490501D02*
X185690499Y-137490501D01*
X171403499Y-140570501D02*
X185690499Y-140570501D01*
X170713499Y-138130501D02*
X185690499Y-138130501D01*
X171817499Y-141610501D02*
X185690499Y-141610501D01*
X174920499Y-146409501D02*
X200940499Y-146409501D01*
X173194499Y-144169501D02*
X202666499Y-144169501D01*
X173490499Y-144609501D02*
X202370499Y-144609501D01*
X173659499Y-144849501D02*
X202201499Y-144849501D01*
X170399499Y-135890501D02*
X205461499Y-135890501D01*
X178856499Y-149649501D02*
X197004499Y-149649501D01*
X173326499Y-144369501D02*
X202534499Y-144369501D01*
X171185499Y-139930501D02*
X185690499Y-139930501D01*
X190170499Y-137810501D02*
X205210499Y-137810501D01*
X170673499Y-137930501D02*
X185690499Y-137930501D01*
X175412499Y-146929501D02*
X200448499Y-146929501D01*
X175735499Y-147249501D02*
X200125499Y-147249501D01*
X170657499Y-137850501D02*
X185690499Y-137850501D01*
X172438499Y-142889501D02*
X203422499Y-142889501D01*
X171277499Y-140210501D02*
X185690499Y-140210501D01*
X176343499Y-147809501D02*
X199517499Y-147809501D01*
X172659499Y-143289501D02*
X203201499Y-143289501D01*
X190170499Y-140690501D02*
X204414499Y-140690501D01*
X190170499Y-139050501D02*
X204931499Y-139050501D01*
X190170499Y-137450501D02*
X205274499Y-137450501D01*
X175334499Y-146849501D02*
X200526499Y-146849501D01*
X170350499Y-134729501D02*
X205510499Y-134729501D01*
X190170499Y-140890501D02*
X204338499Y-140890501D01*
X177271499Y-148569501D02*
X198589499Y-148569501D01*
X179627499Y-150089501D02*
X196233499Y-150089501D01*
X172481499Y-142969501D02*
X203379499Y-142969501D01*
X187130499Y-152169501D02*
X188730499Y-152169501D01*
X174603499Y-146049501D02*
X201257499Y-146049501D01*
X170366499Y-135330501D02*
X205494499Y-135330501D01*
X190170499Y-137610501D02*
X205246499Y-137610501D01*
X170422499Y-136170501D02*
X205438499Y-136170501D01*
X175373499Y-146889501D02*
X200487499Y-146889501D01*
X171134499Y-139770501D02*
X185690499Y-139770501D01*
X177988499Y-149089501D02*
X197872499Y-149089501D01*
X171852499Y-141690501D02*
X185690499Y-141690501D01*
X170721499Y-138170501D02*
X185690499Y-138170501D01*
X190170499Y-140570501D02*
X204457499Y-140570501D01*
X190170499Y-139210501D02*
X204889499Y-139210501D01*
X179265499Y-149889501D02*
X196595499Y-149889501D01*
X170385499Y-135690501D02*
X205475499Y-135690501D01*
X178990499Y-149729501D02*
X196870499Y-149729501D01*
X171331499Y-140370501D02*
X185690499Y-140370501D01*
X176864499Y-148249501D02*
X198996499Y-148249501D01*
X190170499Y-141690501D02*
X204008499Y-141690501D01*
X171715499Y-141370501D02*
X185690499Y-141370501D01*
X170378499Y-135570501D02*
X205482499Y-135570501D01*
X171476499Y-140770501D02*
X185690499Y-140770501D01*
X184525499Y-151849501D02*
X191335499Y-151849501D01*
X177930499Y-149049501D02*
X197930499Y-149049501D01*
X172230499Y-142490501D02*
X203630499Y-142490501D01*
X181230499Y-150849501D02*
X194630499Y-150849501D01*
X172869499Y-143649501D02*
X202991499Y-143649501D01*
X177483499Y-148729501D02*
X198377499Y-148729501D01*
X190170499Y-140330501D02*
X204542499Y-140330501D01*
X175451499Y-146969501D02*
X200409499Y-146969501D01*
X170747499Y-138290501D02*
X185690499Y-138290501D01*
X190170499Y-140810501D02*
X204369499Y-140810501D01*
X190170499Y-138370501D02*
X205096499Y-138370501D01*
X185457499Y-152009501D02*
X190403499Y-152009501D01*
X190170499Y-138290501D02*
X205113499Y-138290501D01*
X181426499Y-150929501D02*
X194434499Y-150929501D01*
X190170499Y-139130501D02*
X204910499Y-139130501D01*
X172991499Y-143849501D02*
X202869499Y-143849501D01*
X175777499Y-147289501D02*
X200083499Y-147289501D01*
X176964499Y-148329501D02*
X198896499Y-148329501D01*
X171039499Y-139450501D02*
X185690499Y-139450501D01*
X190170499Y-140650501D02*
X204428499Y-140650501D01*
X183486499Y-151609501D02*
X192374499Y-151609501D01*
X177115499Y-148449501D02*
X198745499Y-148449501D01*
X190170499Y-138090501D02*
X205155499Y-138090501D01*
X170548499Y-137210501D02*
X205312499Y-137210501D01*
X190170499Y-137490501D02*
X205267499Y-137490501D01*
X170755499Y-138330501D02*
X185690499Y-138330501D01*
X171360499Y-140450501D02*
X185690499Y-140450501D01*
X170374499Y-135490501D02*
X205486499Y-135490501D01*
X179057499Y-149769501D02*
X196803499Y-149769501D01*
X173835499Y-145089501D02*
X202025499Y-145089501D01*
X179336499Y-149929501D02*
X196524499Y-149929501D01*
X173117499Y-144049501D02*
X202743499Y-144049501D01*
X178105499Y-149169501D02*
X197755499Y-149169501D01*
X190170499Y-141210501D02*
X204211499Y-141210501D01*
X171665499Y-141250501D02*
X185690499Y-141250501D01*
X190170499Y-140970501D02*
X204307499Y-140970501D01*
X178790499Y-149609501D02*
X197070499Y-149609501D01*
X172918499Y-143729501D02*
X202942499Y-143729501D01*
X170492499Y-136810501D02*
X205368499Y-136810501D01*
X177323499Y-148609501D02*
X198537499Y-148609501D01*
X176435499Y-147889501D02*
X199425499Y-147889501D01*
X174500499Y-145929501D02*
X201360499Y-145929501D01*
X179408499Y-149969501D02*
X196452499Y-149969501D01*
X171417499Y-140610501D02*
X185690499Y-140610501D01*
X170352499Y-134849501D02*
X205508499Y-134849501D01*
X170536499Y-137130501D02*
X205324499Y-137130501D01*
X178225499Y-149249501D02*
X197635499Y-149249501D01*
X190170499Y-138130501D02*
X205147499Y-138130501D01*
X170848499Y-138730501D02*
X185690499Y-138730501D01*
X170352499Y-134889501D02*
X205508499Y-134889501D01*
X190170499Y-138730501D02*
X205012499Y-138730501D01*
X177815499Y-148969501D02*
X198045499Y-148969501D01*
X170419499Y-136130501D02*
X205441499Y-136130501D01*
X184145499Y-151769501D02*
X191715499Y-151769501D01*
X173775499Y-145009501D02*
X202085499Y-145009501D01*
X190170499Y-137370501D02*
X205287499Y-137370501D01*
X180252499Y-150409501D02*
X195608499Y-150409501D01*
X190170499Y-138250501D02*
X205122499Y-138250501D01*
X190170499Y-137890501D02*
X205195499Y-137890501D01*
X171522499Y-140890501D02*
X185690499Y-140890501D01*
X172332499Y-142690501D02*
X203528499Y-142690501D01*
X172150499Y-142330501D02*
X203710499Y-142330501D01*
X173925499Y-145209501D02*
X201935499Y-145209501D01*
X170531499Y-137090501D02*
X205329499Y-137090501D01*
X178408499Y-149369501D02*
X197452499Y-149369501D01*
X170482499Y-136730501D02*
X205378499Y-136730501D01*
X170364499Y-135290501D02*
X205496499Y-135290501D01*
X190170499Y-140250501D02*
X204570499Y-140250501D01*
X173041499Y-143929501D02*
X202819499Y-143929501D01*
X170665499Y-137890501D02*
X185690499Y-137890501D01*
X170498499Y-136850501D02*
X205362499Y-136850501D01*
X174047499Y-145369501D02*
X201813499Y-145369501D01*
X172210499Y-142450501D02*
X203650499Y-142450501D01*
X170810499Y-138570501D02*
X185690499Y-138570501D01*
X172270499Y-142570501D02*
X203590499Y-142570501D01*
X172035499Y-142090501D02*
X203825499Y-142090501D01*
X177647499Y-148849501D02*
X198213499Y-148849501D01*
X190170499Y-138410501D02*
X205087499Y-138410501D01*
X190170499Y-138330501D02*
X205105499Y-138330501D01*
X170764499Y-138370501D02*
X185690499Y-138370501D01*
X190170499Y-137770501D02*
X205217499Y-137770501D01*
X180090499Y-150329501D02*
X195770499Y-150329501D01*
X190170499Y-141290501D02*
X204179499Y-141290501D01*
X176076499Y-147569501D02*
X199784499Y-147569501D01*
X172416499Y-142849501D02*
X203444499Y-142849501D01*
X173016499Y-143889501D02*
X202844499Y-143889501D01*
X172291499Y-142610501D02*
X203569499Y-142610501D01*
X176914499Y-148289501D02*
X198946499Y-148289501D01*
X170650499Y-137810501D02*
X185690499Y-137810501D01*
X173143499Y-144089501D02*
X202717499Y-144089501D01*
X177167499Y-148489501D02*
X198693499Y-148489501D01*
X174141499Y-145489501D02*
X201719499Y-145489501D01*
X190170499Y-139330501D02*
X204855499Y-139330501D01*
X170350499Y-134689501D02*
X205510499Y-134689501D01*
X176208499Y-147689501D02*
X199652499Y-147689501D01*
X173746499Y-144969501D02*
X202114499Y-144969501D01*
X170857499Y-138770501D02*
X185690499Y-138770501D01*
X171616499Y-141130501D02*
X185690499Y-141130501D01*
X170730499Y-138210501D02*
X185690499Y-138210501D01*
X172821499Y-143569501D02*
X203039499Y-143569501D01*
X177014499Y-148369501D02*
X198846499Y-148369501D01*
X176389499Y-147849501D02*
X199471499Y-147849501D01*
X205550499Y-134569501D02*
G75*
G03*
X205550499Y-134569501I-17620000J0D01*
G01*
%TO.C,C6*%
X141623000Y-149980000D02*
X158377000Y-149980000D01*
X133502000Y-140581000D02*
X147760000Y-140581000D01*
X135672000Y-144700000D02*
X164328000Y-144700000D01*
X137100000Y-146460000D02*
X162900000Y-146460000D01*
X132508000Y-136261000D02*
X167492000Y-136261000D01*
X143805000Y-150980000D02*
X156195000Y-150980000D01*
X132751000Y-137901000D02*
X147760000Y-137901000D01*
X133020000Y-139061000D02*
X147760000Y-139061000D01*
X139773000Y-148820000D02*
X160227000Y-148820000D01*
X145872000Y-151620000D02*
X154128000Y-151620000D01*
X142925000Y-150620000D02*
X157075000Y-150620000D01*
X135012000Y-143700000D02*
X164988000Y-143700000D01*
X134201000Y-142221000D02*
X165799000Y-142221000D01*
X133607000Y-140861000D02*
X147760000Y-140861000D01*
X143911000Y-151020000D02*
X156089000Y-151020000D01*
X132775000Y-138021000D02*
X147760000Y-138021000D01*
X132656000Y-137381000D02*
X147760000Y-137381000D01*
X134067000Y-141941000D02*
X165933000Y-141941000D01*
X132446000Y-135461000D02*
X167554000Y-135461000D01*
X152240000Y-139101000D02*
X166969000Y-139101000D01*
X133801000Y-141341000D02*
X147760000Y-141341000D01*
X132698000Y-137621000D02*
X147760000Y-137621000D01*
X152240000Y-139621000D02*
X166820000Y-139621000D01*
X137326000Y-146700000D02*
X162674000Y-146700000D01*
X152240000Y-138541000D02*
X167111000Y-138541000D01*
X136180000Y-145380000D02*
X163820000Y-145380000D01*
X152240000Y-140941000D02*
X166361000Y-140941000D01*
X132433000Y-135180000D02*
X167567000Y-135180000D01*
X133994000Y-141781000D02*
X166006000Y-141781000D01*
X152240000Y-140221000D02*
X166626000Y-140221000D01*
X132543000Y-136581000D02*
X167457000Y-136581000D01*
X135758000Y-144820000D02*
X164242000Y-144820000D01*
X132999000Y-138981000D02*
X147760000Y-138981000D01*
X132625000Y-137181000D02*
X167375000Y-137181000D01*
X132713000Y-137701000D02*
X147760000Y-137701000D01*
X152240000Y-140541000D02*
X166513000Y-140541000D01*
X135505000Y-144460000D02*
X164495000Y-144460000D01*
X138885000Y-148140000D02*
X161115000Y-148140000D01*
X132691000Y-137581000D02*
X147760000Y-137581000D01*
X152240000Y-138941000D02*
X167012000Y-138941000D01*
X152240000Y-141581000D02*
X166095000Y-141581000D01*
X152240000Y-139541000D02*
X166844000Y-139541000D01*
X152240000Y-139381000D02*
X166891000Y-139381000D01*
X140125000Y-115645998D02*
X140125000Y-119145998D01*
X133168000Y-139581000D02*
X147760000Y-139581000D01*
X133280000Y-139941000D02*
X147760000Y-139941000D01*
X136025000Y-145180000D02*
X163975000Y-145180000D01*
X133306000Y-140021000D02*
X147760000Y-140021000D01*
X132978000Y-138901000D02*
X147760000Y-138901000D01*
X152240000Y-137461000D02*
X167330000Y-137461000D01*
X140235000Y-149140000D02*
X159765000Y-149140000D01*
X143597000Y-150900000D02*
X156403000Y-150900000D01*
X152240000Y-141541000D02*
X166113000Y-141541000D01*
X152240000Y-137981000D02*
X167233000Y-137981000D01*
X152240000Y-141101000D02*
X166298000Y-141101000D01*
X152240000Y-138141000D02*
X167200000Y-138141000D01*
X144245000Y-151140000D02*
X155755000Y-151140000D01*
X152240000Y-137941000D02*
X167241000Y-137941000D01*
X139608000Y-148700000D02*
X160392000Y-148700000D01*
X132463000Y-135741000D02*
X167537000Y-135741000D01*
X152240000Y-139941000D02*
X166720000Y-139941000D01*
X142241000Y-150300000D02*
X157759000Y-150300000D01*
X152240000Y-137341000D02*
X167350000Y-137341000D01*
X133156000Y-139541000D02*
X147760000Y-139541000D01*
X133654000Y-140981000D02*
X147760000Y-140981000D01*
X133192000Y-139661000D02*
X147760000Y-139661000D01*
X132431000Y-135140000D02*
X167569000Y-135140000D01*
X137561000Y-146940000D02*
X162439000Y-146940000D01*
X144020000Y-151060000D02*
X155980000Y-151060000D01*
X139662000Y-148740000D02*
X160338000Y-148740000D01*
X132538000Y-136541000D02*
X167462000Y-136541000D01*
X138740000Y-148020000D02*
X161260000Y-148020000D01*
X152240000Y-141701000D02*
X166042000Y-141701000D01*
X152240000Y-141021000D02*
X166330000Y-141021000D01*
X133086000Y-139301000D02*
X147760000Y-139301000D01*
X132485000Y-136021000D02*
X167515000Y-136021000D01*
X138016000Y-147380000D02*
X161984000Y-147380000D01*
X152240000Y-137621000D02*
X167302000Y-137621000D01*
X134774000Y-143300000D02*
X165226000Y-143300000D01*
X132759000Y-137941000D02*
X147760000Y-137941000D01*
X146802000Y-151820000D02*
X153198000Y-151820000D01*
X135701000Y-144740000D02*
X164299000Y-144740000D01*
X134260000Y-142341000D02*
X165740000Y-142341000D01*
X134963000Y-143620000D02*
X165037000Y-143620000D01*
X133267000Y-139901000D02*
X147760000Y-139901000D01*
X132421000Y-134700000D02*
X167579000Y-134700000D01*
X136275000Y-145500000D02*
X163725000Y-145500000D01*
X133458000Y-140461000D02*
X147760000Y-140461000D01*
X142488000Y-150420000D02*
X157512000Y-150420000D01*
X132504000Y-136221000D02*
X167496000Y-136221000D01*
X132670000Y-137461000D02*
X147760000Y-137461000D01*
X132808000Y-138181000D02*
X147760000Y-138181000D01*
X133075000Y-139261000D02*
X147760000Y-139261000D01*
X132557000Y-136701000D02*
X167443000Y-136701000D01*
X152240000Y-141661000D02*
X166060000Y-141661000D01*
X143397000Y-150820000D02*
X156603000Y-150820000D01*
X136954000Y-146300000D02*
X163046000Y-146300000D01*
X140416000Y-149260000D02*
X159584000Y-149260000D01*
X137682000Y-147060000D02*
X162318000Y-147060000D01*
X133531000Y-140661000D02*
X147760000Y-140661000D01*
X132516000Y-136341000D02*
X167484000Y-136341000D01*
X132843000Y-138341000D02*
X147760000Y-138341000D01*
X144987000Y-151380000D02*
X155013000Y-151380000D01*
X143204000Y-150740000D02*
X156796000Y-150740000D01*
X132589000Y-136941000D02*
X167411000Y-136941000D01*
X134181000Y-142181000D02*
X165819000Y-142181000D01*
X136812000Y-146140000D02*
X163188000Y-146140000D01*
X139289000Y-148460000D02*
X160711000Y-148460000D01*
X152240000Y-140021000D02*
X166694000Y-140021000D01*
X132430000Y-135100000D02*
X167570000Y-135100000D01*
X134529000Y-142860000D02*
X165471000Y-142860000D01*
X132520000Y-136381000D02*
X167480000Y-136381000D01*
X133852000Y-141461000D02*
X147760000Y-141461000D01*
X135317000Y-144180000D02*
X164683000Y-144180000D01*
X137212000Y-146580000D02*
X162788000Y-146580000D01*
X136918000Y-146260000D02*
X163082000Y-146260000D01*
X135616000Y-144620000D02*
X164384000Y-144620000D01*
X152240000Y-140301000D02*
X166599000Y-140301000D01*
X152240000Y-139861000D02*
X166745000Y-139861000D01*
X152240000Y-138741000D02*
X167063000Y-138741000D01*
X152240000Y-137861000D02*
X167257000Y-137861000D01*
X132482000Y-135981000D02*
X167518000Y-135981000D01*
X133320000Y-140061000D02*
X147760000Y-140061000D01*
X152240000Y-140661000D02*
X166469000Y-140661000D01*
X141265000Y-149780000D02*
X158735000Y-149780000D01*
X152240000Y-141421000D02*
X166165000Y-141421000D01*
X152240000Y-140461000D02*
X166542000Y-140461000D01*
X138189000Y-147540000D02*
X161811000Y-147540000D01*
X137973000Y-147340000D02*
X162027000Y-147340000D01*
X148165000Y-152020000D02*
X151835000Y-152020000D01*
X135875000Y-144980000D02*
X164125000Y-144980000D01*
X135588000Y-144580000D02*
X164412000Y-144580000D01*
X134639000Y-143060000D02*
X165361000Y-143060000D01*
X132967000Y-138861000D02*
X147760000Y-138861000D01*
X138234000Y-147580000D02*
X161766000Y-147580000D01*
X148587000Y-152060000D02*
X151413000Y-152060000D01*
X133217000Y-139741000D02*
X147760000Y-139741000D01*
X133009000Y-139021000D02*
X147760000Y-139021000D01*
X133144000Y-139501000D02*
X147760000Y-139501000D01*
X132453000Y-135581000D02*
X167547000Y-135581000D01*
X133577000Y-140781000D02*
X147760000Y-140781000D01*
X140355000Y-149220000D02*
X159645000Y-149220000D01*
X152240000Y-138861000D02*
X167033000Y-138861000D01*
X138059000Y-147420000D02*
X161941000Y-147420000D01*
X132957000Y-138821000D02*
X147760000Y-138821000D01*
X142002000Y-150180000D02*
X157998000Y-150180000D01*
X152240000Y-139501000D02*
X166856000Y-139501000D01*
X133639000Y-140941000D02*
X147760000Y-140941000D01*
X133444000Y-140421000D02*
X147760000Y-140421000D01*
X152240000Y-139741000D02*
X166783000Y-139741000D01*
X152240000Y-141341000D02*
X166199000Y-141341000D01*
X133940000Y-141661000D02*
X147760000Y-141661000D01*
X142405000Y-150380000D02*
X157595000Y-150380000D01*
X144727000Y-151300000D02*
X155273000Y-151300000D01*
X138693000Y-147980000D02*
X161307000Y-147980000D01*
X145711000Y-151580000D02*
X154289000Y-151580000D01*
X132529000Y-136461000D02*
X167471000Y-136461000D01*
X152240000Y-140781000D02*
X166423000Y-140781000D01*
X133063000Y-139221000D02*
X147760000Y-139221000D01*
X133388000Y-140261000D02*
X147760000Y-140261000D01*
X137250000Y-146620000D02*
X162750000Y-146620000D01*
X152240000Y-140101000D02*
X166667000Y-140101000D01*
X132460000Y-135701000D02*
X167540000Y-135701000D01*
X138598000Y-147900000D02*
X161402000Y-147900000D01*
X132533000Y-136501000D02*
X167467000Y-136501000D01*
X133120000Y-139421000D02*
X147760000Y-139421000D01*
X135477000Y-144420000D02*
X164523000Y-144420000D01*
X134423000Y-142661000D02*
X165577000Y-142661000D01*
X134049000Y-141901000D02*
X165951000Y-141901000D01*
X152240000Y-139821000D02*
X166758000Y-139821000D01*
X137889000Y-147260000D02*
X162111000Y-147260000D01*
X136086000Y-145260000D02*
X163914000Y-145260000D01*
X152240000Y-138101000D02*
X167209000Y-138101000D01*
X152240000Y-140861000D02*
X166393000Y-140861000D01*
X137723000Y-147100000D02*
X162277000Y-147100000D01*
X135162000Y-143940000D02*
X164838000Y-143940000D01*
X135965000Y-145100000D02*
X164035000Y-145100000D01*
X147264000Y-151900000D02*
X152736000Y-151900000D01*
X145407000Y-151500000D02*
X154593000Y-151500000D01*
X152240000Y-140981000D02*
X166346000Y-140981000D01*
X152240000Y-138781000D02*
X167053000Y-138781000D01*
X133976000Y-141741000D02*
X166024000Y-141741000D01*
X139942000Y-148940000D02*
X160058000Y-148940000D01*
X133132000Y-139461000D02*
X147760000Y-139461000D01*
X134594000Y-142980000D02*
X165406000Y-142980000D01*
X132908000Y-138621000D02*
X147760000Y-138621000D01*
X152240000Y-139021000D02*
X166991000Y-139021000D01*
X133293000Y-139981000D02*
X147760000Y-139981000D01*
X152240000Y-141461000D02*
X166148000Y-141461000D01*
X152240000Y-138621000D02*
X167092000Y-138621000D01*
X135037000Y-143740000D02*
X164963000Y-143740000D01*
X132937000Y-138741000D02*
X147760000Y-138741000D01*
X133031000Y-139101000D02*
X147760000Y-139101000D01*
X137175000Y-146540000D02*
X162825000Y-146540000D01*
X134915000Y-143540000D02*
X165085000Y-143540000D01*
X136307000Y-145540000D02*
X163693000Y-145540000D01*
X135644000Y-144660000D02*
X164356000Y-144660000D01*
X132425000Y-134940000D02*
X167575000Y-134940000D01*
X152240000Y-139181000D02*
X166948000Y-139181000D01*
X132988000Y-138941000D02*
X147760000Y-138941000D01*
X132440000Y-135341000D02*
X167560000Y-135341000D01*
X136883000Y-146220000D02*
X163117000Y-146220000D01*
X145122000Y-151420000D02*
X154878000Y-151420000D01*
X134143000Y-142101000D02*
X165857000Y-142101000D01*
X140730000Y-149460000D02*
X159270000Y-149460000D01*
X132450000Y-135541000D02*
X167550000Y-135541000D01*
X137641000Y-147020000D02*
X162359000Y-147020000D01*
X133516000Y-140621000D02*
X147760000Y-140621000D01*
X132637000Y-137261000D02*
X147760000Y-137261000D01*
X144855000Y-151340000D02*
X155145000Y-151340000D01*
X136372000Y-145620000D02*
X163628000Y-145620000D01*
X132643000Y-137301000D02*
X147760000Y-137301000D01*
X137137000Y-146500000D02*
X162863000Y-146500000D01*
X138368000Y-147700000D02*
X161632000Y-147700000D01*
X146040000Y-151660000D02*
X153960000Y-151660000D01*
X134797000Y-143340000D02*
X165203000Y-143340000D01*
X132421000Y-134740000D02*
X167579000Y-134740000D01*
X132423000Y-134860000D02*
X167577000Y-134860000D01*
X152240000Y-140061000D02*
X166680000Y-140061000D01*
X142747000Y-150540000D02*
X157253000Y-150540000D01*
X152240000Y-139221000D02*
X166937000Y-139221000D01*
X140116000Y-149060000D02*
X159884000Y-149060000D01*
X138788000Y-148060000D02*
X161212000Y-148060000D01*
X138837000Y-148100000D02*
X161163000Y-148100000D01*
X134706000Y-143180000D02*
X165294000Y-143180000D01*
X132472000Y-135861000D02*
X167528000Y-135861000D01*
X152240000Y-137261000D02*
X167363000Y-137261000D01*
X132420000Y-134540000D02*
X167580000Y-134540000D01*
X140992000Y-149620000D02*
X159008000Y-149620000D01*
X152240000Y-139701000D02*
X166796000Y-139701000D01*
X152240000Y-139781000D02*
X166771000Y-139781000D01*
X152240000Y-137781000D02*
X167273000Y-137781000D01*
X134844000Y-143420000D02*
X165156000Y-143420000D01*
X143110000Y-150700000D02*
X156890000Y-150700000D01*
X134821000Y-143380000D02*
X165179000Y-143380000D01*
X132650000Y-137341000D02*
X147760000Y-137341000D01*
X133702000Y-141101000D02*
X147760000Y-141101000D01*
X132898000Y-138581000D02*
X147760000Y-138581000D01*
X137931000Y-147300000D02*
X162069000Y-147300000D01*
X152240000Y-139461000D02*
X166868000Y-139461000D01*
X152240000Y-138581000D02*
X167102000Y-138581000D01*
X135370000Y-144260000D02*
X164630000Y-144260000D01*
X142835000Y-150580000D02*
X157165000Y-150580000D01*
X134444000Y-142700000D02*
X165556000Y-142700000D01*
X132428000Y-135060000D02*
X167572000Y-135060000D01*
X152240000Y-138421000D02*
X167139000Y-138421000D01*
X144361000Y-151180000D02*
X155639000Y-151180000D01*
X147823000Y-151980000D02*
X152177000Y-151980000D01*
X152240000Y-141381000D02*
X166182000Y-141381000D01*
X142573000Y-150460000D02*
X157427000Y-150460000D01*
X141848000Y-150100000D02*
X158152000Y-150100000D01*
X132426000Y-134980000D02*
X167574000Y-134980000D01*
X132478000Y-135941000D02*
X167522000Y-135941000D01*
X134572000Y-142940000D02*
X165428000Y-142940000D01*
X136404000Y-145660000D02*
X163596000Y-145660000D01*
X152240000Y-140421000D02*
X166556000Y-140421000D01*
X132573000Y-136821000D02*
X167427000Y-136821000D01*
X133905000Y-141581000D02*
X147760000Y-141581000D01*
X135450000Y-144380000D02*
X164550000Y-144380000D01*
X140540000Y-149340000D02*
X159460000Y-149340000D01*
X134240000Y-142301000D02*
X165760000Y-142301000D01*
X140603000Y-149380000D02*
X159397000Y-149380000D01*
X152240000Y-140341000D02*
X166585000Y-140341000D01*
X152240000Y-138821000D02*
X167043000Y-138821000D01*
X141196000Y-149740000D02*
X158804000Y-149740000D01*
X141924000Y-150140000D02*
X158076000Y-150140000D01*
X152240000Y-137901000D02*
X167249000Y-137901000D01*
X152240000Y-139661000D02*
X166808000Y-139661000D01*
X135935000Y-145060000D02*
X164065000Y-145060000D01*
X138323000Y-147660000D02*
X161677000Y-147660000D01*
X152240000Y-141261000D02*
X166232000Y-141261000D01*
X139446000Y-148580000D02*
X160554000Y-148580000D01*
X142080000Y-150220000D02*
X157920000Y-150220000D01*
X132612000Y-137101000D02*
X167388000Y-137101000D01*
X152240000Y-141181000D02*
X166265000Y-141181000D01*
X136149000Y-145340000D02*
X163851000Y-145340000D01*
X136707000Y-146020000D02*
X163293000Y-146020000D01*
X136470000Y-145740000D02*
X163530000Y-145740000D01*
X136503000Y-145780000D02*
X163497000Y-145780000D01*
X152240000Y-137661000D02*
X167295000Y-137661000D01*
X152240000Y-139421000D02*
X166880000Y-139421000D01*
X132427000Y-135020000D02*
X167573000Y-135020000D01*
X133835000Y-141421000D02*
X147760000Y-141421000D01*
X139135000Y-148340000D02*
X160865000Y-148340000D01*
X138375000Y-117395998D02*
X141875000Y-117395998D01*
X144132000Y-151100000D02*
X155868000Y-151100000D01*
X140795000Y-149500000D02*
X159205000Y-149500000D01*
X136243000Y-145460000D02*
X163757000Y-145460000D01*
X144480000Y-151220000D02*
X155520000Y-151220000D01*
X137063000Y-146420000D02*
X162937000Y-146420000D01*
X145262000Y-151460000D02*
X154738000Y-151460000D01*
X152240000Y-139341000D02*
X166903000Y-139341000D01*
X132870000Y-138461000D02*
X147760000Y-138461000D01*
X136537000Y-145820000D02*
X163463000Y-145820000D01*
X134086000Y-141981000D02*
X165914000Y-141981000D01*
X132441000Y-135381000D02*
X167559000Y-135381000D01*
X133670000Y-141021000D02*
X147760000Y-141021000D01*
X132705000Y-137661000D02*
X147760000Y-137661000D01*
X133870000Y-141501000D02*
X147760000Y-141501000D01*
X133097000Y-139341000D02*
X147760000Y-139341000D01*
X132861000Y-138421000D02*
X147760000Y-138421000D01*
X152240000Y-139981000D02*
X166707000Y-139981000D01*
X134616000Y-143020000D02*
X165384000Y-143020000D01*
X132420000Y-134500000D02*
X167580000Y-134500000D01*
X132466000Y-135781000D02*
X167534000Y-135781000D01*
X133229000Y-139781000D02*
X147760000Y-139781000D01*
X152240000Y-138701000D02*
X167073000Y-138701000D01*
X133052000Y-139181000D02*
X147760000Y-139181000D01*
X135532000Y-144500000D02*
X164468000Y-144500000D01*
X152240000Y-140381000D02*
X166570000Y-140381000D01*
X136604000Y-145900000D02*
X163396000Y-145900000D01*
X137601000Y-146980000D02*
X162399000Y-146980000D01*
X132548000Y-136621000D02*
X167452000Y-136621000D01*
X132767000Y-137981000D02*
X147760000Y-137981000D01*
X135238000Y-144060000D02*
X164762000Y-144060000D01*
X152240000Y-139581000D02*
X166832000Y-139581000D01*
X133415000Y-140341000D02*
X147760000Y-140341000D01*
X136339000Y-145580000D02*
X163661000Y-145580000D01*
X132475000Y-135901000D02*
X167525000Y-135901000D01*
X138551000Y-147860000D02*
X161449000Y-147860000D01*
X152240000Y-140141000D02*
X166653000Y-140141000D01*
X133360000Y-140181000D02*
X147760000Y-140181000D01*
X152240000Y-138501000D02*
X167120000Y-138501000D01*
X143017000Y-150660000D02*
X156983000Y-150660000D01*
X136056000Y-145220000D02*
X163944000Y-145220000D01*
X136638000Y-145940000D02*
X163362000Y-145940000D01*
X132438000Y-135301000D02*
X167562000Y-135301000D01*
X152240000Y-138901000D02*
X167022000Y-138901000D01*
X138102000Y-147460000D02*
X161898000Y-147460000D01*
X135787000Y-144860000D02*
X164213000Y-144860000D01*
X134320000Y-142461000D02*
X165680000Y-142461000D01*
X136742000Y-146060000D02*
X163258000Y-146060000D01*
X133333000Y-140101000D02*
X147760000Y-140101000D01*
X133751000Y-141221000D02*
X147760000Y-141221000D01*
X152240000Y-141061000D02*
X166314000Y-141061000D01*
X137365000Y-146740000D02*
X162635000Y-146740000D01*
X138645000Y-147940000D02*
X161355000Y-147940000D01*
X133561000Y-140741000D02*
X147760000Y-140741000D01*
X134381000Y-142581000D02*
X165619000Y-142581000D01*
X134661000Y-143100000D02*
X165339000Y-143100000D01*
X132420000Y-134580000D02*
X167580000Y-134580000D01*
X133242000Y-139821000D02*
X147760000Y-139821000D01*
X132578000Y-136861000D02*
X167422000Y-136861000D01*
X139829000Y-148860000D02*
X160171000Y-148860000D01*
X133180000Y-139621000D02*
X147760000Y-139621000D01*
X134751000Y-143260000D02*
X165249000Y-143260000D01*
X152240000Y-137501000D02*
X167323000Y-137501000D01*
X134124000Y-142061000D02*
X165876000Y-142061000D01*
X134465000Y-142740000D02*
X165535000Y-142740000D01*
X132512000Y-136301000D02*
X167488000Y-136301000D01*
X132524000Y-136421000D02*
X167476000Y-136421000D01*
X132500000Y-136181000D02*
X167500000Y-136181000D01*
X144602000Y-151260000D02*
X155398000Y-151260000D01*
X135290000Y-144140000D02*
X164710000Y-144140000D01*
X132889000Y-138541000D02*
X147760000Y-138541000D01*
X135423000Y-144340000D02*
X164577000Y-144340000D01*
X133623000Y-140901000D02*
X147760000Y-140901000D01*
X132496000Y-136141000D02*
X167504000Y-136141000D01*
X152240000Y-139301000D02*
X166914000Y-139301000D01*
X139500000Y-148620000D02*
X160500000Y-148620000D01*
X133374000Y-140221000D02*
X147760000Y-140221000D01*
X132947000Y-138781000D02*
X147760000Y-138781000D01*
X132684000Y-137541000D02*
X147760000Y-137541000D01*
X142659000Y-150500000D02*
X157341000Y-150500000D01*
X134162000Y-142141000D02*
X165838000Y-142141000D01*
X133818000Y-141381000D02*
X147760000Y-141381000D01*
X134683000Y-143140000D02*
X165317000Y-143140000D01*
X152240000Y-139901000D02*
X166733000Y-139901000D01*
X135343000Y-144220000D02*
X164657000Y-144220000D01*
X132852000Y-138381000D02*
X147760000Y-138381000D01*
X152240000Y-141301000D02*
X166215000Y-141301000D01*
X136847000Y-146180000D02*
X163153000Y-146180000D01*
X143700000Y-150940000D02*
X156300000Y-150940000D01*
X137027000Y-146380000D02*
X162973000Y-146380000D01*
X135136000Y-143900000D02*
X164864000Y-143900000D01*
X141550000Y-149940000D02*
X158450000Y-149940000D01*
X136437000Y-145700000D02*
X163563000Y-145700000D01*
X132584000Y-136901000D02*
X167416000Y-136901000D01*
X141772000Y-150060000D02*
X158228000Y-150060000D01*
X152240000Y-138381000D02*
X167148000Y-138381000D01*
X134012000Y-141821000D02*
X165988000Y-141821000D01*
X132631000Y-137221000D02*
X167369000Y-137221000D01*
X136777000Y-146100000D02*
X163223000Y-146100000D01*
X133041000Y-139141000D02*
X147760000Y-139141000D01*
X140666000Y-149420000D02*
X159334000Y-149420000D01*
X152240000Y-141501000D02*
X166130000Y-141501000D01*
X146400000Y-151740000D02*
X153600000Y-151740000D01*
X132595000Y-136981000D02*
X167405000Y-136981000D01*
X132458000Y-135661000D02*
X167542000Y-135661000D01*
X134868000Y-143460000D02*
X165132000Y-143460000D01*
X137764000Y-147140000D02*
X162236000Y-147140000D01*
X132424000Y-134900000D02*
X167576000Y-134900000D01*
X152240000Y-137581000D02*
X167309000Y-137581000D01*
X137288000Y-146660000D02*
X162712000Y-146660000D01*
X133958000Y-141701000D02*
X147760000Y-141701000D01*
X152240000Y-138461000D02*
X167130000Y-138461000D01*
X152240000Y-140701000D02*
X166454000Y-140701000D01*
X132677000Y-137501000D02*
X147760000Y-137501000D01*
X134030000Y-141861000D02*
X165970000Y-141861000D01*
X133719000Y-141141000D02*
X147760000Y-141141000D01*
X133768000Y-141261000D02*
X147760000Y-141261000D01*
X147024000Y-151860000D02*
X152976000Y-151860000D01*
X132663000Y-137421000D02*
X147760000Y-137421000D01*
X133473000Y-140501000D02*
X147760000Y-140501000D01*
X132783000Y-138061000D02*
X147760000Y-138061000D01*
X133887000Y-141541000D02*
X147760000Y-141541000D01*
X136990000Y-146340000D02*
X163010000Y-146340000D01*
X135264000Y-144100000D02*
X164736000Y-144100000D01*
X135560000Y-144540000D02*
X164440000Y-144540000D01*
X135729000Y-144780000D02*
X164271000Y-144780000D01*
X132469000Y-135821000D02*
X167531000Y-135821000D01*
X140926000Y-149580000D02*
X159074000Y-149580000D01*
X135396000Y-144300000D02*
X164604000Y-144300000D01*
X133255000Y-139861000D02*
X147760000Y-139861000D01*
X152240000Y-137741000D02*
X167280000Y-137741000D01*
X132743000Y-137861000D02*
X147760000Y-137861000D01*
X137482000Y-146860000D02*
X162518000Y-146860000D01*
X137805000Y-147180000D02*
X162195000Y-147180000D01*
X132727000Y-137781000D02*
X147760000Y-137781000D01*
X134508000Y-142820000D02*
X165492000Y-142820000D01*
X133347000Y-140141000D02*
X147760000Y-140141000D01*
X138413000Y-147740000D02*
X161587000Y-147740000D01*
X134729000Y-143220000D02*
X165271000Y-143220000D01*
X152240000Y-140621000D02*
X166484000Y-140621000D01*
X152240000Y-138981000D02*
X167001000Y-138981000D01*
X152240000Y-137381000D02*
X167344000Y-137381000D01*
X137404000Y-146780000D02*
X162596000Y-146780000D01*
X132420000Y-134660000D02*
X167580000Y-134660000D01*
X152240000Y-140821000D02*
X166408000Y-140821000D01*
X139341000Y-148500000D02*
X160659000Y-148500000D01*
X141697000Y-150020000D02*
X158303000Y-150020000D01*
X134551000Y-142900000D02*
X165449000Y-142900000D01*
X149200000Y-152100000D02*
X150800000Y-152100000D01*
X136673000Y-145980000D02*
X163327000Y-145980000D01*
X132436000Y-135261000D02*
X167564000Y-135261000D01*
X152240000Y-137541000D02*
X167316000Y-137541000D01*
X132492000Y-136101000D02*
X167508000Y-136101000D01*
X137443000Y-146820000D02*
X162557000Y-146820000D01*
X133204000Y-139701000D02*
X147760000Y-139701000D01*
X140058000Y-149020000D02*
X159942000Y-149020000D01*
X133922000Y-141621000D02*
X147760000Y-141621000D01*
X132791000Y-138101000D02*
X147760000Y-138101000D01*
X152240000Y-140501000D02*
X166527000Y-140501000D01*
X152240000Y-139141000D02*
X166959000Y-139141000D01*
X141335000Y-149820000D02*
X158665000Y-149820000D01*
X132455000Y-135621000D02*
X167545000Y-135621000D01*
X141060000Y-149660000D02*
X158940000Y-149660000D01*
X133401000Y-140301000D02*
X147760000Y-140301000D01*
X138934000Y-148180000D02*
X161066000Y-148180000D01*
X152240000Y-141621000D02*
X166078000Y-141621000D01*
X133785000Y-141301000D02*
X147760000Y-141301000D01*
X132448000Y-135501000D02*
X167552000Y-135501000D01*
X133546000Y-140701000D02*
X147760000Y-140701000D01*
X146595000Y-151780000D02*
X153405000Y-151780000D01*
X140000000Y-148980000D02*
X160000000Y-148980000D01*
X134300000Y-142421000D02*
X165700000Y-142421000D01*
X143300000Y-150780000D02*
X156700000Y-150780000D01*
X134939000Y-143580000D02*
X165061000Y-143580000D01*
X139553000Y-148660000D02*
X160447000Y-148660000D01*
X152240000Y-140261000D02*
X166612000Y-140261000D01*
X137521000Y-146900000D02*
X162479000Y-146900000D01*
X132817000Y-138221000D02*
X147760000Y-138221000D01*
X152240000Y-140741000D02*
X166439000Y-140741000D01*
X152240000Y-138301000D02*
X167166000Y-138301000D01*
X147527000Y-151940000D02*
X152473000Y-151940000D01*
X152240000Y-138221000D02*
X167183000Y-138221000D01*
X143496000Y-150860000D02*
X156504000Y-150860000D01*
X152240000Y-139061000D02*
X166980000Y-139061000D01*
X135061000Y-143780000D02*
X164939000Y-143780000D01*
X137847000Y-147220000D02*
X162153000Y-147220000D01*
X139034000Y-148260000D02*
X160966000Y-148260000D01*
X133109000Y-139381000D02*
X147760000Y-139381000D01*
X152240000Y-140581000D02*
X166498000Y-140581000D01*
X145556000Y-151540000D02*
X154444000Y-151540000D01*
X139185000Y-148380000D02*
X160815000Y-148380000D01*
X152240000Y-138021000D02*
X167225000Y-138021000D01*
X132618000Y-137141000D02*
X167382000Y-137141000D01*
X152240000Y-137421000D02*
X167337000Y-137421000D01*
X132825000Y-138261000D02*
X147760000Y-138261000D01*
X133430000Y-140381000D02*
X147760000Y-140381000D01*
X132444000Y-135421000D02*
X167556000Y-135421000D01*
X141127000Y-149700000D02*
X158873000Y-149700000D01*
X135905000Y-145020000D02*
X164095000Y-145020000D01*
X141406000Y-149860000D02*
X158594000Y-149860000D01*
X135187000Y-143980000D02*
X164813000Y-143980000D01*
X140175000Y-149100000D02*
X159825000Y-149100000D01*
X152240000Y-141141000D02*
X166281000Y-141141000D01*
X133735000Y-141181000D02*
X147760000Y-141181000D01*
X152240000Y-140901000D02*
X166377000Y-140901000D01*
X140860000Y-149540000D02*
X159140000Y-149540000D01*
X134988000Y-143660000D02*
X165012000Y-143660000D01*
X132562000Y-136741000D02*
X167438000Y-136741000D01*
X139393000Y-148540000D02*
X160607000Y-148540000D01*
X138505000Y-147820000D02*
X161495000Y-147820000D01*
X136570000Y-145860000D02*
X163430000Y-145860000D01*
X141478000Y-149900000D02*
X158522000Y-149900000D01*
X133487000Y-140541000D02*
X147760000Y-140541000D01*
X132422000Y-134780000D02*
X167578000Y-134780000D01*
X132606000Y-137061000D02*
X167394000Y-137061000D01*
X140295000Y-149180000D02*
X159705000Y-149180000D01*
X152240000Y-138061000D02*
X167217000Y-138061000D01*
X132918000Y-138661000D02*
X147760000Y-138661000D01*
X132422000Y-134820000D02*
X167578000Y-134820000D01*
X152240000Y-138661000D02*
X167082000Y-138661000D01*
X139885000Y-148900000D02*
X160115000Y-148900000D01*
X132489000Y-136061000D02*
X167511000Y-136061000D01*
X146215000Y-151700000D02*
X153785000Y-151700000D01*
X135845000Y-144940000D02*
X164155000Y-144940000D01*
X152240000Y-137301000D02*
X167357000Y-137301000D01*
X142322000Y-150340000D02*
X157678000Y-150340000D01*
X152240000Y-138181000D02*
X167192000Y-138181000D01*
X152240000Y-137821000D02*
X167265000Y-137821000D01*
X133592000Y-140821000D02*
X147760000Y-140821000D01*
X134402000Y-142621000D02*
X165598000Y-142621000D01*
X134220000Y-142261000D02*
X165780000Y-142261000D01*
X135995000Y-145140000D02*
X164005000Y-145140000D01*
X132601000Y-137021000D02*
X167399000Y-137021000D01*
X140478000Y-149300000D02*
X159522000Y-149300000D01*
X132552000Y-136661000D02*
X167448000Y-136661000D01*
X132434000Y-135221000D02*
X167566000Y-135221000D01*
X152240000Y-140181000D02*
X166640000Y-140181000D01*
X135111000Y-143860000D02*
X164889000Y-143860000D01*
X132735000Y-137821000D02*
X147760000Y-137821000D01*
X132568000Y-136781000D02*
X167432000Y-136781000D01*
X136117000Y-145300000D02*
X163883000Y-145300000D01*
X134280000Y-142381000D02*
X165720000Y-142381000D01*
X132880000Y-138501000D02*
X147760000Y-138501000D01*
X134340000Y-142501000D02*
X165660000Y-142501000D01*
X134105000Y-142021000D02*
X165895000Y-142021000D01*
X139717000Y-148780000D02*
X160283000Y-148780000D01*
X152240000Y-138341000D02*
X167157000Y-138341000D01*
X152240000Y-138261000D02*
X167175000Y-138261000D01*
X132834000Y-138301000D02*
X147760000Y-138301000D01*
X152240000Y-137701000D02*
X167287000Y-137701000D01*
X142160000Y-150260000D02*
X157840000Y-150260000D01*
X152240000Y-141221000D02*
X166249000Y-141221000D01*
X138146000Y-147500000D02*
X161854000Y-147500000D01*
X134486000Y-142780000D02*
X165514000Y-142780000D01*
X135086000Y-143820000D02*
X164914000Y-143820000D01*
X134361000Y-142541000D02*
X165639000Y-142541000D01*
X138984000Y-148220000D02*
X161016000Y-148220000D01*
X132720000Y-137741000D02*
X147760000Y-137741000D01*
X135213000Y-144020000D02*
X164787000Y-144020000D01*
X139237000Y-148420000D02*
X160763000Y-148420000D01*
X136211000Y-145420000D02*
X163789000Y-145420000D01*
X152240000Y-139261000D02*
X166925000Y-139261000D01*
X132420000Y-134620000D02*
X167580000Y-134620000D01*
X138278000Y-147620000D02*
X161722000Y-147620000D01*
X135816000Y-144900000D02*
X164184000Y-144900000D01*
X132927000Y-138701000D02*
X147760000Y-138701000D01*
X133686000Y-141061000D02*
X147760000Y-141061000D01*
X132800000Y-138141000D02*
X147760000Y-138141000D01*
X134891000Y-143500000D02*
X165109000Y-143500000D01*
X139084000Y-148300000D02*
X160916000Y-148300000D01*
X138459000Y-147780000D02*
X161541000Y-147780000D01*
X167620000Y-134500000D02*
G75*
G03*
X167620000Y-134500000I-17620000J0D01*
G01*
%TO.C,J6*%
X142595000Y-64575000D02*
X142595000Y-65905000D01*
X150335000Y-63245000D02*
X150335000Y-65905000D01*
X145195000Y-63245000D02*
X150335000Y-63245000D01*
X142595000Y-65905000D02*
X143925000Y-65905000D01*
X145195000Y-63245000D02*
X145195000Y-65905000D01*
X145195000Y-65905000D02*
X150335000Y-65905000D01*
%TD*%
M02*
