%TF.GenerationSoftware,KiCad,Pcbnew,(6.0.9)*%
%TF.CreationDate,2022-12-28T04:29:12+03:00*%
%TF.ProjectId,v3,76332e6b-6963-4616-945f-706362585858,rev?*%
%TF.SameCoordinates,Original*%
%TF.FileFunction,Drillmap*%
%TF.FilePolarity,Positive*%
%FSLAX45Y45*%
G04 Gerber Fmt 4.5, Leading zero omitted, Abs format (unit mm)*
G04 Created by KiCad (PCBNEW (6.0.9)) date 2022-12-28 04:29:12*
%MOMM*%
%LPD*%
G01*
G04 APERTURE LIST*
%ADD10C,0.100000*%
%ADD11C,0.200000*%
%ADD12C,0.110000*%
%ADD13C,0.150000*%
%ADD14C,0.180000*%
%ADD15C,0.210000*%
G04 APERTURE END LIST*
D10*
X12250000Y-14650000D02*
X21000000Y-14650000D01*
X11800000Y-5200000D02*
X11800000Y-14200000D01*
X21450000Y-5200000D02*
G75*
G03*
X21000000Y-4750000I-450000J0D01*
G01*
X21450000Y-14200000D02*
X21450000Y-5200000D01*
X21000000Y-14650000D02*
G75*
G03*
X21450000Y-14200000I0J450000D01*
G01*
X12250000Y-4750000D02*
G75*
G03*
X11800000Y-5200000I0J-450000D01*
G01*
X12250000Y-4750000D02*
X21000000Y-4750000D01*
X11800000Y-14200000D02*
G75*
G03*
X12250000Y-14650000I450000J0D01*
G01*
D11*
D12*
X11666000Y-10363000D02*
X11776000Y-10473000D01*
X11776000Y-10363000D02*
X11666000Y-10473000D01*
X11666000Y-10617000D02*
X11776000Y-10727000D01*
X11776000Y-10617000D02*
X11666000Y-10727000D01*
D13*
X12739500Y-7734000D02*
G75*
G03*
X12739500Y-7734000I-75000J0D01*
G01*
X12739500Y-8219000D02*
G75*
G03*
X12739500Y-8219000I-75000J0D01*
G01*
D14*
X12361500Y-7614000D02*
X12361500Y-7794000D01*
X12271500Y-7704000D02*
X12451500Y-7704000D01*
X12361500Y-8159000D02*
X12361500Y-8339000D01*
X12271500Y-8249000D02*
X12451500Y-8249000D01*
D15*
X14284247Y-7764247D02*
X14284247Y-7615753D01*
X14135753Y-7615753D01*
X14135753Y-7764247D01*
X14284247Y-7764247D01*
X15144247Y-7764247D02*
X15144247Y-7615753D01*
X14995753Y-7615753D01*
X14995753Y-7764247D01*
X15144247Y-7764247D01*
D11*
X12052619Y-14965476D02*
X12052619Y-14765476D01*
X12100238Y-14765476D01*
X12128809Y-14775000D01*
X12147857Y-14794048D01*
X12157381Y-14813095D01*
X12166905Y-14851190D01*
X12166905Y-14879762D01*
X12157381Y-14917857D01*
X12147857Y-14936905D01*
X12128809Y-14955952D01*
X12100238Y-14965476D01*
X12052619Y-14965476D01*
X12252619Y-14965476D02*
X12252619Y-14832143D01*
X12252619Y-14870238D02*
X12262143Y-14851190D01*
X12271667Y-14841667D01*
X12290714Y-14832143D01*
X12309762Y-14832143D01*
X12376428Y-14965476D02*
X12376428Y-14832143D01*
X12376428Y-14765476D02*
X12366905Y-14775000D01*
X12376428Y-14784524D01*
X12385952Y-14775000D01*
X12376428Y-14765476D01*
X12376428Y-14784524D01*
X12500238Y-14965476D02*
X12481190Y-14955952D01*
X12471667Y-14936905D01*
X12471667Y-14765476D01*
X12605000Y-14965476D02*
X12585952Y-14955952D01*
X12576428Y-14936905D01*
X12576428Y-14765476D01*
X12833571Y-14965476D02*
X12833571Y-14765476D01*
X12900238Y-14908333D01*
X12966905Y-14765476D01*
X12966905Y-14965476D01*
X13147857Y-14965476D02*
X13147857Y-14860714D01*
X13138333Y-14841667D01*
X13119286Y-14832143D01*
X13081190Y-14832143D01*
X13062143Y-14841667D01*
X13147857Y-14955952D02*
X13128809Y-14965476D01*
X13081190Y-14965476D01*
X13062143Y-14955952D01*
X13052619Y-14936905D01*
X13052619Y-14917857D01*
X13062143Y-14898809D01*
X13081190Y-14889286D01*
X13128809Y-14889286D01*
X13147857Y-14879762D01*
X13243095Y-14832143D02*
X13243095Y-15032143D01*
X13243095Y-14841667D02*
X13262143Y-14832143D01*
X13300238Y-14832143D01*
X13319286Y-14841667D01*
X13328809Y-14851190D01*
X13338333Y-14870238D01*
X13338333Y-14927381D01*
X13328809Y-14946428D01*
X13319286Y-14955952D01*
X13300238Y-14965476D01*
X13262143Y-14965476D01*
X13243095Y-14955952D01*
X13424048Y-14946428D02*
X13433571Y-14955952D01*
X13424048Y-14965476D01*
X13414524Y-14955952D01*
X13424048Y-14946428D01*
X13424048Y-14965476D01*
X13424048Y-14841667D02*
X13433571Y-14851190D01*
X13424048Y-14860714D01*
X13414524Y-14851190D01*
X13424048Y-14841667D01*
X13424048Y-14860714D01*
D12*
X11685000Y-15240000D02*
X11795000Y-15350000D01*
X11795000Y-15240000D02*
X11685000Y-15350000D01*
D11*
X12157381Y-15385476D02*
X12043095Y-15385476D01*
X12100238Y-15385476D02*
X12100238Y-15185476D01*
X12081190Y-15214048D01*
X12062143Y-15233095D01*
X12043095Y-15242619D01*
X12243095Y-15366428D02*
X12252619Y-15375952D01*
X12243095Y-15385476D01*
X12233571Y-15375952D01*
X12243095Y-15366428D01*
X12243095Y-15385476D01*
X12443095Y-15385476D02*
X12328809Y-15385476D01*
X12385952Y-15385476D02*
X12385952Y-15185476D01*
X12366905Y-15214048D01*
X12347857Y-15233095D01*
X12328809Y-15242619D01*
X12566905Y-15185476D02*
X12585952Y-15185476D01*
X12605000Y-15195000D01*
X12614524Y-15204524D01*
X12624048Y-15223571D01*
X12633571Y-15261667D01*
X12633571Y-15309286D01*
X12624048Y-15347381D01*
X12614524Y-15366428D01*
X12605000Y-15375952D01*
X12585952Y-15385476D01*
X12566905Y-15385476D01*
X12547857Y-15375952D01*
X12538333Y-15366428D01*
X12528809Y-15347381D01*
X12519286Y-15309286D01*
X12519286Y-15261667D01*
X12528809Y-15223571D01*
X12538333Y-15204524D01*
X12547857Y-15195000D01*
X12566905Y-15185476D01*
X12757381Y-15185476D02*
X12776428Y-15185476D01*
X12795476Y-15195000D01*
X12805000Y-15204524D01*
X12814524Y-15223571D01*
X12824048Y-15261667D01*
X12824048Y-15309286D01*
X12814524Y-15347381D01*
X12805000Y-15366428D01*
X12795476Y-15375952D01*
X12776428Y-15385476D01*
X12757381Y-15385476D01*
X12738333Y-15375952D01*
X12728809Y-15366428D01*
X12719286Y-15347381D01*
X12709762Y-15309286D01*
X12709762Y-15261667D01*
X12719286Y-15223571D01*
X12728809Y-15204524D01*
X12738333Y-15195000D01*
X12757381Y-15185476D01*
X12909762Y-15385476D02*
X12909762Y-15252143D01*
X12909762Y-15271190D02*
X12919286Y-15261667D01*
X12938333Y-15252143D01*
X12966905Y-15252143D01*
X12985952Y-15261667D01*
X12995476Y-15280714D01*
X12995476Y-15385476D01*
X12995476Y-15280714D02*
X13005000Y-15261667D01*
X13024048Y-15252143D01*
X13052619Y-15252143D01*
X13071667Y-15261667D01*
X13081190Y-15280714D01*
X13081190Y-15385476D01*
X13176428Y-15385476D02*
X13176428Y-15252143D01*
X13176428Y-15271190D02*
X13185952Y-15261667D01*
X13205000Y-15252143D01*
X13233571Y-15252143D01*
X13252619Y-15261667D01*
X13262143Y-15280714D01*
X13262143Y-15385476D01*
X13262143Y-15280714D02*
X13271667Y-15261667D01*
X13290714Y-15252143D01*
X13319286Y-15252143D01*
X13338333Y-15261667D01*
X13347857Y-15280714D01*
X13347857Y-15385476D01*
X13738333Y-15175952D02*
X13566905Y-15433095D01*
X13995476Y-15185476D02*
X14014524Y-15185476D01*
X14033571Y-15195000D01*
X14043095Y-15204524D01*
X14052619Y-15223571D01*
X14062143Y-15261667D01*
X14062143Y-15309286D01*
X14052619Y-15347381D01*
X14043095Y-15366428D01*
X14033571Y-15375952D01*
X14014524Y-15385476D01*
X13995476Y-15385476D01*
X13976428Y-15375952D01*
X13966905Y-15366428D01*
X13957381Y-15347381D01*
X13947857Y-15309286D01*
X13947857Y-15261667D01*
X13957381Y-15223571D01*
X13966905Y-15204524D01*
X13976428Y-15195000D01*
X13995476Y-15185476D01*
X14147857Y-15366428D02*
X14157381Y-15375952D01*
X14147857Y-15385476D01*
X14138333Y-15375952D01*
X14147857Y-15366428D01*
X14147857Y-15385476D01*
X14281190Y-15185476D02*
X14300238Y-15185476D01*
X14319286Y-15195000D01*
X14328809Y-15204524D01*
X14338333Y-15223571D01*
X14347857Y-15261667D01*
X14347857Y-15309286D01*
X14338333Y-15347381D01*
X14328809Y-15366428D01*
X14319286Y-15375952D01*
X14300238Y-15385476D01*
X14281190Y-15385476D01*
X14262143Y-15375952D01*
X14252619Y-15366428D01*
X14243095Y-15347381D01*
X14233571Y-15309286D01*
X14233571Y-15261667D01*
X14243095Y-15223571D01*
X14252619Y-15204524D01*
X14262143Y-15195000D01*
X14281190Y-15185476D01*
X14519286Y-15252143D02*
X14519286Y-15385476D01*
X14471667Y-15175952D02*
X14424048Y-15318809D01*
X14547857Y-15318809D01*
X14605000Y-15185476D02*
X14728809Y-15185476D01*
X14662143Y-15261667D01*
X14690714Y-15261667D01*
X14709762Y-15271190D01*
X14719286Y-15280714D01*
X14728809Y-15299762D01*
X14728809Y-15347381D01*
X14719286Y-15366428D01*
X14709762Y-15375952D01*
X14690714Y-15385476D01*
X14633571Y-15385476D01*
X14614524Y-15375952D01*
X14605000Y-15366428D01*
X14795476Y-15185476D02*
X14919286Y-15185476D01*
X14852619Y-15261667D01*
X14881190Y-15261667D01*
X14900238Y-15271190D01*
X14909762Y-15280714D01*
X14919286Y-15299762D01*
X14919286Y-15347381D01*
X14909762Y-15366428D01*
X14900238Y-15375952D01*
X14881190Y-15385476D01*
X14824048Y-15385476D01*
X14805000Y-15375952D01*
X14795476Y-15366428D01*
X14995476Y-15185476D02*
X14995476Y-15223571D01*
X15071667Y-15185476D02*
X15071667Y-15223571D01*
X15366905Y-15461667D02*
X15357381Y-15452143D01*
X15338333Y-15423571D01*
X15328809Y-15404524D01*
X15319286Y-15375952D01*
X15309762Y-15328333D01*
X15309762Y-15290238D01*
X15319286Y-15242619D01*
X15328809Y-15214048D01*
X15338333Y-15195000D01*
X15357381Y-15166428D01*
X15366905Y-15156905D01*
X15433571Y-15204524D02*
X15443095Y-15195000D01*
X15462143Y-15185476D01*
X15509762Y-15185476D01*
X15528809Y-15195000D01*
X15538333Y-15204524D01*
X15547857Y-15223571D01*
X15547857Y-15242619D01*
X15538333Y-15271190D01*
X15424048Y-15385476D01*
X15547857Y-15385476D01*
X15785952Y-15385476D02*
X15785952Y-15185476D01*
X15871667Y-15385476D02*
X15871667Y-15280714D01*
X15862143Y-15261667D01*
X15843095Y-15252143D01*
X15814524Y-15252143D01*
X15795476Y-15261667D01*
X15785952Y-15271190D01*
X15995476Y-15385476D02*
X15976428Y-15375952D01*
X15966905Y-15366428D01*
X15957381Y-15347381D01*
X15957381Y-15290238D01*
X15966905Y-15271190D01*
X15976428Y-15261667D01*
X15995476Y-15252143D01*
X16024048Y-15252143D01*
X16043095Y-15261667D01*
X16052619Y-15271190D01*
X16062143Y-15290238D01*
X16062143Y-15347381D01*
X16052619Y-15366428D01*
X16043095Y-15375952D01*
X16024048Y-15385476D01*
X15995476Y-15385476D01*
X16176428Y-15385476D02*
X16157381Y-15375952D01*
X16147857Y-15356905D01*
X16147857Y-15185476D01*
X16328809Y-15375952D02*
X16309762Y-15385476D01*
X16271667Y-15385476D01*
X16252619Y-15375952D01*
X16243095Y-15356905D01*
X16243095Y-15280714D01*
X16252619Y-15261667D01*
X16271667Y-15252143D01*
X16309762Y-15252143D01*
X16328809Y-15261667D01*
X16338333Y-15280714D01*
X16338333Y-15299762D01*
X16243095Y-15318809D01*
X16414524Y-15375952D02*
X16433571Y-15385476D01*
X16471667Y-15385476D01*
X16490714Y-15375952D01*
X16500238Y-15356905D01*
X16500238Y-15347381D01*
X16490714Y-15328333D01*
X16471667Y-15318809D01*
X16443095Y-15318809D01*
X16424048Y-15309286D01*
X16414524Y-15290238D01*
X16414524Y-15280714D01*
X16424048Y-15261667D01*
X16443095Y-15252143D01*
X16471667Y-15252143D01*
X16490714Y-15261667D01*
X16566905Y-15461667D02*
X16576428Y-15452143D01*
X16595476Y-15423571D01*
X16605000Y-15404524D01*
X16614524Y-15375952D01*
X16624048Y-15328333D01*
X16624048Y-15290238D01*
X16614524Y-15242619D01*
X16605000Y-15214048D01*
X16595476Y-15195000D01*
X16576428Y-15166428D01*
X16566905Y-15156905D01*
X16928810Y-15461667D02*
X16919286Y-15452143D01*
X16900238Y-15423571D01*
X16890714Y-15404524D01*
X16881190Y-15375952D01*
X16871667Y-15328333D01*
X16871667Y-15290238D01*
X16881190Y-15242619D01*
X16890714Y-15214048D01*
X16900238Y-15195000D01*
X16919286Y-15166428D01*
X16928810Y-15156905D01*
X17005000Y-15252143D02*
X17005000Y-15385476D01*
X17005000Y-15271190D02*
X17014524Y-15261667D01*
X17033571Y-15252143D01*
X17062143Y-15252143D01*
X17081190Y-15261667D01*
X17090714Y-15280714D01*
X17090714Y-15385476D01*
X17214524Y-15385476D02*
X17195476Y-15375952D01*
X17185952Y-15366428D01*
X17176429Y-15347381D01*
X17176429Y-15290238D01*
X17185952Y-15271190D01*
X17195476Y-15261667D01*
X17214524Y-15252143D01*
X17243095Y-15252143D01*
X17262143Y-15261667D01*
X17271667Y-15271190D01*
X17281190Y-15290238D01*
X17281190Y-15347381D01*
X17271667Y-15366428D01*
X17262143Y-15375952D01*
X17243095Y-15385476D01*
X17214524Y-15385476D01*
X17338333Y-15252143D02*
X17414524Y-15252143D01*
X17366905Y-15185476D02*
X17366905Y-15356905D01*
X17376429Y-15375952D01*
X17395476Y-15385476D01*
X17414524Y-15385476D01*
X17633571Y-15252143D02*
X17633571Y-15452143D01*
X17633571Y-15261667D02*
X17652619Y-15252143D01*
X17690714Y-15252143D01*
X17709762Y-15261667D01*
X17719286Y-15271190D01*
X17728810Y-15290238D01*
X17728810Y-15347381D01*
X17719286Y-15366428D01*
X17709762Y-15375952D01*
X17690714Y-15385476D01*
X17652619Y-15385476D01*
X17633571Y-15375952D01*
X17843095Y-15385476D02*
X17824048Y-15375952D01*
X17814524Y-15356905D01*
X17814524Y-15185476D01*
X18005000Y-15385476D02*
X18005000Y-15280714D01*
X17995476Y-15261667D01*
X17976429Y-15252143D01*
X17938333Y-15252143D01*
X17919286Y-15261667D01*
X18005000Y-15375952D02*
X17985952Y-15385476D01*
X17938333Y-15385476D01*
X17919286Y-15375952D01*
X17909762Y-15356905D01*
X17909762Y-15337857D01*
X17919286Y-15318809D01*
X17938333Y-15309286D01*
X17985952Y-15309286D01*
X18005000Y-15299762D01*
X18071667Y-15252143D02*
X18147857Y-15252143D01*
X18100238Y-15185476D02*
X18100238Y-15356905D01*
X18109762Y-15375952D01*
X18128810Y-15385476D01*
X18147857Y-15385476D01*
X18290714Y-15375952D02*
X18271667Y-15385476D01*
X18233571Y-15385476D01*
X18214524Y-15375952D01*
X18205000Y-15356905D01*
X18205000Y-15280714D01*
X18214524Y-15261667D01*
X18233571Y-15252143D01*
X18271667Y-15252143D01*
X18290714Y-15261667D01*
X18300238Y-15280714D01*
X18300238Y-15299762D01*
X18205000Y-15318809D01*
X18471667Y-15385476D02*
X18471667Y-15185476D01*
X18471667Y-15375952D02*
X18452619Y-15385476D01*
X18414524Y-15385476D01*
X18395476Y-15375952D01*
X18385952Y-15366428D01*
X18376429Y-15347381D01*
X18376429Y-15290238D01*
X18385952Y-15271190D01*
X18395476Y-15261667D01*
X18414524Y-15252143D01*
X18452619Y-15252143D01*
X18471667Y-15261667D01*
X18547857Y-15461667D02*
X18557381Y-15452143D01*
X18576429Y-15423571D01*
X18585952Y-15404524D01*
X18595476Y-15375952D01*
X18605000Y-15328333D01*
X18605000Y-15290238D01*
X18595476Y-15242619D01*
X18585952Y-15214048D01*
X18576429Y-15195000D01*
X18557381Y-15166428D01*
X18547857Y-15156905D01*
D13*
X11795000Y-15559000D02*
G75*
G03*
X11795000Y-15559000I-75000J0D01*
G01*
D11*
X12157381Y-15649476D02*
X12043095Y-15649476D01*
X12100238Y-15649476D02*
X12100238Y-15449476D01*
X12081190Y-15478048D01*
X12062143Y-15497095D01*
X12043095Y-15506619D01*
X12243095Y-15630428D02*
X12252619Y-15639952D01*
X12243095Y-15649476D01*
X12233571Y-15639952D01*
X12243095Y-15630428D01*
X12243095Y-15649476D01*
X12433571Y-15449476D02*
X12338333Y-15449476D01*
X12328809Y-15544714D01*
X12338333Y-15535190D01*
X12357381Y-15525667D01*
X12405000Y-15525667D01*
X12424048Y-15535190D01*
X12433571Y-15544714D01*
X12443095Y-15563762D01*
X12443095Y-15611381D01*
X12433571Y-15630428D01*
X12424048Y-15639952D01*
X12405000Y-15649476D01*
X12357381Y-15649476D01*
X12338333Y-15639952D01*
X12328809Y-15630428D01*
X12566905Y-15449476D02*
X12585952Y-15449476D01*
X12605000Y-15459000D01*
X12614524Y-15468524D01*
X12624048Y-15487571D01*
X12633571Y-15525667D01*
X12633571Y-15573286D01*
X12624048Y-15611381D01*
X12614524Y-15630428D01*
X12605000Y-15639952D01*
X12585952Y-15649476D01*
X12566905Y-15649476D01*
X12547857Y-15639952D01*
X12538333Y-15630428D01*
X12528809Y-15611381D01*
X12519286Y-15573286D01*
X12519286Y-15525667D01*
X12528809Y-15487571D01*
X12538333Y-15468524D01*
X12547857Y-15459000D01*
X12566905Y-15449476D01*
X12757381Y-15449476D02*
X12776428Y-15449476D01*
X12795476Y-15459000D01*
X12805000Y-15468524D01*
X12814524Y-15487571D01*
X12824048Y-15525667D01*
X12824048Y-15573286D01*
X12814524Y-15611381D01*
X12805000Y-15630428D01*
X12795476Y-15639952D01*
X12776428Y-15649476D01*
X12757381Y-15649476D01*
X12738333Y-15639952D01*
X12728809Y-15630428D01*
X12719286Y-15611381D01*
X12709762Y-15573286D01*
X12709762Y-15525667D01*
X12719286Y-15487571D01*
X12728809Y-15468524D01*
X12738333Y-15459000D01*
X12757381Y-15449476D01*
X12909762Y-15649476D02*
X12909762Y-15516143D01*
X12909762Y-15535190D02*
X12919286Y-15525667D01*
X12938333Y-15516143D01*
X12966905Y-15516143D01*
X12985952Y-15525667D01*
X12995476Y-15544714D01*
X12995476Y-15649476D01*
X12995476Y-15544714D02*
X13005000Y-15525667D01*
X13024048Y-15516143D01*
X13052619Y-15516143D01*
X13071667Y-15525667D01*
X13081190Y-15544714D01*
X13081190Y-15649476D01*
X13176428Y-15649476D02*
X13176428Y-15516143D01*
X13176428Y-15535190D02*
X13185952Y-15525667D01*
X13205000Y-15516143D01*
X13233571Y-15516143D01*
X13252619Y-15525667D01*
X13262143Y-15544714D01*
X13262143Y-15649476D01*
X13262143Y-15544714D02*
X13271667Y-15525667D01*
X13290714Y-15516143D01*
X13319286Y-15516143D01*
X13338333Y-15525667D01*
X13347857Y-15544714D01*
X13347857Y-15649476D01*
X13738333Y-15439952D02*
X13566905Y-15697095D01*
X13995476Y-15449476D02*
X14014524Y-15449476D01*
X14033571Y-15459000D01*
X14043095Y-15468524D01*
X14052619Y-15487571D01*
X14062143Y-15525667D01*
X14062143Y-15573286D01*
X14052619Y-15611381D01*
X14043095Y-15630428D01*
X14033571Y-15639952D01*
X14014524Y-15649476D01*
X13995476Y-15649476D01*
X13976428Y-15639952D01*
X13966905Y-15630428D01*
X13957381Y-15611381D01*
X13947857Y-15573286D01*
X13947857Y-15525667D01*
X13957381Y-15487571D01*
X13966905Y-15468524D01*
X13976428Y-15459000D01*
X13995476Y-15449476D01*
X14147857Y-15630428D02*
X14157381Y-15639952D01*
X14147857Y-15649476D01*
X14138333Y-15639952D01*
X14147857Y-15630428D01*
X14147857Y-15649476D01*
X14281190Y-15449476D02*
X14300238Y-15449476D01*
X14319286Y-15459000D01*
X14328809Y-15468524D01*
X14338333Y-15487571D01*
X14347857Y-15525667D01*
X14347857Y-15573286D01*
X14338333Y-15611381D01*
X14328809Y-15630428D01*
X14319286Y-15639952D01*
X14300238Y-15649476D01*
X14281190Y-15649476D01*
X14262143Y-15639952D01*
X14252619Y-15630428D01*
X14243095Y-15611381D01*
X14233571Y-15573286D01*
X14233571Y-15525667D01*
X14243095Y-15487571D01*
X14252619Y-15468524D01*
X14262143Y-15459000D01*
X14281190Y-15449476D01*
X14528809Y-15449476D02*
X14433571Y-15449476D01*
X14424048Y-15544714D01*
X14433571Y-15535190D01*
X14452619Y-15525667D01*
X14500238Y-15525667D01*
X14519286Y-15535190D01*
X14528809Y-15544714D01*
X14538333Y-15563762D01*
X14538333Y-15611381D01*
X14528809Y-15630428D01*
X14519286Y-15639952D01*
X14500238Y-15649476D01*
X14452619Y-15649476D01*
X14433571Y-15639952D01*
X14424048Y-15630428D01*
X14633571Y-15649476D02*
X14671667Y-15649476D01*
X14690714Y-15639952D01*
X14700238Y-15630428D01*
X14719286Y-15601857D01*
X14728809Y-15563762D01*
X14728809Y-15487571D01*
X14719286Y-15468524D01*
X14709762Y-15459000D01*
X14690714Y-15449476D01*
X14652619Y-15449476D01*
X14633571Y-15459000D01*
X14624048Y-15468524D01*
X14614524Y-15487571D01*
X14614524Y-15535190D01*
X14624048Y-15554238D01*
X14633571Y-15563762D01*
X14652619Y-15573286D01*
X14690714Y-15573286D01*
X14709762Y-15563762D01*
X14719286Y-15554238D01*
X14728809Y-15535190D01*
X14919286Y-15649476D02*
X14805000Y-15649476D01*
X14862143Y-15649476D02*
X14862143Y-15449476D01*
X14843095Y-15478048D01*
X14824048Y-15497095D01*
X14805000Y-15506619D01*
X14995476Y-15449476D02*
X14995476Y-15487571D01*
X15071667Y-15449476D02*
X15071667Y-15487571D01*
X15366905Y-15725667D02*
X15357381Y-15716143D01*
X15338333Y-15687571D01*
X15328809Y-15668524D01*
X15319286Y-15639952D01*
X15309762Y-15592333D01*
X15309762Y-15554238D01*
X15319286Y-15506619D01*
X15328809Y-15478048D01*
X15338333Y-15459000D01*
X15357381Y-15430428D01*
X15366905Y-15420905D01*
X15433571Y-15468524D02*
X15443095Y-15459000D01*
X15462143Y-15449476D01*
X15509762Y-15449476D01*
X15528809Y-15459000D01*
X15538333Y-15468524D01*
X15547857Y-15487571D01*
X15547857Y-15506619D01*
X15538333Y-15535190D01*
X15424048Y-15649476D01*
X15547857Y-15649476D01*
X15785952Y-15649476D02*
X15785952Y-15449476D01*
X15871667Y-15649476D02*
X15871667Y-15544714D01*
X15862143Y-15525667D01*
X15843095Y-15516143D01*
X15814524Y-15516143D01*
X15795476Y-15525667D01*
X15785952Y-15535190D01*
X15995476Y-15649476D02*
X15976428Y-15639952D01*
X15966905Y-15630428D01*
X15957381Y-15611381D01*
X15957381Y-15554238D01*
X15966905Y-15535190D01*
X15976428Y-15525667D01*
X15995476Y-15516143D01*
X16024048Y-15516143D01*
X16043095Y-15525667D01*
X16052619Y-15535190D01*
X16062143Y-15554238D01*
X16062143Y-15611381D01*
X16052619Y-15630428D01*
X16043095Y-15639952D01*
X16024048Y-15649476D01*
X15995476Y-15649476D01*
X16176428Y-15649476D02*
X16157381Y-15639952D01*
X16147857Y-15620905D01*
X16147857Y-15449476D01*
X16328809Y-15639952D02*
X16309762Y-15649476D01*
X16271667Y-15649476D01*
X16252619Y-15639952D01*
X16243095Y-15620905D01*
X16243095Y-15544714D01*
X16252619Y-15525667D01*
X16271667Y-15516143D01*
X16309762Y-15516143D01*
X16328809Y-15525667D01*
X16338333Y-15544714D01*
X16338333Y-15563762D01*
X16243095Y-15582809D01*
X16414524Y-15639952D02*
X16433571Y-15649476D01*
X16471667Y-15649476D01*
X16490714Y-15639952D01*
X16500238Y-15620905D01*
X16500238Y-15611381D01*
X16490714Y-15592333D01*
X16471667Y-15582809D01*
X16443095Y-15582809D01*
X16424048Y-15573286D01*
X16414524Y-15554238D01*
X16414524Y-15544714D01*
X16424048Y-15525667D01*
X16443095Y-15516143D01*
X16471667Y-15516143D01*
X16490714Y-15525667D01*
X16566905Y-15725667D02*
X16576428Y-15716143D01*
X16595476Y-15687571D01*
X16605000Y-15668524D01*
X16614524Y-15639952D01*
X16624048Y-15592333D01*
X16624048Y-15554238D01*
X16614524Y-15506619D01*
X16605000Y-15478048D01*
X16595476Y-15459000D01*
X16576428Y-15430428D01*
X16566905Y-15420905D01*
X16928810Y-15725667D02*
X16919286Y-15716143D01*
X16900238Y-15687571D01*
X16890714Y-15668524D01*
X16881190Y-15639952D01*
X16871667Y-15592333D01*
X16871667Y-15554238D01*
X16881190Y-15506619D01*
X16890714Y-15478048D01*
X16900238Y-15459000D01*
X16919286Y-15430428D01*
X16928810Y-15420905D01*
X17005000Y-15516143D02*
X17005000Y-15649476D01*
X17005000Y-15535190D02*
X17014524Y-15525667D01*
X17033571Y-15516143D01*
X17062143Y-15516143D01*
X17081190Y-15525667D01*
X17090714Y-15544714D01*
X17090714Y-15649476D01*
X17214524Y-15649476D02*
X17195476Y-15639952D01*
X17185952Y-15630428D01*
X17176429Y-15611381D01*
X17176429Y-15554238D01*
X17185952Y-15535190D01*
X17195476Y-15525667D01*
X17214524Y-15516143D01*
X17243095Y-15516143D01*
X17262143Y-15525667D01*
X17271667Y-15535190D01*
X17281190Y-15554238D01*
X17281190Y-15611381D01*
X17271667Y-15630428D01*
X17262143Y-15639952D01*
X17243095Y-15649476D01*
X17214524Y-15649476D01*
X17338333Y-15516143D02*
X17414524Y-15516143D01*
X17366905Y-15449476D02*
X17366905Y-15620905D01*
X17376429Y-15639952D01*
X17395476Y-15649476D01*
X17414524Y-15649476D01*
X17633571Y-15516143D02*
X17633571Y-15716143D01*
X17633571Y-15525667D02*
X17652619Y-15516143D01*
X17690714Y-15516143D01*
X17709762Y-15525667D01*
X17719286Y-15535190D01*
X17728810Y-15554238D01*
X17728810Y-15611381D01*
X17719286Y-15630428D01*
X17709762Y-15639952D01*
X17690714Y-15649476D01*
X17652619Y-15649476D01*
X17633571Y-15639952D01*
X17843095Y-15649476D02*
X17824048Y-15639952D01*
X17814524Y-15620905D01*
X17814524Y-15449476D01*
X18005000Y-15649476D02*
X18005000Y-15544714D01*
X17995476Y-15525667D01*
X17976429Y-15516143D01*
X17938333Y-15516143D01*
X17919286Y-15525667D01*
X18005000Y-15639952D02*
X17985952Y-15649476D01*
X17938333Y-15649476D01*
X17919286Y-15639952D01*
X17909762Y-15620905D01*
X17909762Y-15601857D01*
X17919286Y-15582809D01*
X17938333Y-15573286D01*
X17985952Y-15573286D01*
X18005000Y-15563762D01*
X18071667Y-15516143D02*
X18147857Y-15516143D01*
X18100238Y-15449476D02*
X18100238Y-15620905D01*
X18109762Y-15639952D01*
X18128810Y-15649476D01*
X18147857Y-15649476D01*
X18290714Y-15639952D02*
X18271667Y-15649476D01*
X18233571Y-15649476D01*
X18214524Y-15639952D01*
X18205000Y-15620905D01*
X18205000Y-15544714D01*
X18214524Y-15525667D01*
X18233571Y-15516143D01*
X18271667Y-15516143D01*
X18290714Y-15525667D01*
X18300238Y-15544714D01*
X18300238Y-15563762D01*
X18205000Y-15582809D01*
X18471667Y-15649476D02*
X18471667Y-15449476D01*
X18471667Y-15639952D02*
X18452619Y-15649476D01*
X18414524Y-15649476D01*
X18395476Y-15639952D01*
X18385952Y-15630428D01*
X18376429Y-15611381D01*
X18376429Y-15554238D01*
X18385952Y-15535190D01*
X18395476Y-15525667D01*
X18414524Y-15516143D01*
X18452619Y-15516143D01*
X18471667Y-15525667D01*
X18547857Y-15725667D02*
X18557381Y-15716143D01*
X18576429Y-15687571D01*
X18585952Y-15668524D01*
X18595476Y-15639952D01*
X18605000Y-15592333D01*
X18605000Y-15554238D01*
X18595476Y-15506619D01*
X18585952Y-15478048D01*
X18576429Y-15459000D01*
X18557381Y-15430428D01*
X18547857Y-15420905D01*
D14*
X11705000Y-15739000D02*
X11705000Y-15919000D01*
X11615000Y-15829000D02*
X11795000Y-15829000D01*
D11*
X12157381Y-15919476D02*
X12043095Y-15919476D01*
X12100238Y-15919476D02*
X12100238Y-15719476D01*
X12081190Y-15748048D01*
X12062143Y-15767095D01*
X12043095Y-15776619D01*
X12243095Y-15900428D02*
X12252619Y-15909952D01*
X12243095Y-15919476D01*
X12233571Y-15909952D01*
X12243095Y-15900428D01*
X12243095Y-15919476D01*
X12366905Y-15805190D02*
X12347857Y-15795667D01*
X12338333Y-15786143D01*
X12328809Y-15767095D01*
X12328809Y-15757571D01*
X12338333Y-15738524D01*
X12347857Y-15729000D01*
X12366905Y-15719476D01*
X12405000Y-15719476D01*
X12424048Y-15729000D01*
X12433571Y-15738524D01*
X12443095Y-15757571D01*
X12443095Y-15767095D01*
X12433571Y-15786143D01*
X12424048Y-15795667D01*
X12405000Y-15805190D01*
X12366905Y-15805190D01*
X12347857Y-15814714D01*
X12338333Y-15824238D01*
X12328809Y-15843286D01*
X12328809Y-15881381D01*
X12338333Y-15900428D01*
X12347857Y-15909952D01*
X12366905Y-15919476D01*
X12405000Y-15919476D01*
X12424048Y-15909952D01*
X12433571Y-15900428D01*
X12443095Y-15881381D01*
X12443095Y-15843286D01*
X12433571Y-15824238D01*
X12424048Y-15814714D01*
X12405000Y-15805190D01*
X12566905Y-15719476D02*
X12585952Y-15719476D01*
X12605000Y-15729000D01*
X12614524Y-15738524D01*
X12624048Y-15757571D01*
X12633571Y-15795667D01*
X12633571Y-15843286D01*
X12624048Y-15881381D01*
X12614524Y-15900428D01*
X12605000Y-15909952D01*
X12585952Y-15919476D01*
X12566905Y-15919476D01*
X12547857Y-15909952D01*
X12538333Y-15900428D01*
X12528809Y-15881381D01*
X12519286Y-15843286D01*
X12519286Y-15795667D01*
X12528809Y-15757571D01*
X12538333Y-15738524D01*
X12547857Y-15729000D01*
X12566905Y-15719476D01*
X12757381Y-15719476D02*
X12776428Y-15719476D01*
X12795476Y-15729000D01*
X12805000Y-15738524D01*
X12814524Y-15757571D01*
X12824048Y-15795667D01*
X12824048Y-15843286D01*
X12814524Y-15881381D01*
X12805000Y-15900428D01*
X12795476Y-15909952D01*
X12776428Y-15919476D01*
X12757381Y-15919476D01*
X12738333Y-15909952D01*
X12728809Y-15900428D01*
X12719286Y-15881381D01*
X12709762Y-15843286D01*
X12709762Y-15795667D01*
X12719286Y-15757571D01*
X12728809Y-15738524D01*
X12738333Y-15729000D01*
X12757381Y-15719476D01*
X12909762Y-15919476D02*
X12909762Y-15786143D01*
X12909762Y-15805190D02*
X12919286Y-15795667D01*
X12938333Y-15786143D01*
X12966905Y-15786143D01*
X12985952Y-15795667D01*
X12995476Y-15814714D01*
X12995476Y-15919476D01*
X12995476Y-15814714D02*
X13005000Y-15795667D01*
X13024048Y-15786143D01*
X13052619Y-15786143D01*
X13071667Y-15795667D01*
X13081190Y-15814714D01*
X13081190Y-15919476D01*
X13176428Y-15919476D02*
X13176428Y-15786143D01*
X13176428Y-15805190D02*
X13185952Y-15795667D01*
X13205000Y-15786143D01*
X13233571Y-15786143D01*
X13252619Y-15795667D01*
X13262143Y-15814714D01*
X13262143Y-15919476D01*
X13262143Y-15814714D02*
X13271667Y-15795667D01*
X13290714Y-15786143D01*
X13319286Y-15786143D01*
X13338333Y-15795667D01*
X13347857Y-15814714D01*
X13347857Y-15919476D01*
X13738333Y-15709952D02*
X13566905Y-15967095D01*
X13995476Y-15719476D02*
X14014524Y-15719476D01*
X14033571Y-15729000D01*
X14043095Y-15738524D01*
X14052619Y-15757571D01*
X14062143Y-15795667D01*
X14062143Y-15843286D01*
X14052619Y-15881381D01*
X14043095Y-15900428D01*
X14033571Y-15909952D01*
X14014524Y-15919476D01*
X13995476Y-15919476D01*
X13976428Y-15909952D01*
X13966905Y-15900428D01*
X13957381Y-15881381D01*
X13947857Y-15843286D01*
X13947857Y-15795667D01*
X13957381Y-15757571D01*
X13966905Y-15738524D01*
X13976428Y-15729000D01*
X13995476Y-15719476D01*
X14147857Y-15900428D02*
X14157381Y-15909952D01*
X14147857Y-15919476D01*
X14138333Y-15909952D01*
X14147857Y-15900428D01*
X14147857Y-15919476D01*
X14281190Y-15719476D02*
X14300238Y-15719476D01*
X14319286Y-15729000D01*
X14328809Y-15738524D01*
X14338333Y-15757571D01*
X14347857Y-15795667D01*
X14347857Y-15843286D01*
X14338333Y-15881381D01*
X14328809Y-15900428D01*
X14319286Y-15909952D01*
X14300238Y-15919476D01*
X14281190Y-15919476D01*
X14262143Y-15909952D01*
X14252619Y-15900428D01*
X14243095Y-15881381D01*
X14233571Y-15843286D01*
X14233571Y-15795667D01*
X14243095Y-15757571D01*
X14252619Y-15738524D01*
X14262143Y-15729000D01*
X14281190Y-15719476D01*
X14414524Y-15719476D02*
X14547857Y-15719476D01*
X14462143Y-15919476D01*
X14662143Y-15719476D02*
X14681190Y-15719476D01*
X14700238Y-15729000D01*
X14709762Y-15738524D01*
X14719286Y-15757571D01*
X14728809Y-15795667D01*
X14728809Y-15843286D01*
X14719286Y-15881381D01*
X14709762Y-15900428D01*
X14700238Y-15909952D01*
X14681190Y-15919476D01*
X14662143Y-15919476D01*
X14643095Y-15909952D01*
X14633571Y-15900428D01*
X14624048Y-15881381D01*
X14614524Y-15843286D01*
X14614524Y-15795667D01*
X14624048Y-15757571D01*
X14633571Y-15738524D01*
X14643095Y-15729000D01*
X14662143Y-15719476D01*
X14824048Y-15919476D02*
X14862143Y-15919476D01*
X14881190Y-15909952D01*
X14890714Y-15900428D01*
X14909762Y-15871857D01*
X14919286Y-15833762D01*
X14919286Y-15757571D01*
X14909762Y-15738524D01*
X14900238Y-15729000D01*
X14881190Y-15719476D01*
X14843095Y-15719476D01*
X14824048Y-15729000D01*
X14814524Y-15738524D01*
X14805000Y-15757571D01*
X14805000Y-15805190D01*
X14814524Y-15824238D01*
X14824048Y-15833762D01*
X14843095Y-15843286D01*
X14881190Y-15843286D01*
X14900238Y-15833762D01*
X14909762Y-15824238D01*
X14919286Y-15805190D01*
X14995476Y-15719476D02*
X14995476Y-15757571D01*
X15071667Y-15719476D02*
X15071667Y-15757571D01*
X15366905Y-15995667D02*
X15357381Y-15986143D01*
X15338333Y-15957571D01*
X15328809Y-15938524D01*
X15319286Y-15909952D01*
X15309762Y-15862333D01*
X15309762Y-15824238D01*
X15319286Y-15776619D01*
X15328809Y-15748048D01*
X15338333Y-15729000D01*
X15357381Y-15700428D01*
X15366905Y-15690905D01*
X15433571Y-15738524D02*
X15443095Y-15729000D01*
X15462143Y-15719476D01*
X15509762Y-15719476D01*
X15528809Y-15729000D01*
X15538333Y-15738524D01*
X15547857Y-15757571D01*
X15547857Y-15776619D01*
X15538333Y-15805190D01*
X15424048Y-15919476D01*
X15547857Y-15919476D01*
X15785952Y-15919476D02*
X15785952Y-15719476D01*
X15871667Y-15919476D02*
X15871667Y-15814714D01*
X15862143Y-15795667D01*
X15843095Y-15786143D01*
X15814524Y-15786143D01*
X15795476Y-15795667D01*
X15785952Y-15805190D01*
X15995476Y-15919476D02*
X15976428Y-15909952D01*
X15966905Y-15900428D01*
X15957381Y-15881381D01*
X15957381Y-15824238D01*
X15966905Y-15805190D01*
X15976428Y-15795667D01*
X15995476Y-15786143D01*
X16024048Y-15786143D01*
X16043095Y-15795667D01*
X16052619Y-15805190D01*
X16062143Y-15824238D01*
X16062143Y-15881381D01*
X16052619Y-15900428D01*
X16043095Y-15909952D01*
X16024048Y-15919476D01*
X15995476Y-15919476D01*
X16176428Y-15919476D02*
X16157381Y-15909952D01*
X16147857Y-15890905D01*
X16147857Y-15719476D01*
X16328809Y-15909952D02*
X16309762Y-15919476D01*
X16271667Y-15919476D01*
X16252619Y-15909952D01*
X16243095Y-15890905D01*
X16243095Y-15814714D01*
X16252619Y-15795667D01*
X16271667Y-15786143D01*
X16309762Y-15786143D01*
X16328809Y-15795667D01*
X16338333Y-15814714D01*
X16338333Y-15833762D01*
X16243095Y-15852809D01*
X16414524Y-15909952D02*
X16433571Y-15919476D01*
X16471667Y-15919476D01*
X16490714Y-15909952D01*
X16500238Y-15890905D01*
X16500238Y-15881381D01*
X16490714Y-15862333D01*
X16471667Y-15852809D01*
X16443095Y-15852809D01*
X16424048Y-15843286D01*
X16414524Y-15824238D01*
X16414524Y-15814714D01*
X16424048Y-15795667D01*
X16443095Y-15786143D01*
X16471667Y-15786143D01*
X16490714Y-15795667D01*
X16566905Y-15995667D02*
X16576428Y-15986143D01*
X16595476Y-15957571D01*
X16605000Y-15938524D01*
X16614524Y-15909952D01*
X16624048Y-15862333D01*
X16624048Y-15824238D01*
X16614524Y-15776619D01*
X16605000Y-15748048D01*
X16595476Y-15729000D01*
X16576428Y-15700428D01*
X16566905Y-15690905D01*
X16928810Y-15995667D02*
X16919286Y-15986143D01*
X16900238Y-15957571D01*
X16890714Y-15938524D01*
X16881190Y-15909952D01*
X16871667Y-15862333D01*
X16871667Y-15824238D01*
X16881190Y-15776619D01*
X16890714Y-15748048D01*
X16900238Y-15729000D01*
X16919286Y-15700428D01*
X16928810Y-15690905D01*
X17005000Y-15786143D02*
X17005000Y-15919476D01*
X17005000Y-15805190D02*
X17014524Y-15795667D01*
X17033571Y-15786143D01*
X17062143Y-15786143D01*
X17081190Y-15795667D01*
X17090714Y-15814714D01*
X17090714Y-15919476D01*
X17214524Y-15919476D02*
X17195476Y-15909952D01*
X17185952Y-15900428D01*
X17176429Y-15881381D01*
X17176429Y-15824238D01*
X17185952Y-15805190D01*
X17195476Y-15795667D01*
X17214524Y-15786143D01*
X17243095Y-15786143D01*
X17262143Y-15795667D01*
X17271667Y-15805190D01*
X17281190Y-15824238D01*
X17281190Y-15881381D01*
X17271667Y-15900428D01*
X17262143Y-15909952D01*
X17243095Y-15919476D01*
X17214524Y-15919476D01*
X17338333Y-15786143D02*
X17414524Y-15786143D01*
X17366905Y-15719476D02*
X17366905Y-15890905D01*
X17376429Y-15909952D01*
X17395476Y-15919476D01*
X17414524Y-15919476D01*
X17633571Y-15786143D02*
X17633571Y-15986143D01*
X17633571Y-15795667D02*
X17652619Y-15786143D01*
X17690714Y-15786143D01*
X17709762Y-15795667D01*
X17719286Y-15805190D01*
X17728810Y-15824238D01*
X17728810Y-15881381D01*
X17719286Y-15900428D01*
X17709762Y-15909952D01*
X17690714Y-15919476D01*
X17652619Y-15919476D01*
X17633571Y-15909952D01*
X17843095Y-15919476D02*
X17824048Y-15909952D01*
X17814524Y-15890905D01*
X17814524Y-15719476D01*
X18005000Y-15919476D02*
X18005000Y-15814714D01*
X17995476Y-15795667D01*
X17976429Y-15786143D01*
X17938333Y-15786143D01*
X17919286Y-15795667D01*
X18005000Y-15909952D02*
X17985952Y-15919476D01*
X17938333Y-15919476D01*
X17919286Y-15909952D01*
X17909762Y-15890905D01*
X17909762Y-15871857D01*
X17919286Y-15852809D01*
X17938333Y-15843286D01*
X17985952Y-15843286D01*
X18005000Y-15833762D01*
X18071667Y-15786143D02*
X18147857Y-15786143D01*
X18100238Y-15719476D02*
X18100238Y-15890905D01*
X18109762Y-15909952D01*
X18128810Y-15919476D01*
X18147857Y-15919476D01*
X18290714Y-15909952D02*
X18271667Y-15919476D01*
X18233571Y-15919476D01*
X18214524Y-15909952D01*
X18205000Y-15890905D01*
X18205000Y-15814714D01*
X18214524Y-15795667D01*
X18233571Y-15786143D01*
X18271667Y-15786143D01*
X18290714Y-15795667D01*
X18300238Y-15814714D01*
X18300238Y-15833762D01*
X18205000Y-15852809D01*
X18471667Y-15919476D02*
X18471667Y-15719476D01*
X18471667Y-15909952D02*
X18452619Y-15919476D01*
X18414524Y-15919476D01*
X18395476Y-15909952D01*
X18385952Y-15900428D01*
X18376429Y-15881381D01*
X18376429Y-15824238D01*
X18385952Y-15805190D01*
X18395476Y-15795667D01*
X18414524Y-15786143D01*
X18452619Y-15786143D01*
X18471667Y-15795667D01*
X18547857Y-15995667D02*
X18557381Y-15986143D01*
X18576429Y-15957571D01*
X18585952Y-15938524D01*
X18595476Y-15909952D01*
X18605000Y-15862333D01*
X18605000Y-15824238D01*
X18595476Y-15776619D01*
X18585952Y-15748048D01*
X18576429Y-15729000D01*
X18557381Y-15700428D01*
X18547857Y-15690905D01*
X11765711Y-16199711D02*
X11765711Y-16058289D01*
X11624289Y-16058289D01*
X11624289Y-16199711D01*
X11765711Y-16199711D01*
X12043095Y-16038524D02*
X12052619Y-16029000D01*
X12071667Y-16019476D01*
X12119286Y-16019476D01*
X12138333Y-16029000D01*
X12147857Y-16038524D01*
X12157381Y-16057571D01*
X12157381Y-16076619D01*
X12147857Y-16105190D01*
X12033571Y-16219476D01*
X12157381Y-16219476D01*
X12243095Y-16200428D02*
X12252619Y-16209952D01*
X12243095Y-16219476D01*
X12233571Y-16209952D01*
X12243095Y-16200428D01*
X12243095Y-16219476D01*
X12443095Y-16219476D02*
X12328809Y-16219476D01*
X12385952Y-16219476D02*
X12385952Y-16019476D01*
X12366905Y-16048048D01*
X12347857Y-16067095D01*
X12328809Y-16076619D01*
X12566905Y-16019476D02*
X12585952Y-16019476D01*
X12605000Y-16029000D01*
X12614524Y-16038524D01*
X12624048Y-16057571D01*
X12633571Y-16095667D01*
X12633571Y-16143286D01*
X12624048Y-16181381D01*
X12614524Y-16200428D01*
X12605000Y-16209952D01*
X12585952Y-16219476D01*
X12566905Y-16219476D01*
X12547857Y-16209952D01*
X12538333Y-16200428D01*
X12528809Y-16181381D01*
X12519286Y-16143286D01*
X12519286Y-16095667D01*
X12528809Y-16057571D01*
X12538333Y-16038524D01*
X12547857Y-16029000D01*
X12566905Y-16019476D01*
X12757381Y-16019476D02*
X12776428Y-16019476D01*
X12795476Y-16029000D01*
X12805000Y-16038524D01*
X12814524Y-16057571D01*
X12824048Y-16095667D01*
X12824048Y-16143286D01*
X12814524Y-16181381D01*
X12805000Y-16200428D01*
X12795476Y-16209952D01*
X12776428Y-16219476D01*
X12757381Y-16219476D01*
X12738333Y-16209952D01*
X12728809Y-16200428D01*
X12719286Y-16181381D01*
X12709762Y-16143286D01*
X12709762Y-16095667D01*
X12719286Y-16057571D01*
X12728809Y-16038524D01*
X12738333Y-16029000D01*
X12757381Y-16019476D01*
X12909762Y-16219476D02*
X12909762Y-16086143D01*
X12909762Y-16105190D02*
X12919286Y-16095667D01*
X12938333Y-16086143D01*
X12966905Y-16086143D01*
X12985952Y-16095667D01*
X12995476Y-16114714D01*
X12995476Y-16219476D01*
X12995476Y-16114714D02*
X13005000Y-16095667D01*
X13024048Y-16086143D01*
X13052619Y-16086143D01*
X13071667Y-16095667D01*
X13081190Y-16114714D01*
X13081190Y-16219476D01*
X13176428Y-16219476D02*
X13176428Y-16086143D01*
X13176428Y-16105190D02*
X13185952Y-16095667D01*
X13205000Y-16086143D01*
X13233571Y-16086143D01*
X13252619Y-16095667D01*
X13262143Y-16114714D01*
X13262143Y-16219476D01*
X13262143Y-16114714D02*
X13271667Y-16095667D01*
X13290714Y-16086143D01*
X13319286Y-16086143D01*
X13338333Y-16095667D01*
X13347857Y-16114714D01*
X13347857Y-16219476D01*
X13738333Y-16009952D02*
X13566905Y-16267095D01*
X13995476Y-16019476D02*
X14014524Y-16019476D01*
X14033571Y-16029000D01*
X14043095Y-16038524D01*
X14052619Y-16057571D01*
X14062143Y-16095667D01*
X14062143Y-16143286D01*
X14052619Y-16181381D01*
X14043095Y-16200428D01*
X14033571Y-16209952D01*
X14014524Y-16219476D01*
X13995476Y-16219476D01*
X13976428Y-16209952D01*
X13966905Y-16200428D01*
X13957381Y-16181381D01*
X13947857Y-16143286D01*
X13947857Y-16095667D01*
X13957381Y-16057571D01*
X13966905Y-16038524D01*
X13976428Y-16029000D01*
X13995476Y-16019476D01*
X14147857Y-16200428D02*
X14157381Y-16209952D01*
X14147857Y-16219476D01*
X14138333Y-16209952D01*
X14147857Y-16200428D01*
X14147857Y-16219476D01*
X14281190Y-16019476D02*
X14300238Y-16019476D01*
X14319286Y-16029000D01*
X14328809Y-16038524D01*
X14338333Y-16057571D01*
X14347857Y-16095667D01*
X14347857Y-16143286D01*
X14338333Y-16181381D01*
X14328809Y-16200428D01*
X14319286Y-16209952D01*
X14300238Y-16219476D01*
X14281190Y-16219476D01*
X14262143Y-16209952D01*
X14252619Y-16200428D01*
X14243095Y-16181381D01*
X14233571Y-16143286D01*
X14233571Y-16095667D01*
X14243095Y-16057571D01*
X14252619Y-16038524D01*
X14262143Y-16029000D01*
X14281190Y-16019476D01*
X14462143Y-16105190D02*
X14443095Y-16095667D01*
X14433571Y-16086143D01*
X14424048Y-16067095D01*
X14424048Y-16057571D01*
X14433571Y-16038524D01*
X14443095Y-16029000D01*
X14462143Y-16019476D01*
X14500238Y-16019476D01*
X14519286Y-16029000D01*
X14528809Y-16038524D01*
X14538333Y-16057571D01*
X14538333Y-16067095D01*
X14528809Y-16086143D01*
X14519286Y-16095667D01*
X14500238Y-16105190D01*
X14462143Y-16105190D01*
X14443095Y-16114714D01*
X14433571Y-16124238D01*
X14424048Y-16143286D01*
X14424048Y-16181381D01*
X14433571Y-16200428D01*
X14443095Y-16209952D01*
X14462143Y-16219476D01*
X14500238Y-16219476D01*
X14519286Y-16209952D01*
X14528809Y-16200428D01*
X14538333Y-16181381D01*
X14538333Y-16143286D01*
X14528809Y-16124238D01*
X14519286Y-16114714D01*
X14500238Y-16105190D01*
X14614524Y-16038524D02*
X14624048Y-16029000D01*
X14643095Y-16019476D01*
X14690714Y-16019476D01*
X14709762Y-16029000D01*
X14719286Y-16038524D01*
X14728809Y-16057571D01*
X14728809Y-16076619D01*
X14719286Y-16105190D01*
X14605000Y-16219476D01*
X14728809Y-16219476D01*
X14795476Y-16019476D02*
X14928809Y-16019476D01*
X14843095Y-16219476D01*
X14995476Y-16019476D02*
X14995476Y-16057571D01*
X15071667Y-16019476D02*
X15071667Y-16057571D01*
X15366905Y-16295667D02*
X15357381Y-16286143D01*
X15338333Y-16257571D01*
X15328809Y-16238524D01*
X15319286Y-16209952D01*
X15309762Y-16162333D01*
X15309762Y-16124238D01*
X15319286Y-16076619D01*
X15328809Y-16048048D01*
X15338333Y-16029000D01*
X15357381Y-16000428D01*
X15366905Y-15990905D01*
X15433571Y-16038524D02*
X15443095Y-16029000D01*
X15462143Y-16019476D01*
X15509762Y-16019476D01*
X15528809Y-16029000D01*
X15538333Y-16038524D01*
X15547857Y-16057571D01*
X15547857Y-16076619D01*
X15538333Y-16105190D01*
X15424048Y-16219476D01*
X15547857Y-16219476D01*
X15785952Y-16219476D02*
X15785952Y-16019476D01*
X15871667Y-16219476D02*
X15871667Y-16114714D01*
X15862143Y-16095667D01*
X15843095Y-16086143D01*
X15814524Y-16086143D01*
X15795476Y-16095667D01*
X15785952Y-16105190D01*
X15995476Y-16219476D02*
X15976428Y-16209952D01*
X15966905Y-16200428D01*
X15957381Y-16181381D01*
X15957381Y-16124238D01*
X15966905Y-16105190D01*
X15976428Y-16095667D01*
X15995476Y-16086143D01*
X16024048Y-16086143D01*
X16043095Y-16095667D01*
X16052619Y-16105190D01*
X16062143Y-16124238D01*
X16062143Y-16181381D01*
X16052619Y-16200428D01*
X16043095Y-16209952D01*
X16024048Y-16219476D01*
X15995476Y-16219476D01*
X16176428Y-16219476D02*
X16157381Y-16209952D01*
X16147857Y-16190905D01*
X16147857Y-16019476D01*
X16328809Y-16209952D02*
X16309762Y-16219476D01*
X16271667Y-16219476D01*
X16252619Y-16209952D01*
X16243095Y-16190905D01*
X16243095Y-16114714D01*
X16252619Y-16095667D01*
X16271667Y-16086143D01*
X16309762Y-16086143D01*
X16328809Y-16095667D01*
X16338333Y-16114714D01*
X16338333Y-16133762D01*
X16243095Y-16152809D01*
X16414524Y-16209952D02*
X16433571Y-16219476D01*
X16471667Y-16219476D01*
X16490714Y-16209952D01*
X16500238Y-16190905D01*
X16500238Y-16181381D01*
X16490714Y-16162333D01*
X16471667Y-16152809D01*
X16443095Y-16152809D01*
X16424048Y-16143286D01*
X16414524Y-16124238D01*
X16414524Y-16114714D01*
X16424048Y-16095667D01*
X16443095Y-16086143D01*
X16471667Y-16086143D01*
X16490714Y-16095667D01*
X16566905Y-16295667D02*
X16576428Y-16286143D01*
X16595476Y-16257571D01*
X16605000Y-16238524D01*
X16614524Y-16209952D01*
X16624048Y-16162333D01*
X16624048Y-16124238D01*
X16614524Y-16076619D01*
X16605000Y-16048048D01*
X16595476Y-16029000D01*
X16576428Y-16000428D01*
X16566905Y-15990905D01*
X16928810Y-16295667D02*
X16919286Y-16286143D01*
X16900238Y-16257571D01*
X16890714Y-16238524D01*
X16881190Y-16209952D01*
X16871667Y-16162333D01*
X16871667Y-16124238D01*
X16881190Y-16076619D01*
X16890714Y-16048048D01*
X16900238Y-16029000D01*
X16919286Y-16000428D01*
X16928810Y-15990905D01*
X17005000Y-16086143D02*
X17005000Y-16219476D01*
X17005000Y-16105190D02*
X17014524Y-16095667D01*
X17033571Y-16086143D01*
X17062143Y-16086143D01*
X17081190Y-16095667D01*
X17090714Y-16114714D01*
X17090714Y-16219476D01*
X17214524Y-16219476D02*
X17195476Y-16209952D01*
X17185952Y-16200428D01*
X17176429Y-16181381D01*
X17176429Y-16124238D01*
X17185952Y-16105190D01*
X17195476Y-16095667D01*
X17214524Y-16086143D01*
X17243095Y-16086143D01*
X17262143Y-16095667D01*
X17271667Y-16105190D01*
X17281190Y-16124238D01*
X17281190Y-16181381D01*
X17271667Y-16200428D01*
X17262143Y-16209952D01*
X17243095Y-16219476D01*
X17214524Y-16219476D01*
X17338333Y-16086143D02*
X17414524Y-16086143D01*
X17366905Y-16019476D02*
X17366905Y-16190905D01*
X17376429Y-16209952D01*
X17395476Y-16219476D01*
X17414524Y-16219476D01*
X17633571Y-16086143D02*
X17633571Y-16286143D01*
X17633571Y-16095667D02*
X17652619Y-16086143D01*
X17690714Y-16086143D01*
X17709762Y-16095667D01*
X17719286Y-16105190D01*
X17728810Y-16124238D01*
X17728810Y-16181381D01*
X17719286Y-16200428D01*
X17709762Y-16209952D01*
X17690714Y-16219476D01*
X17652619Y-16219476D01*
X17633571Y-16209952D01*
X17843095Y-16219476D02*
X17824048Y-16209952D01*
X17814524Y-16190905D01*
X17814524Y-16019476D01*
X18005000Y-16219476D02*
X18005000Y-16114714D01*
X17995476Y-16095667D01*
X17976429Y-16086143D01*
X17938333Y-16086143D01*
X17919286Y-16095667D01*
X18005000Y-16209952D02*
X17985952Y-16219476D01*
X17938333Y-16219476D01*
X17919286Y-16209952D01*
X17909762Y-16190905D01*
X17909762Y-16171857D01*
X17919286Y-16152809D01*
X17938333Y-16143286D01*
X17985952Y-16143286D01*
X18005000Y-16133762D01*
X18071667Y-16086143D02*
X18147857Y-16086143D01*
X18100238Y-16019476D02*
X18100238Y-16190905D01*
X18109762Y-16209952D01*
X18128810Y-16219476D01*
X18147857Y-16219476D01*
X18290714Y-16209952D02*
X18271667Y-16219476D01*
X18233571Y-16219476D01*
X18214524Y-16209952D01*
X18205000Y-16190905D01*
X18205000Y-16114714D01*
X18214524Y-16095667D01*
X18233571Y-16086143D01*
X18271667Y-16086143D01*
X18290714Y-16095667D01*
X18300238Y-16114714D01*
X18300238Y-16133762D01*
X18205000Y-16152809D01*
X18471667Y-16219476D02*
X18471667Y-16019476D01*
X18471667Y-16209952D02*
X18452619Y-16219476D01*
X18414524Y-16219476D01*
X18395476Y-16209952D01*
X18385952Y-16200428D01*
X18376429Y-16181381D01*
X18376429Y-16124238D01*
X18385952Y-16105190D01*
X18395476Y-16095667D01*
X18414524Y-16086143D01*
X18452619Y-16086143D01*
X18471667Y-16095667D01*
X18547857Y-16295667D02*
X18557381Y-16286143D01*
X18576429Y-16257571D01*
X18585952Y-16238524D01*
X18595476Y-16209952D01*
X18605000Y-16162333D01*
X18605000Y-16124238D01*
X18595476Y-16076619D01*
X18585952Y-16048048D01*
X18576429Y-16029000D01*
X18557381Y-16000428D01*
X18547857Y-15990905D01*
M02*
