M48
; DRILL file {KiCad (6.0.9)} date Wed Dec 28 04:29:11 2022
; FORMAT={-:-/ absolute / metric / decimal}
; #@! TF.CreationDate,2022-12-28T04:29:11+03:00
; #@! TF.GenerationSoftware,Kicad,Pcbnew,(6.0.9)
; #@! TF.FileFunction,Plated,1,2,PTH
FMAT,2
METRIC
; #@! TA.AperFunction,Plated,PTH,ViaDrill
T1C0.400
; #@! TA.AperFunction,Plated,PTH,ViaDrill
T2C0.500
; #@! TA.AperFunction,Plated,PTH,ComponentDrill
T3C0.500
; #@! TA.AperFunction,Plated,PTH,ComponentDrill
T4C0.800
; #@! TA.AperFunction,Plated,PTH,ComponentDrill
T5C0.900
; #@! TA.AperFunction,Plated,PTH,ComponentDrill
T6C1.000
; #@! TA.AperFunction,Plated,PTH,ComponentDrill
T7C1.020
; #@! TA.AperFunction,Plated,PTH,ComponentDrill
T8C1.100
; #@! TA.AperFunction,Plated,PTH,ComponentDrill
T9C1.170
; #@! TA.AperFunction,Plated,PTH,ComponentDrill
T10C1.200
; #@! TA.AperFunction,Plated,PTH,ComponentDrill
T11C1.300
; #@! TA.AperFunction,Plated,PTH,ComponentDrill
T12C1.390
; #@! TA.AperFunction,Plated,PTH,ComponentDrill
T13C1.400
; #@! TA.AperFunction,Plated,PTH,ComponentDrill
T14C1.500
; #@! TA.AperFunction,Plated,PTH,ComponentDrill
T15C1.600
; #@! TA.AperFunction,Plated,PTH,ComponentDrill
T16C2.000
; #@! TA.AperFunction,Plated,PTH,ComponentDrill
T17C3.200
%
G90
G05
T1
X128.4Y-57.4
X128.4Y-61.8
T2
X119.75Y-89.2
X120.0Y-109.0
X120.0Y-114.0
X120.0Y-119.0
X120.0Y-124.0
X120.0Y-129.0
X124.0Y-109.0
X124.0Y-114.0
X124.0Y-119.0
X124.0Y-124.0
X124.0Y-129.0
X127.0Y-111.5
X127.0Y-140.0
X127.0Y-144.0
X128.0Y-124.0
X128.0Y-129.0
X129.0Y-117.0
X129.4Y-92.0
X129.5Y-111.5
X131.0Y-115.25
X131.0Y-140.0
X131.0Y-144.0
X132.0Y-124.0
X132.0Y-129.0
X132.25Y-111.5
X133.0Y-113.5
X134.0Y-92.0
X135.0Y-135.0
X135.0Y-140.0
X135.0Y-144.0
X135.25Y-114.0
X135.25Y-116.5
X135.25Y-119.25
X136.0Y-124.0
X136.0Y-129.0
X139.0Y-92.0
X139.0Y-135.0
X139.0Y-140.0
X139.0Y-144.0
X140.0Y-124.0
X140.0Y-129.0
X141.0Y-50.0
X141.0Y-54.0
X141.0Y-60.6
X143.0Y-135.0
X143.0Y-140.0
X143.0Y-144.0
X144.0Y-60.6
X144.0Y-92.0
X144.5Y-114.0
X144.5Y-120.75
X147.0Y-60.6
X147.0Y-135.0
X147.0Y-144.0
X149.0Y-92.0
X149.0Y-97.0
X149.0Y-114.0
X149.0Y-120.75
X150.0Y-60.6
X151.0Y-135.0
X151.0Y-144.0
X153.0Y-60.6
X153.0Y-64.0
X153.75Y-114.0
X153.75Y-120.75
X154.0Y-92.0
X155.0Y-135.0
X155.0Y-139.0
X155.0Y-144.0
X156.0Y-60.6
X156.0Y-64.0
X156.0Y-67.0
X156.0Y-126.0
X156.0Y-131.75
X158.75Y-114.0
X158.75Y-120.75
X159.0Y-64.0
X159.0Y-67.0
X159.0Y-92.0
X159.0Y-97.0
X159.0Y-135.0
X159.0Y-139.0
X159.0Y-144.0
X160.5Y-126.0
X160.5Y-131.75
X162.0Y-64.0
X162.0Y-67.0
X163.0Y-135.0
X163.0Y-139.0
X163.0Y-144.0
X163.5Y-120.75
X164.0Y-92.0
X164.0Y-97.0
X165.0Y-64.0
X165.0Y-67.0
X165.25Y-126.0
X165.25Y-131.75
X167.0Y-135.0
X167.0Y-139.0
X167.0Y-144.0
X168.0Y-120.75
X169.0Y-67.0
X169.0Y-92.0
X169.0Y-97.0
X170.25Y-126.0
X170.25Y-131.75
X171.0Y-135.0
X171.0Y-139.0
X171.0Y-144.0
X173.0Y-67.0
X174.0Y-92.0
X174.0Y-97.0
X174.25Y-126.0
X174.25Y-131.75
X175.0Y-135.0
X175.0Y-139.0
X175.0Y-144.0
X176.0Y-68.0
X176.0Y-71.0
X176.0Y-74.0
X176.0Y-77.0
X176.0Y-80.0
X178.0Y-68.0
X178.0Y-71.0
X178.0Y-74.0
X178.0Y-77.0
X178.0Y-80.0
X179.0Y-50.4
X179.0Y-92.0
X179.0Y-97.0
X179.0Y-126.0
X179.0Y-131.75
X179.0Y-135.0
X179.0Y-139.0
X179.0Y-144.0
X180.0Y-65.0
X180.0Y-68.0
X181.25Y-73.0
X181.25Y-75.75
X181.25Y-78.5
X181.25Y-81.25
X182.75Y-69.5
X183.0Y-65.0
X183.0Y-135.0
X183.0Y-139.0
X183.0Y-144.0
X183.5Y-73.0
X183.5Y-75.75
X183.5Y-78.5
X183.5Y-81.25
X184.0Y-92.0
X184.0Y-97.0
X184.0Y-126.0
X184.0Y-131.75
X185.0Y-50.4
X185.0Y-70.5
X185.659Y-67.159
X185.75Y-73.0
X185.75Y-75.75
X185.75Y-78.5
X185.75Y-81.25
X187.0Y-57.0
X187.0Y-61.0
X187.0Y-135.0
X187.0Y-144.0
X187.25Y-68.75
X188.841Y-70.341
X190.5Y-64.75
X190.5Y-67.0
X190.5Y-69.25
X190.5Y-112.25
X191.0Y-57.0
X191.0Y-61.0
X191.0Y-135.0
X191.0Y-144.0
X191.2Y-50.4
X192.0Y-118.0
X192.0Y-122.0
X193.0Y-112.25
X195.0Y-57.0
X195.0Y-61.0
X195.2Y-50.4
X195.25Y-108.25
X195.25Y-110.25
X195.25Y-112.25
X196.0Y-122.0
X196.0Y-126.0
X196.0Y-130.0
X196.0Y-135.0
X196.0Y-139.0
X196.0Y-144.0
X196.25Y-72.5
X196.25Y-74.5
X196.25Y-76.5
X196.25Y-80.0
X196.25Y-82.0
X196.25Y-84.0
X196.25Y-87.5
X196.25Y-89.5
X196.25Y-91.5
X198.75Y-72.5
X198.75Y-74.5
X198.75Y-76.5
X198.75Y-80.0
X198.75Y-82.0
X198.75Y-84.0
X198.75Y-87.5
X198.75Y-89.5
X198.75Y-91.5
X199.0Y-108.25
X199.0Y-110.25
X199.0Y-112.25
X200.0Y-50.4
X200.0Y-122.0
X200.0Y-126.0
X200.0Y-130.0
X200.0Y-135.0
X200.0Y-139.0
X200.0Y-144.0
X200.5Y-117.0
X201.25Y-72.5
X201.25Y-74.5
X201.25Y-76.5
X201.25Y-80.0
X201.25Y-82.0
X201.25Y-84.0
X201.25Y-87.5
X201.25Y-89.5
X201.25Y-91.5
X202.0Y-64.0
X202.0Y-68.0
X202.2Y-59.8
X202.75Y-108.25
X202.75Y-110.25
X202.75Y-112.25
X202.75Y-115.0
X203.75Y-72.5
X203.75Y-74.5
X203.75Y-76.5
X203.75Y-80.0
X203.75Y-82.0
X203.75Y-84.0
X203.75Y-87.5
X203.75Y-89.5
X203.75Y-91.5
X204.0Y-50.4
X204.0Y-126.0
X204.0Y-130.0
X204.0Y-135.0
X204.0Y-139.0
X204.0Y-144.0
X206.25Y-72.5
X206.25Y-74.5
X206.25Y-76.5
X206.25Y-80.0
X206.25Y-82.0
X206.25Y-84.0
X206.25Y-87.5
X206.25Y-89.5
X206.25Y-91.5
X208.0Y-130.0
X208.0Y-135.0
X212.0Y-130.0
X212.0Y-135.0
T3
X120.1Y-52.0
X120.1Y-142.0
X120.803Y-50.303
X120.803Y-53.697
X120.803Y-140.303
X120.803Y-143.697
X122.5Y-49.6
X122.5Y-54.4
X122.5Y-139.6
X122.5Y-144.4
X124.197Y-50.303
X124.197Y-53.697
X124.197Y-140.303
X124.197Y-143.697
X124.9Y-52.0
X124.9Y-142.0
X207.6Y-52.0
X207.6Y-142.0
X208.303Y-50.303
X208.303Y-53.697
X208.303Y-140.303
X208.303Y-143.697
X210.0Y-49.6
X210.0Y-54.4
X210.0Y-139.6
X210.0Y-144.4
X211.697Y-50.303
X211.697Y-53.697
X211.697Y-140.303
X211.697Y-143.697
X212.4Y-52.0
X212.4Y-142.0
T4
X131.4Y-95.2
X131.4Y-97.74
X131.4Y-100.28
X131.4Y-102.82
X139.02Y-95.2
X139.02Y-97.74
X139.02Y-100.28
X139.02Y-102.82
T5
X122.46Y-100.0
X125.0Y-100.0
X132.535Y-52.6
X135.075Y-52.6
X174.2Y-51.0
X176.74Y-51.0
T6
X140.35Y-108.2
X143.925Y-64.575
X146.465Y-64.575
X149.005Y-64.575
X152.9Y-66.9
X192.0Y-106.225
X192.0Y-108.765
X198.2Y-58.535
X198.2Y-61.075
T7
X123.485Y-70.875
X123.485Y-88.655
X126.025Y-70.875
X126.025Y-88.655
X128.565Y-70.875
X128.565Y-88.655
X131.105Y-70.875
X131.105Y-88.655
X133.645Y-70.875
X133.645Y-88.655
X136.185Y-70.875
X136.185Y-88.655
X138.725Y-70.875
X138.725Y-88.655
X141.265Y-70.875
X141.265Y-88.655
X143.805Y-70.875
X143.805Y-88.655
X146.345Y-70.875
X146.345Y-88.655
X148.885Y-70.875
X148.885Y-88.655
X151.425Y-70.875
X151.425Y-88.655
X153.965Y-70.875
X153.965Y-88.655
X156.505Y-70.875
X156.505Y-88.655
X159.045Y-70.875
X159.045Y-88.655
X161.585Y-70.875
X161.585Y-88.655
X164.125Y-70.875
X164.125Y-88.655
X166.665Y-70.875
X166.665Y-88.655
X169.205Y-70.875
X169.205Y-88.655
X171.515Y-77.225
X171.515Y-79.765
X171.515Y-82.305
X171.745Y-70.875
X171.745Y-88.655
T8
X119.75Y-104.18
X119.75Y-106.72
X132.0Y-59.5
X132.0Y-62.04
X132.0Y-64.58
X167.055Y-101.46
X167.055Y-106.54
X175.555Y-56.96
X175.555Y-59.5
X175.555Y-62.04
T9
X178.5Y-85.6
X178.5Y-103.4
X183.5Y-85.6
X183.5Y-103.4
T10
X129.5Y-108.25
X129.5Y-135.75
X140.56Y-116.5
X196.44Y-116.5
T11
X210.6Y-60.52
X210.6Y-65.6
T12
X193.5Y-67.0
X193.5Y-74.5
X193.5Y-82.0
X193.5Y-89.5
X193.5Y-97.0
T13
X149.88Y-52.5
X154.96Y-52.5
X160.04Y-52.5
X165.12Y-52.5
T14
X154.17Y-96.05
X154.17Y-101.5
X154.17Y-106.95
X208.91Y-74.34
X208.91Y-81.96
X209.1Y-116.7
X209.1Y-124.32
X209.15Y-99.4
X209.15Y-107.02
T15
X208.91Y-89.58
T16
X150.0Y-129.5
X150.0Y-139.5
X187.93Y-129.57
X187.93Y-139.57
T17
X122.5Y-52.0
X122.5Y-142.0
X210.0Y-52.0
X210.0Y-142.0
T0
M30
